%TF.GenerationSoftware,KiCad,Pcbnew,9.0.4*%
%TF.CreationDate,2025-10-20T13:27:51-05:00*%
%TF.ProjectId,Lab 7 Custom PCB Buck Converter,4c616220-3720-4437-9573-746f6d205043,rev?*%
%TF.SameCoordinates,Original*%
%TF.FileFunction,Copper,L2,Bot*%
%TF.FilePolarity,Positive*%
%FSLAX46Y46*%
G04 Gerber Fmt 4.6, Leading zero omitted, Abs format (unit mm)*
G04 Created by KiCad (PCBNEW 9.0.4) date 2025-10-20 13:27:51*
%MOMM*%
%LPD*%
G01*
G04 APERTURE LIST*
G04 Aperture macros list*
%AMRoundRect*
0 Rectangle with rounded corners*
0 $1 Rounding radius*
0 $2 $3 $4 $5 $6 $7 $8 $9 X,Y pos of 4 corners*
0 Add a 4 corners polygon primitive as box body*
4,1,4,$2,$3,$4,$5,$6,$7,$8,$9,$2,$3,0*
0 Add four circle primitives for the rounded corners*
1,1,$1+$1,$2,$3*
1,1,$1+$1,$4,$5*
1,1,$1+$1,$6,$7*
1,1,$1+$1,$8,$9*
0 Add four rect primitives between the rounded corners*
20,1,$1+$1,$2,$3,$4,$5,0*
20,1,$1+$1,$4,$5,$6,$7,0*
20,1,$1+$1,$6,$7,$8,$9,0*
20,1,$1+$1,$8,$9,$2,$3,0*%
G04 Aperture macros list end*
%TA.AperFunction,ComponentPad*%
%ADD10RoundRect,0.250000X-1.550000X0.750000X-1.550000X-0.750000X1.550000X-0.750000X1.550000X0.750000X0*%
%TD*%
%TA.AperFunction,ComponentPad*%
%ADD11O,3.600000X2.000000*%
%TD*%
%TA.AperFunction,ComponentPad*%
%ADD12C,1.600000*%
%TD*%
%TA.AperFunction,ComponentPad*%
%ADD13R,2.000000X1.905000*%
%TD*%
%TA.AperFunction,ComponentPad*%
%ADD14O,2.000000X1.905000*%
%TD*%
%TA.AperFunction,ComponentPad*%
%ADD15C,2.800000*%
%TD*%
%TA.AperFunction,ComponentPad*%
%ADD16RoundRect,0.250000X1.550000X-0.750000X1.550000X0.750000X-1.550000X0.750000X-1.550000X-0.750000X0*%
%TD*%
%TA.AperFunction,ComponentPad*%
%ADD17R,1.800000X1.800000*%
%TD*%
%TA.AperFunction,ComponentPad*%
%ADD18C,1.800000*%
%TD*%
%TA.AperFunction,ComponentPad*%
%ADD19O,1.600000X2.500000*%
%TD*%
%TA.AperFunction,ComponentPad*%
%ADD20O,3.500000X7.000000*%
%TD*%
%TA.AperFunction,ComponentPad*%
%ADD21C,2.400000*%
%TD*%
%TA.AperFunction,ComponentPad*%
%ADD22R,1.905000X2.000000*%
%TD*%
%TA.AperFunction,ComponentPad*%
%ADD23O,1.905000X2.000000*%
%TD*%
%TA.AperFunction,ViaPad*%
%ADD24C,0.600000*%
%TD*%
%TA.AperFunction,ViaPad*%
%ADD25C,4.000000*%
%TD*%
%TA.AperFunction,Conductor*%
%ADD26C,0.700000*%
%TD*%
G04 APERTURE END LIST*
D10*
%TO.P,10VD1,1,Pin_1*%
%TO.N,10V*%
X102777500Y-115000000D03*
D11*
%TO.P,10VD1,2,Pin_2*%
%TO.N,GND*%
X102777500Y-120000000D03*
%TD*%
D12*
%TO.P,C4,1*%
%TO.N,10V*%
X169000000Y-131250000D03*
%TO.P,C4,2*%
%TO.N,GND*%
X169000000Y-133750000D03*
%TD*%
%TO.P,C5,1*%
%TO.N,BOOT*%
X129750000Y-84000000D03*
%TO.P,C5,2*%
%TO.N,SW*%
X127250000Y-84000000D03*
%TD*%
D10*
%TO.P,Vin1,1,Pin_1*%
%TO.N,Vin+*%
X102277500Y-93000000D03*
D11*
%TO.P,Vin1,2,Pin_2*%
%TO.N,GND*%
X102277500Y-98000000D03*
%TD*%
D13*
%TO.P,Q1,1,G*%
%TO.N,Net-(Q1-G)*%
X152050000Y-82460000D03*
D14*
%TO.P,Q1,2,D*%
%TO.N,Vin+*%
X152050000Y-85000000D03*
%TO.P,Q1,3,S*%
%TO.N,SW*%
X152050000Y-87540000D03*
%TD*%
D15*
%TO.P,GND_T7,1,1*%
%TO.N,GND*%
X213000000Y-118000000D03*
%TD*%
%TO.P,Vin_T1,1,1*%
%TO.N,Vin+*%
X116000000Y-68000000D03*
%TD*%
%TO.P,GND_T6,1,1*%
%TO.N,GND*%
X212500000Y-94500000D03*
%TD*%
D12*
%TO.P,C2,1*%
%TO.N,Vout+*%
X181277500Y-99250000D03*
%TO.P,C2,2*%
%TO.N,Vout-*%
X181277500Y-96750000D03*
%TD*%
%TO.P,C7,1*%
%TO.N,Vin+*%
X173000000Y-85000000D03*
%TO.P,C7,2*%
%TO.N,GND*%
X173000000Y-82500000D03*
%TD*%
D15*
%TO.P,10V_T2,1,1*%
%TO.N,10V*%
X134500000Y-68000000D03*
%TD*%
%TO.P,GND_T5,1,1*%
%TO.N,GND*%
X202000000Y-68000000D03*
%TD*%
D12*
%TO.P,R4,1*%
%TO.N,HIGHDR*%
X137500000Y-87660000D03*
%TO.P,R4,2*%
%TO.N,Net-(Q1-G)*%
X137500000Y-77500000D03*
%TD*%
D15*
%TO.P,LOW_Vds_T5,1,1*%
%TO.N,SW*%
X194500000Y-68000000D03*
%TD*%
D16*
%TO.P,Vout1,1,Pin_1*%
%TO.N,Vout+*%
X190722500Y-102500000D03*
D11*
%TO.P,Vout1,2,Pin_2*%
%TO.N,Vout-*%
X190722500Y-97500000D03*
%TD*%
D15*
%TO.P,OPAMP_OUT_T8,1,1*%
%TO.N,OPAMP_OUT*%
X119500000Y-139000000D03*
%TD*%
%TO.P,GND_T8,1,1*%
%TO.N,GND*%
X128000000Y-139000000D03*
%TD*%
D12*
%TO.P,C1,1*%
%TO.N,Vin+*%
X144500000Y-90750000D03*
%TO.P,C1,2*%
%TO.N,GND*%
X144500000Y-88250000D03*
%TD*%
D15*
%TO.P,GND_T3,1,1*%
%TO.N,GND*%
X162500000Y-68000000D03*
%TD*%
%TO.P,V_1l_T7,1,1*%
%TO.N,Vout-*%
X213000000Y-111000000D03*
%TD*%
D17*
%TO.P,L1,1,1*%
%TO.N,unconnected-(L1-Pad1)*%
X166000000Y-102000000D03*
D18*
%TO.P,L1,2,2*%
%TO.N,SW*%
X171000000Y-102000000D03*
%TO.P,L1,3,3*%
%TO.N,Vout+*%
X166000000Y-98000000D03*
%TO.P,L1,4,4*%
%TO.N,unconnected-(L1-Pad4)*%
X171000000Y-98000000D03*
%TD*%
D15*
%TO.P,GND_T2,1,1*%
%TO.N,GND*%
X142000000Y-68000000D03*
%TD*%
D19*
%TO.P,PWM1,1,In*%
%TO.N,PWM*%
X97920000Y-74580000D03*
D20*
%TO.P,PWM1,2,Ext*%
%TO.N,GND*%
X92840000Y-69500000D03*
D19*
X95380000Y-74580000D03*
D20*
X103000000Y-69500000D03*
%TD*%
D21*
%TO.P,R1,1*%
%TO.N,GND*%
X143020000Y-117000000D03*
%TO.P,R1,2*%
%TO.N,Vout-*%
X173500000Y-117000000D03*
%TD*%
D15*
%TO.P,GND_T1,1,1*%
%TO.N,GND*%
X123000000Y-68000000D03*
%TD*%
D12*
%TO.P,R3,1*%
%TO.N,Net-(U1A--)*%
X138605000Y-128500000D03*
%TO.P,R3,2*%
%TO.N,OPAMP_OUT*%
X148765000Y-128500000D03*
%TD*%
D15*
%TO.P,GND_T4,1,1*%
%TO.N,GND*%
X182500000Y-68000000D03*
%TD*%
%TO.P,LOWDR_T4,1,1*%
%TO.N,LOWDR*%
X175500000Y-68000000D03*
%TD*%
D22*
%TO.P,Q2,1,G*%
%TO.N,Net-(Q2-G)*%
X147420000Y-99000000D03*
D23*
%TO.P,Q2,2,D*%
%TO.N,SW*%
X149960000Y-99000000D03*
%TO.P,Q2,3,S*%
%TO.N,GND*%
X152500000Y-99000000D03*
%TD*%
D12*
%TO.P,R5,1*%
%TO.N,LOWDR*%
X134765000Y-111580000D03*
%TO.P,R5,2*%
%TO.N,Net-(Q2-G)*%
X134765000Y-101420000D03*
%TD*%
%TO.P,C3,1*%
%TO.N,GND*%
X125265000Y-102000000D03*
%TO.P,C3,2*%
%TO.N,10V*%
X127765000Y-102000000D03*
%TD*%
D15*
%TO.P,Vout_T6,1,1*%
%TO.N,Vout+*%
X212500000Y-87500000D03*
%TD*%
%TO.P,PWM_T3,1,1*%
%TO.N,PWM*%
X155500000Y-68000000D03*
%TD*%
D12*
%TO.P,R2,1*%
%TO.N,GND*%
X138685000Y-135500000D03*
%TO.P,R2,2*%
%TO.N,Net-(U1A--)*%
X148845000Y-135500000D03*
%TD*%
%TO.P,C6,1*%
%TO.N,Vin+*%
X163500000Y-85000000D03*
%TO.P,C6,2*%
%TO.N,GND*%
X163500000Y-82500000D03*
%TD*%
D24*
%TO.N,10V*%
X161000000Y-130000000D03*
%TO.N,GND*%
X132000000Y-93500000D03*
%TO.N,10V*%
X129500000Y-96000000D03*
%TO.N,SW*%
X137000000Y-95000000D03*
X132000000Y-95000000D03*
%TO.N,Vout-*%
X183000000Y-102500000D03*
D25*
%TO.N,*%
X84000000Y-140500000D03*
X218000000Y-65500000D03*
X217500000Y-140000000D03*
X83500000Y-65500000D03*
D24*
%TO.N,10V*%
X129500000Y-100000000D03*
X169500000Y-129000000D03*
%TO.N,GND*%
X122500000Y-101550000D03*
X153000000Y-135500000D03*
%TO.N,Vout-*%
X173000000Y-120000000D03*
%TO.N,SW*%
X127500000Y-89000000D03*
%TO.N,BOOT*%
X130313000Y-86500000D03*
X137265000Y-92460000D03*
%TD*%
D26*
%TO.N,Vout-*%
X173000000Y-120000000D02*
X183000000Y-110000000D01*
%TO.N,10V*%
X161000000Y-130000000D02*
X133000000Y-102000000D01*
X169500000Y-129000000D02*
X168500000Y-130000000D01*
X168500000Y-130000000D02*
X161000000Y-130000000D01*
X129500000Y-100000000D02*
X129500000Y-96000000D01*
X133000000Y-102000000D02*
X127765000Y-102000000D01*
%TO.N,GND*%
X153000000Y-135500000D02*
X154750000Y-133750000D01*
X127873206Y-88099000D02*
X132000000Y-92225794D01*
X154750000Y-133750000D02*
X169000000Y-133750000D01*
X132000000Y-92225794D02*
X132000000Y-93500000D01*
X127126794Y-88099000D02*
X127873206Y-88099000D01*
X122500000Y-101550000D02*
X122500000Y-92725794D01*
X122500000Y-92725794D02*
X127126794Y-88099000D01*
%TO.N,SW*%
X127500000Y-90500000D02*
X132000000Y-95000000D01*
X127500000Y-89000000D02*
X127500000Y-90500000D01*
X132000000Y-95000000D02*
X137000000Y-95000000D01*
%TO.N,BOOT*%
X130313000Y-86500000D02*
X131305000Y-86500000D01*
X131305000Y-86500000D02*
X137265000Y-92460000D01*
%TO.N,Vout-*%
X183000000Y-110000000D02*
X183000000Y-102500000D01*
%TD*%
%TA.AperFunction,Conductor*%
%TO.N,GND*%
G36*
X221942539Y-61520185D02*
G01*
X221988294Y-61572989D01*
X221999500Y-61624500D01*
X221999500Y-144375500D01*
X221979815Y-144442539D01*
X221927011Y-144488294D01*
X221875500Y-144499500D01*
X79124500Y-144499500D01*
X79057461Y-144479815D01*
X79011706Y-144427011D01*
X79000500Y-144375500D01*
X79000500Y-140359568D01*
X81499500Y-140359568D01*
X81499500Y-140640431D01*
X81530942Y-140919494D01*
X81530945Y-140919512D01*
X81593439Y-141193317D01*
X81593443Y-141193329D01*
X81686200Y-141458411D01*
X81808053Y-141711442D01*
X81808055Y-141711445D01*
X81957477Y-141949248D01*
X82132584Y-142168825D01*
X82331175Y-142367416D01*
X82550752Y-142542523D01*
X82788555Y-142691945D01*
X83041592Y-142813801D01*
X83240680Y-142883465D01*
X83306670Y-142906556D01*
X83306682Y-142906560D01*
X83580491Y-142969055D01*
X83580497Y-142969055D01*
X83580505Y-142969057D01*
X83766547Y-142990018D01*
X83859569Y-143000499D01*
X83859572Y-143000500D01*
X83859575Y-143000500D01*
X84140428Y-143000500D01*
X84140429Y-143000499D01*
X84283055Y-142984429D01*
X84419494Y-142969057D01*
X84419499Y-142969056D01*
X84419509Y-142969055D01*
X84693318Y-142906560D01*
X84958408Y-142813801D01*
X85211445Y-142691945D01*
X85449248Y-142542523D01*
X85668825Y-142367416D01*
X85867416Y-142168825D01*
X86042523Y-141949248D01*
X86191945Y-141711445D01*
X86313801Y-141458408D01*
X86406560Y-141193318D01*
X86469055Y-140919509D01*
X86500500Y-140640425D01*
X86500500Y-140359575D01*
X86469055Y-140080491D01*
X86406560Y-139806682D01*
X86393464Y-139769257D01*
X86327412Y-139580491D01*
X86313801Y-139541592D01*
X86223246Y-139353553D01*
X86191946Y-139288557D01*
X86088909Y-139124575D01*
X86042523Y-139050752D01*
X85902717Y-138875441D01*
X117599500Y-138875441D01*
X117599500Y-139124558D01*
X117599501Y-139124575D01*
X117632017Y-139371561D01*
X117696498Y-139612207D01*
X117791830Y-139842361D01*
X117791837Y-139842376D01*
X117916400Y-140058126D01*
X118068060Y-140255774D01*
X118068066Y-140255781D01*
X118244218Y-140431933D01*
X118244225Y-140431939D01*
X118441873Y-140583599D01*
X118657623Y-140708162D01*
X118657638Y-140708169D01*
X118756825Y-140749253D01*
X118887793Y-140803502D01*
X119128435Y-140867982D01*
X119375435Y-140900500D01*
X119375442Y-140900500D01*
X119624558Y-140900500D01*
X119624565Y-140900500D01*
X119871565Y-140867982D01*
X120112207Y-140803502D01*
X120342373Y-140708164D01*
X120558127Y-140583599D01*
X120755776Y-140431938D01*
X120768220Y-140419494D01*
X120814750Y-140372965D01*
X120931933Y-140255781D01*
X120931938Y-140255776D01*
X121083599Y-140058127D01*
X121208164Y-139842373D01*
X121303502Y-139612207D01*
X121367982Y-139371565D01*
X121400500Y-139124565D01*
X121400500Y-138875466D01*
X126100000Y-138875466D01*
X126100000Y-139124533D01*
X126132508Y-139371463D01*
X126196973Y-139612049D01*
X126292283Y-139842148D01*
X126292288Y-139842159D01*
X126416813Y-140057841D01*
X126416819Y-140057849D01*
X126491400Y-140155045D01*
X127284152Y-139362292D01*
X127291049Y-139378942D01*
X127378599Y-139509970D01*
X127490030Y-139621401D01*
X127621058Y-139708951D01*
X127637705Y-139715846D01*
X126844953Y-140508598D01*
X126942150Y-140583180D01*
X126942158Y-140583186D01*
X127157840Y-140707711D01*
X127157851Y-140707716D01*
X127387950Y-140803026D01*
X127628536Y-140867491D01*
X127875466Y-140900000D01*
X128124534Y-140900000D01*
X128371463Y-140867491D01*
X128612049Y-140803026D01*
X128842148Y-140707716D01*
X128842159Y-140707711D01*
X129057855Y-140583178D01*
X129155045Y-140508600D01*
X129155045Y-140508597D01*
X128362294Y-139715846D01*
X128378942Y-139708951D01*
X128509970Y-139621401D01*
X128621401Y-139509970D01*
X128708951Y-139378942D01*
X128715846Y-139362294D01*
X129508597Y-140155045D01*
X129508600Y-140155045D01*
X129583178Y-140057855D01*
X129697660Y-139859568D01*
X214999500Y-139859568D01*
X214999500Y-140140431D01*
X215030942Y-140419494D01*
X215030945Y-140419512D01*
X215093439Y-140693317D01*
X215093443Y-140693329D01*
X215186200Y-140958411D01*
X215308053Y-141211442D01*
X215308055Y-141211445D01*
X215457477Y-141449248D01*
X215632584Y-141668825D01*
X215831175Y-141867416D01*
X216050752Y-142042523D01*
X216288555Y-142191945D01*
X216541592Y-142313801D01*
X216694815Y-142367416D01*
X216806670Y-142406556D01*
X216806682Y-142406560D01*
X217080491Y-142469055D01*
X217080497Y-142469055D01*
X217080505Y-142469057D01*
X217266547Y-142490018D01*
X217359569Y-142500499D01*
X217359572Y-142500500D01*
X217359575Y-142500500D01*
X217640428Y-142500500D01*
X217640429Y-142500499D01*
X217783055Y-142484429D01*
X217919494Y-142469057D01*
X217919499Y-142469056D01*
X217919509Y-142469055D01*
X218193318Y-142406560D01*
X218458408Y-142313801D01*
X218711445Y-142191945D01*
X218949248Y-142042523D01*
X219168825Y-141867416D01*
X219367416Y-141668825D01*
X219542523Y-141449248D01*
X219691945Y-141211445D01*
X219813801Y-140958408D01*
X219906560Y-140693318D01*
X219969055Y-140419509D01*
X220000500Y-140140425D01*
X220000500Y-139859575D01*
X219983529Y-139708951D01*
X219969057Y-139580505D01*
X219969054Y-139580487D01*
X219960176Y-139541592D01*
X219906560Y-139306682D01*
X219813801Y-139041592D01*
X219691945Y-138788555D01*
X219542523Y-138550752D01*
X219367416Y-138331175D01*
X219168825Y-138132584D01*
X218949248Y-137957477D01*
X218711445Y-137808055D01*
X218711442Y-137808053D01*
X218458411Y-137686200D01*
X218193329Y-137593443D01*
X218193317Y-137593439D01*
X217919512Y-137530945D01*
X217919494Y-137530942D01*
X217640431Y-137499500D01*
X217640425Y-137499500D01*
X217359575Y-137499500D01*
X217359568Y-137499500D01*
X217080505Y-137530942D01*
X217080487Y-137530945D01*
X216806682Y-137593439D01*
X216806670Y-137593443D01*
X216541588Y-137686200D01*
X216288557Y-137808053D01*
X216050753Y-137957476D01*
X215831175Y-138132583D01*
X215632583Y-138331175D01*
X215457476Y-138550753D01*
X215308053Y-138788557D01*
X215186200Y-139041588D01*
X215093443Y-139306670D01*
X215093439Y-139306682D01*
X215030945Y-139580487D01*
X215030942Y-139580505D01*
X214999500Y-139859568D01*
X129697660Y-139859568D01*
X129707711Y-139842159D01*
X129707719Y-139842143D01*
X129721595Y-139808644D01*
X129721595Y-139808643D01*
X129803026Y-139612049D01*
X129867491Y-139371463D01*
X129900000Y-139124533D01*
X129900000Y-138875466D01*
X129867491Y-138628536D01*
X129803026Y-138387950D01*
X129707716Y-138157851D01*
X129707711Y-138157840D01*
X129583186Y-137942158D01*
X129583180Y-137942150D01*
X129508598Y-137844953D01*
X128715846Y-138637705D01*
X128708951Y-138621058D01*
X128621401Y-138490030D01*
X128509970Y-138378599D01*
X128378942Y-138291049D01*
X128362292Y-138284152D01*
X129155045Y-137491400D01*
X129057849Y-137416819D01*
X129057841Y-137416813D01*
X128842159Y-137292288D01*
X128842148Y-137292283D01*
X128612049Y-137196973D01*
X128371463Y-137132508D01*
X128124534Y-137100000D01*
X127875466Y-137100000D01*
X127628536Y-137132508D01*
X127387950Y-137196973D01*
X127157851Y-137292283D01*
X127157847Y-137292285D01*
X126942143Y-137416823D01*
X126844953Y-137491399D01*
X126844953Y-137491400D01*
X127637706Y-138284153D01*
X127621058Y-138291049D01*
X127490030Y-138378599D01*
X127378599Y-138490030D01*
X127291049Y-138621058D01*
X127284153Y-138637706D01*
X126491400Y-137844953D01*
X126491399Y-137844953D01*
X126416823Y-137942143D01*
X126292285Y-138157847D01*
X126292283Y-138157851D01*
X126196973Y-138387950D01*
X126132508Y-138628536D01*
X126100000Y-138875466D01*
X121400500Y-138875466D01*
X121400500Y-138875435D01*
X121367982Y-138628435D01*
X121303502Y-138387793D01*
X121238450Y-138230743D01*
X121208169Y-138157638D01*
X121208162Y-138157623D01*
X121083599Y-137941873D01*
X120931939Y-137744225D01*
X120931933Y-137744218D01*
X120755781Y-137568066D01*
X120755774Y-137568060D01*
X120558126Y-137416400D01*
X120342376Y-137291837D01*
X120342361Y-137291830D01*
X120112207Y-137196498D01*
X119871565Y-137132018D01*
X119871564Y-137132017D01*
X119871561Y-137132017D01*
X119624575Y-137099501D01*
X119624570Y-137099500D01*
X119624565Y-137099500D01*
X119375435Y-137099500D01*
X119375429Y-137099500D01*
X119375424Y-137099501D01*
X119128438Y-137132017D01*
X118887792Y-137196498D01*
X118657638Y-137291830D01*
X118657623Y-137291837D01*
X118441873Y-137416400D01*
X118244225Y-137568060D01*
X118244218Y-137568066D01*
X118068066Y-137744218D01*
X118068060Y-137744225D01*
X117916400Y-137941873D01*
X117791837Y-138157623D01*
X117791830Y-138157638D01*
X117696498Y-138387792D01*
X117632017Y-138628438D01*
X117599501Y-138875424D01*
X117599500Y-138875441D01*
X85902717Y-138875441D01*
X85867416Y-138831175D01*
X85668825Y-138632584D01*
X85663622Y-138628435D01*
X85490068Y-138490030D01*
X85449248Y-138457477D01*
X85211445Y-138308055D01*
X85211442Y-138308053D01*
X84958411Y-138186200D01*
X84693329Y-138093443D01*
X84693317Y-138093439D01*
X84419512Y-138030945D01*
X84419494Y-138030942D01*
X84140431Y-137999500D01*
X84140425Y-137999500D01*
X83859575Y-137999500D01*
X83859568Y-137999500D01*
X83580505Y-138030942D01*
X83580487Y-138030945D01*
X83306682Y-138093439D01*
X83306670Y-138093443D01*
X83041588Y-138186200D01*
X82788557Y-138308053D01*
X82550753Y-138457476D01*
X82331175Y-138632583D01*
X82132583Y-138831175D01*
X81957476Y-139050753D01*
X81808053Y-139288557D01*
X81686200Y-139541588D01*
X81593443Y-139806670D01*
X81593439Y-139806682D01*
X81530945Y-140080487D01*
X81530942Y-140080505D01*
X81499500Y-140359568D01*
X79000500Y-140359568D01*
X79000500Y-135397682D01*
X137385000Y-135397682D01*
X137385000Y-135602317D01*
X137417009Y-135804417D01*
X137480244Y-135999031D01*
X137573141Y-136181350D01*
X137573147Y-136181359D01*
X137605523Y-136225921D01*
X137605524Y-136225922D01*
X138285000Y-135546446D01*
X138285000Y-135552661D01*
X138312259Y-135654394D01*
X138364920Y-135745606D01*
X138439394Y-135820080D01*
X138530606Y-135872741D01*
X138632339Y-135900000D01*
X138638553Y-135900000D01*
X137959076Y-136579474D01*
X138003650Y-136611859D01*
X138185968Y-136704755D01*
X138380582Y-136767990D01*
X138582683Y-136800000D01*
X138787317Y-136800000D01*
X138989417Y-136767990D01*
X139184031Y-136704755D01*
X139366349Y-136611859D01*
X139410921Y-136579474D01*
X138731447Y-135900000D01*
X138737661Y-135900000D01*
X138839394Y-135872741D01*
X138930606Y-135820080D01*
X139005080Y-135745606D01*
X139057741Y-135654394D01*
X139085000Y-135552661D01*
X139085000Y-135546448D01*
X139764474Y-136225922D01*
X139764474Y-136225921D01*
X139796859Y-136181349D01*
X139889755Y-135999031D01*
X139952990Y-135804417D01*
X139985000Y-135602317D01*
X139985000Y-135397682D01*
X139984995Y-135397648D01*
X147544500Y-135397648D01*
X147544500Y-135602351D01*
X147576522Y-135804534D01*
X147639781Y-135999223D01*
X147703691Y-136124653D01*
X147732585Y-136181359D01*
X147732715Y-136181613D01*
X147853028Y-136347213D01*
X147997786Y-136491971D01*
X148118226Y-136579474D01*
X148163390Y-136612287D01*
X148279607Y-136671503D01*
X148345776Y-136705218D01*
X148345778Y-136705218D01*
X148345781Y-136705220D01*
X148450137Y-136739127D01*
X148540465Y-136768477D01*
X148641557Y-136784488D01*
X148742648Y-136800500D01*
X148742649Y-136800500D01*
X148947351Y-136800500D01*
X148947352Y-136800500D01*
X149149534Y-136768477D01*
X149344219Y-136705220D01*
X149526610Y-136612287D01*
X149619590Y-136544732D01*
X149692213Y-136491971D01*
X149692215Y-136491968D01*
X149692219Y-136491966D01*
X149836966Y-136347219D01*
X149836968Y-136347215D01*
X149836971Y-136347213D01*
X149889732Y-136274590D01*
X149957287Y-136181610D01*
X150050220Y-135999219D01*
X150113477Y-135804534D01*
X150145500Y-135602352D01*
X150145500Y-135397648D01*
X150137257Y-135345606D01*
X150113477Y-135195465D01*
X150066212Y-135050000D01*
X150050220Y-135000781D01*
X150050218Y-135000778D01*
X150050218Y-135000776D01*
X149967539Y-134838510D01*
X149957285Y-134818386D01*
X149836971Y-134652786D01*
X149692213Y-134508028D01*
X149526613Y-134387715D01*
X149526612Y-134387714D01*
X149526610Y-134387713D01*
X149469653Y-134358691D01*
X149344223Y-134294781D01*
X149149534Y-134231522D01*
X148974995Y-134203878D01*
X148947352Y-134199500D01*
X148742648Y-134199500D01*
X148718329Y-134203351D01*
X148540465Y-134231522D01*
X148345776Y-134294781D01*
X148163386Y-134387715D01*
X147997786Y-134508028D01*
X147853028Y-134652786D01*
X147732715Y-134818386D01*
X147639781Y-135000776D01*
X147576522Y-135195465D01*
X147544500Y-135397648D01*
X139984995Y-135397648D01*
X139952990Y-135195582D01*
X139889755Y-135000968D01*
X139796859Y-134818650D01*
X139764474Y-134774077D01*
X139764474Y-134774076D01*
X139085000Y-135453551D01*
X139085000Y-135447339D01*
X139057741Y-135345606D01*
X139005080Y-135254394D01*
X138930606Y-135179920D01*
X138839394Y-135127259D01*
X138737661Y-135100000D01*
X138731446Y-135100000D01*
X139410922Y-134420524D01*
X139410921Y-134420523D01*
X139366359Y-134388147D01*
X139366350Y-134388141D01*
X139184031Y-134295244D01*
X138989417Y-134232009D01*
X138787317Y-134200000D01*
X138582683Y-134200000D01*
X138380582Y-134232009D01*
X138185968Y-134295244D01*
X138003644Y-134388143D01*
X137959077Y-134420523D01*
X137959077Y-134420524D01*
X138638554Y-135100000D01*
X138632339Y-135100000D01*
X138530606Y-135127259D01*
X138439394Y-135179920D01*
X138364920Y-135254394D01*
X138312259Y-135345606D01*
X138285000Y-135447339D01*
X138285000Y-135453553D01*
X137605524Y-134774077D01*
X137605523Y-134774077D01*
X137573143Y-134818644D01*
X137480244Y-135000968D01*
X137417009Y-135195582D01*
X137385000Y-135397682D01*
X79000500Y-135397682D01*
X79000500Y-128397648D01*
X137304500Y-128397648D01*
X137304500Y-128602351D01*
X137336522Y-128804534D01*
X137399781Y-128999223D01*
X137492715Y-129181613D01*
X137613028Y-129347213D01*
X137757786Y-129491971D01*
X137912749Y-129604556D01*
X137923390Y-129612287D01*
X138039607Y-129671503D01*
X138105776Y-129705218D01*
X138105778Y-129705218D01*
X138105781Y-129705220D01*
X138210137Y-129739127D01*
X138300465Y-129768477D01*
X138401557Y-129784488D01*
X138502648Y-129800500D01*
X138502649Y-129800500D01*
X138707351Y-129800500D01*
X138707352Y-129800500D01*
X138909534Y-129768477D01*
X139104219Y-129705220D01*
X139286610Y-129612287D01*
X139383136Y-129542157D01*
X139452213Y-129491971D01*
X139452215Y-129491968D01*
X139452219Y-129491966D01*
X139596966Y-129347219D01*
X139596968Y-129347215D01*
X139596971Y-129347213D01*
X139649732Y-129274590D01*
X139717287Y-129181610D01*
X139810220Y-128999219D01*
X139873477Y-128804534D01*
X139905500Y-128602352D01*
X139905500Y-128397648D01*
X147464500Y-128397648D01*
X147464500Y-128602351D01*
X147496522Y-128804534D01*
X147559781Y-128999223D01*
X147652715Y-129181613D01*
X147773028Y-129347213D01*
X147917786Y-129491971D01*
X148072749Y-129604556D01*
X148083390Y-129612287D01*
X148199607Y-129671503D01*
X148265776Y-129705218D01*
X148265778Y-129705218D01*
X148265781Y-129705220D01*
X148370137Y-129739127D01*
X148460465Y-129768477D01*
X148561557Y-129784488D01*
X148662648Y-129800500D01*
X148662649Y-129800500D01*
X148867351Y-129800500D01*
X148867352Y-129800500D01*
X149069534Y-129768477D01*
X149264219Y-129705220D01*
X149446610Y-129612287D01*
X149543136Y-129542157D01*
X149612213Y-129491971D01*
X149612215Y-129491968D01*
X149612219Y-129491966D01*
X149756966Y-129347219D01*
X149756968Y-129347215D01*
X149756971Y-129347213D01*
X149809732Y-129274590D01*
X149877287Y-129181610D01*
X149970220Y-128999219D01*
X150033477Y-128804534D01*
X150065500Y-128602352D01*
X150065500Y-128397648D01*
X150041528Y-128246296D01*
X150033477Y-128195465D01*
X149970218Y-128000776D01*
X149936503Y-127934607D01*
X149877287Y-127818390D01*
X149869556Y-127807749D01*
X149756971Y-127652786D01*
X149612213Y-127508028D01*
X149446613Y-127387715D01*
X149446612Y-127387714D01*
X149446610Y-127387713D01*
X149389653Y-127358691D01*
X149264223Y-127294781D01*
X149069534Y-127231522D01*
X148894995Y-127203878D01*
X148867352Y-127199500D01*
X148662648Y-127199500D01*
X148638329Y-127203351D01*
X148460465Y-127231522D01*
X148265776Y-127294781D01*
X148083386Y-127387715D01*
X147917786Y-127508028D01*
X147773028Y-127652786D01*
X147652715Y-127818386D01*
X147559781Y-128000776D01*
X147496522Y-128195465D01*
X147464500Y-128397648D01*
X139905500Y-128397648D01*
X139881528Y-128246296D01*
X139873477Y-128195465D01*
X139810218Y-128000776D01*
X139776503Y-127934607D01*
X139717287Y-127818390D01*
X139709556Y-127807749D01*
X139596971Y-127652786D01*
X139452213Y-127508028D01*
X139286613Y-127387715D01*
X139286612Y-127387714D01*
X139286610Y-127387713D01*
X139229653Y-127358691D01*
X139104223Y-127294781D01*
X138909534Y-127231522D01*
X138734995Y-127203878D01*
X138707352Y-127199500D01*
X138502648Y-127199500D01*
X138478329Y-127203351D01*
X138300465Y-127231522D01*
X138105776Y-127294781D01*
X137923386Y-127387715D01*
X137757786Y-127508028D01*
X137613028Y-127652786D01*
X137492715Y-127818386D01*
X137399781Y-128000776D01*
X137336522Y-128195465D01*
X137304500Y-128397648D01*
X79000500Y-128397648D01*
X79000500Y-119750000D01*
X100498398Y-119750000D01*
X102123379Y-119750000D01*
X102104401Y-119795818D01*
X102077500Y-119931056D01*
X102077500Y-120068944D01*
X102104401Y-120204182D01*
X102123379Y-120250000D01*
X100498398Y-120250000D01*
X100514434Y-120351247D01*
X100587397Y-120575802D01*
X100694585Y-120786171D01*
X100833366Y-120977186D01*
X101000313Y-121144133D01*
X101191328Y-121282914D01*
X101401697Y-121390102D01*
X101626252Y-121463065D01*
X101626251Y-121463065D01*
X101859448Y-121500000D01*
X102527500Y-121500000D01*
X102527500Y-120654120D01*
X102573318Y-120673099D01*
X102708556Y-120700000D01*
X102846444Y-120700000D01*
X102981682Y-120673099D01*
X103027500Y-120654120D01*
X103027500Y-121500000D01*
X103695552Y-121500000D01*
X103928747Y-121463065D01*
X104153302Y-121390102D01*
X104363671Y-121282914D01*
X104554686Y-121144133D01*
X104721633Y-120977186D01*
X104860414Y-120786171D01*
X104967602Y-120575802D01*
X105040565Y-120351247D01*
X105056602Y-120250000D01*
X103431621Y-120250000D01*
X103450599Y-120204182D01*
X103477500Y-120068944D01*
X103477500Y-119931056D01*
X103450599Y-119795818D01*
X103431621Y-119750000D01*
X105056602Y-119750000D01*
X105040565Y-119648752D01*
X104967602Y-119424197D01*
X104860414Y-119213828D01*
X104721633Y-119022813D01*
X104554686Y-118855866D01*
X104363671Y-118717085D01*
X104153302Y-118609897D01*
X103928747Y-118536934D01*
X103928748Y-118536934D01*
X103695552Y-118500000D01*
X103027500Y-118500000D01*
X103027500Y-119345879D01*
X102981682Y-119326901D01*
X102846444Y-119300000D01*
X102708556Y-119300000D01*
X102573318Y-119326901D01*
X102527500Y-119345879D01*
X102527500Y-118500000D01*
X101859448Y-118500000D01*
X101626252Y-118536934D01*
X101401697Y-118609897D01*
X101191328Y-118717085D01*
X101000313Y-118855866D01*
X100833366Y-119022813D01*
X100694585Y-119213828D01*
X100587397Y-119424197D01*
X100514434Y-119648752D01*
X100498398Y-119750000D01*
X79000500Y-119750000D01*
X79000500Y-116888575D01*
X141320000Y-116888575D01*
X141320000Y-117111424D01*
X141349085Y-117332354D01*
X141349088Y-117332367D01*
X141406763Y-117547618D01*
X141492045Y-117753502D01*
X141492054Y-117753520D01*
X141603464Y-117946491D01*
X141603473Y-117946504D01*
X141654040Y-118012403D01*
X141654043Y-118012403D01*
X142455387Y-117211059D01*
X142460889Y-117231591D01*
X142539881Y-117368408D01*
X142651592Y-117480119D01*
X142788409Y-117559111D01*
X142808940Y-117564612D01*
X142007595Y-118365955D01*
X142007595Y-118365956D01*
X142073507Y-118416533D01*
X142266485Y-118527949D01*
X142266497Y-118527954D01*
X142472381Y-118613236D01*
X142687632Y-118670911D01*
X142687645Y-118670914D01*
X142908575Y-118700000D01*
X143131425Y-118700000D01*
X143352354Y-118670914D01*
X143352367Y-118670911D01*
X143567618Y-118613236D01*
X143773502Y-118527954D01*
X143773514Y-118527949D01*
X143966498Y-118416530D01*
X144032403Y-118365957D01*
X144032404Y-118365956D01*
X143231059Y-117564612D01*
X143251591Y-117559111D01*
X143388408Y-117480119D01*
X143500119Y-117368408D01*
X143579111Y-117231591D01*
X143584612Y-117211060D01*
X144385956Y-118012404D01*
X144385957Y-118012403D01*
X144436530Y-117946498D01*
X144547949Y-117753514D01*
X144547954Y-117753502D01*
X144633236Y-117547618D01*
X144690911Y-117332367D01*
X144690914Y-117332354D01*
X144720000Y-117111424D01*
X144720000Y-116888575D01*
X144690914Y-116667645D01*
X144690911Y-116667632D01*
X144633236Y-116452381D01*
X144547954Y-116246497D01*
X144547949Y-116246485D01*
X144436533Y-116053507D01*
X144385956Y-115987595D01*
X144385955Y-115987595D01*
X143584612Y-116788939D01*
X143579111Y-116768409D01*
X143500119Y-116631592D01*
X143388408Y-116519881D01*
X143251591Y-116440889D01*
X143231058Y-116435387D01*
X144032403Y-115634043D01*
X144032403Y-115634040D01*
X143966504Y-115583473D01*
X143966491Y-115583464D01*
X143773520Y-115472054D01*
X143773502Y-115472045D01*
X143567618Y-115386763D01*
X143352367Y-115329088D01*
X143352354Y-115329085D01*
X143131425Y-115300000D01*
X142908575Y-115300000D01*
X142687645Y-115329085D01*
X142687632Y-115329088D01*
X142472381Y-115386763D01*
X142266497Y-115472045D01*
X142266479Y-115472054D01*
X142073511Y-115583462D01*
X142007595Y-115634042D01*
X142808941Y-116435387D01*
X142788409Y-116440889D01*
X142651592Y-116519881D01*
X142539881Y-116631592D01*
X142460889Y-116768409D01*
X142455387Y-116788940D01*
X141654042Y-115987595D01*
X141603462Y-116053511D01*
X141492054Y-116246479D01*
X141492045Y-116246497D01*
X141406763Y-116452381D01*
X141349088Y-116667632D01*
X141349085Y-116667645D01*
X141320000Y-116888575D01*
X79000500Y-116888575D01*
X79000500Y-114199983D01*
X100477000Y-114199983D01*
X100477000Y-115800001D01*
X100477001Y-115800018D01*
X100487500Y-115902796D01*
X100487501Y-115902799D01*
X100515600Y-115987595D01*
X100542686Y-116069334D01*
X100634788Y-116218656D01*
X100758844Y-116342712D01*
X100908166Y-116434814D01*
X101074703Y-116489999D01*
X101177491Y-116500500D01*
X104377508Y-116500499D01*
X104480297Y-116489999D01*
X104646834Y-116434814D01*
X104796156Y-116342712D01*
X104920212Y-116218656D01*
X105012314Y-116069334D01*
X105067499Y-115902797D01*
X105078000Y-115800009D01*
X105077999Y-114199992D01*
X105067499Y-114097203D01*
X105012314Y-113930666D01*
X104920212Y-113781344D01*
X104796156Y-113657288D01*
X104646834Y-113565186D01*
X104480297Y-113510001D01*
X104480295Y-113510000D01*
X104377510Y-113499500D01*
X101177498Y-113499500D01*
X101177481Y-113499501D01*
X101074703Y-113510000D01*
X101074700Y-113510001D01*
X100908168Y-113565185D01*
X100908163Y-113565187D01*
X100758842Y-113657289D01*
X100634789Y-113781342D01*
X100542687Y-113930663D01*
X100542686Y-113930666D01*
X100487501Y-114097203D01*
X100487501Y-114097204D01*
X100487500Y-114097204D01*
X100477000Y-114199983D01*
X79000500Y-114199983D01*
X79000500Y-111477648D01*
X133464500Y-111477648D01*
X133464500Y-111682351D01*
X133496522Y-111884534D01*
X133559781Y-112079223D01*
X133623691Y-112204653D01*
X133649740Y-112255776D01*
X133652715Y-112261613D01*
X133773028Y-112427213D01*
X133917786Y-112571971D01*
X134072749Y-112684556D01*
X134083390Y-112692287D01*
X134199607Y-112751503D01*
X134265776Y-112785218D01*
X134265778Y-112785218D01*
X134265781Y-112785220D01*
X134370137Y-112819127D01*
X134460465Y-112848477D01*
X134561557Y-112864488D01*
X134662648Y-112880500D01*
X134662649Y-112880500D01*
X134867351Y-112880500D01*
X134867352Y-112880500D01*
X135069534Y-112848477D01*
X135264219Y-112785220D01*
X135446610Y-112692287D01*
X135539590Y-112624732D01*
X135612213Y-112571971D01*
X135612215Y-112571968D01*
X135612219Y-112571966D01*
X135756966Y-112427219D01*
X135756968Y-112427215D01*
X135756971Y-112427213D01*
X135809732Y-112354590D01*
X135877287Y-112261610D01*
X135970220Y-112079219D01*
X136033477Y-111884534D01*
X136065500Y-111682352D01*
X136065500Y-111477648D01*
X136033477Y-111275466D01*
X135970220Y-111080781D01*
X135970218Y-111080778D01*
X135970218Y-111080776D01*
X135936503Y-111014607D01*
X135877287Y-110898390D01*
X135860601Y-110875424D01*
X135756971Y-110732786D01*
X135612213Y-110588028D01*
X135446613Y-110467715D01*
X135446612Y-110467714D01*
X135446610Y-110467713D01*
X135389653Y-110438691D01*
X135264223Y-110374781D01*
X135069534Y-110311522D01*
X134894995Y-110283878D01*
X134867352Y-110279500D01*
X134662648Y-110279500D01*
X134638329Y-110283351D01*
X134460465Y-110311522D01*
X134265776Y-110374781D01*
X134083386Y-110467715D01*
X133917786Y-110588028D01*
X133773028Y-110732786D01*
X133652715Y-110898386D01*
X133559781Y-111080776D01*
X133496522Y-111275465D01*
X133464500Y-111477648D01*
X79000500Y-111477648D01*
X79000500Y-101897682D01*
X123965000Y-101897682D01*
X123965000Y-102102317D01*
X123997009Y-102304417D01*
X124060244Y-102499031D01*
X124153141Y-102681350D01*
X124153147Y-102681359D01*
X124185523Y-102725921D01*
X124185524Y-102725922D01*
X124865000Y-102046446D01*
X124865000Y-102052661D01*
X124892259Y-102154394D01*
X124944920Y-102245606D01*
X125019394Y-102320080D01*
X125110606Y-102372741D01*
X125212339Y-102400000D01*
X125218553Y-102400000D01*
X124539076Y-103079474D01*
X124583650Y-103111859D01*
X124765968Y-103204755D01*
X124960582Y-103267990D01*
X125162683Y-103300000D01*
X125367317Y-103300000D01*
X125569417Y-103267990D01*
X125764031Y-103204755D01*
X125946349Y-103111859D01*
X125990921Y-103079474D01*
X125311447Y-102400000D01*
X125317661Y-102400000D01*
X125419394Y-102372741D01*
X125510606Y-102320080D01*
X125585080Y-102245606D01*
X125637741Y-102154394D01*
X125665000Y-102052661D01*
X125665000Y-102046447D01*
X126344474Y-102725921D01*
X126376859Y-102681349D01*
X126404233Y-102627624D01*
X126452207Y-102576827D01*
X126520028Y-102560031D01*
X126586163Y-102582567D01*
X126625203Y-102627621D01*
X126652713Y-102681611D01*
X126773028Y-102847213D01*
X126917786Y-102991971D01*
X127038226Y-103079474D01*
X127083390Y-103112287D01*
X127199607Y-103171503D01*
X127265776Y-103205218D01*
X127265778Y-103205218D01*
X127265781Y-103205220D01*
X127370137Y-103239127D01*
X127460465Y-103268477D01*
X127561557Y-103284488D01*
X127662648Y-103300500D01*
X127662649Y-103300500D01*
X127867351Y-103300500D01*
X127867352Y-103300500D01*
X128069534Y-103268477D01*
X128264219Y-103205220D01*
X128446610Y-103112287D01*
X128590862Y-103007483D01*
X128612213Y-102991971D01*
X128612215Y-102991968D01*
X128612219Y-102991966D01*
X128717366Y-102886819D01*
X128778689Y-102853334D01*
X128805047Y-102850500D01*
X132596349Y-102850500D01*
X132663388Y-102870185D01*
X132684030Y-102886819D01*
X160457834Y-130660624D01*
X160457838Y-130660627D01*
X160597137Y-130753704D01*
X160597139Y-130753705D01*
X160597143Y-130753707D01*
X160679222Y-130787703D01*
X160706584Y-130799037D01*
X160751918Y-130817816D01*
X160916228Y-130850499D01*
X160916232Y-130850500D01*
X160916233Y-130850500D01*
X167601379Y-130850500D01*
X167668418Y-130870185D01*
X167714173Y-130922989D01*
X167724117Y-130992147D01*
X167723852Y-130993898D01*
X167699500Y-131147648D01*
X167699500Y-131352351D01*
X167731522Y-131554534D01*
X167794781Y-131749223D01*
X167887715Y-131931613D01*
X168008028Y-132097213D01*
X168152786Y-132241971D01*
X168318385Y-132362284D01*
X168318387Y-132362285D01*
X168318390Y-132362287D01*
X168372378Y-132389795D01*
X168423174Y-132437769D01*
X168439969Y-132505590D01*
X168417432Y-132571725D01*
X168372378Y-132610765D01*
X168318644Y-132638143D01*
X168274077Y-132670523D01*
X168274077Y-132670524D01*
X168953554Y-133350000D01*
X168947339Y-133350000D01*
X168845606Y-133377259D01*
X168754394Y-133429920D01*
X168679920Y-133504394D01*
X168627259Y-133595606D01*
X168600000Y-133697339D01*
X168600000Y-133703553D01*
X167920524Y-133024077D01*
X167920523Y-133024077D01*
X167888143Y-133068644D01*
X167795244Y-133250968D01*
X167732009Y-133445582D01*
X167700000Y-133647682D01*
X167700000Y-133852317D01*
X167732009Y-134054417D01*
X167795244Y-134249031D01*
X167888141Y-134431350D01*
X167888147Y-134431359D01*
X167920523Y-134475921D01*
X167920524Y-134475922D01*
X168600000Y-133796446D01*
X168600000Y-133802661D01*
X168627259Y-133904394D01*
X168679920Y-133995606D01*
X168754394Y-134070080D01*
X168845606Y-134122741D01*
X168947339Y-134150000D01*
X168953553Y-134150000D01*
X168274076Y-134829474D01*
X168318650Y-134861859D01*
X168500968Y-134954755D01*
X168695582Y-135017990D01*
X168897683Y-135050000D01*
X169102317Y-135050000D01*
X169304417Y-135017990D01*
X169499031Y-134954755D01*
X169681349Y-134861859D01*
X169725921Y-134829474D01*
X169046447Y-134150000D01*
X169052661Y-134150000D01*
X169154394Y-134122741D01*
X169245606Y-134070080D01*
X169320080Y-133995606D01*
X169372741Y-133904394D01*
X169400000Y-133802661D01*
X169400000Y-133796447D01*
X170079474Y-134475921D01*
X170111859Y-134431349D01*
X170204755Y-134249031D01*
X170267990Y-134054417D01*
X170300000Y-133852317D01*
X170300000Y-133647682D01*
X170267990Y-133445582D01*
X170204755Y-133250968D01*
X170111859Y-133068650D01*
X170079474Y-133024077D01*
X170079474Y-133024076D01*
X169400000Y-133703551D01*
X169400000Y-133697339D01*
X169372741Y-133595606D01*
X169320080Y-133504394D01*
X169245606Y-133429920D01*
X169154394Y-133377259D01*
X169052661Y-133350000D01*
X169046446Y-133350000D01*
X169725922Y-132670524D01*
X169725921Y-132670523D01*
X169681359Y-132638147D01*
X169681350Y-132638141D01*
X169627621Y-132610765D01*
X169576825Y-132562791D01*
X169560030Y-132494970D01*
X169582567Y-132428835D01*
X169627621Y-132389795D01*
X169681610Y-132362287D01*
X169731144Y-132326298D01*
X169847213Y-132241971D01*
X169847215Y-132241968D01*
X169847219Y-132241966D01*
X169991966Y-132097219D01*
X169991968Y-132097215D01*
X169991971Y-132097213D01*
X170044732Y-132024590D01*
X170112287Y-131931610D01*
X170205220Y-131749219D01*
X170268477Y-131554534D01*
X170300500Y-131352352D01*
X170300500Y-131147648D01*
X170268477Y-130945466D01*
X170205220Y-130750781D01*
X170205218Y-130750778D01*
X170205218Y-130750776D01*
X170159284Y-130660627D01*
X170112287Y-130568390D01*
X170104556Y-130557749D01*
X169991971Y-130402786D01*
X169847219Y-130258034D01*
X169731570Y-130174010D01*
X169688905Y-130118682D01*
X169682926Y-130049069D01*
X169715531Y-129987273D01*
X169716622Y-129986165D01*
X170160627Y-129542162D01*
X170253704Y-129402862D01*
X170317816Y-129248081D01*
X170350500Y-129083766D01*
X170350500Y-128916233D01*
X170328282Y-128804534D01*
X170317818Y-128751925D01*
X170317815Y-128751916D01*
X170253707Y-128597143D01*
X170253700Y-128597130D01*
X170160627Y-128457838D01*
X170160624Y-128457834D01*
X170042165Y-128339375D01*
X170042161Y-128339372D01*
X169902869Y-128246299D01*
X169902856Y-128246292D01*
X169748083Y-128182184D01*
X169748074Y-128182181D01*
X169583771Y-128149500D01*
X169583767Y-128149500D01*
X169416234Y-128149500D01*
X169416229Y-128149500D01*
X169251926Y-128182181D01*
X169251917Y-128182184D01*
X169097139Y-128246294D01*
X169097136Y-128246296D01*
X168957842Y-128339369D01*
X168957834Y-128339375D01*
X168184030Y-129113181D01*
X168122707Y-129146666D01*
X168096349Y-129149500D01*
X161403651Y-129149500D01*
X161336612Y-129129815D01*
X161315970Y-129113181D01*
X149091338Y-116888549D01*
X171799500Y-116888549D01*
X171799500Y-117111450D01*
X171799501Y-117111466D01*
X171828594Y-117332452D01*
X171828595Y-117332457D01*
X171828596Y-117332463D01*
X171886290Y-117547780D01*
X171886293Y-117547790D01*
X171971593Y-117753722D01*
X171971595Y-117753726D01*
X172083052Y-117946774D01*
X172083057Y-117946780D01*
X172083058Y-117946782D01*
X172218751Y-118123622D01*
X172218757Y-118123629D01*
X172376370Y-118281242D01*
X172376377Y-118281248D01*
X172486770Y-118365955D01*
X172553226Y-118416948D01*
X172746274Y-118528405D01*
X172766865Y-118536934D01*
X172944306Y-118610433D01*
X172998709Y-118654274D01*
X173020774Y-118720568D01*
X173003495Y-118788268D01*
X172984534Y-118812675D01*
X172339375Y-119457834D01*
X172339372Y-119457838D01*
X172246297Y-119597133D01*
X172246296Y-119597136D01*
X172182184Y-119751917D01*
X172182181Y-119751926D01*
X172149500Y-119916228D01*
X172149500Y-120083771D01*
X172182181Y-120248073D01*
X172182184Y-120248082D01*
X172246296Y-120402863D01*
X172246297Y-120402866D01*
X172339372Y-120542161D01*
X172339375Y-120542165D01*
X172457834Y-120660624D01*
X172457838Y-120660627D01*
X172597133Y-120753702D01*
X172597135Y-120753702D01*
X172597137Y-120753704D01*
X172751919Y-120817816D01*
X172751921Y-120817816D01*
X172751926Y-120817818D01*
X172916228Y-120850499D01*
X172916232Y-120850500D01*
X172916233Y-120850500D01*
X173083768Y-120850500D01*
X173083769Y-120850499D01*
X173138538Y-120839605D01*
X173248073Y-120817818D01*
X173248076Y-120817816D01*
X173248081Y-120817816D01*
X173402863Y-120753704D01*
X173542162Y-120660627D01*
X174133845Y-120068944D01*
X174829825Y-119372965D01*
X176327324Y-117875466D01*
X211100000Y-117875466D01*
X211100000Y-118124533D01*
X211132508Y-118371463D01*
X211196973Y-118612049D01*
X211292283Y-118842148D01*
X211292288Y-118842159D01*
X211416813Y-119057841D01*
X211416819Y-119057849D01*
X211491400Y-119155045D01*
X212284152Y-118362292D01*
X212291049Y-118378942D01*
X212378599Y-118509970D01*
X212490030Y-118621401D01*
X212621058Y-118708951D01*
X212637705Y-118715846D01*
X211844953Y-119508598D01*
X211942150Y-119583180D01*
X211942158Y-119583186D01*
X212157840Y-119707711D01*
X212157851Y-119707716D01*
X212387950Y-119803026D01*
X212628536Y-119867491D01*
X212875466Y-119900000D01*
X213124534Y-119900000D01*
X213371463Y-119867491D01*
X213612049Y-119803026D01*
X213842148Y-119707716D01*
X213842159Y-119707711D01*
X214057855Y-119583178D01*
X214155045Y-119508600D01*
X214155045Y-119508597D01*
X213362294Y-118715846D01*
X213378942Y-118708951D01*
X213509970Y-118621401D01*
X213621401Y-118509970D01*
X213708951Y-118378942D01*
X213715846Y-118362294D01*
X214508597Y-119155045D01*
X214508600Y-119155045D01*
X214583178Y-119057855D01*
X214707711Y-118842159D01*
X214707716Y-118842148D01*
X214803026Y-118612049D01*
X214867491Y-118371463D01*
X214900000Y-118124533D01*
X214900000Y-117875466D01*
X214867491Y-117628536D01*
X214803026Y-117387950D01*
X214707716Y-117157851D01*
X214707711Y-117157840D01*
X214583186Y-116942158D01*
X214583180Y-116942150D01*
X214508598Y-116844953D01*
X213715846Y-117637705D01*
X213708951Y-117621058D01*
X213621401Y-117490030D01*
X213509970Y-117378599D01*
X213378942Y-117291049D01*
X213362292Y-117284152D01*
X214155045Y-116491400D01*
X214057849Y-116416819D01*
X214057841Y-116416813D01*
X213842159Y-116292288D01*
X213842148Y-116292283D01*
X213612049Y-116196973D01*
X213371463Y-116132508D01*
X213124534Y-116100000D01*
X212875466Y-116100000D01*
X212628536Y-116132508D01*
X212387950Y-116196973D01*
X212157851Y-116292283D01*
X212157847Y-116292285D01*
X211942143Y-116416823D01*
X211844953Y-116491399D01*
X211844953Y-116491400D01*
X212637706Y-117284153D01*
X212621058Y-117291049D01*
X212490030Y-117378599D01*
X212378599Y-117490030D01*
X212291049Y-117621058D01*
X212284153Y-117637706D01*
X211491400Y-116844953D01*
X211491399Y-116844953D01*
X211416823Y-116942143D01*
X211292285Y-117157847D01*
X211292283Y-117157851D01*
X211196973Y-117387950D01*
X211132508Y-117628536D01*
X211100000Y-117875466D01*
X176327324Y-117875466D01*
X183327349Y-110875441D01*
X211099500Y-110875441D01*
X211099500Y-111124558D01*
X211099501Y-111124575D01*
X211132017Y-111371561D01*
X211196498Y-111612207D01*
X211291830Y-111842361D01*
X211291837Y-111842376D01*
X211416400Y-112058126D01*
X211568060Y-112255774D01*
X211568066Y-112255781D01*
X211744218Y-112431933D01*
X211744225Y-112431939D01*
X211941873Y-112583599D01*
X212157623Y-112708162D01*
X212157638Y-112708169D01*
X212256825Y-112749253D01*
X212387793Y-112803502D01*
X212628435Y-112867982D01*
X212875435Y-112900500D01*
X212875442Y-112900500D01*
X213124558Y-112900500D01*
X213124565Y-112900500D01*
X213371565Y-112867982D01*
X213612207Y-112803502D01*
X213842373Y-112708164D01*
X214058127Y-112583599D01*
X214255776Y-112431938D01*
X214431938Y-112255776D01*
X214583599Y-112058127D01*
X214708164Y-111842373D01*
X214803502Y-111612207D01*
X214867982Y-111371565D01*
X214900500Y-111124565D01*
X214900500Y-110875435D01*
X214867982Y-110628435D01*
X214803502Y-110387793D01*
X214708164Y-110157627D01*
X214583599Y-109941873D01*
X214431938Y-109744224D01*
X214431933Y-109744218D01*
X214255781Y-109568066D01*
X214255774Y-109568060D01*
X214058126Y-109416400D01*
X213842376Y-109291837D01*
X213842361Y-109291830D01*
X213612207Y-109196498D01*
X213371561Y-109132017D01*
X213124575Y-109099501D01*
X213124570Y-109099500D01*
X213124565Y-109099500D01*
X212875435Y-109099500D01*
X212875429Y-109099500D01*
X212875424Y-109099501D01*
X212628438Y-109132017D01*
X212387792Y-109196498D01*
X212157638Y-109291830D01*
X212157623Y-109291837D01*
X211941873Y-109416400D01*
X211744225Y-109568060D01*
X211744218Y-109568066D01*
X211568066Y-109744218D01*
X211568060Y-109744225D01*
X211416400Y-109941873D01*
X211291837Y-110157623D01*
X211291830Y-110157638D01*
X211196498Y-110387792D01*
X211132017Y-110628438D01*
X211099501Y-110875424D01*
X211099500Y-110875441D01*
X183327349Y-110875441D01*
X183419095Y-110783695D01*
X183660624Y-110542165D01*
X183660627Y-110542162D01*
X183753704Y-110402863D01*
X183817816Y-110248081D01*
X183850500Y-110083766D01*
X183850500Y-109916233D01*
X183850500Y-102416233D01*
X183817816Y-102251918D01*
X183753703Y-102097137D01*
X183688798Y-102000000D01*
X183660626Y-101957837D01*
X183542165Y-101839376D01*
X183542157Y-101839370D01*
X183483189Y-101799969D01*
X183483139Y-101799936D01*
X183402860Y-101746295D01*
X183291053Y-101699983D01*
X188422000Y-101699983D01*
X188422000Y-101699996D01*
X188422001Y-103300000D01*
X188422001Y-103300018D01*
X188432500Y-103402796D01*
X188432501Y-103402799D01*
X188487685Y-103569331D01*
X188487686Y-103569334D01*
X188579788Y-103718656D01*
X188703844Y-103842712D01*
X188853166Y-103934814D01*
X189019703Y-103989999D01*
X189122491Y-104000500D01*
X192322508Y-104000499D01*
X192425297Y-103989999D01*
X192591834Y-103934814D01*
X192741156Y-103842712D01*
X192865212Y-103718656D01*
X192957314Y-103569334D01*
X193012499Y-103402797D01*
X193023000Y-103300009D01*
X193022999Y-101699992D01*
X193012499Y-101597203D01*
X192957314Y-101430666D01*
X192865212Y-101281344D01*
X192741156Y-101157288D01*
X192628240Y-101087641D01*
X192591836Y-101065187D01*
X192591831Y-101065185D01*
X192590362Y-101064698D01*
X192425297Y-101010001D01*
X192425295Y-101010000D01*
X192322510Y-100999500D01*
X189122498Y-100999500D01*
X189122481Y-100999501D01*
X189019703Y-101010000D01*
X189019700Y-101010001D01*
X188853168Y-101065185D01*
X188853163Y-101065187D01*
X188703842Y-101157289D01*
X188579789Y-101281342D01*
X188487687Y-101430663D01*
X188487685Y-101430668D01*
X188464452Y-101500781D01*
X188432501Y-101597203D01*
X188432501Y-101597204D01*
X188432500Y-101597204D01*
X188422000Y-101699983D01*
X183291053Y-101699983D01*
X183248082Y-101682184D01*
X183248074Y-101682182D01*
X183083771Y-101649500D01*
X183083767Y-101649500D01*
X182916233Y-101649500D01*
X182916228Y-101649500D01*
X182751925Y-101682182D01*
X182751917Y-101682184D01*
X182597139Y-101746295D01*
X182457837Y-101839373D01*
X182339373Y-101957837D01*
X182246295Y-102097139D01*
X182182184Y-102251917D01*
X182182182Y-102251925D01*
X182149500Y-102416228D01*
X182149500Y-109596348D01*
X182129815Y-109663387D01*
X182113181Y-109684029D01*
X175312675Y-116484534D01*
X175251352Y-116518019D01*
X175181660Y-116513035D01*
X175125727Y-116471163D01*
X175110433Y-116444306D01*
X175047463Y-116292285D01*
X175028405Y-116246274D01*
X174916948Y-116053226D01*
X174801522Y-115902799D01*
X174781248Y-115876377D01*
X174781242Y-115876370D01*
X174623629Y-115718757D01*
X174623622Y-115718751D01*
X174446782Y-115583058D01*
X174446780Y-115583057D01*
X174446774Y-115583052D01*
X174253726Y-115471595D01*
X174253722Y-115471593D01*
X174047790Y-115386293D01*
X174047783Y-115386291D01*
X174047781Y-115386290D01*
X173832463Y-115328596D01*
X173832457Y-115328595D01*
X173832452Y-115328594D01*
X173611466Y-115299501D01*
X173611463Y-115299500D01*
X173611457Y-115299500D01*
X173388543Y-115299500D01*
X173388537Y-115299500D01*
X173388533Y-115299501D01*
X173167547Y-115328594D01*
X173167540Y-115328595D01*
X173167537Y-115328596D01*
X172952219Y-115386290D01*
X172952209Y-115386293D01*
X172746277Y-115471593D01*
X172746273Y-115471595D01*
X172553226Y-115583052D01*
X172553217Y-115583058D01*
X172376377Y-115718751D01*
X172376370Y-115718757D01*
X172218757Y-115876370D01*
X172218751Y-115876377D01*
X172083058Y-116053217D01*
X172083052Y-116053226D01*
X171971595Y-116246273D01*
X171971593Y-116246277D01*
X171886293Y-116452209D01*
X171886290Y-116452219D01*
X171838228Y-116631592D01*
X171828597Y-116667534D01*
X171828594Y-116667547D01*
X171799501Y-116888533D01*
X171799500Y-116888549D01*
X149091338Y-116888549D01*
X135078066Y-102875277D01*
X135044581Y-102813954D01*
X135049565Y-102744262D01*
X135091437Y-102688329D01*
X135127425Y-102669667D01*
X135264219Y-102625220D01*
X135446610Y-102532287D01*
X135539590Y-102464732D01*
X135612213Y-102411971D01*
X135612215Y-102411968D01*
X135612219Y-102411966D01*
X135756966Y-102267219D01*
X135756968Y-102267215D01*
X135756971Y-102267213D01*
X135838937Y-102154394D01*
X135877287Y-102101610D01*
X135970220Y-101919219D01*
X136033477Y-101724534D01*
X136065500Y-101522352D01*
X136065500Y-101317648D01*
X136033477Y-101115466D01*
X136033475Y-101115462D01*
X136033475Y-101115457D01*
X136024272Y-101087135D01*
X136024269Y-101087125D01*
X136012900Y-101052135D01*
X164599500Y-101052135D01*
X164599500Y-102947870D01*
X164599501Y-102947876D01*
X164605908Y-103007483D01*
X164656202Y-103142328D01*
X164656206Y-103142335D01*
X164742452Y-103257544D01*
X164742455Y-103257547D01*
X164857664Y-103343793D01*
X164857671Y-103343797D01*
X164992517Y-103394091D01*
X164992516Y-103394091D01*
X164999444Y-103394835D01*
X165052127Y-103400500D01*
X166947872Y-103400499D01*
X167007483Y-103394091D01*
X167142331Y-103343796D01*
X167257546Y-103257546D01*
X167343796Y-103142331D01*
X167394091Y-103007483D01*
X167400500Y-102947873D01*
X167400499Y-101889778D01*
X169599500Y-101889778D01*
X169599500Y-102110221D01*
X169633985Y-102327952D01*
X169702103Y-102537603D01*
X169702104Y-102537606D01*
X169746746Y-102625218D01*
X169798057Y-102725921D01*
X169802187Y-102734025D01*
X169931752Y-102912358D01*
X169931756Y-102912363D01*
X170087636Y-103068243D01*
X170087641Y-103068247D01*
X170148258Y-103112287D01*
X170265978Y-103197815D01*
X170394375Y-103263237D01*
X170462393Y-103297895D01*
X170462396Y-103297896D01*
X170567221Y-103331955D01*
X170672049Y-103366015D01*
X170889778Y-103400500D01*
X170889779Y-103400500D01*
X171110221Y-103400500D01*
X171110222Y-103400500D01*
X171327951Y-103366015D01*
X171537606Y-103297895D01*
X171734022Y-103197815D01*
X171912365Y-103068242D01*
X172068242Y-102912365D01*
X172197815Y-102734022D01*
X172297895Y-102537606D01*
X172366015Y-102327951D01*
X172400500Y-102110222D01*
X172400500Y-101889778D01*
X172366015Y-101672049D01*
X172297895Y-101462394D01*
X172297895Y-101462393D01*
X172263237Y-101394375D01*
X172197815Y-101265978D01*
X172157710Y-101210778D01*
X172068247Y-101087641D01*
X172068243Y-101087636D01*
X171912363Y-100931756D01*
X171912358Y-100931752D01*
X171734025Y-100802187D01*
X171734024Y-100802186D01*
X171734022Y-100802185D01*
X171608819Y-100738390D01*
X171537606Y-100702104D01*
X171537603Y-100702103D01*
X171327952Y-100633985D01*
X171219086Y-100616742D01*
X171110222Y-100599500D01*
X170889778Y-100599500D01*
X170817201Y-100610995D01*
X170672047Y-100633985D01*
X170462396Y-100702103D01*
X170462393Y-100702104D01*
X170265974Y-100802187D01*
X170087641Y-100931752D01*
X170087636Y-100931756D01*
X169931756Y-101087636D01*
X169931752Y-101087641D01*
X169802187Y-101265974D01*
X169702104Y-101462393D01*
X169702103Y-101462396D01*
X169633985Y-101672047D01*
X169599500Y-101889778D01*
X167400499Y-101889778D01*
X167400499Y-101052128D01*
X167394091Y-100992517D01*
X167371429Y-100931758D01*
X167343797Y-100857671D01*
X167343793Y-100857664D01*
X167257547Y-100742455D01*
X167257544Y-100742452D01*
X167142335Y-100656206D01*
X167142328Y-100656202D01*
X167007482Y-100605908D01*
X167007483Y-100605908D01*
X166947883Y-100599501D01*
X166947881Y-100599500D01*
X166947873Y-100599500D01*
X166947864Y-100599500D01*
X165052129Y-100599500D01*
X165052123Y-100599501D01*
X164992516Y-100605908D01*
X164857671Y-100656202D01*
X164857664Y-100656206D01*
X164742455Y-100742452D01*
X164742452Y-100742455D01*
X164656206Y-100857664D01*
X164656202Y-100857671D01*
X164605908Y-100992517D01*
X164599501Y-101052116D01*
X164599501Y-101052123D01*
X164599500Y-101052135D01*
X136012900Y-101052135D01*
X135992134Y-100988227D01*
X135970220Y-100920781D01*
X135970218Y-100920778D01*
X135970218Y-100920776D01*
X135917757Y-100817817D01*
X135877287Y-100738390D01*
X135850923Y-100702103D01*
X135756971Y-100572786D01*
X135612213Y-100428028D01*
X135446613Y-100307715D01*
X135446612Y-100307714D01*
X135446610Y-100307713D01*
X135389653Y-100278691D01*
X135264223Y-100214781D01*
X135069534Y-100151522D01*
X134894995Y-100123878D01*
X134867352Y-100119500D01*
X134662648Y-100119500D01*
X134638329Y-100123351D01*
X134460465Y-100151522D01*
X134265776Y-100214781D01*
X134083386Y-100307715D01*
X133917786Y-100428028D01*
X133773028Y-100572786D01*
X133652715Y-100738386D01*
X133559781Y-100920778D01*
X133496522Y-101115468D01*
X133495915Y-101119302D01*
X133485878Y-101140469D01*
X133480085Y-101163167D01*
X133471187Y-101171450D01*
X133465980Y-101182434D01*
X133446093Y-101194814D01*
X133428948Y-101210778D01*
X133416985Y-101212936D01*
X133406666Y-101219361D01*
X133383242Y-101219024D01*
X133360188Y-101223184D01*
X133341543Y-101218425D01*
X133336803Y-101218357D01*
X133325994Y-101214456D01*
X133293415Y-101200962D01*
X133293412Y-101200960D01*
X133248086Y-101182185D01*
X133248074Y-101182182D01*
X133083771Y-101149500D01*
X133083767Y-101149500D01*
X128805047Y-101149500D01*
X128738008Y-101129815D01*
X128717366Y-101113181D01*
X128612213Y-101008028D01*
X128446613Y-100887715D01*
X128446612Y-100887714D01*
X128446610Y-100887713D01*
X128387636Y-100857664D01*
X128264223Y-100794781D01*
X128069534Y-100731522D01*
X127883799Y-100702105D01*
X127867352Y-100699500D01*
X127662648Y-100699500D01*
X127646201Y-100702105D01*
X127460465Y-100731522D01*
X127265776Y-100794781D01*
X127083386Y-100887715D01*
X126917786Y-101008028D01*
X126773028Y-101152786D01*
X126652714Y-101318386D01*
X126625203Y-101372379D01*
X126577227Y-101423174D01*
X126509406Y-101439968D01*
X126443272Y-101417429D01*
X126404234Y-101372376D01*
X126376861Y-101318652D01*
X126344474Y-101274077D01*
X126344474Y-101274076D01*
X125665000Y-101953551D01*
X125665000Y-101947339D01*
X125637741Y-101845606D01*
X125585080Y-101754394D01*
X125510606Y-101679920D01*
X125419394Y-101627259D01*
X125317661Y-101600000D01*
X125311446Y-101600000D01*
X125990922Y-100920524D01*
X125990921Y-100920523D01*
X125946359Y-100888147D01*
X125946350Y-100888141D01*
X125764031Y-100795244D01*
X125569417Y-100732009D01*
X125367317Y-100700000D01*
X125162683Y-100700000D01*
X124960582Y-100732009D01*
X124765968Y-100795244D01*
X124583644Y-100888143D01*
X124539077Y-100920523D01*
X124539077Y-100920524D01*
X125218554Y-101600000D01*
X125212339Y-101600000D01*
X125110606Y-101627259D01*
X125019394Y-101679920D01*
X124944920Y-101754394D01*
X124892259Y-101845606D01*
X124865000Y-101947339D01*
X124865000Y-101953553D01*
X124185524Y-101274077D01*
X124185523Y-101274077D01*
X124153143Y-101318644D01*
X124060244Y-101500968D01*
X123997009Y-101695582D01*
X123965000Y-101897682D01*
X79000500Y-101897682D01*
X79000500Y-97750000D01*
X99998398Y-97750000D01*
X101623379Y-97750000D01*
X101604401Y-97795818D01*
X101577500Y-97931056D01*
X101577500Y-98068944D01*
X101604401Y-98204182D01*
X101623379Y-98250000D01*
X99998398Y-98250000D01*
X100014434Y-98351247D01*
X100087397Y-98575802D01*
X100194585Y-98786171D01*
X100333366Y-98977186D01*
X100500313Y-99144133D01*
X100691328Y-99282914D01*
X100901697Y-99390102D01*
X101126252Y-99463065D01*
X101126251Y-99463065D01*
X101359448Y-99500000D01*
X102027500Y-99500000D01*
X102027500Y-98654120D01*
X102073318Y-98673099D01*
X102208556Y-98700000D01*
X102346444Y-98700000D01*
X102481682Y-98673099D01*
X102527500Y-98654120D01*
X102527500Y-99500000D01*
X103195552Y-99500000D01*
X103428747Y-99463065D01*
X103653302Y-99390102D01*
X103863671Y-99282914D01*
X104054686Y-99144133D01*
X104221633Y-98977186D01*
X104360414Y-98786171D01*
X104467602Y-98575802D01*
X104540565Y-98351247D01*
X104556602Y-98250000D01*
X102931621Y-98250000D01*
X102950599Y-98204182D01*
X102977500Y-98068944D01*
X102977500Y-97931056D01*
X102950599Y-97795818D01*
X102931621Y-97750000D01*
X104556602Y-97750000D01*
X104540565Y-97648752D01*
X104467602Y-97424197D01*
X104360414Y-97213828D01*
X104221633Y-97022813D01*
X104054686Y-96855866D01*
X103863671Y-96717085D01*
X103653302Y-96609897D01*
X103428747Y-96536934D01*
X103428748Y-96536934D01*
X103195552Y-96500000D01*
X102527500Y-96500000D01*
X102527500Y-97345879D01*
X102481682Y-97326901D01*
X102346444Y-97300000D01*
X102208556Y-97300000D01*
X102073318Y-97326901D01*
X102027500Y-97345879D01*
X102027500Y-96500000D01*
X101359448Y-96500000D01*
X101126252Y-96536934D01*
X100901697Y-96609897D01*
X100691328Y-96717085D01*
X100500313Y-96855866D01*
X100333366Y-97022813D01*
X100194585Y-97213828D01*
X100087397Y-97424197D01*
X100014434Y-97648752D01*
X99998398Y-97750000D01*
X79000500Y-97750000D01*
X79000500Y-95916228D01*
X128649500Y-95916228D01*
X128649500Y-100083771D01*
X128682182Y-100248074D01*
X128682184Y-100248082D01*
X128746295Y-100402860D01*
X128839373Y-100542162D01*
X128957837Y-100660626D01*
X129016765Y-100700000D01*
X129097137Y-100753703D01*
X129251918Y-100817816D01*
X129416228Y-100850499D01*
X129416232Y-100850500D01*
X129416233Y-100850500D01*
X129583768Y-100850500D01*
X129583769Y-100850499D01*
X129748082Y-100817816D01*
X129902863Y-100753703D01*
X130042162Y-100660626D01*
X130160626Y-100542162D01*
X130253703Y-100402863D01*
X130317816Y-100248082D01*
X130350500Y-100083767D01*
X130350500Y-97952135D01*
X145967000Y-97952135D01*
X145967000Y-100047870D01*
X145967001Y-100047876D01*
X145973408Y-100107483D01*
X146023702Y-100242328D01*
X146023706Y-100242335D01*
X146109952Y-100357544D01*
X146109955Y-100357547D01*
X146225164Y-100443793D01*
X146225171Y-100443797D01*
X146360017Y-100494091D01*
X146360016Y-100494091D01*
X146366944Y-100494835D01*
X146419627Y-100500500D01*
X148420372Y-100500499D01*
X148479983Y-100494091D01*
X148614831Y-100443796D01*
X148730046Y-100357546D01*
X148816296Y-100242331D01*
X148826690Y-100214460D01*
X148868560Y-100158527D01*
X148934023Y-100134108D01*
X149002297Y-100148958D01*
X149015746Y-100157465D01*
X149198462Y-100290217D01*
X149401327Y-100393582D01*
X149402244Y-100394049D01*
X149619751Y-100464721D01*
X149619752Y-100464721D01*
X149619755Y-100464722D01*
X149845646Y-100500500D01*
X149845647Y-100500500D01*
X150074353Y-100500500D01*
X150074354Y-100500500D01*
X150300245Y-100464722D01*
X150300248Y-100464721D01*
X150300249Y-100464721D01*
X150517755Y-100394049D01*
X150517755Y-100394048D01*
X150517758Y-100394048D01*
X150721538Y-100290217D01*
X150906566Y-100155786D01*
X151068286Y-99994066D01*
X151129992Y-99909134D01*
X151185319Y-99866470D01*
X151254932Y-99860491D01*
X151316727Y-99893096D01*
X151330626Y-99909135D01*
X151392097Y-99993741D01*
X151392097Y-99993742D01*
X151553757Y-100155402D01*
X151738723Y-100289788D01*
X151942429Y-100393582D01*
X152159871Y-100464234D01*
X152250000Y-100478509D01*
X152250000Y-99490747D01*
X152287708Y-99512518D01*
X152427591Y-99550000D01*
X152572409Y-99550000D01*
X152712292Y-99512518D01*
X152750000Y-99490747D01*
X152750000Y-100478508D01*
X152840128Y-100464234D01*
X153057570Y-100393582D01*
X153261276Y-100289788D01*
X153446242Y-100155402D01*
X153607902Y-99993742D01*
X153742288Y-99808776D01*
X153846082Y-99605070D01*
X153916734Y-99387628D01*
X153938532Y-99250000D01*
X152990748Y-99250000D01*
X153012518Y-99212292D01*
X153050000Y-99072409D01*
X153050000Y-98927591D01*
X153012518Y-98787708D01*
X152990748Y-98750000D01*
X153938532Y-98750000D01*
X153916734Y-98612371D01*
X153846082Y-98394929D01*
X153742288Y-98191223D01*
X153607902Y-98006257D01*
X153491423Y-97889778D01*
X164599500Y-97889778D01*
X164599500Y-98110222D01*
X164612288Y-98190962D01*
X164633985Y-98327952D01*
X164702103Y-98537603D01*
X164702104Y-98537606D01*
X164802187Y-98734025D01*
X164931752Y-98912358D01*
X164931756Y-98912363D01*
X165087636Y-99068243D01*
X165087641Y-99068247D01*
X165243192Y-99181260D01*
X165265978Y-99197815D01*
X165368396Y-99250000D01*
X165462393Y-99297895D01*
X165462396Y-99297896D01*
X165567221Y-99331955D01*
X165672049Y-99366015D01*
X165889778Y-99400500D01*
X165889779Y-99400500D01*
X166110221Y-99400500D01*
X166110222Y-99400500D01*
X166327951Y-99366015D01*
X166537606Y-99297895D01*
X166734022Y-99197815D01*
X166912365Y-99068242D01*
X167068242Y-98912365D01*
X167197815Y-98734022D01*
X167297895Y-98537606D01*
X167366015Y-98327951D01*
X167400500Y-98110222D01*
X167400500Y-97889778D01*
X169599500Y-97889778D01*
X169599500Y-98110222D01*
X169612288Y-98190962D01*
X169633985Y-98327952D01*
X169702103Y-98537603D01*
X169702104Y-98537606D01*
X169802187Y-98734025D01*
X169931752Y-98912358D01*
X169931756Y-98912363D01*
X170087636Y-99068243D01*
X170087641Y-99068247D01*
X170243192Y-99181260D01*
X170265978Y-99197815D01*
X170368396Y-99250000D01*
X170462393Y-99297895D01*
X170462396Y-99297896D01*
X170567221Y-99331955D01*
X170672049Y-99366015D01*
X170889778Y-99400500D01*
X170889779Y-99400500D01*
X171110221Y-99400500D01*
X171110222Y-99400500D01*
X171327951Y-99366015D01*
X171537606Y-99297895D01*
X171734022Y-99197815D01*
X171912365Y-99068242D01*
X172068242Y-98912365D01*
X172197815Y-98734022D01*
X172297895Y-98537606D01*
X172366015Y-98327951D01*
X172400500Y-98110222D01*
X172400500Y-97889778D01*
X172366015Y-97672049D01*
X172312034Y-97505909D01*
X172297896Y-97462396D01*
X172297895Y-97462393D01*
X172256882Y-97381902D01*
X172197815Y-97265978D01*
X172112558Y-97148631D01*
X172068247Y-97087641D01*
X172068243Y-97087636D01*
X171912363Y-96931756D01*
X171912358Y-96931752D01*
X171734025Y-96802187D01*
X171734024Y-96802186D01*
X171734022Y-96802185D01*
X171638003Y-96753260D01*
X171638002Y-96753259D01*
X171537611Y-96702106D01*
X171537603Y-96702103D01*
X171370003Y-96647648D01*
X179977000Y-96647648D01*
X179977000Y-96852351D01*
X180009022Y-97054534D01*
X180072281Y-97249223D01*
X180098154Y-97300000D01*
X180139885Y-97381902D01*
X180165215Y-97431613D01*
X180285528Y-97597213D01*
X180430286Y-97741971D01*
X180595888Y-97862286D01*
X180649328Y-97889516D01*
X180700123Y-97937490D01*
X180716918Y-98005312D01*
X180694380Y-98071446D01*
X180649328Y-98110484D01*
X180595888Y-98137713D01*
X180430286Y-98258028D01*
X180285528Y-98402786D01*
X180165215Y-98568386D01*
X180072281Y-98750776D01*
X180009022Y-98945465D01*
X179977000Y-99147648D01*
X179977000Y-99352351D01*
X180009022Y-99554534D01*
X180072281Y-99749223D01*
X180102759Y-99809038D01*
X180153762Y-99909137D01*
X180165215Y-99931613D01*
X180285528Y-100097213D01*
X180430286Y-100241971D01*
X180520777Y-100307715D01*
X180595890Y-100362287D01*
X180675519Y-100402860D01*
X180778276Y-100455218D01*
X180778278Y-100455218D01*
X180778281Y-100455220D01*
X180882637Y-100489127D01*
X180972965Y-100518477D01*
X181074057Y-100534488D01*
X181175148Y-100550500D01*
X181175149Y-100550500D01*
X181379851Y-100550500D01*
X181379852Y-100550500D01*
X181582034Y-100518477D01*
X181776719Y-100455220D01*
X181959110Y-100362287D01*
X182058897Y-100289788D01*
X182124713Y-100241971D01*
X182124715Y-100241968D01*
X182124719Y-100241966D01*
X182269466Y-100097219D01*
X182269468Y-100097215D01*
X182269471Y-100097213D01*
X182344646Y-99993742D01*
X182389787Y-99931610D01*
X182482720Y-99749219D01*
X182545977Y-99554534D01*
X182578000Y-99352352D01*
X182578000Y-99147648D01*
X182545977Y-98945466D01*
X182482720Y-98750781D01*
X182482718Y-98750778D01*
X182482718Y-98750776D01*
X182443139Y-98673099D01*
X182389787Y-98568390D01*
X182367419Y-98537603D01*
X182269471Y-98402786D01*
X182124713Y-98258028D01*
X181959113Y-98137715D01*
X181959112Y-98137714D01*
X181959110Y-98137713D01*
X181905671Y-98110484D01*
X181854876Y-98062510D01*
X181838081Y-97994689D01*
X181860618Y-97928554D01*
X181905672Y-97889515D01*
X181959110Y-97862287D01*
X182103103Y-97757671D01*
X182124713Y-97741971D01*
X182124715Y-97741968D01*
X182124719Y-97741966D01*
X182269466Y-97597219D01*
X182269468Y-97597215D01*
X182269471Y-97597213D01*
X182335807Y-97505908D01*
X182389787Y-97431610D01*
X182415115Y-97381902D01*
X188422000Y-97381902D01*
X188422000Y-97618097D01*
X188458946Y-97851368D01*
X188531933Y-98075996D01*
X188590512Y-98190962D01*
X188639157Y-98286433D01*
X188777983Y-98477510D01*
X188944990Y-98644517D01*
X189136067Y-98783343D01*
X189235491Y-98834002D01*
X189346503Y-98890566D01*
X189346505Y-98890566D01*
X189346508Y-98890568D01*
X189460453Y-98927591D01*
X189571131Y-98963553D01*
X189804403Y-99000500D01*
X189804408Y-99000500D01*
X191640597Y-99000500D01*
X191873868Y-98963553D01*
X192098492Y-98890568D01*
X192308933Y-98783343D01*
X192500010Y-98644517D01*
X192667017Y-98477510D01*
X192805843Y-98286433D01*
X192913068Y-98075992D01*
X192986053Y-97851368D01*
X192994851Y-97795818D01*
X193023000Y-97618097D01*
X193023000Y-97381902D01*
X192986053Y-97148631D01*
X192913066Y-96924003D01*
X192826067Y-96753259D01*
X192805843Y-96713567D01*
X192667017Y-96522490D01*
X192500010Y-96355483D01*
X192308933Y-96216657D01*
X192291385Y-96207716D01*
X192098496Y-96109433D01*
X192003530Y-96078577D01*
X191873868Y-96036446D01*
X191640597Y-95999500D01*
X191640592Y-95999500D01*
X189804408Y-95999500D01*
X189804403Y-95999500D01*
X189571131Y-96036446D01*
X189346503Y-96109433D01*
X189136066Y-96216657D01*
X189089106Y-96250776D01*
X188944990Y-96355483D01*
X188944988Y-96355485D01*
X188944987Y-96355485D01*
X188777985Y-96522487D01*
X188777985Y-96522488D01*
X188777983Y-96522490D01*
X188767489Y-96536934D01*
X188639157Y-96713566D01*
X188531933Y-96924003D01*
X188458946Y-97148631D01*
X188422000Y-97381902D01*
X182415115Y-97381902D01*
X182482720Y-97249219D01*
X182545977Y-97054534D01*
X182578000Y-96852352D01*
X182578000Y-96647648D01*
X182558176Y-96522487D01*
X182545977Y-96445465D01*
X182482718Y-96250776D01*
X182410699Y-96109433D01*
X182389787Y-96068390D01*
X182366579Y-96036446D01*
X182269471Y-95902786D01*
X182124713Y-95758028D01*
X181959113Y-95637715D01*
X181959112Y-95637714D01*
X181959110Y-95637713D01*
X181902153Y-95608691D01*
X181776723Y-95544781D01*
X181582034Y-95481522D01*
X181407495Y-95453878D01*
X181379852Y-95449500D01*
X181175148Y-95449500D01*
X181150829Y-95453351D01*
X180972965Y-95481522D01*
X180778276Y-95544781D01*
X180595886Y-95637715D01*
X180430286Y-95758028D01*
X180285528Y-95902786D01*
X180165215Y-96068386D01*
X180072281Y-96250776D01*
X180009022Y-96445465D01*
X179977000Y-96647648D01*
X171370003Y-96647648D01*
X171327952Y-96633985D01*
X171219086Y-96616742D01*
X171110222Y-96599500D01*
X170889778Y-96599500D01*
X170824134Y-96609897D01*
X170672047Y-96633985D01*
X170462396Y-96702103D01*
X170462393Y-96702104D01*
X170265974Y-96802187D01*
X170087641Y-96931752D01*
X170087636Y-96931756D01*
X169931756Y-97087636D01*
X169931752Y-97087641D01*
X169802187Y-97265974D01*
X169702104Y-97462393D01*
X169702103Y-97462396D01*
X169633985Y-97672047D01*
X169622911Y-97741966D01*
X169599500Y-97889778D01*
X167400500Y-97889778D01*
X167366015Y-97672049D01*
X167312034Y-97505909D01*
X167297896Y-97462396D01*
X167297895Y-97462393D01*
X167256882Y-97381902D01*
X167197815Y-97265978D01*
X167112558Y-97148631D01*
X167068247Y-97087641D01*
X167068243Y-97087636D01*
X166912363Y-96931756D01*
X166912358Y-96931752D01*
X166734025Y-96802187D01*
X166734024Y-96802186D01*
X166734022Y-96802185D01*
X166671096Y-96770122D01*
X166537606Y-96702104D01*
X166537603Y-96702103D01*
X166327952Y-96633985D01*
X166219086Y-96616742D01*
X166110222Y-96599500D01*
X165889778Y-96599500D01*
X165824134Y-96609897D01*
X165672047Y-96633985D01*
X165462396Y-96702103D01*
X165462393Y-96702104D01*
X165265974Y-96802187D01*
X165087641Y-96931752D01*
X165087636Y-96931756D01*
X164931756Y-97087636D01*
X164931752Y-97087641D01*
X164802187Y-97265974D01*
X164702104Y-97462393D01*
X164702103Y-97462396D01*
X164633985Y-97672047D01*
X164622911Y-97741966D01*
X164599500Y-97889778D01*
X153491423Y-97889778D01*
X153446242Y-97844597D01*
X153261276Y-97710211D01*
X153057568Y-97606417D01*
X152840124Y-97535765D01*
X152750000Y-97521490D01*
X152750000Y-98509252D01*
X152712292Y-98487482D01*
X152572409Y-98450000D01*
X152427591Y-98450000D01*
X152287708Y-98487482D01*
X152250000Y-98509252D01*
X152250000Y-97521490D01*
X152249999Y-97521490D01*
X152159875Y-97535765D01*
X151942431Y-97606417D01*
X151738723Y-97710211D01*
X151553757Y-97844597D01*
X151392097Y-98006257D01*
X151330627Y-98090864D01*
X151275297Y-98133529D01*
X151205684Y-98139508D01*
X151143889Y-98106902D01*
X151129991Y-98090864D01*
X151115883Y-98071446D01*
X151068286Y-98005934D01*
X150906566Y-97844214D01*
X150721538Y-97709783D01*
X150647477Y-97672047D01*
X150517755Y-97605950D01*
X150300248Y-97535278D01*
X150114812Y-97505908D01*
X150074354Y-97499500D01*
X149845646Y-97499500D01*
X149805188Y-97505908D01*
X149619753Y-97535278D01*
X149619750Y-97535278D01*
X149402244Y-97605950D01*
X149198461Y-97709783D01*
X149015759Y-97842525D01*
X148949952Y-97866005D01*
X148881898Y-97850180D01*
X148833203Y-97800074D01*
X148826690Y-97785538D01*
X148816296Y-97757669D01*
X148816293Y-97757664D01*
X148730047Y-97642455D01*
X148730044Y-97642452D01*
X148614835Y-97556206D01*
X148614828Y-97556202D01*
X148479982Y-97505908D01*
X148479983Y-97505908D01*
X148420383Y-97499501D01*
X148420381Y-97499500D01*
X148420373Y-97499500D01*
X148420364Y-97499500D01*
X146419629Y-97499500D01*
X146419623Y-97499501D01*
X146360016Y-97505908D01*
X146225171Y-97556202D01*
X146225164Y-97556206D01*
X146109955Y-97642452D01*
X146109952Y-97642455D01*
X146023706Y-97757664D01*
X146023702Y-97757671D01*
X145973408Y-97892517D01*
X145967001Y-97952116D01*
X145967000Y-97952135D01*
X130350500Y-97952135D01*
X130350500Y-95916233D01*
X130317816Y-95751918D01*
X130253703Y-95597137D01*
X130176452Y-95481523D01*
X130160626Y-95457837D01*
X130042162Y-95339373D01*
X129902860Y-95246295D01*
X129748082Y-95182184D01*
X129748074Y-95182182D01*
X129583771Y-95149500D01*
X129583767Y-95149500D01*
X129416233Y-95149500D01*
X129416228Y-95149500D01*
X129251925Y-95182182D01*
X129251917Y-95182184D01*
X129097139Y-95246295D01*
X128957837Y-95339373D01*
X128839373Y-95457837D01*
X128746295Y-95597139D01*
X128682184Y-95751917D01*
X128682182Y-95751925D01*
X128649500Y-95916228D01*
X79000500Y-95916228D01*
X79000500Y-92199983D01*
X99977000Y-92199983D01*
X99977000Y-93800001D01*
X99977001Y-93800018D01*
X99987500Y-93902796D01*
X99987501Y-93902799D01*
X100016407Y-93990030D01*
X100042686Y-94069334D01*
X100134788Y-94218656D01*
X100258844Y-94342712D01*
X100408166Y-94434814D01*
X100574703Y-94489999D01*
X100677491Y-94500500D01*
X103877508Y-94500499D01*
X103980297Y-94489999D01*
X104146834Y-94434814D01*
X104296156Y-94342712D01*
X104420212Y-94218656D01*
X104512314Y-94069334D01*
X104567499Y-93902797D01*
X104578000Y-93800009D01*
X104577999Y-92199992D01*
X104567499Y-92097203D01*
X104512314Y-91930666D01*
X104420212Y-91781344D01*
X104296156Y-91657288D01*
X104146834Y-91565186D01*
X103980297Y-91510001D01*
X103980295Y-91510000D01*
X103877510Y-91499500D01*
X100677498Y-91499500D01*
X100677481Y-91499501D01*
X100574703Y-91510000D01*
X100574700Y-91510001D01*
X100408168Y-91565185D01*
X100408163Y-91565187D01*
X100258842Y-91657289D01*
X100134789Y-91781342D01*
X100042687Y-91930663D01*
X100042685Y-91930668D01*
X100014849Y-92014670D01*
X99987501Y-92097203D01*
X99987501Y-92097204D01*
X99987500Y-92097204D01*
X99977000Y-92199983D01*
X79000500Y-92199983D01*
X79000500Y-88916228D01*
X126649500Y-88916228D01*
X126649500Y-90583771D01*
X126682181Y-90748073D01*
X126682184Y-90748082D01*
X126746296Y-90902863D01*
X126746297Y-90902866D01*
X126839372Y-91042161D01*
X126839375Y-91042165D01*
X131457834Y-95660624D01*
X131457837Y-95660626D01*
X131457838Y-95660627D01*
X131597137Y-95753704D01*
X131597139Y-95753705D01*
X131597143Y-95753707D01*
X131679222Y-95787703D01*
X131706584Y-95799037D01*
X131751918Y-95817816D01*
X131916228Y-95850499D01*
X131916232Y-95850500D01*
X131916233Y-95850500D01*
X137083768Y-95850500D01*
X137083769Y-95850499D01*
X137248082Y-95817816D01*
X137402863Y-95753703D01*
X137542162Y-95660626D01*
X137660626Y-95542162D01*
X137753703Y-95402863D01*
X137817816Y-95248082D01*
X137850500Y-95083767D01*
X137850500Y-94916233D01*
X137817816Y-94751918D01*
X137753703Y-94597137D01*
X137689132Y-94500500D01*
X137660626Y-94457837D01*
X137578255Y-94375466D01*
X210600000Y-94375466D01*
X210600000Y-94624533D01*
X210632508Y-94871463D01*
X210696973Y-95112049D01*
X210792283Y-95342148D01*
X210792288Y-95342159D01*
X210916813Y-95557841D01*
X210916819Y-95557849D01*
X210991400Y-95655045D01*
X211784152Y-94862292D01*
X211791049Y-94878942D01*
X211878599Y-95009970D01*
X211990030Y-95121401D01*
X212121058Y-95208951D01*
X212137705Y-95215846D01*
X211344953Y-96008598D01*
X211442150Y-96083180D01*
X211442158Y-96083186D01*
X211657840Y-96207711D01*
X211657851Y-96207716D01*
X211887950Y-96303026D01*
X212128536Y-96367491D01*
X212375466Y-96400000D01*
X212624534Y-96400000D01*
X212871463Y-96367491D01*
X213112049Y-96303026D01*
X213342148Y-96207716D01*
X213342159Y-96207711D01*
X213557855Y-96083178D01*
X213655045Y-96008600D01*
X213655045Y-96008597D01*
X212862294Y-95215846D01*
X212878942Y-95208951D01*
X213009970Y-95121401D01*
X213121401Y-95009970D01*
X213208951Y-94878942D01*
X213215846Y-94862294D01*
X214008597Y-95655045D01*
X214008600Y-95655045D01*
X214083178Y-95557855D01*
X214207711Y-95342159D01*
X214207716Y-95342148D01*
X214303026Y-95112049D01*
X214367491Y-94871463D01*
X214400000Y-94624533D01*
X214400000Y-94375466D01*
X214367491Y-94128536D01*
X214303026Y-93887950D01*
X214207716Y-93657851D01*
X214207711Y-93657840D01*
X214083186Y-93442158D01*
X214083180Y-93442150D01*
X214008598Y-93344953D01*
X213215846Y-94137705D01*
X213208951Y-94121058D01*
X213121401Y-93990030D01*
X213009970Y-93878599D01*
X212878942Y-93791049D01*
X212862292Y-93784152D01*
X213655045Y-92991400D01*
X213557849Y-92916819D01*
X213557841Y-92916813D01*
X213342159Y-92792288D01*
X213342148Y-92792283D01*
X213112049Y-92696973D01*
X212871463Y-92632508D01*
X212624534Y-92600000D01*
X212375466Y-92600000D01*
X212128536Y-92632508D01*
X211887950Y-92696973D01*
X211657851Y-92792283D01*
X211657847Y-92792285D01*
X211442143Y-92916823D01*
X211344953Y-92991399D01*
X211344953Y-92991400D01*
X212137706Y-93784153D01*
X212121058Y-93791049D01*
X211990030Y-93878599D01*
X211878599Y-93990030D01*
X211791049Y-94121058D01*
X211784153Y-94137706D01*
X210991400Y-93344953D01*
X210991399Y-93344953D01*
X210916823Y-93442143D01*
X210792285Y-93657847D01*
X210792283Y-93657851D01*
X210696973Y-93887950D01*
X210632508Y-94128536D01*
X210600000Y-94375466D01*
X137578255Y-94375466D01*
X137542162Y-94339373D01*
X137402860Y-94246295D01*
X137248082Y-94182184D01*
X137248074Y-94182182D01*
X137083771Y-94149500D01*
X137083767Y-94149500D01*
X132403651Y-94149500D01*
X132336612Y-94129815D01*
X132315970Y-94113181D01*
X128386819Y-90184030D01*
X128353334Y-90122707D01*
X128350500Y-90096349D01*
X128350500Y-88916232D01*
X128350499Y-88916228D01*
X128317816Y-88751918D01*
X128253703Y-88597137D01*
X128222537Y-88550494D01*
X128160626Y-88457837D01*
X128042162Y-88339373D01*
X127902860Y-88246295D01*
X127748082Y-88182184D01*
X127748074Y-88182182D01*
X127583771Y-88149500D01*
X127583767Y-88149500D01*
X127416233Y-88149500D01*
X127416228Y-88149500D01*
X127251925Y-88182182D01*
X127251917Y-88182184D01*
X127097139Y-88246295D01*
X126957837Y-88339373D01*
X126839373Y-88457837D01*
X126746295Y-88597139D01*
X126682184Y-88751917D01*
X126682182Y-88751925D01*
X126649500Y-88916228D01*
X79000500Y-88916228D01*
X79000500Y-86416228D01*
X129462500Y-86416228D01*
X129462500Y-86583771D01*
X129495182Y-86748074D01*
X129495184Y-86748082D01*
X129559295Y-86902860D01*
X129652373Y-87042162D01*
X129770837Y-87160626D01*
X129785651Y-87170524D01*
X129910137Y-87253703D01*
X130064918Y-87317816D01*
X130229228Y-87350499D01*
X130229232Y-87350500D01*
X130229233Y-87350500D01*
X130901349Y-87350500D01*
X130968388Y-87370185D01*
X130989030Y-87386819D01*
X136722834Y-93120624D01*
X136722838Y-93120627D01*
X136862133Y-93213702D01*
X136862135Y-93213702D01*
X136862137Y-93213704D01*
X137016919Y-93277816D01*
X137016921Y-93277816D01*
X137016926Y-93277818D01*
X137181228Y-93310499D01*
X137181232Y-93310500D01*
X137181233Y-93310500D01*
X137348768Y-93310500D01*
X137348769Y-93310499D01*
X137403538Y-93299605D01*
X137513073Y-93277818D01*
X137513076Y-93277816D01*
X137513081Y-93277816D01*
X137667863Y-93213704D01*
X137807162Y-93120627D01*
X137925627Y-93002162D01*
X138018704Y-92862863D01*
X138082816Y-92708081D01*
X138115500Y-92543767D01*
X138115500Y-92376233D01*
X138115208Y-92374769D01*
X138082818Y-92211926D01*
X138082815Y-92211917D01*
X138035300Y-92097204D01*
X138018704Y-92057137D01*
X138018702Y-92057135D01*
X138018702Y-92057133D01*
X137925627Y-91917838D01*
X137925624Y-91917834D01*
X136655438Y-90647648D01*
X143199500Y-90647648D01*
X143199500Y-90852351D01*
X143231522Y-91054534D01*
X143294781Y-91249223D01*
X143387715Y-91431613D01*
X143508028Y-91597213D01*
X143652786Y-91741971D01*
X143807749Y-91854556D01*
X143818390Y-91862287D01*
X143927407Y-91917834D01*
X144000776Y-91955218D01*
X144000778Y-91955218D01*
X144000781Y-91955220D01*
X144105137Y-91989127D01*
X144195465Y-92018477D01*
X144296557Y-92034488D01*
X144397648Y-92050500D01*
X144397649Y-92050500D01*
X144602351Y-92050500D01*
X144602352Y-92050500D01*
X144804534Y-92018477D01*
X144999219Y-91955220D01*
X145181610Y-91862287D01*
X145274590Y-91794732D01*
X145347213Y-91741971D01*
X145347215Y-91741968D01*
X145347219Y-91741966D01*
X145491966Y-91597219D01*
X145491968Y-91597215D01*
X145491971Y-91597213D01*
X145555334Y-91510000D01*
X145612287Y-91431610D01*
X145705220Y-91249219D01*
X145768477Y-91054534D01*
X145800500Y-90852352D01*
X145800500Y-90647648D01*
X145768477Y-90445466D01*
X145705220Y-90250781D01*
X145705218Y-90250778D01*
X145705218Y-90250776D01*
X145652703Y-90147711D01*
X145612287Y-90068390D01*
X145604556Y-90057749D01*
X145491971Y-89902786D01*
X145347213Y-89758028D01*
X145181611Y-89637713D01*
X145127621Y-89610203D01*
X145076825Y-89562228D01*
X145060031Y-89494407D01*
X145082569Y-89428272D01*
X145127624Y-89389233D01*
X145181349Y-89361859D01*
X145225921Y-89329474D01*
X144546447Y-88650000D01*
X144552661Y-88650000D01*
X144654394Y-88622741D01*
X144745606Y-88570080D01*
X144820080Y-88495606D01*
X144872741Y-88404394D01*
X144900000Y-88302661D01*
X144900000Y-88296447D01*
X145579474Y-88975921D01*
X145611859Y-88931349D01*
X145704755Y-88749031D01*
X145767990Y-88554417D01*
X145800000Y-88352317D01*
X145800000Y-88147682D01*
X145767990Y-87945582D01*
X145704755Y-87750968D01*
X145611859Y-87568650D01*
X145579474Y-87524077D01*
X145579474Y-87524076D01*
X144900000Y-88203551D01*
X144900000Y-88197339D01*
X144872741Y-88095606D01*
X144820080Y-88004394D01*
X144745606Y-87929920D01*
X144654394Y-87877259D01*
X144552661Y-87850000D01*
X144546446Y-87850000D01*
X145225922Y-87170524D01*
X145225921Y-87170523D01*
X145181359Y-87138147D01*
X145181350Y-87138141D01*
X144999031Y-87045244D01*
X144804417Y-86982009D01*
X144602317Y-86950000D01*
X144397683Y-86950000D01*
X144195582Y-86982009D01*
X144000968Y-87045244D01*
X143818644Y-87138143D01*
X143774077Y-87170523D01*
X143774077Y-87170524D01*
X144453554Y-87850000D01*
X144447339Y-87850000D01*
X144345606Y-87877259D01*
X144254394Y-87929920D01*
X144179920Y-88004394D01*
X144127259Y-88095606D01*
X144100000Y-88197339D01*
X144100000Y-88203553D01*
X143420524Y-87524077D01*
X143420523Y-87524077D01*
X143388143Y-87568644D01*
X143295244Y-87750968D01*
X143232009Y-87945582D01*
X143200000Y-88147682D01*
X143200000Y-88352317D01*
X143232009Y-88554417D01*
X143295244Y-88749031D01*
X143388141Y-88931350D01*
X143388147Y-88931359D01*
X143420523Y-88975921D01*
X143420524Y-88975922D01*
X144100000Y-88296446D01*
X144100000Y-88302661D01*
X144127259Y-88404394D01*
X144179920Y-88495606D01*
X144254394Y-88570080D01*
X144345606Y-88622741D01*
X144447339Y-88650000D01*
X144453553Y-88650000D01*
X143774076Y-89329474D01*
X143818652Y-89361861D01*
X143872376Y-89389234D01*
X143923172Y-89437208D01*
X143939968Y-89505028D01*
X143917431Y-89571164D01*
X143872379Y-89610203D01*
X143818386Y-89637714D01*
X143652786Y-89758028D01*
X143508028Y-89902786D01*
X143387715Y-90068386D01*
X143294781Y-90250776D01*
X143231522Y-90445465D01*
X143199500Y-90647648D01*
X136655438Y-90647648D01*
X133565438Y-87557648D01*
X136199500Y-87557648D01*
X136199500Y-87762351D01*
X136231522Y-87964534D01*
X136294781Y-88159223D01*
X136341035Y-88249999D01*
X136386573Y-88339373D01*
X136387715Y-88341613D01*
X136508028Y-88507213D01*
X136652786Y-88651971D01*
X136795664Y-88755776D01*
X136818390Y-88772287D01*
X136934607Y-88831503D01*
X137000776Y-88865218D01*
X137000778Y-88865218D01*
X137000781Y-88865220D01*
X137066422Y-88886548D01*
X137195465Y-88928477D01*
X137296557Y-88944488D01*
X137397648Y-88960500D01*
X137397649Y-88960500D01*
X137602351Y-88960500D01*
X137602352Y-88960500D01*
X137804534Y-88928477D01*
X137999219Y-88865220D01*
X138181610Y-88772287D01*
X138274590Y-88704732D01*
X138347213Y-88651971D01*
X138347215Y-88651968D01*
X138347219Y-88651966D01*
X138491966Y-88507219D01*
X138491968Y-88507215D01*
X138491971Y-88507213D01*
X138566672Y-88404394D01*
X138612287Y-88341610D01*
X138705220Y-88159219D01*
X138768477Y-87964534D01*
X138800500Y-87762352D01*
X138800500Y-87557648D01*
X138768477Y-87355466D01*
X138768476Y-87355462D01*
X138768476Y-87355461D01*
X138736192Y-87256101D01*
X138716555Y-87195668D01*
X138705220Y-87160781D01*
X138705218Y-87160778D01*
X138705218Y-87160776D01*
X138671503Y-87094607D01*
X138612287Y-86978390D01*
X138557412Y-86902860D01*
X138491971Y-86812786D01*
X138347213Y-86668028D01*
X138181613Y-86547715D01*
X138181612Y-86547714D01*
X138181610Y-86547713D01*
X138124653Y-86518691D01*
X137999223Y-86454781D01*
X137804534Y-86391522D01*
X137629995Y-86363878D01*
X137602352Y-86359500D01*
X137397648Y-86359500D01*
X137373329Y-86363351D01*
X137195465Y-86391522D01*
X137000776Y-86454781D01*
X136818386Y-86547715D01*
X136652786Y-86668028D01*
X136508028Y-86812786D01*
X136387715Y-86978386D01*
X136294781Y-87160776D01*
X136231522Y-87355465D01*
X136199500Y-87557648D01*
X133565438Y-87557648D01*
X131847165Y-85839375D01*
X131847161Y-85839372D01*
X131707866Y-85746297D01*
X131707863Y-85746296D01*
X131594799Y-85699464D01*
X131553082Y-85682184D01*
X131553074Y-85682182D01*
X131388771Y-85649500D01*
X131388767Y-85649500D01*
X130229233Y-85649500D01*
X130229228Y-85649500D01*
X130064925Y-85682182D01*
X130064917Y-85682184D01*
X129910139Y-85746295D01*
X129770837Y-85839373D01*
X129652373Y-85957837D01*
X129559295Y-86097139D01*
X129495184Y-86251917D01*
X129495182Y-86251925D01*
X129462500Y-86416228D01*
X79000500Y-86416228D01*
X79000500Y-83897648D01*
X125949500Y-83897648D01*
X125949500Y-84102351D01*
X125981522Y-84304534D01*
X126044781Y-84499223D01*
X126108691Y-84624653D01*
X126126577Y-84659755D01*
X126137715Y-84681613D01*
X126258028Y-84847213D01*
X126402786Y-84991971D01*
X126557749Y-85104556D01*
X126568390Y-85112287D01*
X126684607Y-85171503D01*
X126750776Y-85205218D01*
X126750778Y-85205218D01*
X126750781Y-85205220D01*
X126855137Y-85239127D01*
X126945465Y-85268477D01*
X127046557Y-85284488D01*
X127147648Y-85300500D01*
X127147649Y-85300500D01*
X127352351Y-85300500D01*
X127352352Y-85300500D01*
X127554534Y-85268477D01*
X127749219Y-85205220D01*
X127931610Y-85112287D01*
X128024590Y-85044732D01*
X128097213Y-84991971D01*
X128097215Y-84991968D01*
X128097219Y-84991966D01*
X128241966Y-84847219D01*
X128241968Y-84847215D01*
X128241971Y-84847213D01*
X128294732Y-84774590D01*
X128362287Y-84681610D01*
X128389515Y-84628171D01*
X128437490Y-84577376D01*
X128505311Y-84560581D01*
X128571446Y-84583118D01*
X128610484Y-84628171D01*
X128626577Y-84659755D01*
X128637715Y-84681613D01*
X128758028Y-84847213D01*
X128902786Y-84991971D01*
X129057749Y-85104556D01*
X129068390Y-85112287D01*
X129184607Y-85171503D01*
X129250776Y-85205218D01*
X129250778Y-85205218D01*
X129250781Y-85205220D01*
X129355137Y-85239127D01*
X129445465Y-85268477D01*
X129546557Y-85284488D01*
X129647648Y-85300500D01*
X129647649Y-85300500D01*
X129852351Y-85300500D01*
X129852352Y-85300500D01*
X130054534Y-85268477D01*
X130249219Y-85205220D01*
X130431610Y-85112287D01*
X130524590Y-85044732D01*
X130597213Y-84991971D01*
X130597215Y-84991968D01*
X130597219Y-84991966D01*
X130741966Y-84847219D01*
X130741968Y-84847215D01*
X130741971Y-84847213D01*
X130794732Y-84774590D01*
X130862287Y-84681610D01*
X130955220Y-84499219D01*
X131018477Y-84304534D01*
X131050500Y-84102352D01*
X131050500Y-83897648D01*
X131018477Y-83695466D01*
X131012890Y-83678272D01*
X130961459Y-83519983D01*
X130955220Y-83500781D01*
X130955218Y-83500778D01*
X130955218Y-83500776D01*
X130889515Y-83371828D01*
X130862287Y-83318390D01*
X130795106Y-83225922D01*
X130741971Y-83152786D01*
X130597213Y-83008028D01*
X130431613Y-82887715D01*
X130431612Y-82887714D01*
X130431610Y-82887713D01*
X130364567Y-82853553D01*
X130249223Y-82794781D01*
X130054534Y-82731522D01*
X129879995Y-82703878D01*
X129852352Y-82699500D01*
X129647648Y-82699500D01*
X129623329Y-82703351D01*
X129445465Y-82731522D01*
X129250776Y-82794781D01*
X129068386Y-82887715D01*
X128902786Y-83008028D01*
X128758028Y-83152786D01*
X128637713Y-83318388D01*
X128610484Y-83371828D01*
X128562510Y-83422623D01*
X128494688Y-83439418D01*
X128428554Y-83416880D01*
X128389516Y-83371828D01*
X128362286Y-83318388D01*
X128241971Y-83152786D01*
X128097213Y-83008028D01*
X127931613Y-82887715D01*
X127931612Y-82887714D01*
X127931610Y-82887713D01*
X127864567Y-82853553D01*
X127749223Y-82794781D01*
X127554534Y-82731522D01*
X127379995Y-82703878D01*
X127352352Y-82699500D01*
X127147648Y-82699500D01*
X127123329Y-82703351D01*
X126945465Y-82731522D01*
X126750776Y-82794781D01*
X126568386Y-82887715D01*
X126402786Y-83008028D01*
X126258028Y-83152786D01*
X126137715Y-83318386D01*
X126044781Y-83500776D01*
X125981522Y-83695465D01*
X125949500Y-83897648D01*
X79000500Y-83897648D01*
X79000500Y-81459635D01*
X150549500Y-81459635D01*
X150549500Y-83460370D01*
X150549501Y-83460376D01*
X150555908Y-83519983D01*
X150606202Y-83654828D01*
X150606206Y-83654835D01*
X150692452Y-83770044D01*
X150692455Y-83770047D01*
X150807664Y-83856293D01*
X150807669Y-83856296D01*
X150835539Y-83866690D01*
X150891473Y-83908561D01*
X150915891Y-83974024D01*
X150901040Y-84042298D01*
X150892525Y-84055759D01*
X150759783Y-84238461D01*
X150655950Y-84442244D01*
X150585278Y-84659750D01*
X150585278Y-84659753D01*
X150549500Y-84885646D01*
X150549500Y-85114353D01*
X150585278Y-85340246D01*
X150585278Y-85340249D01*
X150655950Y-85557755D01*
X150677221Y-85599501D01*
X150759783Y-85761538D01*
X150894214Y-85946566D01*
X151055934Y-86108286D01*
X151125423Y-86158773D01*
X151140438Y-86169682D01*
X151183103Y-86225013D01*
X151189082Y-86294626D01*
X151156476Y-86356421D01*
X151140438Y-86370318D01*
X151055932Y-86431715D01*
X150894216Y-86593431D01*
X150894216Y-86593432D01*
X150894214Y-86593434D01*
X150847578Y-86657623D01*
X150759783Y-86778461D01*
X150655950Y-86982244D01*
X150585278Y-87199750D01*
X150585278Y-87199753D01*
X150549500Y-87425646D01*
X150549500Y-87654353D01*
X150585278Y-87880246D01*
X150585278Y-87880249D01*
X150655950Y-88097755D01*
X150759783Y-88301538D01*
X150894214Y-88486566D01*
X151055934Y-88648286D01*
X151240962Y-88782717D01*
X151444742Y-88886548D01*
X151444744Y-88886549D01*
X151662251Y-88957221D01*
X151662252Y-88957221D01*
X151662255Y-88957222D01*
X151888146Y-88993000D01*
X151888147Y-88993000D01*
X152211853Y-88993000D01*
X152211854Y-88993000D01*
X152437745Y-88957222D01*
X152437748Y-88957221D01*
X152437749Y-88957221D01*
X152655255Y-88886549D01*
X152655255Y-88886548D01*
X152655258Y-88886548D01*
X152859038Y-88782717D01*
X153044066Y-88648286D01*
X153205786Y-88486566D01*
X153340217Y-88301538D01*
X153444048Y-88097758D01*
X153514722Y-87880245D01*
X153550500Y-87654354D01*
X153550500Y-87425646D01*
X153542548Y-87375441D01*
X210599500Y-87375441D01*
X210599500Y-87624558D01*
X210599501Y-87624575D01*
X210632017Y-87871561D01*
X210696498Y-88112207D01*
X210791830Y-88342361D01*
X210791837Y-88342376D01*
X210916400Y-88558126D01*
X211068060Y-88755774D01*
X211068066Y-88755781D01*
X211244218Y-88931933D01*
X211244225Y-88931939D01*
X211441873Y-89083599D01*
X211657623Y-89208162D01*
X211657638Y-89208169D01*
X211756825Y-89249253D01*
X211887793Y-89303502D01*
X212128435Y-89367982D01*
X212375435Y-89400500D01*
X212375442Y-89400500D01*
X212624558Y-89400500D01*
X212624565Y-89400500D01*
X212871565Y-89367982D01*
X213112207Y-89303502D01*
X213342373Y-89208164D01*
X213558127Y-89083599D01*
X213755776Y-88931938D01*
X213931938Y-88755776D01*
X214083599Y-88558127D01*
X214208164Y-88342373D01*
X214303502Y-88112207D01*
X214367982Y-87871565D01*
X214400500Y-87624565D01*
X214400500Y-87375435D01*
X214367982Y-87128435D01*
X214303502Y-86887793D01*
X214212475Y-86668034D01*
X214208169Y-86657638D01*
X214208162Y-86657623D01*
X214083599Y-86441873D01*
X213931939Y-86244225D01*
X213931933Y-86244218D01*
X213755781Y-86068066D01*
X213755774Y-86068060D01*
X213558126Y-85916400D01*
X213342376Y-85791837D01*
X213342361Y-85791830D01*
X213112207Y-85696498D01*
X213056644Y-85681610D01*
X212871565Y-85632018D01*
X212871564Y-85632017D01*
X212871561Y-85632017D01*
X212624575Y-85599501D01*
X212624570Y-85599500D01*
X212624565Y-85599500D01*
X212375435Y-85599500D01*
X212375429Y-85599500D01*
X212375424Y-85599501D01*
X212128438Y-85632017D01*
X211887792Y-85696498D01*
X211657638Y-85791830D01*
X211657623Y-85791837D01*
X211441873Y-85916400D01*
X211244225Y-86068060D01*
X211244218Y-86068066D01*
X211068066Y-86244218D01*
X211068060Y-86244225D01*
X210916400Y-86441873D01*
X210791837Y-86657623D01*
X210791830Y-86657638D01*
X210696498Y-86887792D01*
X210632017Y-87128438D01*
X210599501Y-87375424D01*
X210599500Y-87375441D01*
X153542548Y-87375441D01*
X153514722Y-87199755D01*
X153514721Y-87199751D01*
X153514721Y-87199750D01*
X153444049Y-86982244D01*
X153340216Y-86778461D01*
X153205786Y-86593434D01*
X153044066Y-86431714D01*
X152959559Y-86370316D01*
X152916896Y-86314988D01*
X152910917Y-86245375D01*
X152943523Y-86183580D01*
X152959556Y-86169685D01*
X153044066Y-86108286D01*
X153205786Y-85946566D01*
X153340217Y-85761538D01*
X153444048Y-85557758D01*
X153463067Y-85499223D01*
X153514721Y-85340249D01*
X153514721Y-85340248D01*
X153514722Y-85340245D01*
X153550500Y-85114354D01*
X153550500Y-84897648D01*
X162199500Y-84897648D01*
X162199500Y-85102351D01*
X162231522Y-85304534D01*
X162294781Y-85499223D01*
X162387715Y-85681613D01*
X162508028Y-85847213D01*
X162652786Y-85991971D01*
X162797538Y-86097137D01*
X162818390Y-86112287D01*
X162931034Y-86169682D01*
X163000776Y-86205218D01*
X163000778Y-86205218D01*
X163000781Y-86205220D01*
X163061698Y-86225013D01*
X163195465Y-86268477D01*
X163296557Y-86284488D01*
X163397648Y-86300500D01*
X163397649Y-86300500D01*
X163602351Y-86300500D01*
X163602352Y-86300500D01*
X163804534Y-86268477D01*
X163999219Y-86205220D01*
X164181610Y-86112287D01*
X164274590Y-86044732D01*
X164347213Y-85991971D01*
X164347215Y-85991968D01*
X164347219Y-85991966D01*
X164491966Y-85847219D01*
X164491968Y-85847215D01*
X164491971Y-85847213D01*
X164554216Y-85761538D01*
X164612287Y-85681610D01*
X164705220Y-85499219D01*
X164768477Y-85304534D01*
X164800500Y-85102352D01*
X164800500Y-84897648D01*
X171699500Y-84897648D01*
X171699500Y-85102351D01*
X171731522Y-85304534D01*
X171794781Y-85499223D01*
X171887715Y-85681613D01*
X172008028Y-85847213D01*
X172152786Y-85991971D01*
X172297538Y-86097137D01*
X172318390Y-86112287D01*
X172431034Y-86169682D01*
X172500776Y-86205218D01*
X172500778Y-86205218D01*
X172500781Y-86205220D01*
X172561698Y-86225013D01*
X172695465Y-86268477D01*
X172796557Y-86284488D01*
X172897648Y-86300500D01*
X172897649Y-86300500D01*
X173102351Y-86300500D01*
X173102352Y-86300500D01*
X173304534Y-86268477D01*
X173499219Y-86205220D01*
X173681610Y-86112287D01*
X173774590Y-86044732D01*
X173847213Y-85991971D01*
X173847215Y-85991968D01*
X173847219Y-85991966D01*
X173991966Y-85847219D01*
X173991968Y-85847215D01*
X173991971Y-85847213D01*
X174054216Y-85761538D01*
X174112287Y-85681610D01*
X174205220Y-85499219D01*
X174268477Y-85304534D01*
X174300500Y-85102352D01*
X174300500Y-84897648D01*
X174268477Y-84695466D01*
X174205220Y-84500781D01*
X174205218Y-84500778D01*
X174205218Y-84500776D01*
X174171503Y-84434607D01*
X174112287Y-84318390D01*
X174102220Y-84304534D01*
X173991971Y-84152786D01*
X173847213Y-84008028D01*
X173681611Y-83887713D01*
X173627621Y-83860203D01*
X173576825Y-83812228D01*
X173560031Y-83744407D01*
X173582569Y-83678272D01*
X173627624Y-83639233D01*
X173681349Y-83611859D01*
X173725921Y-83579474D01*
X173046447Y-82900000D01*
X173052661Y-82900000D01*
X173154394Y-82872741D01*
X173245606Y-82820080D01*
X173320080Y-82745606D01*
X173372741Y-82654394D01*
X173400000Y-82552661D01*
X173400000Y-82546448D01*
X174079474Y-83225922D01*
X174079474Y-83225921D01*
X174111859Y-83181349D01*
X174204755Y-82999031D01*
X174267990Y-82804417D01*
X174300000Y-82602317D01*
X174300000Y-82397682D01*
X174267990Y-82195582D01*
X174204755Y-82000968D01*
X174111859Y-81818650D01*
X174079474Y-81774077D01*
X174079474Y-81774076D01*
X173400000Y-82453551D01*
X173400000Y-82447339D01*
X173372741Y-82345606D01*
X173320080Y-82254394D01*
X173245606Y-82179920D01*
X173154394Y-82127259D01*
X173052661Y-82100000D01*
X173046446Y-82100000D01*
X173725922Y-81420524D01*
X173725921Y-81420523D01*
X173681359Y-81388147D01*
X173681350Y-81388141D01*
X173499031Y-81295244D01*
X173304417Y-81232009D01*
X173102317Y-81200000D01*
X172897683Y-81200000D01*
X172695582Y-81232009D01*
X172500968Y-81295244D01*
X172318644Y-81388143D01*
X172274077Y-81420523D01*
X172274077Y-81420524D01*
X172953554Y-82100000D01*
X172947339Y-82100000D01*
X172845606Y-82127259D01*
X172754394Y-82179920D01*
X172679920Y-82254394D01*
X172627259Y-82345606D01*
X172600000Y-82447339D01*
X172600000Y-82453553D01*
X171920524Y-81774077D01*
X171920523Y-81774077D01*
X171888143Y-81818644D01*
X171795244Y-82000968D01*
X171732009Y-82195582D01*
X171700000Y-82397682D01*
X171700000Y-82602317D01*
X171732009Y-82804417D01*
X171795244Y-82999031D01*
X171888141Y-83181350D01*
X171888147Y-83181359D01*
X171920523Y-83225921D01*
X171920524Y-83225922D01*
X172600000Y-82546446D01*
X172600000Y-82552661D01*
X172627259Y-82654394D01*
X172679920Y-82745606D01*
X172754394Y-82820080D01*
X172845606Y-82872741D01*
X172947339Y-82900000D01*
X172953553Y-82900000D01*
X172274076Y-83579474D01*
X172318652Y-83611861D01*
X172372376Y-83639234D01*
X172423172Y-83687208D01*
X172439968Y-83755028D01*
X172417431Y-83821164D01*
X172372379Y-83860203D01*
X172318386Y-83887714D01*
X172152786Y-84008028D01*
X172008028Y-84152786D01*
X171887715Y-84318386D01*
X171794781Y-84500776D01*
X171731522Y-84695465D01*
X171699500Y-84897648D01*
X164800500Y-84897648D01*
X164768477Y-84695466D01*
X164705220Y-84500781D01*
X164705218Y-84500778D01*
X164705218Y-84500776D01*
X164671503Y-84434607D01*
X164612287Y-84318390D01*
X164602220Y-84304534D01*
X164491971Y-84152786D01*
X164347213Y-84008028D01*
X164181611Y-83887713D01*
X164127621Y-83860203D01*
X164076825Y-83812228D01*
X164060031Y-83744407D01*
X164082569Y-83678272D01*
X164127624Y-83639233D01*
X164181349Y-83611859D01*
X164225921Y-83579474D01*
X163546447Y-82900000D01*
X163552661Y-82900000D01*
X163654394Y-82872741D01*
X163745606Y-82820080D01*
X163820080Y-82745606D01*
X163872741Y-82654394D01*
X163900000Y-82552661D01*
X163900000Y-82546448D01*
X164579474Y-83225922D01*
X164579474Y-83225921D01*
X164611859Y-83181349D01*
X164704755Y-82999031D01*
X164767990Y-82804417D01*
X164800000Y-82602317D01*
X164800000Y-82397682D01*
X164767990Y-82195582D01*
X164704755Y-82000968D01*
X164611859Y-81818650D01*
X164579474Y-81774077D01*
X164579474Y-81774076D01*
X163900000Y-82453551D01*
X163900000Y-82447339D01*
X163872741Y-82345606D01*
X163820080Y-82254394D01*
X163745606Y-82179920D01*
X163654394Y-82127259D01*
X163552661Y-82100000D01*
X163546446Y-82100000D01*
X164225922Y-81420524D01*
X164225921Y-81420523D01*
X164181359Y-81388147D01*
X164181350Y-81388141D01*
X163999031Y-81295244D01*
X163804417Y-81232009D01*
X163602317Y-81200000D01*
X163397683Y-81200000D01*
X163195582Y-81232009D01*
X163000968Y-81295244D01*
X162818644Y-81388143D01*
X162774077Y-81420523D01*
X162774077Y-81420524D01*
X163453554Y-82100000D01*
X163447339Y-82100000D01*
X163345606Y-82127259D01*
X163254394Y-82179920D01*
X163179920Y-82254394D01*
X163127259Y-82345606D01*
X163100000Y-82447339D01*
X163100000Y-82453553D01*
X162420524Y-81774077D01*
X162420523Y-81774077D01*
X162388143Y-81818644D01*
X162295244Y-82000968D01*
X162232009Y-82195582D01*
X162200000Y-82397682D01*
X162200000Y-82602317D01*
X162232009Y-82804417D01*
X162295244Y-82999031D01*
X162388141Y-83181350D01*
X162388147Y-83181359D01*
X162420523Y-83225921D01*
X162420524Y-83225922D01*
X163100000Y-82546446D01*
X163100000Y-82552661D01*
X163127259Y-82654394D01*
X163179920Y-82745606D01*
X163254394Y-82820080D01*
X163345606Y-82872741D01*
X163447339Y-82900000D01*
X163453553Y-82900000D01*
X162774076Y-83579474D01*
X162818652Y-83611861D01*
X162872376Y-83639234D01*
X162923172Y-83687208D01*
X162939968Y-83755028D01*
X162917431Y-83821164D01*
X162872379Y-83860203D01*
X162818386Y-83887714D01*
X162652786Y-84008028D01*
X162508028Y-84152786D01*
X162387715Y-84318386D01*
X162294781Y-84500776D01*
X162231522Y-84695465D01*
X162199500Y-84897648D01*
X153550500Y-84897648D01*
X153550500Y-84885646D01*
X153514722Y-84659755D01*
X153514721Y-84659751D01*
X153514721Y-84659750D01*
X153444049Y-84442244D01*
X153340216Y-84238461D01*
X153207472Y-84055755D01*
X153183994Y-83989953D01*
X153199819Y-83921899D01*
X153249925Y-83873204D01*
X153264455Y-83866692D01*
X153292331Y-83856296D01*
X153407546Y-83770046D01*
X153493796Y-83654831D01*
X153544091Y-83519983D01*
X153550500Y-83460373D01*
X153550499Y-81459628D01*
X153544091Y-81400017D01*
X153539662Y-81388143D01*
X153493797Y-81265171D01*
X153493793Y-81265164D01*
X153407547Y-81149955D01*
X153407544Y-81149952D01*
X153292335Y-81063706D01*
X153292328Y-81063702D01*
X153157482Y-81013408D01*
X153157483Y-81013408D01*
X153097883Y-81007001D01*
X153097881Y-81007000D01*
X153097873Y-81007000D01*
X153097864Y-81007000D01*
X151002129Y-81007000D01*
X151002123Y-81007001D01*
X150942516Y-81013408D01*
X150807671Y-81063702D01*
X150807664Y-81063706D01*
X150692455Y-81149952D01*
X150692452Y-81149955D01*
X150606206Y-81265164D01*
X150606202Y-81265171D01*
X150555908Y-81400017D01*
X150549501Y-81459616D01*
X150549501Y-81459623D01*
X150549500Y-81459635D01*
X79000500Y-81459635D01*
X79000500Y-77397648D01*
X136199500Y-77397648D01*
X136199500Y-77602351D01*
X136231522Y-77804534D01*
X136294781Y-77999223D01*
X136387715Y-78181613D01*
X136508028Y-78347213D01*
X136652786Y-78491971D01*
X136807749Y-78604556D01*
X136818390Y-78612287D01*
X136934607Y-78671503D01*
X137000776Y-78705218D01*
X137000778Y-78705218D01*
X137000781Y-78705220D01*
X137105137Y-78739127D01*
X137195465Y-78768477D01*
X137296557Y-78784488D01*
X137397648Y-78800500D01*
X137397649Y-78800500D01*
X137602351Y-78800500D01*
X137602352Y-78800500D01*
X137804534Y-78768477D01*
X137999219Y-78705220D01*
X138181610Y-78612287D01*
X138274590Y-78544732D01*
X138347213Y-78491971D01*
X138347215Y-78491968D01*
X138347219Y-78491966D01*
X138491966Y-78347219D01*
X138491968Y-78347215D01*
X138491971Y-78347213D01*
X138544732Y-78274590D01*
X138612287Y-78181610D01*
X138705220Y-77999219D01*
X138768477Y-77804534D01*
X138800500Y-77602352D01*
X138800500Y-77397648D01*
X138768477Y-77195466D01*
X138705220Y-77000781D01*
X138705218Y-77000778D01*
X138705218Y-77000776D01*
X138671503Y-76934607D01*
X138612287Y-76818390D01*
X138604556Y-76807749D01*
X138491971Y-76652786D01*
X138347213Y-76508028D01*
X138181613Y-76387715D01*
X138181612Y-76387714D01*
X138181610Y-76387713D01*
X138124653Y-76358691D01*
X137999223Y-76294781D01*
X137804534Y-76231522D01*
X137629995Y-76203878D01*
X137602352Y-76199500D01*
X137397648Y-76199500D01*
X137373329Y-76203351D01*
X137195465Y-76231522D01*
X137000776Y-76294781D01*
X136818386Y-76387715D01*
X136652786Y-76508028D01*
X136508028Y-76652786D01*
X136387715Y-76818386D01*
X136294781Y-77000776D01*
X136231522Y-77195465D01*
X136199500Y-77397648D01*
X79000500Y-77397648D01*
X79000500Y-74027682D01*
X94080000Y-74027682D01*
X94080000Y-74330000D01*
X95010496Y-74330000D01*
X94965326Y-74408236D01*
X94935000Y-74521415D01*
X94935000Y-74638585D01*
X94965326Y-74751764D01*
X95010496Y-74830000D01*
X94080000Y-74830000D01*
X94080000Y-75132317D01*
X94112009Y-75334417D01*
X94175244Y-75529031D01*
X94268140Y-75711349D01*
X94388417Y-75876894D01*
X94388417Y-75876895D01*
X94533104Y-76021582D01*
X94698650Y-76141859D01*
X94880968Y-76234754D01*
X95075578Y-76297988D01*
X95130000Y-76306607D01*
X95130000Y-74949504D01*
X95208236Y-74994674D01*
X95321415Y-75025000D01*
X95438585Y-75025000D01*
X95551764Y-74994674D01*
X95630000Y-74949504D01*
X95630000Y-76306606D01*
X95684421Y-76297988D01*
X95879031Y-76234754D01*
X96061349Y-76141859D01*
X96226894Y-76021582D01*
X96226895Y-76021582D01*
X96371582Y-75876895D01*
X96371582Y-75876894D01*
X96491861Y-75711347D01*
X96539234Y-75618371D01*
X96587208Y-75567575D01*
X96655028Y-75550779D01*
X96721164Y-75573316D01*
X96760203Y-75618369D01*
X96807713Y-75711611D01*
X96928028Y-75877213D01*
X97072786Y-76021971D01*
X97227749Y-76134556D01*
X97238390Y-76142287D01*
X97350677Y-76199500D01*
X97420776Y-76235218D01*
X97420778Y-76235218D01*
X97420781Y-76235220D01*
X97525137Y-76269127D01*
X97615465Y-76298477D01*
X97716557Y-76314488D01*
X97817648Y-76330500D01*
X97817649Y-76330500D01*
X98022351Y-76330500D01*
X98022352Y-76330500D01*
X98224534Y-76298477D01*
X98419219Y-76235220D01*
X98601610Y-76142287D01*
X98694590Y-76074732D01*
X98767213Y-76021971D01*
X98767215Y-76021968D01*
X98767219Y-76021966D01*
X98911966Y-75877219D01*
X98911968Y-75877215D01*
X98911971Y-75877213D01*
X98964732Y-75804590D01*
X99032287Y-75711610D01*
X99125220Y-75529219D01*
X99188477Y-75334534D01*
X99220500Y-75132352D01*
X99220500Y-74027648D01*
X99188477Y-73825465D01*
X99159127Y-73735137D01*
X99125220Y-73630781D01*
X99125218Y-73630778D01*
X99125218Y-73630776D01*
X99079794Y-73541628D01*
X99032287Y-73448390D01*
X98986349Y-73385161D01*
X98911971Y-73282786D01*
X98767213Y-73138028D01*
X98601613Y-73017715D01*
X98601612Y-73017714D01*
X98601610Y-73017713D01*
X98544653Y-72988691D01*
X98419223Y-72924781D01*
X98224534Y-72861522D01*
X98049995Y-72833878D01*
X98022352Y-72829500D01*
X97817648Y-72829500D01*
X97793329Y-72833351D01*
X97615465Y-72861522D01*
X97420776Y-72924781D01*
X97238386Y-73017715D01*
X97072786Y-73138028D01*
X96928028Y-73282786D01*
X96807713Y-73448388D01*
X96760203Y-73541630D01*
X96712228Y-73592426D01*
X96644407Y-73609220D01*
X96578272Y-73586682D01*
X96539234Y-73541628D01*
X96491861Y-73448652D01*
X96371582Y-73283105D01*
X96371582Y-73283104D01*
X96226895Y-73138417D01*
X96061349Y-73018140D01*
X95879029Y-72925244D01*
X95684413Y-72862009D01*
X95630000Y-72853390D01*
X95630000Y-74210495D01*
X95551764Y-74165326D01*
X95438585Y-74135000D01*
X95321415Y-74135000D01*
X95208236Y-74165326D01*
X95130000Y-74210495D01*
X95130000Y-72853390D01*
X95075586Y-72862009D01*
X94880970Y-72925244D01*
X94698650Y-73018140D01*
X94533105Y-73138417D01*
X94533104Y-73138417D01*
X94388417Y-73283104D01*
X94388417Y-73283105D01*
X94268140Y-73448650D01*
X94175244Y-73630968D01*
X94112009Y-73825582D01*
X94080000Y-74027682D01*
X79000500Y-74027682D01*
X79000500Y-65359568D01*
X80999500Y-65359568D01*
X80999500Y-65640431D01*
X81030942Y-65919494D01*
X81030945Y-65919512D01*
X81093439Y-66193317D01*
X81093443Y-66193329D01*
X81186200Y-66458411D01*
X81308053Y-66711442D01*
X81308055Y-66711445D01*
X81457477Y-66949248D01*
X81518046Y-67025199D01*
X81623832Y-67157851D01*
X81632584Y-67168825D01*
X81831175Y-67367416D01*
X82050752Y-67542523D01*
X82288555Y-67691945D01*
X82541592Y-67813801D01*
X82740680Y-67883465D01*
X82806670Y-67906556D01*
X82806682Y-67906560D01*
X83080491Y-67969055D01*
X83080497Y-67969055D01*
X83080505Y-67969057D01*
X83266547Y-67990018D01*
X83359569Y-68000499D01*
X83359572Y-68000500D01*
X83359575Y-68000500D01*
X83640428Y-68000500D01*
X83640429Y-68000499D01*
X83783055Y-67984429D01*
X83919494Y-67969057D01*
X83919499Y-67969056D01*
X83919509Y-67969055D01*
X84193318Y-67906560D01*
X84458408Y-67813801D01*
X84711445Y-67691945D01*
X84853743Y-67602533D01*
X90590000Y-67602533D01*
X90590000Y-69250000D01*
X91865038Y-69250000D01*
X91835000Y-69401016D01*
X91835000Y-69598984D01*
X91865038Y-69750000D01*
X90590000Y-69750000D01*
X90590000Y-71397466D01*
X90590001Y-71397483D01*
X90628496Y-71689884D01*
X90628499Y-71689897D01*
X90704835Y-71974790D01*
X90704838Y-71974800D01*
X90817704Y-72247281D01*
X90817709Y-72247292D01*
X90965174Y-72502707D01*
X90965185Y-72502723D01*
X91144729Y-72736709D01*
X91144735Y-72736716D01*
X91353283Y-72945264D01*
X91353290Y-72945270D01*
X91587276Y-73124814D01*
X91587292Y-73124825D01*
X91842707Y-73272290D01*
X91842718Y-73272295D01*
X92115199Y-73385161D01*
X92115209Y-73385164D01*
X92400102Y-73461500D01*
X92400115Y-73461503D01*
X92590000Y-73486502D01*
X92590000Y-70474961D01*
X92741016Y-70505000D01*
X92938984Y-70505000D01*
X93090000Y-70474961D01*
X93090000Y-73486501D01*
X93279884Y-73461503D01*
X93279897Y-73461500D01*
X93564790Y-73385164D01*
X93564800Y-73385161D01*
X93837281Y-73272295D01*
X93837292Y-73272290D01*
X94092707Y-73124825D01*
X94092723Y-73124814D01*
X94326709Y-72945270D01*
X94326716Y-72945264D01*
X94535264Y-72736716D01*
X94535270Y-72736709D01*
X94714814Y-72502723D01*
X94714825Y-72502707D01*
X94862290Y-72247292D01*
X94862295Y-72247281D01*
X94975161Y-71974800D01*
X94975164Y-71974790D01*
X95051500Y-71689897D01*
X95051503Y-71689884D01*
X95089998Y-71397483D01*
X95090000Y-71397466D01*
X95090000Y-69750000D01*
X93814962Y-69750000D01*
X93845000Y-69598984D01*
X93845000Y-69401016D01*
X93814962Y-69250000D01*
X95090000Y-69250000D01*
X95090000Y-67602533D01*
X100750000Y-67602533D01*
X100750000Y-69250000D01*
X102025038Y-69250000D01*
X101995000Y-69401016D01*
X101995000Y-69598984D01*
X102025038Y-69750000D01*
X100750000Y-69750000D01*
X100750000Y-71397466D01*
X100750001Y-71397483D01*
X100788496Y-71689884D01*
X100788499Y-71689897D01*
X100864835Y-71974790D01*
X100864838Y-71974800D01*
X100977704Y-72247281D01*
X100977709Y-72247292D01*
X101125174Y-72502707D01*
X101125185Y-72502723D01*
X101304729Y-72736709D01*
X101304735Y-72736716D01*
X101513283Y-72945264D01*
X101513290Y-72945270D01*
X101747276Y-73124814D01*
X101747292Y-73124825D01*
X102002707Y-73272290D01*
X102002718Y-73272295D01*
X102275199Y-73385161D01*
X102275209Y-73385164D01*
X102560102Y-73461500D01*
X102560115Y-73461503D01*
X102750000Y-73486502D01*
X102750000Y-70474961D01*
X102901016Y-70505000D01*
X103098984Y-70505000D01*
X103250000Y-70474961D01*
X103250000Y-73486501D01*
X103439884Y-73461503D01*
X103439897Y-73461500D01*
X103724790Y-73385164D01*
X103724800Y-73385161D01*
X103997281Y-73272295D01*
X103997292Y-73272290D01*
X104252707Y-73124825D01*
X104252723Y-73124814D01*
X104486709Y-72945270D01*
X104486716Y-72945264D01*
X104695264Y-72736716D01*
X104695270Y-72736709D01*
X104874814Y-72502723D01*
X104874825Y-72502707D01*
X105022290Y-72247292D01*
X105022295Y-72247281D01*
X105135161Y-71974800D01*
X105135164Y-71974790D01*
X105211500Y-71689897D01*
X105211503Y-71689884D01*
X105249998Y-71397483D01*
X105250000Y-71397466D01*
X105250000Y-69750000D01*
X103974962Y-69750000D01*
X104005000Y-69598984D01*
X104005000Y-69401016D01*
X103974962Y-69250000D01*
X105250000Y-69250000D01*
X105250000Y-67875441D01*
X114099500Y-67875441D01*
X114099500Y-68124558D01*
X114099501Y-68124575D01*
X114132017Y-68371561D01*
X114196498Y-68612207D01*
X114291830Y-68842361D01*
X114291837Y-68842376D01*
X114416400Y-69058126D01*
X114568060Y-69255774D01*
X114568066Y-69255781D01*
X114744218Y-69431933D01*
X114744225Y-69431939D01*
X114941873Y-69583599D01*
X115157623Y-69708162D01*
X115157638Y-69708169D01*
X115256825Y-69749253D01*
X115387793Y-69803502D01*
X115628435Y-69867982D01*
X115875435Y-69900500D01*
X115875442Y-69900500D01*
X116124558Y-69900500D01*
X116124565Y-69900500D01*
X116371565Y-69867982D01*
X116612207Y-69803502D01*
X116842373Y-69708164D01*
X117058127Y-69583599D01*
X117255776Y-69431938D01*
X117255781Y-69431933D01*
X117314750Y-69372965D01*
X117431933Y-69255781D01*
X117431938Y-69255776D01*
X117583599Y-69058127D01*
X117708164Y-68842373D01*
X117803502Y-68612207D01*
X117867982Y-68371565D01*
X117900500Y-68124565D01*
X117900500Y-67875466D01*
X121100000Y-67875466D01*
X121100000Y-68124533D01*
X121132508Y-68371463D01*
X121196973Y-68612049D01*
X121292283Y-68842148D01*
X121292288Y-68842159D01*
X121416813Y-69057841D01*
X121416819Y-69057849D01*
X121491400Y-69155045D01*
X122284152Y-68362292D01*
X122291049Y-68378942D01*
X122378599Y-68509970D01*
X122490030Y-68621401D01*
X122621058Y-68708951D01*
X122637705Y-68715846D01*
X121844953Y-69508598D01*
X121942150Y-69583180D01*
X121942158Y-69583186D01*
X122157840Y-69707711D01*
X122157851Y-69707716D01*
X122387950Y-69803026D01*
X122628536Y-69867491D01*
X122875466Y-69900000D01*
X123124534Y-69900000D01*
X123371463Y-69867491D01*
X123612049Y-69803026D01*
X123842148Y-69707716D01*
X123842159Y-69707711D01*
X124057855Y-69583178D01*
X124155045Y-69508600D01*
X124155045Y-69508597D01*
X123362294Y-68715846D01*
X123378942Y-68708951D01*
X123509970Y-68621401D01*
X123621401Y-68509970D01*
X123708951Y-68378942D01*
X123715846Y-68362294D01*
X124508597Y-69155045D01*
X124508600Y-69155045D01*
X124583178Y-69057855D01*
X124707711Y-68842159D01*
X124707716Y-68842148D01*
X124803026Y-68612049D01*
X124867491Y-68371463D01*
X124900000Y-68124533D01*
X124900000Y-67875466D01*
X124899997Y-67875441D01*
X132599500Y-67875441D01*
X132599500Y-68124558D01*
X132599501Y-68124575D01*
X132632017Y-68371561D01*
X132696498Y-68612207D01*
X132791830Y-68842361D01*
X132791837Y-68842376D01*
X132916400Y-69058126D01*
X133068060Y-69255774D01*
X133068066Y-69255781D01*
X133244218Y-69431933D01*
X133244225Y-69431939D01*
X133441873Y-69583599D01*
X133657623Y-69708162D01*
X133657638Y-69708169D01*
X133756825Y-69749253D01*
X133887793Y-69803502D01*
X134128435Y-69867982D01*
X134375435Y-69900500D01*
X134375442Y-69900500D01*
X134624558Y-69900500D01*
X134624565Y-69900500D01*
X134871565Y-69867982D01*
X135112207Y-69803502D01*
X135342373Y-69708164D01*
X135558127Y-69583599D01*
X135755776Y-69431938D01*
X135755781Y-69431933D01*
X135814750Y-69372965D01*
X135931933Y-69255781D01*
X135931938Y-69255776D01*
X136083599Y-69058127D01*
X136208164Y-68842373D01*
X136303502Y-68612207D01*
X136367982Y-68371565D01*
X136400500Y-68124565D01*
X136400500Y-67875466D01*
X140100000Y-67875466D01*
X140100000Y-68124533D01*
X140132508Y-68371463D01*
X140196973Y-68612049D01*
X140292283Y-68842148D01*
X140292288Y-68842159D01*
X140416813Y-69057841D01*
X140416819Y-69057849D01*
X140491400Y-69155045D01*
X141284152Y-68362292D01*
X141291049Y-68378942D01*
X141378599Y-68509970D01*
X141490030Y-68621401D01*
X141621058Y-68708951D01*
X141637705Y-68715846D01*
X140844953Y-69508598D01*
X140942150Y-69583180D01*
X140942158Y-69583186D01*
X141157840Y-69707711D01*
X141157851Y-69707716D01*
X141387950Y-69803026D01*
X141628536Y-69867491D01*
X141875466Y-69900000D01*
X142124534Y-69900000D01*
X142371463Y-69867491D01*
X142612049Y-69803026D01*
X142842148Y-69707716D01*
X142842159Y-69707711D01*
X143057855Y-69583178D01*
X143155045Y-69508600D01*
X143155045Y-69508597D01*
X142362294Y-68715846D01*
X142378942Y-68708951D01*
X142509970Y-68621401D01*
X142621401Y-68509970D01*
X142708951Y-68378942D01*
X142715846Y-68362294D01*
X143508597Y-69155045D01*
X143508600Y-69155045D01*
X143583178Y-69057855D01*
X143707711Y-68842159D01*
X143707716Y-68842148D01*
X143803026Y-68612049D01*
X143867491Y-68371463D01*
X143900000Y-68124533D01*
X143900000Y-67875466D01*
X143899997Y-67875441D01*
X153599500Y-67875441D01*
X153599500Y-68124558D01*
X153599501Y-68124575D01*
X153632017Y-68371561D01*
X153696498Y-68612207D01*
X153791830Y-68842361D01*
X153791837Y-68842376D01*
X153916400Y-69058126D01*
X154068060Y-69255774D01*
X154068066Y-69255781D01*
X154244218Y-69431933D01*
X154244225Y-69431939D01*
X154441873Y-69583599D01*
X154657623Y-69708162D01*
X154657638Y-69708169D01*
X154756825Y-69749253D01*
X154887793Y-69803502D01*
X155128435Y-69867982D01*
X155375435Y-69900500D01*
X155375442Y-69900500D01*
X155624558Y-69900500D01*
X155624565Y-69900500D01*
X155871565Y-69867982D01*
X156112207Y-69803502D01*
X156342373Y-69708164D01*
X156558127Y-69583599D01*
X156755776Y-69431938D01*
X156755781Y-69431933D01*
X156814750Y-69372965D01*
X156931933Y-69255781D01*
X156931938Y-69255776D01*
X157083599Y-69058127D01*
X157208164Y-68842373D01*
X157303502Y-68612207D01*
X157367982Y-68371565D01*
X157400500Y-68124565D01*
X157400500Y-67875466D01*
X160600000Y-67875466D01*
X160600000Y-68124533D01*
X160632508Y-68371463D01*
X160696973Y-68612049D01*
X160792283Y-68842148D01*
X160792288Y-68842159D01*
X160916813Y-69057841D01*
X160916819Y-69057849D01*
X160991400Y-69155045D01*
X161784152Y-68362292D01*
X161791049Y-68378942D01*
X161878599Y-68509970D01*
X161990030Y-68621401D01*
X162121058Y-68708951D01*
X162137705Y-68715846D01*
X161344953Y-69508598D01*
X161442150Y-69583180D01*
X161442158Y-69583186D01*
X161657840Y-69707711D01*
X161657851Y-69707716D01*
X161887950Y-69803026D01*
X162128536Y-69867491D01*
X162375466Y-69900000D01*
X162624534Y-69900000D01*
X162871463Y-69867491D01*
X163112049Y-69803026D01*
X163342148Y-69707716D01*
X163342159Y-69707711D01*
X163557855Y-69583178D01*
X163655045Y-69508600D01*
X163655045Y-69508597D01*
X162862294Y-68715846D01*
X162878942Y-68708951D01*
X163009970Y-68621401D01*
X163121401Y-68509970D01*
X163208951Y-68378942D01*
X163215846Y-68362294D01*
X164008597Y-69155045D01*
X164008600Y-69155045D01*
X164083178Y-69057855D01*
X164207711Y-68842159D01*
X164207716Y-68842148D01*
X164303026Y-68612049D01*
X164367491Y-68371463D01*
X164400000Y-68124533D01*
X164400000Y-67875466D01*
X164399997Y-67875441D01*
X173599500Y-67875441D01*
X173599500Y-68124558D01*
X173599501Y-68124575D01*
X173632017Y-68371561D01*
X173696498Y-68612207D01*
X173791830Y-68842361D01*
X173791837Y-68842376D01*
X173916400Y-69058126D01*
X174068060Y-69255774D01*
X174068066Y-69255781D01*
X174244218Y-69431933D01*
X174244225Y-69431939D01*
X174441873Y-69583599D01*
X174657623Y-69708162D01*
X174657638Y-69708169D01*
X174756825Y-69749253D01*
X174887793Y-69803502D01*
X175128435Y-69867982D01*
X175375435Y-69900500D01*
X175375442Y-69900500D01*
X175624558Y-69900500D01*
X175624565Y-69900500D01*
X175871565Y-69867982D01*
X176112207Y-69803502D01*
X176342373Y-69708164D01*
X176558127Y-69583599D01*
X176755776Y-69431938D01*
X176755781Y-69431933D01*
X176814750Y-69372965D01*
X176931933Y-69255781D01*
X176931938Y-69255776D01*
X177083599Y-69058127D01*
X177208164Y-68842373D01*
X177303502Y-68612207D01*
X177367982Y-68371565D01*
X177400500Y-68124565D01*
X177400500Y-67875466D01*
X180600000Y-67875466D01*
X180600000Y-68124533D01*
X180632508Y-68371463D01*
X180696973Y-68612049D01*
X180792283Y-68842148D01*
X180792288Y-68842159D01*
X180916813Y-69057841D01*
X180916819Y-69057849D01*
X180991400Y-69155045D01*
X181784152Y-68362292D01*
X181791049Y-68378942D01*
X181878599Y-68509970D01*
X181990030Y-68621401D01*
X182121058Y-68708951D01*
X182137705Y-68715846D01*
X181344953Y-69508598D01*
X181442150Y-69583180D01*
X181442158Y-69583186D01*
X181657840Y-69707711D01*
X181657851Y-69707716D01*
X181887950Y-69803026D01*
X182128536Y-69867491D01*
X182375466Y-69900000D01*
X182624534Y-69900000D01*
X182871463Y-69867491D01*
X183112049Y-69803026D01*
X183342148Y-69707716D01*
X183342159Y-69707711D01*
X183557855Y-69583178D01*
X183655045Y-69508600D01*
X183655045Y-69508597D01*
X182862294Y-68715846D01*
X182878942Y-68708951D01*
X183009970Y-68621401D01*
X183121401Y-68509970D01*
X183208951Y-68378942D01*
X183215846Y-68362294D01*
X184008597Y-69155045D01*
X184008600Y-69155045D01*
X184083178Y-69057855D01*
X184207711Y-68842159D01*
X184207716Y-68842148D01*
X184303026Y-68612049D01*
X184367491Y-68371463D01*
X184400000Y-68124533D01*
X184400000Y-67875466D01*
X184399997Y-67875441D01*
X192599500Y-67875441D01*
X192599500Y-68124558D01*
X192599501Y-68124575D01*
X192632017Y-68371561D01*
X192696498Y-68612207D01*
X192791830Y-68842361D01*
X192791837Y-68842376D01*
X192916400Y-69058126D01*
X193068060Y-69255774D01*
X193068066Y-69255781D01*
X193244218Y-69431933D01*
X193244225Y-69431939D01*
X193441873Y-69583599D01*
X193657623Y-69708162D01*
X193657638Y-69708169D01*
X193756825Y-69749253D01*
X193887793Y-69803502D01*
X194128435Y-69867982D01*
X194375435Y-69900500D01*
X194375442Y-69900500D01*
X194624558Y-69900500D01*
X194624565Y-69900500D01*
X194871565Y-69867982D01*
X195112207Y-69803502D01*
X195342373Y-69708164D01*
X195558127Y-69583599D01*
X195755776Y-69431938D01*
X195755781Y-69431933D01*
X195814750Y-69372965D01*
X195931933Y-69255781D01*
X195931938Y-69255776D01*
X196083599Y-69058127D01*
X196208164Y-68842373D01*
X196303502Y-68612207D01*
X196367982Y-68371565D01*
X196400500Y-68124565D01*
X196400500Y-67875466D01*
X200100000Y-67875466D01*
X200100000Y-68124533D01*
X200132508Y-68371463D01*
X200196973Y-68612049D01*
X200292283Y-68842148D01*
X200292288Y-68842159D01*
X200416813Y-69057841D01*
X200416819Y-69057849D01*
X200491400Y-69155045D01*
X201284152Y-68362292D01*
X201291049Y-68378942D01*
X201378599Y-68509970D01*
X201490030Y-68621401D01*
X201621058Y-68708951D01*
X201637705Y-68715846D01*
X200844953Y-69508598D01*
X200942150Y-69583180D01*
X200942158Y-69583186D01*
X201157840Y-69707711D01*
X201157851Y-69707716D01*
X201387950Y-69803026D01*
X201628536Y-69867491D01*
X201875466Y-69900000D01*
X202124534Y-69900000D01*
X202371463Y-69867491D01*
X202612049Y-69803026D01*
X202842148Y-69707716D01*
X202842159Y-69707711D01*
X203057855Y-69583178D01*
X203155045Y-69508600D01*
X203155045Y-69508597D01*
X202362294Y-68715846D01*
X202378942Y-68708951D01*
X202509970Y-68621401D01*
X202621401Y-68509970D01*
X202708951Y-68378942D01*
X202715846Y-68362294D01*
X203508597Y-69155045D01*
X203508600Y-69155045D01*
X203583178Y-69057855D01*
X203707711Y-68842159D01*
X203707716Y-68842148D01*
X203803026Y-68612049D01*
X203867491Y-68371463D01*
X203900000Y-68124533D01*
X203900000Y-67875466D01*
X203867491Y-67628536D01*
X203803026Y-67387950D01*
X203707716Y-67157851D01*
X203707711Y-67157840D01*
X203583186Y-66942158D01*
X203583180Y-66942150D01*
X203508598Y-66844953D01*
X202715846Y-67637705D01*
X202708951Y-67621058D01*
X202621401Y-67490030D01*
X202509970Y-67378599D01*
X202378942Y-67291049D01*
X202362292Y-67284152D01*
X203155045Y-66491400D01*
X203057849Y-66416819D01*
X203057841Y-66416813D01*
X202842159Y-66292288D01*
X202842148Y-66292283D01*
X202612049Y-66196973D01*
X202371463Y-66132508D01*
X202124534Y-66100000D01*
X201875466Y-66100000D01*
X201628536Y-66132508D01*
X201387950Y-66196973D01*
X201157851Y-66292283D01*
X201157847Y-66292285D01*
X200942143Y-66416823D01*
X200844953Y-66491399D01*
X200844953Y-66491400D01*
X201637706Y-67284153D01*
X201621058Y-67291049D01*
X201490030Y-67378599D01*
X201378599Y-67490030D01*
X201291049Y-67621058D01*
X201284153Y-67637706D01*
X200491400Y-66844953D01*
X200491399Y-66844953D01*
X200416823Y-66942143D01*
X200292285Y-67157847D01*
X200292283Y-67157851D01*
X200196973Y-67387950D01*
X200132508Y-67628536D01*
X200100000Y-67875466D01*
X196400500Y-67875466D01*
X196400500Y-67875435D01*
X196367982Y-67628435D01*
X196303502Y-67387793D01*
X196238450Y-67230743D01*
X196208169Y-67157638D01*
X196208162Y-67157623D01*
X196083599Y-66941873D01*
X195931939Y-66744225D01*
X195931933Y-66744218D01*
X195755781Y-66568066D01*
X195755774Y-66568060D01*
X195558126Y-66416400D01*
X195342376Y-66291837D01*
X195342361Y-66291830D01*
X195112207Y-66196498D01*
X195100335Y-66193317D01*
X194871565Y-66132018D01*
X194871564Y-66132017D01*
X194871561Y-66132017D01*
X194624575Y-66099501D01*
X194624570Y-66099500D01*
X194624565Y-66099500D01*
X194375435Y-66099500D01*
X194375429Y-66099500D01*
X194375424Y-66099501D01*
X194128438Y-66132017D01*
X193887792Y-66196498D01*
X193657638Y-66291830D01*
X193657623Y-66291837D01*
X193441873Y-66416400D01*
X193244225Y-66568060D01*
X193244218Y-66568066D01*
X193068066Y-66744218D01*
X193068060Y-66744225D01*
X192916400Y-66941873D01*
X192791837Y-67157623D01*
X192791830Y-67157638D01*
X192696498Y-67387792D01*
X192632017Y-67628438D01*
X192599501Y-67875424D01*
X192599500Y-67875441D01*
X184399997Y-67875441D01*
X184367491Y-67628536D01*
X184303026Y-67387950D01*
X184207716Y-67157851D01*
X184207711Y-67157840D01*
X184083186Y-66942158D01*
X184083180Y-66942150D01*
X184008598Y-66844953D01*
X183215846Y-67637705D01*
X183208951Y-67621058D01*
X183121401Y-67490030D01*
X183009970Y-67378599D01*
X182878942Y-67291049D01*
X182862292Y-67284152D01*
X183655045Y-66491400D01*
X183557849Y-66416819D01*
X183557841Y-66416813D01*
X183342159Y-66292288D01*
X183342148Y-66292283D01*
X183112049Y-66196973D01*
X182871463Y-66132508D01*
X182624534Y-66100000D01*
X182375466Y-66100000D01*
X182128536Y-66132508D01*
X181887950Y-66196973D01*
X181657851Y-66292283D01*
X181657847Y-66292285D01*
X181442143Y-66416823D01*
X181344953Y-66491399D01*
X181344953Y-66491400D01*
X182137706Y-67284153D01*
X182121058Y-67291049D01*
X181990030Y-67378599D01*
X181878599Y-67490030D01*
X181791049Y-67621058D01*
X181784153Y-67637706D01*
X180991400Y-66844953D01*
X180991399Y-66844953D01*
X180916823Y-66942143D01*
X180792285Y-67157847D01*
X180792283Y-67157851D01*
X180696973Y-67387950D01*
X180632508Y-67628536D01*
X180600000Y-67875466D01*
X177400500Y-67875466D01*
X177400500Y-67875435D01*
X177367982Y-67628435D01*
X177303502Y-67387793D01*
X177238450Y-67230743D01*
X177208169Y-67157638D01*
X177208162Y-67157623D01*
X177083599Y-66941873D01*
X176931939Y-66744225D01*
X176931933Y-66744218D01*
X176755781Y-66568066D01*
X176755774Y-66568060D01*
X176558126Y-66416400D01*
X176342376Y-66291837D01*
X176342361Y-66291830D01*
X176112207Y-66196498D01*
X176100335Y-66193317D01*
X175871565Y-66132018D01*
X175871564Y-66132017D01*
X175871561Y-66132017D01*
X175624575Y-66099501D01*
X175624570Y-66099500D01*
X175624565Y-66099500D01*
X175375435Y-66099500D01*
X175375429Y-66099500D01*
X175375424Y-66099501D01*
X175128438Y-66132017D01*
X174887792Y-66196498D01*
X174657638Y-66291830D01*
X174657623Y-66291837D01*
X174441873Y-66416400D01*
X174244225Y-66568060D01*
X174244218Y-66568066D01*
X174068066Y-66744218D01*
X174068060Y-66744225D01*
X173916400Y-66941873D01*
X173791837Y-67157623D01*
X173791830Y-67157638D01*
X173696498Y-67387792D01*
X173632017Y-67628438D01*
X173599501Y-67875424D01*
X173599500Y-67875441D01*
X164399997Y-67875441D01*
X164367491Y-67628536D01*
X164303026Y-67387950D01*
X164207716Y-67157851D01*
X164207711Y-67157840D01*
X164083186Y-66942158D01*
X164083180Y-66942150D01*
X164008598Y-66844953D01*
X163215846Y-67637705D01*
X163208951Y-67621058D01*
X163121401Y-67490030D01*
X163009970Y-67378599D01*
X162878942Y-67291049D01*
X162862292Y-67284152D01*
X163655045Y-66491400D01*
X163557849Y-66416819D01*
X163557841Y-66416813D01*
X163342159Y-66292288D01*
X163342148Y-66292283D01*
X163112049Y-66196973D01*
X162871463Y-66132508D01*
X162624534Y-66100000D01*
X162375466Y-66100000D01*
X162128536Y-66132508D01*
X161887950Y-66196973D01*
X161657851Y-66292283D01*
X161657847Y-66292285D01*
X161442143Y-66416823D01*
X161344953Y-66491399D01*
X161344953Y-66491400D01*
X162137706Y-67284153D01*
X162121058Y-67291049D01*
X161990030Y-67378599D01*
X161878599Y-67490030D01*
X161791049Y-67621058D01*
X161784153Y-67637706D01*
X160991400Y-66844953D01*
X160991399Y-66844953D01*
X160916823Y-66942143D01*
X160792285Y-67157847D01*
X160792283Y-67157851D01*
X160696973Y-67387950D01*
X160632508Y-67628536D01*
X160600000Y-67875466D01*
X157400500Y-67875466D01*
X157400500Y-67875435D01*
X157367982Y-67628435D01*
X157303502Y-67387793D01*
X157238450Y-67230743D01*
X157208169Y-67157638D01*
X157208162Y-67157623D01*
X157083599Y-66941873D01*
X156931939Y-66744225D01*
X156931933Y-66744218D01*
X156755781Y-66568066D01*
X156755774Y-66568060D01*
X156558126Y-66416400D01*
X156342376Y-66291837D01*
X156342361Y-66291830D01*
X156112207Y-66196498D01*
X156100335Y-66193317D01*
X155871565Y-66132018D01*
X155871564Y-66132017D01*
X155871561Y-66132017D01*
X155624575Y-66099501D01*
X155624570Y-66099500D01*
X155624565Y-66099500D01*
X155375435Y-66099500D01*
X155375429Y-66099500D01*
X155375424Y-66099501D01*
X155128438Y-66132017D01*
X154887792Y-66196498D01*
X154657638Y-66291830D01*
X154657623Y-66291837D01*
X154441873Y-66416400D01*
X154244225Y-66568060D01*
X154244218Y-66568066D01*
X154068066Y-66744218D01*
X154068060Y-66744225D01*
X153916400Y-66941873D01*
X153791837Y-67157623D01*
X153791830Y-67157638D01*
X153696498Y-67387792D01*
X153632017Y-67628438D01*
X153599501Y-67875424D01*
X153599500Y-67875441D01*
X143899997Y-67875441D01*
X143867491Y-67628536D01*
X143803026Y-67387950D01*
X143707716Y-67157851D01*
X143707711Y-67157840D01*
X143583186Y-66942158D01*
X143583180Y-66942150D01*
X143508598Y-66844953D01*
X142715846Y-67637705D01*
X142708951Y-67621058D01*
X142621401Y-67490030D01*
X142509970Y-67378599D01*
X142378942Y-67291049D01*
X142362292Y-67284152D01*
X143155045Y-66491400D01*
X143057849Y-66416819D01*
X143057841Y-66416813D01*
X142842159Y-66292288D01*
X142842148Y-66292283D01*
X142612049Y-66196973D01*
X142371463Y-66132508D01*
X142124534Y-66100000D01*
X141875466Y-66100000D01*
X141628536Y-66132508D01*
X141387950Y-66196973D01*
X141157851Y-66292283D01*
X141157847Y-66292285D01*
X140942143Y-66416823D01*
X140844953Y-66491399D01*
X140844953Y-66491400D01*
X141637706Y-67284153D01*
X141621058Y-67291049D01*
X141490030Y-67378599D01*
X141378599Y-67490030D01*
X141291049Y-67621058D01*
X141284153Y-67637706D01*
X140491400Y-66844953D01*
X140491399Y-66844953D01*
X140416823Y-66942143D01*
X140292285Y-67157847D01*
X140292283Y-67157851D01*
X140196973Y-67387950D01*
X140132508Y-67628536D01*
X140100000Y-67875466D01*
X136400500Y-67875466D01*
X136400500Y-67875435D01*
X136367982Y-67628435D01*
X136303502Y-67387793D01*
X136238450Y-67230743D01*
X136208169Y-67157638D01*
X136208162Y-67157623D01*
X136083599Y-66941873D01*
X135931939Y-66744225D01*
X135931933Y-66744218D01*
X135755781Y-66568066D01*
X135755774Y-66568060D01*
X135558126Y-66416400D01*
X135342376Y-66291837D01*
X135342361Y-66291830D01*
X135112207Y-66196498D01*
X135100335Y-66193317D01*
X134871565Y-66132018D01*
X134871564Y-66132017D01*
X134871561Y-66132017D01*
X134624575Y-66099501D01*
X134624570Y-66099500D01*
X134624565Y-66099500D01*
X134375435Y-66099500D01*
X134375429Y-66099500D01*
X134375424Y-66099501D01*
X134128438Y-66132017D01*
X133887792Y-66196498D01*
X133657638Y-66291830D01*
X133657623Y-66291837D01*
X133441873Y-66416400D01*
X133244225Y-66568060D01*
X133244218Y-66568066D01*
X133068066Y-66744218D01*
X133068060Y-66744225D01*
X132916400Y-66941873D01*
X132791837Y-67157623D01*
X132791830Y-67157638D01*
X132696498Y-67387792D01*
X132632017Y-67628438D01*
X132599501Y-67875424D01*
X132599500Y-67875441D01*
X124899997Y-67875441D01*
X124867491Y-67628536D01*
X124803026Y-67387950D01*
X124707716Y-67157851D01*
X124707711Y-67157840D01*
X124583186Y-66942158D01*
X124583180Y-66942150D01*
X124508598Y-66844953D01*
X123715846Y-67637705D01*
X123708951Y-67621058D01*
X123621401Y-67490030D01*
X123509970Y-67378599D01*
X123378942Y-67291049D01*
X123362292Y-67284152D01*
X124155045Y-66491400D01*
X124057849Y-66416819D01*
X124057841Y-66416813D01*
X123842159Y-66292288D01*
X123842148Y-66292283D01*
X123612049Y-66196973D01*
X123371463Y-66132508D01*
X123124534Y-66100000D01*
X122875466Y-66100000D01*
X122628536Y-66132508D01*
X122387950Y-66196973D01*
X122157851Y-66292283D01*
X122157847Y-66292285D01*
X121942143Y-66416823D01*
X121844953Y-66491399D01*
X121844953Y-66491400D01*
X122637706Y-67284153D01*
X122621058Y-67291049D01*
X122490030Y-67378599D01*
X122378599Y-67490030D01*
X122291049Y-67621058D01*
X122284153Y-67637706D01*
X121491400Y-66844953D01*
X121491399Y-66844953D01*
X121416823Y-66942143D01*
X121292285Y-67157847D01*
X121292283Y-67157851D01*
X121196973Y-67387950D01*
X121132508Y-67628536D01*
X121100000Y-67875466D01*
X117900500Y-67875466D01*
X117900500Y-67875435D01*
X117867982Y-67628435D01*
X117803502Y-67387793D01*
X117738450Y-67230743D01*
X117708169Y-67157638D01*
X117708162Y-67157623D01*
X117583599Y-66941873D01*
X117431939Y-66744225D01*
X117431933Y-66744218D01*
X117255781Y-66568066D01*
X117255774Y-66568060D01*
X117058126Y-66416400D01*
X116842376Y-66291837D01*
X116842361Y-66291830D01*
X116612207Y-66196498D01*
X116600335Y-66193317D01*
X116371565Y-66132018D01*
X116371564Y-66132017D01*
X116371561Y-66132017D01*
X116124575Y-66099501D01*
X116124570Y-66099500D01*
X116124565Y-66099500D01*
X115875435Y-66099500D01*
X115875429Y-66099500D01*
X115875424Y-66099501D01*
X115628438Y-66132017D01*
X115387792Y-66196498D01*
X115157638Y-66291830D01*
X115157623Y-66291837D01*
X114941873Y-66416400D01*
X114744225Y-66568060D01*
X114744218Y-66568066D01*
X114568066Y-66744218D01*
X114568060Y-66744225D01*
X114416400Y-66941873D01*
X114291837Y-67157623D01*
X114291830Y-67157638D01*
X114196498Y-67387792D01*
X114132017Y-67628438D01*
X114099501Y-67875424D01*
X114099500Y-67875441D01*
X105250000Y-67875441D01*
X105250000Y-67602533D01*
X105249998Y-67602516D01*
X105211503Y-67310115D01*
X105211500Y-67310102D01*
X105135164Y-67025209D01*
X105135161Y-67025199D01*
X105022295Y-66752718D01*
X105022290Y-66752707D01*
X104874825Y-66497292D01*
X104874814Y-66497276D01*
X104695270Y-66263290D01*
X104695264Y-66263283D01*
X104486716Y-66054735D01*
X104486709Y-66054729D01*
X104252723Y-65875185D01*
X104252707Y-65875174D01*
X103997292Y-65727709D01*
X103997281Y-65727704D01*
X103724800Y-65614838D01*
X103724790Y-65614835D01*
X103439897Y-65538499D01*
X103439886Y-65538497D01*
X103250000Y-65513496D01*
X103250000Y-68525038D01*
X103098984Y-68495000D01*
X102901016Y-68495000D01*
X102750000Y-68525038D01*
X102750000Y-65513496D01*
X102749999Y-65513496D01*
X102560113Y-65538497D01*
X102560102Y-65538499D01*
X102275209Y-65614835D01*
X102275199Y-65614838D01*
X102002718Y-65727704D01*
X102002707Y-65727709D01*
X101747292Y-65875174D01*
X101747276Y-65875185D01*
X101513290Y-66054729D01*
X101513283Y-66054735D01*
X101304735Y-66263283D01*
X101304729Y-66263290D01*
X101125185Y-66497276D01*
X101125174Y-66497292D01*
X100977709Y-66752707D01*
X100977704Y-66752718D01*
X100864838Y-67025199D01*
X100864835Y-67025209D01*
X100788499Y-67310102D01*
X100788496Y-67310115D01*
X100750001Y-67602516D01*
X100750000Y-67602533D01*
X95090000Y-67602533D01*
X95089998Y-67602516D01*
X95051503Y-67310115D01*
X95051500Y-67310102D01*
X94975164Y-67025209D01*
X94975161Y-67025199D01*
X94862295Y-66752718D01*
X94862290Y-66752707D01*
X94714825Y-66497292D01*
X94714814Y-66497276D01*
X94535270Y-66263290D01*
X94535264Y-66263283D01*
X94326716Y-66054735D01*
X94326709Y-66054729D01*
X94092723Y-65875185D01*
X94092707Y-65875174D01*
X93837292Y-65727709D01*
X93837281Y-65727704D01*
X93564800Y-65614838D01*
X93564790Y-65614835D01*
X93279897Y-65538499D01*
X93279886Y-65538497D01*
X93090000Y-65513496D01*
X93090000Y-68525038D01*
X92938984Y-68495000D01*
X92741016Y-68495000D01*
X92590000Y-68525038D01*
X92590000Y-65513496D01*
X92589999Y-65513496D01*
X92400113Y-65538497D01*
X92400102Y-65538499D01*
X92115209Y-65614835D01*
X92115199Y-65614838D01*
X91842718Y-65727704D01*
X91842707Y-65727709D01*
X91587292Y-65875174D01*
X91587276Y-65875185D01*
X91353290Y-66054729D01*
X91353283Y-66054735D01*
X91144735Y-66263283D01*
X91144729Y-66263290D01*
X90965185Y-66497276D01*
X90965174Y-66497292D01*
X90817709Y-66752707D01*
X90817704Y-66752718D01*
X90704838Y-67025199D01*
X90704835Y-67025209D01*
X90628499Y-67310102D01*
X90628496Y-67310115D01*
X90590001Y-67602516D01*
X90590000Y-67602533D01*
X84853743Y-67602533D01*
X84949248Y-67542523D01*
X85168825Y-67367416D01*
X85367416Y-67168825D01*
X85542523Y-66949248D01*
X85691945Y-66711445D01*
X85813801Y-66458408D01*
X85906560Y-66193318D01*
X85969055Y-65919509D01*
X85974051Y-65875174D01*
X85984429Y-65783055D01*
X86000500Y-65640425D01*
X86000500Y-65359575D01*
X86000499Y-65359568D01*
X215499500Y-65359568D01*
X215499500Y-65640431D01*
X215530942Y-65919494D01*
X215530945Y-65919512D01*
X215593439Y-66193317D01*
X215593443Y-66193329D01*
X215686200Y-66458411D01*
X215808053Y-66711442D01*
X215808055Y-66711445D01*
X215957477Y-66949248D01*
X216018046Y-67025199D01*
X216123832Y-67157851D01*
X216132584Y-67168825D01*
X216331175Y-67367416D01*
X216550752Y-67542523D01*
X216788555Y-67691945D01*
X217041592Y-67813801D01*
X217240680Y-67883465D01*
X217306670Y-67906556D01*
X217306682Y-67906560D01*
X217580491Y-67969055D01*
X217580497Y-67969055D01*
X217580505Y-67969057D01*
X217766547Y-67990018D01*
X217859569Y-68000499D01*
X217859572Y-68000500D01*
X217859575Y-68000500D01*
X218140428Y-68000500D01*
X218140429Y-68000499D01*
X218283055Y-67984429D01*
X218419494Y-67969057D01*
X218419499Y-67969056D01*
X218419509Y-67969055D01*
X218693318Y-67906560D01*
X218958408Y-67813801D01*
X219211445Y-67691945D01*
X219449248Y-67542523D01*
X219668825Y-67367416D01*
X219867416Y-67168825D01*
X220042523Y-66949248D01*
X220191945Y-66711445D01*
X220313801Y-66458408D01*
X220406560Y-66193318D01*
X220469055Y-65919509D01*
X220474051Y-65875174D01*
X220484429Y-65783055D01*
X220500500Y-65640425D01*
X220500500Y-65359575D01*
X220469055Y-65080491D01*
X220406560Y-64806682D01*
X220313801Y-64541592D01*
X220191945Y-64288555D01*
X220042523Y-64050752D01*
X219867416Y-63831175D01*
X219668825Y-63632584D01*
X219449248Y-63457477D01*
X219211445Y-63308055D01*
X219211442Y-63308053D01*
X218958411Y-63186200D01*
X218693329Y-63093443D01*
X218693317Y-63093439D01*
X218419512Y-63030945D01*
X218419494Y-63030942D01*
X218140431Y-62999500D01*
X218140425Y-62999500D01*
X217859575Y-62999500D01*
X217859568Y-62999500D01*
X217580505Y-63030942D01*
X217580487Y-63030945D01*
X217306682Y-63093439D01*
X217306670Y-63093443D01*
X217041588Y-63186200D01*
X216788557Y-63308053D01*
X216550753Y-63457476D01*
X216331175Y-63632583D01*
X216132583Y-63831175D01*
X215957476Y-64050753D01*
X215808053Y-64288557D01*
X215686200Y-64541588D01*
X215593443Y-64806670D01*
X215593439Y-64806682D01*
X215530945Y-65080487D01*
X215530942Y-65080505D01*
X215499500Y-65359568D01*
X86000499Y-65359568D01*
X85969055Y-65080491D01*
X85906560Y-64806682D01*
X85813801Y-64541592D01*
X85691945Y-64288555D01*
X85542523Y-64050752D01*
X85367416Y-63831175D01*
X85168825Y-63632584D01*
X84949248Y-63457477D01*
X84711445Y-63308055D01*
X84711442Y-63308053D01*
X84458411Y-63186200D01*
X84193329Y-63093443D01*
X84193317Y-63093439D01*
X83919512Y-63030945D01*
X83919494Y-63030942D01*
X83640431Y-62999500D01*
X83640425Y-62999500D01*
X83359575Y-62999500D01*
X83359568Y-62999500D01*
X83080505Y-63030942D01*
X83080487Y-63030945D01*
X82806682Y-63093439D01*
X82806670Y-63093443D01*
X82541588Y-63186200D01*
X82288557Y-63308053D01*
X82050753Y-63457476D01*
X81831175Y-63632583D01*
X81632583Y-63831175D01*
X81457476Y-64050753D01*
X81308053Y-64288557D01*
X81186200Y-64541588D01*
X81093443Y-64806670D01*
X81093439Y-64806682D01*
X81030945Y-65080487D01*
X81030942Y-65080505D01*
X80999500Y-65359568D01*
X79000500Y-65359568D01*
X79000500Y-61624500D01*
X79020185Y-61557461D01*
X79072989Y-61511706D01*
X79124500Y-61500500D01*
X221875500Y-61500500D01*
X221942539Y-61520185D01*
G37*
%TD.AperFunction*%
%TD*%
M02*
