%TF.GenerationSoftware,KiCad,Pcbnew,9.0.4*%
%TF.CreationDate,2025-10-20T13:27:51-05:00*%
%TF.ProjectId,Lab 7 Custom PCB Buck Converter,4c616220-3720-4437-9573-746f6d205043,rev?*%
%TF.SameCoordinates,Original*%
%TF.FileFunction,Legend,Top*%
%TF.FilePolarity,Positive*%
%FSLAX46Y46*%
G04 Gerber Fmt 4.6, Leading zero omitted, Abs format (unit mm)*
G04 Created by KiCad (PCBNEW 9.0.4) date 2025-10-20 13:27:51*
%MOMM*%
%LPD*%
G01*
G04 APERTURE LIST*
%ADD10C,0.100000*%
%ADD11C,0.150000*%
%ADD12C,0.254000*%
%ADD13C,0.000000*%
%ADD14C,0.120000*%
%ADD15C,0.200000*%
G04 APERTURE END LIST*
D10*
X191303884Y-82262475D02*
X191303884Y-83071998D01*
X191303884Y-83071998D02*
X191351503Y-83167236D01*
X191351503Y-83167236D02*
X191399122Y-83214856D01*
X191399122Y-83214856D02*
X191494360Y-83262475D01*
X191494360Y-83262475D02*
X191684836Y-83262475D01*
X191684836Y-83262475D02*
X191780074Y-83214856D01*
X191780074Y-83214856D02*
X191827693Y-83167236D01*
X191827693Y-83167236D02*
X191875312Y-83071998D01*
X191875312Y-83071998D02*
X191875312Y-82262475D01*
X192351503Y-83262475D02*
X192351503Y-82595808D01*
X192351503Y-82691046D02*
X192399122Y-82643427D01*
X192399122Y-82643427D02*
X192494360Y-82595808D01*
X192494360Y-82595808D02*
X192637217Y-82595808D01*
X192637217Y-82595808D02*
X192732455Y-82643427D01*
X192732455Y-82643427D02*
X192780074Y-82738665D01*
X192780074Y-82738665D02*
X192780074Y-83262475D01*
X192780074Y-82738665D02*
X192827693Y-82643427D01*
X192827693Y-82643427D02*
X192922931Y-82595808D01*
X192922931Y-82595808D02*
X193065788Y-82595808D01*
X193065788Y-82595808D02*
X193161027Y-82643427D01*
X193161027Y-82643427D02*
X193208646Y-82738665D01*
X193208646Y-82738665D02*
X193208646Y-83262475D01*
X194113407Y-83262475D02*
X194113407Y-82738665D01*
X194113407Y-82738665D02*
X194065788Y-82643427D01*
X194065788Y-82643427D02*
X193970550Y-82595808D01*
X193970550Y-82595808D02*
X193780074Y-82595808D01*
X193780074Y-82595808D02*
X193684836Y-82643427D01*
X194113407Y-83214856D02*
X194018169Y-83262475D01*
X194018169Y-83262475D02*
X193780074Y-83262475D01*
X193780074Y-83262475D02*
X193684836Y-83214856D01*
X193684836Y-83214856D02*
X193637217Y-83119617D01*
X193637217Y-83119617D02*
X193637217Y-83024379D01*
X193637217Y-83024379D02*
X193684836Y-82929141D01*
X193684836Y-82929141D02*
X193780074Y-82881522D01*
X193780074Y-82881522D02*
X194018169Y-82881522D01*
X194018169Y-82881522D02*
X194113407Y-82833903D01*
X195684836Y-82738665D02*
X195827693Y-82786284D01*
X195827693Y-82786284D02*
X195875312Y-82833903D01*
X195875312Y-82833903D02*
X195922931Y-82929141D01*
X195922931Y-82929141D02*
X195922931Y-83071998D01*
X195922931Y-83071998D02*
X195875312Y-83167236D01*
X195875312Y-83167236D02*
X195827693Y-83214856D01*
X195827693Y-83214856D02*
X195732455Y-83262475D01*
X195732455Y-83262475D02*
X195351503Y-83262475D01*
X195351503Y-83262475D02*
X195351503Y-82262475D01*
X195351503Y-82262475D02*
X195684836Y-82262475D01*
X195684836Y-82262475D02*
X195780074Y-82310094D01*
X195780074Y-82310094D02*
X195827693Y-82357713D01*
X195827693Y-82357713D02*
X195875312Y-82452951D01*
X195875312Y-82452951D02*
X195875312Y-82548189D01*
X195875312Y-82548189D02*
X195827693Y-82643427D01*
X195827693Y-82643427D02*
X195780074Y-82691046D01*
X195780074Y-82691046D02*
X195684836Y-82738665D01*
X195684836Y-82738665D02*
X195351503Y-82738665D01*
X196351503Y-83262475D02*
X196351503Y-82262475D01*
X196780074Y-83262475D02*
X196780074Y-82738665D01*
X196780074Y-82738665D02*
X196732455Y-82643427D01*
X196732455Y-82643427D02*
X196637217Y-82595808D01*
X196637217Y-82595808D02*
X196494360Y-82595808D01*
X196494360Y-82595808D02*
X196399122Y-82643427D01*
X196399122Y-82643427D02*
X196351503Y-82691046D01*
X197684836Y-83262475D02*
X197684836Y-82738665D01*
X197684836Y-82738665D02*
X197637217Y-82643427D01*
X197637217Y-82643427D02*
X197541979Y-82595808D01*
X197541979Y-82595808D02*
X197351503Y-82595808D01*
X197351503Y-82595808D02*
X197256265Y-82643427D01*
X197684836Y-83214856D02*
X197589598Y-83262475D01*
X197589598Y-83262475D02*
X197351503Y-83262475D01*
X197351503Y-83262475D02*
X197256265Y-83214856D01*
X197256265Y-83214856D02*
X197208646Y-83119617D01*
X197208646Y-83119617D02*
X197208646Y-83024379D01*
X197208646Y-83024379D02*
X197256265Y-82929141D01*
X197256265Y-82929141D02*
X197351503Y-82881522D01*
X197351503Y-82881522D02*
X197589598Y-82881522D01*
X197589598Y-82881522D02*
X197684836Y-82833903D01*
X198589598Y-83262475D02*
X198589598Y-82262475D01*
X198589598Y-83214856D02*
X198494360Y-83262475D01*
X198494360Y-83262475D02*
X198303884Y-83262475D01*
X198303884Y-83262475D02*
X198208646Y-83214856D01*
X198208646Y-83214856D02*
X198161027Y-83167236D01*
X198161027Y-83167236D02*
X198113408Y-83071998D01*
X198113408Y-83071998D02*
X198113408Y-82786284D01*
X198113408Y-82786284D02*
X198161027Y-82691046D01*
X198161027Y-82691046D02*
X198208646Y-82643427D01*
X198208646Y-82643427D02*
X198303884Y-82595808D01*
X198303884Y-82595808D02*
X198494360Y-82595808D01*
X198494360Y-82595808D02*
X198589598Y-82643427D01*
X199065789Y-83262475D02*
X199065789Y-82595808D01*
X199065789Y-82786284D02*
X199113408Y-82691046D01*
X199113408Y-82691046D02*
X199161027Y-82643427D01*
X199161027Y-82643427D02*
X199256265Y-82595808D01*
X199256265Y-82595808D02*
X199351503Y-82595808D01*
X200113408Y-83262475D02*
X200113408Y-82738665D01*
X200113408Y-82738665D02*
X200065789Y-82643427D01*
X200065789Y-82643427D02*
X199970551Y-82595808D01*
X199970551Y-82595808D02*
X199780075Y-82595808D01*
X199780075Y-82595808D02*
X199684837Y-82643427D01*
X200113408Y-83214856D02*
X200018170Y-83262475D01*
X200018170Y-83262475D02*
X199780075Y-83262475D01*
X199780075Y-83262475D02*
X199684837Y-83214856D01*
X199684837Y-83214856D02*
X199637218Y-83119617D01*
X199637218Y-83119617D02*
X199637218Y-83024379D01*
X199637218Y-83024379D02*
X199684837Y-82929141D01*
X199684837Y-82929141D02*
X199780075Y-82881522D01*
X199780075Y-82881522D02*
X200018170Y-82881522D01*
X200018170Y-82881522D02*
X200113408Y-82833903D01*
X191589598Y-83872419D02*
X191589598Y-84586704D01*
X191589598Y-84586704D02*
X191541979Y-84729561D01*
X191541979Y-84729561D02*
X191446741Y-84824800D01*
X191446741Y-84824800D02*
X191303884Y-84872419D01*
X191303884Y-84872419D02*
X191208646Y-84872419D01*
X192208646Y-84872419D02*
X192113408Y-84824800D01*
X192113408Y-84824800D02*
X192065789Y-84777180D01*
X192065789Y-84777180D02*
X192018170Y-84681942D01*
X192018170Y-84681942D02*
X192018170Y-84396228D01*
X192018170Y-84396228D02*
X192065789Y-84300990D01*
X192065789Y-84300990D02*
X192113408Y-84253371D01*
X192113408Y-84253371D02*
X192208646Y-84205752D01*
X192208646Y-84205752D02*
X192351503Y-84205752D01*
X192351503Y-84205752D02*
X192446741Y-84253371D01*
X192446741Y-84253371D02*
X192494360Y-84300990D01*
X192494360Y-84300990D02*
X192541979Y-84396228D01*
X192541979Y-84396228D02*
X192541979Y-84681942D01*
X192541979Y-84681942D02*
X192494360Y-84777180D01*
X192494360Y-84777180D02*
X192446741Y-84824800D01*
X192446741Y-84824800D02*
X192351503Y-84872419D01*
X192351503Y-84872419D02*
X192208646Y-84872419D01*
X193113408Y-84872419D02*
X193018170Y-84824800D01*
X193018170Y-84824800D02*
X192970551Y-84729561D01*
X192970551Y-84729561D02*
X192970551Y-83872419D01*
X193494361Y-84872419D02*
X193494361Y-84205752D01*
X193494361Y-83872419D02*
X193446742Y-83920038D01*
X193446742Y-83920038D02*
X193494361Y-83967657D01*
X193494361Y-83967657D02*
X193541980Y-83920038D01*
X193541980Y-83920038D02*
X193494361Y-83872419D01*
X193494361Y-83872419D02*
X193494361Y-83967657D01*
X194637218Y-83872419D02*
X194875313Y-84872419D01*
X194875313Y-84872419D02*
X195065789Y-84158133D01*
X195065789Y-84158133D02*
X195256265Y-84872419D01*
X195256265Y-84872419D02*
X195494361Y-83872419D01*
X195875313Y-84872419D02*
X195875313Y-84205752D01*
X195875313Y-83872419D02*
X195827694Y-83920038D01*
X195827694Y-83920038D02*
X195875313Y-83967657D01*
X195875313Y-83967657D02*
X195922932Y-83920038D01*
X195922932Y-83920038D02*
X195875313Y-83872419D01*
X195875313Y-83872419D02*
X195875313Y-83967657D01*
X196494360Y-84872419D02*
X196399122Y-84824800D01*
X196399122Y-84824800D02*
X196351503Y-84729561D01*
X196351503Y-84729561D02*
X196351503Y-83872419D01*
X197018170Y-84872419D02*
X196922932Y-84824800D01*
X196922932Y-84824800D02*
X196875313Y-84729561D01*
X196875313Y-84729561D02*
X196875313Y-83872419D01*
X197399123Y-84872419D02*
X197399123Y-84205752D01*
X197399123Y-83872419D02*
X197351504Y-83920038D01*
X197351504Y-83920038D02*
X197399123Y-83967657D01*
X197399123Y-83967657D02*
X197446742Y-83920038D01*
X197446742Y-83920038D02*
X197399123Y-83872419D01*
X197399123Y-83872419D02*
X197399123Y-83967657D01*
X198303884Y-84872419D02*
X198303884Y-84348609D01*
X198303884Y-84348609D02*
X198256265Y-84253371D01*
X198256265Y-84253371D02*
X198161027Y-84205752D01*
X198161027Y-84205752D02*
X197970551Y-84205752D01*
X197970551Y-84205752D02*
X197875313Y-84253371D01*
X198303884Y-84824800D02*
X198208646Y-84872419D01*
X198208646Y-84872419D02*
X197970551Y-84872419D01*
X197970551Y-84872419D02*
X197875313Y-84824800D01*
X197875313Y-84824800D02*
X197827694Y-84729561D01*
X197827694Y-84729561D02*
X197827694Y-84634323D01*
X197827694Y-84634323D02*
X197875313Y-84539085D01*
X197875313Y-84539085D02*
X197970551Y-84491466D01*
X197970551Y-84491466D02*
X198208646Y-84491466D01*
X198208646Y-84491466D02*
X198303884Y-84443847D01*
X198780075Y-84872419D02*
X198780075Y-84205752D01*
X198780075Y-84300990D02*
X198827694Y-84253371D01*
X198827694Y-84253371D02*
X198922932Y-84205752D01*
X198922932Y-84205752D02*
X199065789Y-84205752D01*
X199065789Y-84205752D02*
X199161027Y-84253371D01*
X199161027Y-84253371D02*
X199208646Y-84348609D01*
X199208646Y-84348609D02*
X199208646Y-84872419D01*
X199208646Y-84348609D02*
X199256265Y-84253371D01*
X199256265Y-84253371D02*
X199351503Y-84205752D01*
X199351503Y-84205752D02*
X199494360Y-84205752D01*
X199494360Y-84205752D02*
X199589599Y-84253371D01*
X199589599Y-84253371D02*
X199637218Y-84348609D01*
X199637218Y-84348609D02*
X199637218Y-84872419D01*
X200065789Y-84824800D02*
X200161027Y-84872419D01*
X200161027Y-84872419D02*
X200351503Y-84872419D01*
X200351503Y-84872419D02*
X200446741Y-84824800D01*
X200446741Y-84824800D02*
X200494360Y-84729561D01*
X200494360Y-84729561D02*
X200494360Y-84681942D01*
X200494360Y-84681942D02*
X200446741Y-84586704D01*
X200446741Y-84586704D02*
X200351503Y-84539085D01*
X200351503Y-84539085D02*
X200208646Y-84539085D01*
X200208646Y-84539085D02*
X200113408Y-84491466D01*
X200113408Y-84491466D02*
X200065789Y-84396228D01*
X200065789Y-84396228D02*
X200065789Y-84348609D01*
X200065789Y-84348609D02*
X200113408Y-84253371D01*
X200113408Y-84253371D02*
X200208646Y-84205752D01*
X200208646Y-84205752D02*
X200351503Y-84205752D01*
X200351503Y-84205752D02*
X200446741Y-84253371D01*
D11*
X106432319Y-119095238D02*
X106432319Y-119666666D01*
X106432319Y-119380952D02*
X105432319Y-119380952D01*
X105432319Y-119380952D02*
X105575176Y-119476190D01*
X105575176Y-119476190D02*
X105670414Y-119571428D01*
X105670414Y-119571428D02*
X105718033Y-119666666D01*
X105432319Y-118476190D02*
X105432319Y-118380952D01*
X105432319Y-118380952D02*
X105479938Y-118285714D01*
X105479938Y-118285714D02*
X105527557Y-118238095D01*
X105527557Y-118238095D02*
X105622795Y-118190476D01*
X105622795Y-118190476D02*
X105813271Y-118142857D01*
X105813271Y-118142857D02*
X106051366Y-118142857D01*
X106051366Y-118142857D02*
X106241842Y-118190476D01*
X106241842Y-118190476D02*
X106337080Y-118238095D01*
X106337080Y-118238095D02*
X106384700Y-118285714D01*
X106384700Y-118285714D02*
X106432319Y-118380952D01*
X106432319Y-118380952D02*
X106432319Y-118476190D01*
X106432319Y-118476190D02*
X106384700Y-118571428D01*
X106384700Y-118571428D02*
X106337080Y-118619047D01*
X106337080Y-118619047D02*
X106241842Y-118666666D01*
X106241842Y-118666666D02*
X106051366Y-118714285D01*
X106051366Y-118714285D02*
X105813271Y-118714285D01*
X105813271Y-118714285D02*
X105622795Y-118666666D01*
X105622795Y-118666666D02*
X105527557Y-118619047D01*
X105527557Y-118619047D02*
X105479938Y-118571428D01*
X105479938Y-118571428D02*
X105432319Y-118476190D01*
X105432319Y-117857142D02*
X106432319Y-117523809D01*
X106432319Y-117523809D02*
X105432319Y-117190476D01*
X106432319Y-116857142D02*
X105432319Y-116857142D01*
X105432319Y-116857142D02*
X105432319Y-116619047D01*
X105432319Y-116619047D02*
X105479938Y-116476190D01*
X105479938Y-116476190D02*
X105575176Y-116380952D01*
X105575176Y-116380952D02*
X105670414Y-116333333D01*
X105670414Y-116333333D02*
X105860890Y-116285714D01*
X105860890Y-116285714D02*
X106003747Y-116285714D01*
X106003747Y-116285714D02*
X106194223Y-116333333D01*
X106194223Y-116333333D02*
X106289461Y-116380952D01*
X106289461Y-116380952D02*
X106384700Y-116476190D01*
X106384700Y-116476190D02*
X106432319Y-116619047D01*
X106432319Y-116619047D02*
X106432319Y-116857142D01*
X106432319Y-115333333D02*
X106432319Y-115904761D01*
X106432319Y-115619047D02*
X105432319Y-115619047D01*
X105432319Y-115619047D02*
X105575176Y-115714285D01*
X105575176Y-115714285D02*
X105670414Y-115809523D01*
X105670414Y-115809523D02*
X105718033Y-115904761D01*
X157448810Y-129054819D02*
X157448810Y-128054819D01*
X158496428Y-128959580D02*
X158448809Y-129007200D01*
X158448809Y-129007200D02*
X158305952Y-129054819D01*
X158305952Y-129054819D02*
X158210714Y-129054819D01*
X158210714Y-129054819D02*
X158067857Y-129007200D01*
X158067857Y-129007200D02*
X157972619Y-128911961D01*
X157972619Y-128911961D02*
X157925000Y-128816723D01*
X157925000Y-128816723D02*
X157877381Y-128626247D01*
X157877381Y-128626247D02*
X157877381Y-128483390D01*
X157877381Y-128483390D02*
X157925000Y-128292914D01*
X157925000Y-128292914D02*
X157972619Y-128197676D01*
X157972619Y-128197676D02*
X158067857Y-128102438D01*
X158067857Y-128102438D02*
X158210714Y-128054819D01*
X158210714Y-128054819D02*
X158305952Y-128054819D01*
X158305952Y-128054819D02*
X158448809Y-128102438D01*
X158448809Y-128102438D02*
X158496428Y-128150057D01*
X159448809Y-129054819D02*
X158877381Y-129054819D01*
X159163095Y-129054819D02*
X159163095Y-128054819D01*
X159163095Y-128054819D02*
X159067857Y-128197676D01*
X159067857Y-128197676D02*
X158972619Y-128292914D01*
X158972619Y-128292914D02*
X158877381Y-128340533D01*
X171909580Y-132666666D02*
X171957200Y-132714285D01*
X171957200Y-132714285D02*
X172004819Y-132857142D01*
X172004819Y-132857142D02*
X172004819Y-132952380D01*
X172004819Y-132952380D02*
X171957200Y-133095237D01*
X171957200Y-133095237D02*
X171861961Y-133190475D01*
X171861961Y-133190475D02*
X171766723Y-133238094D01*
X171766723Y-133238094D02*
X171576247Y-133285713D01*
X171576247Y-133285713D02*
X171433390Y-133285713D01*
X171433390Y-133285713D02*
X171242914Y-133238094D01*
X171242914Y-133238094D02*
X171147676Y-133190475D01*
X171147676Y-133190475D02*
X171052438Y-133095237D01*
X171052438Y-133095237D02*
X171004819Y-132952380D01*
X171004819Y-132952380D02*
X171004819Y-132857142D01*
X171004819Y-132857142D02*
X171052438Y-132714285D01*
X171052438Y-132714285D02*
X171100057Y-132666666D01*
X171338152Y-131809523D02*
X172004819Y-131809523D01*
X170957200Y-132047618D02*
X171671485Y-132285713D01*
X171671485Y-132285713D02*
X171671485Y-131666666D01*
X128333333Y-86909580D02*
X128285714Y-86957200D01*
X128285714Y-86957200D02*
X128142857Y-87004819D01*
X128142857Y-87004819D02*
X128047619Y-87004819D01*
X128047619Y-87004819D02*
X127904762Y-86957200D01*
X127904762Y-86957200D02*
X127809524Y-86861961D01*
X127809524Y-86861961D02*
X127761905Y-86766723D01*
X127761905Y-86766723D02*
X127714286Y-86576247D01*
X127714286Y-86576247D02*
X127714286Y-86433390D01*
X127714286Y-86433390D02*
X127761905Y-86242914D01*
X127761905Y-86242914D02*
X127809524Y-86147676D01*
X127809524Y-86147676D02*
X127904762Y-86052438D01*
X127904762Y-86052438D02*
X128047619Y-86004819D01*
X128047619Y-86004819D02*
X128142857Y-86004819D01*
X128142857Y-86004819D02*
X128285714Y-86052438D01*
X128285714Y-86052438D02*
X128333333Y-86100057D01*
X129238095Y-86004819D02*
X128761905Y-86004819D01*
X128761905Y-86004819D02*
X128714286Y-86481009D01*
X128714286Y-86481009D02*
X128761905Y-86433390D01*
X128761905Y-86433390D02*
X128857143Y-86385771D01*
X128857143Y-86385771D02*
X129095238Y-86385771D01*
X129095238Y-86385771D02*
X129190476Y-86433390D01*
X129190476Y-86433390D02*
X129238095Y-86481009D01*
X129238095Y-86481009D02*
X129285714Y-86576247D01*
X129285714Y-86576247D02*
X129285714Y-86814342D01*
X129285714Y-86814342D02*
X129238095Y-86909580D01*
X129238095Y-86909580D02*
X129190476Y-86957200D01*
X129190476Y-86957200D02*
X129095238Y-87004819D01*
X129095238Y-87004819D02*
X128857143Y-87004819D01*
X128857143Y-87004819D02*
X128761905Y-86957200D01*
X128761905Y-86957200D02*
X128714286Y-86909580D01*
X104932319Y-96999999D02*
X105932319Y-96666666D01*
X105932319Y-96666666D02*
X104932319Y-96333333D01*
X105932319Y-95999999D02*
X105265652Y-95999999D01*
X104932319Y-95999999D02*
X104979938Y-96047618D01*
X104979938Y-96047618D02*
X105027557Y-95999999D01*
X105027557Y-95999999D02*
X104979938Y-95952380D01*
X104979938Y-95952380D02*
X104932319Y-95999999D01*
X104932319Y-95999999D02*
X105027557Y-95999999D01*
X105265652Y-95523809D02*
X105932319Y-95523809D01*
X105360890Y-95523809D02*
X105313271Y-95476190D01*
X105313271Y-95476190D02*
X105265652Y-95380952D01*
X105265652Y-95380952D02*
X105265652Y-95238095D01*
X105265652Y-95238095D02*
X105313271Y-95142857D01*
X105313271Y-95142857D02*
X105408509Y-95095238D01*
X105408509Y-95095238D02*
X105932319Y-95095238D01*
X105932319Y-94095238D02*
X105932319Y-94666666D01*
X105932319Y-94380952D02*
X104932319Y-94380952D01*
X104932319Y-94380952D02*
X105075176Y-94476190D01*
X105075176Y-94476190D02*
X105170414Y-94571428D01*
X105170414Y-94571428D02*
X105218033Y-94666666D01*
X156700057Y-85095238D02*
X156652438Y-85190476D01*
X156652438Y-85190476D02*
X156557200Y-85285714D01*
X156557200Y-85285714D02*
X156414342Y-85428571D01*
X156414342Y-85428571D02*
X156366723Y-85523809D01*
X156366723Y-85523809D02*
X156366723Y-85619047D01*
X156604819Y-85571428D02*
X156557200Y-85666666D01*
X156557200Y-85666666D02*
X156461961Y-85761904D01*
X156461961Y-85761904D02*
X156271485Y-85809523D01*
X156271485Y-85809523D02*
X155938152Y-85809523D01*
X155938152Y-85809523D02*
X155747676Y-85761904D01*
X155747676Y-85761904D02*
X155652438Y-85666666D01*
X155652438Y-85666666D02*
X155604819Y-85571428D01*
X155604819Y-85571428D02*
X155604819Y-85380952D01*
X155604819Y-85380952D02*
X155652438Y-85285714D01*
X155652438Y-85285714D02*
X155747676Y-85190476D01*
X155747676Y-85190476D02*
X155938152Y-85142857D01*
X155938152Y-85142857D02*
X156271485Y-85142857D01*
X156271485Y-85142857D02*
X156461961Y-85190476D01*
X156461961Y-85190476D02*
X156557200Y-85285714D01*
X156557200Y-85285714D02*
X156604819Y-85380952D01*
X156604819Y-85380952D02*
X156604819Y-85571428D01*
X156604819Y-84190476D02*
X156604819Y-84761904D01*
X156604819Y-84476190D02*
X155604819Y-84476190D01*
X155604819Y-84476190D02*
X155747676Y-84571428D01*
X155747676Y-84571428D02*
X155842914Y-84666666D01*
X155842914Y-84666666D02*
X155890533Y-84761904D01*
X210999999Y-114752438D02*
X210904761Y-114704819D01*
X210904761Y-114704819D02*
X210761904Y-114704819D01*
X210761904Y-114704819D02*
X210619047Y-114752438D01*
X210619047Y-114752438D02*
X210523809Y-114847676D01*
X210523809Y-114847676D02*
X210476190Y-114942914D01*
X210476190Y-114942914D02*
X210428571Y-115133390D01*
X210428571Y-115133390D02*
X210428571Y-115276247D01*
X210428571Y-115276247D02*
X210476190Y-115466723D01*
X210476190Y-115466723D02*
X210523809Y-115561961D01*
X210523809Y-115561961D02*
X210619047Y-115657200D01*
X210619047Y-115657200D02*
X210761904Y-115704819D01*
X210761904Y-115704819D02*
X210857142Y-115704819D01*
X210857142Y-115704819D02*
X210999999Y-115657200D01*
X210999999Y-115657200D02*
X211047618Y-115609580D01*
X211047618Y-115609580D02*
X211047618Y-115276247D01*
X211047618Y-115276247D02*
X210857142Y-115276247D01*
X211476190Y-115704819D02*
X211476190Y-114704819D01*
X211476190Y-114704819D02*
X212047618Y-115704819D01*
X212047618Y-115704819D02*
X212047618Y-114704819D01*
X212523809Y-115704819D02*
X212523809Y-114704819D01*
X212523809Y-114704819D02*
X212761904Y-114704819D01*
X212761904Y-114704819D02*
X212904761Y-114752438D01*
X212904761Y-114752438D02*
X212999999Y-114847676D01*
X212999999Y-114847676D02*
X213047618Y-114942914D01*
X213047618Y-114942914D02*
X213095237Y-115133390D01*
X213095237Y-115133390D02*
X213095237Y-115276247D01*
X213095237Y-115276247D02*
X213047618Y-115466723D01*
X213047618Y-115466723D02*
X212999999Y-115561961D01*
X212999999Y-115561961D02*
X212904761Y-115657200D01*
X212904761Y-115657200D02*
X212761904Y-115704819D01*
X212761904Y-115704819D02*
X212523809Y-115704819D01*
X213285714Y-115800057D02*
X214047618Y-115800057D01*
X214142857Y-114704819D02*
X214714285Y-114704819D01*
X214428571Y-115704819D02*
X214428571Y-114704819D01*
X214952381Y-114704819D02*
X215619047Y-114704819D01*
X215619047Y-114704819D02*
X215190476Y-115704819D01*
X113738095Y-64704819D02*
X114071428Y-65704819D01*
X114071428Y-65704819D02*
X114404761Y-64704819D01*
X114738095Y-65704819D02*
X114738095Y-65038152D01*
X114738095Y-64704819D02*
X114690476Y-64752438D01*
X114690476Y-64752438D02*
X114738095Y-64800057D01*
X114738095Y-64800057D02*
X114785714Y-64752438D01*
X114785714Y-64752438D02*
X114738095Y-64704819D01*
X114738095Y-64704819D02*
X114738095Y-64800057D01*
X115214285Y-65038152D02*
X115214285Y-65704819D01*
X115214285Y-65133390D02*
X115261904Y-65085771D01*
X115261904Y-65085771D02*
X115357142Y-65038152D01*
X115357142Y-65038152D02*
X115499999Y-65038152D01*
X115499999Y-65038152D02*
X115595237Y-65085771D01*
X115595237Y-65085771D02*
X115642856Y-65181009D01*
X115642856Y-65181009D02*
X115642856Y-65704819D01*
X115880952Y-65800057D02*
X116642856Y-65800057D01*
X116738095Y-64704819D02*
X117309523Y-64704819D01*
X117023809Y-65704819D02*
X117023809Y-64704819D01*
X118166666Y-65704819D02*
X117595238Y-65704819D01*
X117880952Y-65704819D02*
X117880952Y-64704819D01*
X117880952Y-64704819D02*
X117785714Y-64847676D01*
X117785714Y-64847676D02*
X117690476Y-64942914D01*
X117690476Y-64942914D02*
X117595238Y-64990533D01*
X210499999Y-91252438D02*
X210404761Y-91204819D01*
X210404761Y-91204819D02*
X210261904Y-91204819D01*
X210261904Y-91204819D02*
X210119047Y-91252438D01*
X210119047Y-91252438D02*
X210023809Y-91347676D01*
X210023809Y-91347676D02*
X209976190Y-91442914D01*
X209976190Y-91442914D02*
X209928571Y-91633390D01*
X209928571Y-91633390D02*
X209928571Y-91776247D01*
X209928571Y-91776247D02*
X209976190Y-91966723D01*
X209976190Y-91966723D02*
X210023809Y-92061961D01*
X210023809Y-92061961D02*
X210119047Y-92157200D01*
X210119047Y-92157200D02*
X210261904Y-92204819D01*
X210261904Y-92204819D02*
X210357142Y-92204819D01*
X210357142Y-92204819D02*
X210499999Y-92157200D01*
X210499999Y-92157200D02*
X210547618Y-92109580D01*
X210547618Y-92109580D02*
X210547618Y-91776247D01*
X210547618Y-91776247D02*
X210357142Y-91776247D01*
X210976190Y-92204819D02*
X210976190Y-91204819D01*
X210976190Y-91204819D02*
X211547618Y-92204819D01*
X211547618Y-92204819D02*
X211547618Y-91204819D01*
X212023809Y-92204819D02*
X212023809Y-91204819D01*
X212023809Y-91204819D02*
X212261904Y-91204819D01*
X212261904Y-91204819D02*
X212404761Y-91252438D01*
X212404761Y-91252438D02*
X212499999Y-91347676D01*
X212499999Y-91347676D02*
X212547618Y-91442914D01*
X212547618Y-91442914D02*
X212595237Y-91633390D01*
X212595237Y-91633390D02*
X212595237Y-91776247D01*
X212595237Y-91776247D02*
X212547618Y-91966723D01*
X212547618Y-91966723D02*
X212499999Y-92061961D01*
X212499999Y-92061961D02*
X212404761Y-92157200D01*
X212404761Y-92157200D02*
X212261904Y-92204819D01*
X212261904Y-92204819D02*
X212023809Y-92204819D01*
X212785714Y-92300057D02*
X213547618Y-92300057D01*
X213642857Y-91204819D02*
X214214285Y-91204819D01*
X213928571Y-92204819D02*
X213928571Y-91204819D01*
X214976190Y-91204819D02*
X214785714Y-91204819D01*
X214785714Y-91204819D02*
X214690476Y-91252438D01*
X214690476Y-91252438D02*
X214642857Y-91300057D01*
X214642857Y-91300057D02*
X214547619Y-91442914D01*
X214547619Y-91442914D02*
X214500000Y-91633390D01*
X214500000Y-91633390D02*
X214500000Y-92014342D01*
X214500000Y-92014342D02*
X214547619Y-92109580D01*
X214547619Y-92109580D02*
X214595238Y-92157200D01*
X214595238Y-92157200D02*
X214690476Y-92204819D01*
X214690476Y-92204819D02*
X214880952Y-92204819D01*
X214880952Y-92204819D02*
X214976190Y-92157200D01*
X214976190Y-92157200D02*
X215023809Y-92109580D01*
X215023809Y-92109580D02*
X215071428Y-92014342D01*
X215071428Y-92014342D02*
X215071428Y-91776247D01*
X215071428Y-91776247D02*
X215023809Y-91681009D01*
X215023809Y-91681009D02*
X214976190Y-91633390D01*
X214976190Y-91633390D02*
X214880952Y-91585771D01*
X214880952Y-91585771D02*
X214690476Y-91585771D01*
X214690476Y-91585771D02*
X214595238Y-91633390D01*
X214595238Y-91633390D02*
X214547619Y-91681009D01*
X214547619Y-91681009D02*
X214500000Y-91776247D01*
X179087080Y-98166666D02*
X179134700Y-98214285D01*
X179134700Y-98214285D02*
X179182319Y-98357142D01*
X179182319Y-98357142D02*
X179182319Y-98452380D01*
X179182319Y-98452380D02*
X179134700Y-98595237D01*
X179134700Y-98595237D02*
X179039461Y-98690475D01*
X179039461Y-98690475D02*
X178944223Y-98738094D01*
X178944223Y-98738094D02*
X178753747Y-98785713D01*
X178753747Y-98785713D02*
X178610890Y-98785713D01*
X178610890Y-98785713D02*
X178420414Y-98738094D01*
X178420414Y-98738094D02*
X178325176Y-98690475D01*
X178325176Y-98690475D02*
X178229938Y-98595237D01*
X178229938Y-98595237D02*
X178182319Y-98452380D01*
X178182319Y-98452380D02*
X178182319Y-98357142D01*
X178182319Y-98357142D02*
X178229938Y-98214285D01*
X178229938Y-98214285D02*
X178277557Y-98166666D01*
X178277557Y-97785713D02*
X178229938Y-97738094D01*
X178229938Y-97738094D02*
X178182319Y-97642856D01*
X178182319Y-97642856D02*
X178182319Y-97404761D01*
X178182319Y-97404761D02*
X178229938Y-97309523D01*
X178229938Y-97309523D02*
X178277557Y-97261904D01*
X178277557Y-97261904D02*
X178372795Y-97214285D01*
X178372795Y-97214285D02*
X178468033Y-97214285D01*
X178468033Y-97214285D02*
X178610890Y-97261904D01*
X178610890Y-97261904D02*
X179182319Y-97833332D01*
X179182319Y-97833332D02*
X179182319Y-97214285D01*
X170809580Y-83916666D02*
X170857200Y-83964285D01*
X170857200Y-83964285D02*
X170904819Y-84107142D01*
X170904819Y-84107142D02*
X170904819Y-84202380D01*
X170904819Y-84202380D02*
X170857200Y-84345237D01*
X170857200Y-84345237D02*
X170761961Y-84440475D01*
X170761961Y-84440475D02*
X170666723Y-84488094D01*
X170666723Y-84488094D02*
X170476247Y-84535713D01*
X170476247Y-84535713D02*
X170333390Y-84535713D01*
X170333390Y-84535713D02*
X170142914Y-84488094D01*
X170142914Y-84488094D02*
X170047676Y-84440475D01*
X170047676Y-84440475D02*
X169952438Y-84345237D01*
X169952438Y-84345237D02*
X169904819Y-84202380D01*
X169904819Y-84202380D02*
X169904819Y-84107142D01*
X169904819Y-84107142D02*
X169952438Y-83964285D01*
X169952438Y-83964285D02*
X170000057Y-83916666D01*
X169904819Y-83583332D02*
X169904819Y-82916666D01*
X169904819Y-82916666D02*
X170904819Y-83345237D01*
X132642856Y-65704819D02*
X132071428Y-65704819D01*
X132357142Y-65704819D02*
X132357142Y-64704819D01*
X132357142Y-64704819D02*
X132261904Y-64847676D01*
X132261904Y-64847676D02*
X132166666Y-64942914D01*
X132166666Y-64942914D02*
X132071428Y-64990533D01*
X133261904Y-64704819D02*
X133357142Y-64704819D01*
X133357142Y-64704819D02*
X133452380Y-64752438D01*
X133452380Y-64752438D02*
X133499999Y-64800057D01*
X133499999Y-64800057D02*
X133547618Y-64895295D01*
X133547618Y-64895295D02*
X133595237Y-65085771D01*
X133595237Y-65085771D02*
X133595237Y-65323866D01*
X133595237Y-65323866D02*
X133547618Y-65514342D01*
X133547618Y-65514342D02*
X133499999Y-65609580D01*
X133499999Y-65609580D02*
X133452380Y-65657200D01*
X133452380Y-65657200D02*
X133357142Y-65704819D01*
X133357142Y-65704819D02*
X133261904Y-65704819D01*
X133261904Y-65704819D02*
X133166666Y-65657200D01*
X133166666Y-65657200D02*
X133119047Y-65609580D01*
X133119047Y-65609580D02*
X133071428Y-65514342D01*
X133071428Y-65514342D02*
X133023809Y-65323866D01*
X133023809Y-65323866D02*
X133023809Y-65085771D01*
X133023809Y-65085771D02*
X133071428Y-64895295D01*
X133071428Y-64895295D02*
X133119047Y-64800057D01*
X133119047Y-64800057D02*
X133166666Y-64752438D01*
X133166666Y-64752438D02*
X133261904Y-64704819D01*
X133880952Y-64704819D02*
X134214285Y-65704819D01*
X134214285Y-65704819D02*
X134547618Y-64704819D01*
X134642857Y-65800057D02*
X135404761Y-65800057D01*
X135500000Y-64704819D02*
X136071428Y-64704819D01*
X135785714Y-65704819D02*
X135785714Y-64704819D01*
X136357143Y-64800057D02*
X136404762Y-64752438D01*
X136404762Y-64752438D02*
X136500000Y-64704819D01*
X136500000Y-64704819D02*
X136738095Y-64704819D01*
X136738095Y-64704819D02*
X136833333Y-64752438D01*
X136833333Y-64752438D02*
X136880952Y-64800057D01*
X136880952Y-64800057D02*
X136928571Y-64895295D01*
X136928571Y-64895295D02*
X136928571Y-64990533D01*
X136928571Y-64990533D02*
X136880952Y-65133390D01*
X136880952Y-65133390D02*
X136309524Y-65704819D01*
X136309524Y-65704819D02*
X136928571Y-65704819D01*
X199999999Y-64752438D02*
X199904761Y-64704819D01*
X199904761Y-64704819D02*
X199761904Y-64704819D01*
X199761904Y-64704819D02*
X199619047Y-64752438D01*
X199619047Y-64752438D02*
X199523809Y-64847676D01*
X199523809Y-64847676D02*
X199476190Y-64942914D01*
X199476190Y-64942914D02*
X199428571Y-65133390D01*
X199428571Y-65133390D02*
X199428571Y-65276247D01*
X199428571Y-65276247D02*
X199476190Y-65466723D01*
X199476190Y-65466723D02*
X199523809Y-65561961D01*
X199523809Y-65561961D02*
X199619047Y-65657200D01*
X199619047Y-65657200D02*
X199761904Y-65704819D01*
X199761904Y-65704819D02*
X199857142Y-65704819D01*
X199857142Y-65704819D02*
X199999999Y-65657200D01*
X199999999Y-65657200D02*
X200047618Y-65609580D01*
X200047618Y-65609580D02*
X200047618Y-65276247D01*
X200047618Y-65276247D02*
X199857142Y-65276247D01*
X200476190Y-65704819D02*
X200476190Y-64704819D01*
X200476190Y-64704819D02*
X201047618Y-65704819D01*
X201047618Y-65704819D02*
X201047618Y-64704819D01*
X201523809Y-65704819D02*
X201523809Y-64704819D01*
X201523809Y-64704819D02*
X201761904Y-64704819D01*
X201761904Y-64704819D02*
X201904761Y-64752438D01*
X201904761Y-64752438D02*
X201999999Y-64847676D01*
X201999999Y-64847676D02*
X202047618Y-64942914D01*
X202047618Y-64942914D02*
X202095237Y-65133390D01*
X202095237Y-65133390D02*
X202095237Y-65276247D01*
X202095237Y-65276247D02*
X202047618Y-65466723D01*
X202047618Y-65466723D02*
X201999999Y-65561961D01*
X201999999Y-65561961D02*
X201904761Y-65657200D01*
X201904761Y-65657200D02*
X201761904Y-65704819D01*
X201761904Y-65704819D02*
X201523809Y-65704819D01*
X202285714Y-65800057D02*
X203047618Y-65800057D01*
X203142857Y-64704819D02*
X203714285Y-64704819D01*
X203428571Y-65704819D02*
X203428571Y-64704819D01*
X204523809Y-64704819D02*
X204047619Y-64704819D01*
X204047619Y-64704819D02*
X204000000Y-65181009D01*
X204000000Y-65181009D02*
X204047619Y-65133390D01*
X204047619Y-65133390D02*
X204142857Y-65085771D01*
X204142857Y-65085771D02*
X204380952Y-65085771D01*
X204380952Y-65085771D02*
X204476190Y-65133390D01*
X204476190Y-65133390D02*
X204523809Y-65181009D01*
X204523809Y-65181009D02*
X204571428Y-65276247D01*
X204571428Y-65276247D02*
X204571428Y-65514342D01*
X204571428Y-65514342D02*
X204523809Y-65609580D01*
X204523809Y-65609580D02*
X204476190Y-65657200D01*
X204476190Y-65657200D02*
X204380952Y-65704819D01*
X204380952Y-65704819D02*
X204142857Y-65704819D01*
X204142857Y-65704819D02*
X204047619Y-65657200D01*
X204047619Y-65657200D02*
X204000000Y-65609580D01*
X135584819Y-82746666D02*
X135108628Y-83079999D01*
X135584819Y-83318094D02*
X134584819Y-83318094D01*
X134584819Y-83318094D02*
X134584819Y-82937142D01*
X134584819Y-82937142D02*
X134632438Y-82841904D01*
X134632438Y-82841904D02*
X134680057Y-82794285D01*
X134680057Y-82794285D02*
X134775295Y-82746666D01*
X134775295Y-82746666D02*
X134918152Y-82746666D01*
X134918152Y-82746666D02*
X135013390Y-82794285D01*
X135013390Y-82794285D02*
X135061009Y-82841904D01*
X135061009Y-82841904D02*
X135108628Y-82937142D01*
X135108628Y-82937142D02*
X135108628Y-83318094D01*
X134918152Y-81889523D02*
X135584819Y-81889523D01*
X134537200Y-82127618D02*
X135251485Y-82365713D01*
X135251485Y-82365713D02*
X135251485Y-81746666D01*
X190809523Y-65704819D02*
X190333333Y-65704819D01*
X190333333Y-65704819D02*
X190333333Y-64704819D01*
X191333333Y-64704819D02*
X191523809Y-64704819D01*
X191523809Y-64704819D02*
X191619047Y-64752438D01*
X191619047Y-64752438D02*
X191714285Y-64847676D01*
X191714285Y-64847676D02*
X191761904Y-65038152D01*
X191761904Y-65038152D02*
X191761904Y-65371485D01*
X191761904Y-65371485D02*
X191714285Y-65561961D01*
X191714285Y-65561961D02*
X191619047Y-65657200D01*
X191619047Y-65657200D02*
X191523809Y-65704819D01*
X191523809Y-65704819D02*
X191333333Y-65704819D01*
X191333333Y-65704819D02*
X191238095Y-65657200D01*
X191238095Y-65657200D02*
X191142857Y-65561961D01*
X191142857Y-65561961D02*
X191095238Y-65371485D01*
X191095238Y-65371485D02*
X191095238Y-65038152D01*
X191095238Y-65038152D02*
X191142857Y-64847676D01*
X191142857Y-64847676D02*
X191238095Y-64752438D01*
X191238095Y-64752438D02*
X191333333Y-64704819D01*
X192095238Y-64704819D02*
X192333333Y-65704819D01*
X192333333Y-65704819D02*
X192523809Y-64990533D01*
X192523809Y-64990533D02*
X192714285Y-65704819D01*
X192714285Y-65704819D02*
X192952381Y-64704819D01*
X193095238Y-65800057D02*
X193857142Y-65800057D01*
X193952381Y-64704819D02*
X194285714Y-65704819D01*
X194285714Y-65704819D02*
X194619047Y-64704819D01*
X195380952Y-65704819D02*
X195380952Y-64704819D01*
X195380952Y-65657200D02*
X195285714Y-65704819D01*
X195285714Y-65704819D02*
X195095238Y-65704819D01*
X195095238Y-65704819D02*
X195000000Y-65657200D01*
X195000000Y-65657200D02*
X194952381Y-65609580D01*
X194952381Y-65609580D02*
X194904762Y-65514342D01*
X194904762Y-65514342D02*
X194904762Y-65228628D01*
X194904762Y-65228628D02*
X194952381Y-65133390D01*
X194952381Y-65133390D02*
X195000000Y-65085771D01*
X195000000Y-65085771D02*
X195095238Y-65038152D01*
X195095238Y-65038152D02*
X195285714Y-65038152D01*
X195285714Y-65038152D02*
X195380952Y-65085771D01*
X195809524Y-65657200D02*
X195904762Y-65704819D01*
X195904762Y-65704819D02*
X196095238Y-65704819D01*
X196095238Y-65704819D02*
X196190476Y-65657200D01*
X196190476Y-65657200D02*
X196238095Y-65561961D01*
X196238095Y-65561961D02*
X196238095Y-65514342D01*
X196238095Y-65514342D02*
X196190476Y-65419104D01*
X196190476Y-65419104D02*
X196095238Y-65371485D01*
X196095238Y-65371485D02*
X195952381Y-65371485D01*
X195952381Y-65371485D02*
X195857143Y-65323866D01*
X195857143Y-65323866D02*
X195809524Y-65228628D01*
X195809524Y-65228628D02*
X195809524Y-65181009D01*
X195809524Y-65181009D02*
X195857143Y-65085771D01*
X195857143Y-65085771D02*
X195952381Y-65038152D01*
X195952381Y-65038152D02*
X196095238Y-65038152D01*
X196095238Y-65038152D02*
X196190476Y-65085771D01*
X196428572Y-65800057D02*
X197190476Y-65800057D01*
X197285715Y-64704819D02*
X197857143Y-64704819D01*
X197571429Y-65704819D02*
X197571429Y-64704819D01*
X198666667Y-64704819D02*
X198190477Y-64704819D01*
X198190477Y-64704819D02*
X198142858Y-65181009D01*
X198142858Y-65181009D02*
X198190477Y-65133390D01*
X198190477Y-65133390D02*
X198285715Y-65085771D01*
X198285715Y-65085771D02*
X198523810Y-65085771D01*
X198523810Y-65085771D02*
X198619048Y-65133390D01*
X198619048Y-65133390D02*
X198666667Y-65181009D01*
X198666667Y-65181009D02*
X198714286Y-65276247D01*
X198714286Y-65276247D02*
X198714286Y-65514342D01*
X198714286Y-65514342D02*
X198666667Y-65609580D01*
X198666667Y-65609580D02*
X198619048Y-65657200D01*
X198619048Y-65657200D02*
X198523810Y-65704819D01*
X198523810Y-65704819D02*
X198285715Y-65704819D01*
X198285715Y-65704819D02*
X198190477Y-65657200D01*
X198190477Y-65657200D02*
X198142858Y-65609580D01*
X186977319Y-101999999D02*
X187977319Y-101666666D01*
X187977319Y-101666666D02*
X186977319Y-101333333D01*
X187977319Y-100857142D02*
X187929700Y-100952380D01*
X187929700Y-100952380D02*
X187882080Y-100999999D01*
X187882080Y-100999999D02*
X187786842Y-101047618D01*
X187786842Y-101047618D02*
X187501128Y-101047618D01*
X187501128Y-101047618D02*
X187405890Y-100999999D01*
X187405890Y-100999999D02*
X187358271Y-100952380D01*
X187358271Y-100952380D02*
X187310652Y-100857142D01*
X187310652Y-100857142D02*
X187310652Y-100714285D01*
X187310652Y-100714285D02*
X187358271Y-100619047D01*
X187358271Y-100619047D02*
X187405890Y-100571428D01*
X187405890Y-100571428D02*
X187501128Y-100523809D01*
X187501128Y-100523809D02*
X187786842Y-100523809D01*
X187786842Y-100523809D02*
X187882080Y-100571428D01*
X187882080Y-100571428D02*
X187929700Y-100619047D01*
X187929700Y-100619047D02*
X187977319Y-100714285D01*
X187977319Y-100714285D02*
X187977319Y-100857142D01*
X187310652Y-99666666D02*
X187977319Y-99666666D01*
X187310652Y-100095237D02*
X187834461Y-100095237D01*
X187834461Y-100095237D02*
X187929700Y-100047618D01*
X187929700Y-100047618D02*
X187977319Y-99952380D01*
X187977319Y-99952380D02*
X187977319Y-99809523D01*
X187977319Y-99809523D02*
X187929700Y-99714285D01*
X187929700Y-99714285D02*
X187882080Y-99666666D01*
X187310652Y-99333332D02*
X187310652Y-98952380D01*
X186977319Y-99190475D02*
X187834461Y-99190475D01*
X187834461Y-99190475D02*
X187929700Y-99142856D01*
X187929700Y-99142856D02*
X187977319Y-99047618D01*
X187977319Y-99047618D02*
X187977319Y-98952380D01*
X187977319Y-98095237D02*
X187977319Y-98666665D01*
X187977319Y-98380951D02*
X186977319Y-98380951D01*
X186977319Y-98380951D02*
X187120176Y-98476189D01*
X187120176Y-98476189D02*
X187215414Y-98571427D01*
X187215414Y-98571427D02*
X187263033Y-98666665D01*
X114357142Y-135704819D02*
X114547618Y-135704819D01*
X114547618Y-135704819D02*
X114642856Y-135752438D01*
X114642856Y-135752438D02*
X114738094Y-135847676D01*
X114738094Y-135847676D02*
X114785713Y-136038152D01*
X114785713Y-136038152D02*
X114785713Y-136371485D01*
X114785713Y-136371485D02*
X114738094Y-136561961D01*
X114738094Y-136561961D02*
X114642856Y-136657200D01*
X114642856Y-136657200D02*
X114547618Y-136704819D01*
X114547618Y-136704819D02*
X114357142Y-136704819D01*
X114357142Y-136704819D02*
X114261904Y-136657200D01*
X114261904Y-136657200D02*
X114166666Y-136561961D01*
X114166666Y-136561961D02*
X114119047Y-136371485D01*
X114119047Y-136371485D02*
X114119047Y-136038152D01*
X114119047Y-136038152D02*
X114166666Y-135847676D01*
X114166666Y-135847676D02*
X114261904Y-135752438D01*
X114261904Y-135752438D02*
X114357142Y-135704819D01*
X115214285Y-136704819D02*
X115214285Y-135704819D01*
X115214285Y-135704819D02*
X115595237Y-135704819D01*
X115595237Y-135704819D02*
X115690475Y-135752438D01*
X115690475Y-135752438D02*
X115738094Y-135800057D01*
X115738094Y-135800057D02*
X115785713Y-135895295D01*
X115785713Y-135895295D02*
X115785713Y-136038152D01*
X115785713Y-136038152D02*
X115738094Y-136133390D01*
X115738094Y-136133390D02*
X115690475Y-136181009D01*
X115690475Y-136181009D02*
X115595237Y-136228628D01*
X115595237Y-136228628D02*
X115214285Y-136228628D01*
X116166666Y-136419104D02*
X116642856Y-136419104D01*
X116071428Y-136704819D02*
X116404761Y-135704819D01*
X116404761Y-135704819D02*
X116738094Y-136704819D01*
X117071428Y-136704819D02*
X117071428Y-135704819D01*
X117071428Y-135704819D02*
X117404761Y-136419104D01*
X117404761Y-136419104D02*
X117738094Y-135704819D01*
X117738094Y-135704819D02*
X117738094Y-136704819D01*
X118214285Y-136704819D02*
X118214285Y-135704819D01*
X118214285Y-135704819D02*
X118595237Y-135704819D01*
X118595237Y-135704819D02*
X118690475Y-135752438D01*
X118690475Y-135752438D02*
X118738094Y-135800057D01*
X118738094Y-135800057D02*
X118785713Y-135895295D01*
X118785713Y-135895295D02*
X118785713Y-136038152D01*
X118785713Y-136038152D02*
X118738094Y-136133390D01*
X118738094Y-136133390D02*
X118690475Y-136181009D01*
X118690475Y-136181009D02*
X118595237Y-136228628D01*
X118595237Y-136228628D02*
X118214285Y-136228628D01*
X118976190Y-136800057D02*
X119738094Y-136800057D01*
X120166666Y-135704819D02*
X120357142Y-135704819D01*
X120357142Y-135704819D02*
X120452380Y-135752438D01*
X120452380Y-135752438D02*
X120547618Y-135847676D01*
X120547618Y-135847676D02*
X120595237Y-136038152D01*
X120595237Y-136038152D02*
X120595237Y-136371485D01*
X120595237Y-136371485D02*
X120547618Y-136561961D01*
X120547618Y-136561961D02*
X120452380Y-136657200D01*
X120452380Y-136657200D02*
X120357142Y-136704819D01*
X120357142Y-136704819D02*
X120166666Y-136704819D01*
X120166666Y-136704819D02*
X120071428Y-136657200D01*
X120071428Y-136657200D02*
X119976190Y-136561961D01*
X119976190Y-136561961D02*
X119928571Y-136371485D01*
X119928571Y-136371485D02*
X119928571Y-136038152D01*
X119928571Y-136038152D02*
X119976190Y-135847676D01*
X119976190Y-135847676D02*
X120071428Y-135752438D01*
X120071428Y-135752438D02*
X120166666Y-135704819D01*
X121023809Y-135704819D02*
X121023809Y-136514342D01*
X121023809Y-136514342D02*
X121071428Y-136609580D01*
X121071428Y-136609580D02*
X121119047Y-136657200D01*
X121119047Y-136657200D02*
X121214285Y-136704819D01*
X121214285Y-136704819D02*
X121404761Y-136704819D01*
X121404761Y-136704819D02*
X121499999Y-136657200D01*
X121499999Y-136657200D02*
X121547618Y-136609580D01*
X121547618Y-136609580D02*
X121595237Y-136514342D01*
X121595237Y-136514342D02*
X121595237Y-135704819D01*
X121928571Y-135704819D02*
X122499999Y-135704819D01*
X122214285Y-136704819D02*
X122214285Y-135704819D01*
X122595238Y-136800057D02*
X123357142Y-136800057D01*
X123452381Y-135704819D02*
X124023809Y-135704819D01*
X123738095Y-136704819D02*
X123738095Y-135704819D01*
X124500000Y-136133390D02*
X124404762Y-136085771D01*
X124404762Y-136085771D02*
X124357143Y-136038152D01*
X124357143Y-136038152D02*
X124309524Y-135942914D01*
X124309524Y-135942914D02*
X124309524Y-135895295D01*
X124309524Y-135895295D02*
X124357143Y-135800057D01*
X124357143Y-135800057D02*
X124404762Y-135752438D01*
X124404762Y-135752438D02*
X124500000Y-135704819D01*
X124500000Y-135704819D02*
X124690476Y-135704819D01*
X124690476Y-135704819D02*
X124785714Y-135752438D01*
X124785714Y-135752438D02*
X124833333Y-135800057D01*
X124833333Y-135800057D02*
X124880952Y-135895295D01*
X124880952Y-135895295D02*
X124880952Y-135942914D01*
X124880952Y-135942914D02*
X124833333Y-136038152D01*
X124833333Y-136038152D02*
X124785714Y-136085771D01*
X124785714Y-136085771D02*
X124690476Y-136133390D01*
X124690476Y-136133390D02*
X124500000Y-136133390D01*
X124500000Y-136133390D02*
X124404762Y-136181009D01*
X124404762Y-136181009D02*
X124357143Y-136228628D01*
X124357143Y-136228628D02*
X124309524Y-136323866D01*
X124309524Y-136323866D02*
X124309524Y-136514342D01*
X124309524Y-136514342D02*
X124357143Y-136609580D01*
X124357143Y-136609580D02*
X124404762Y-136657200D01*
X124404762Y-136657200D02*
X124500000Y-136704819D01*
X124500000Y-136704819D02*
X124690476Y-136704819D01*
X124690476Y-136704819D02*
X124785714Y-136657200D01*
X124785714Y-136657200D02*
X124833333Y-136609580D01*
X124833333Y-136609580D02*
X124880952Y-136514342D01*
X124880952Y-136514342D02*
X124880952Y-136323866D01*
X124880952Y-136323866D02*
X124833333Y-136228628D01*
X124833333Y-136228628D02*
X124785714Y-136181009D01*
X124785714Y-136181009D02*
X124690476Y-136133390D01*
X125999999Y-135752438D02*
X125904761Y-135704819D01*
X125904761Y-135704819D02*
X125761904Y-135704819D01*
X125761904Y-135704819D02*
X125619047Y-135752438D01*
X125619047Y-135752438D02*
X125523809Y-135847676D01*
X125523809Y-135847676D02*
X125476190Y-135942914D01*
X125476190Y-135942914D02*
X125428571Y-136133390D01*
X125428571Y-136133390D02*
X125428571Y-136276247D01*
X125428571Y-136276247D02*
X125476190Y-136466723D01*
X125476190Y-136466723D02*
X125523809Y-136561961D01*
X125523809Y-136561961D02*
X125619047Y-136657200D01*
X125619047Y-136657200D02*
X125761904Y-136704819D01*
X125761904Y-136704819D02*
X125857142Y-136704819D01*
X125857142Y-136704819D02*
X125999999Y-136657200D01*
X125999999Y-136657200D02*
X126047618Y-136609580D01*
X126047618Y-136609580D02*
X126047618Y-136276247D01*
X126047618Y-136276247D02*
X125857142Y-136276247D01*
X126476190Y-136704819D02*
X126476190Y-135704819D01*
X126476190Y-135704819D02*
X127047618Y-136704819D01*
X127047618Y-136704819D02*
X127047618Y-135704819D01*
X127523809Y-136704819D02*
X127523809Y-135704819D01*
X127523809Y-135704819D02*
X127761904Y-135704819D01*
X127761904Y-135704819D02*
X127904761Y-135752438D01*
X127904761Y-135752438D02*
X127999999Y-135847676D01*
X127999999Y-135847676D02*
X128047618Y-135942914D01*
X128047618Y-135942914D02*
X128095237Y-136133390D01*
X128095237Y-136133390D02*
X128095237Y-136276247D01*
X128095237Y-136276247D02*
X128047618Y-136466723D01*
X128047618Y-136466723D02*
X127999999Y-136561961D01*
X127999999Y-136561961D02*
X127904761Y-136657200D01*
X127904761Y-136657200D02*
X127761904Y-136704819D01*
X127761904Y-136704819D02*
X127523809Y-136704819D01*
X128285714Y-136800057D02*
X129047618Y-136800057D01*
X129142857Y-135704819D02*
X129714285Y-135704819D01*
X129428571Y-136704819D02*
X129428571Y-135704819D01*
X130190476Y-136133390D02*
X130095238Y-136085771D01*
X130095238Y-136085771D02*
X130047619Y-136038152D01*
X130047619Y-136038152D02*
X130000000Y-135942914D01*
X130000000Y-135942914D02*
X130000000Y-135895295D01*
X130000000Y-135895295D02*
X130047619Y-135800057D01*
X130047619Y-135800057D02*
X130095238Y-135752438D01*
X130095238Y-135752438D02*
X130190476Y-135704819D01*
X130190476Y-135704819D02*
X130380952Y-135704819D01*
X130380952Y-135704819D02*
X130476190Y-135752438D01*
X130476190Y-135752438D02*
X130523809Y-135800057D01*
X130523809Y-135800057D02*
X130571428Y-135895295D01*
X130571428Y-135895295D02*
X130571428Y-135942914D01*
X130571428Y-135942914D02*
X130523809Y-136038152D01*
X130523809Y-136038152D02*
X130476190Y-136085771D01*
X130476190Y-136085771D02*
X130380952Y-136133390D01*
X130380952Y-136133390D02*
X130190476Y-136133390D01*
X130190476Y-136133390D02*
X130095238Y-136181009D01*
X130095238Y-136181009D02*
X130047619Y-136228628D01*
X130047619Y-136228628D02*
X130000000Y-136323866D01*
X130000000Y-136323866D02*
X130000000Y-136514342D01*
X130000000Y-136514342D02*
X130047619Y-136609580D01*
X130047619Y-136609580D02*
X130095238Y-136657200D01*
X130095238Y-136657200D02*
X130190476Y-136704819D01*
X130190476Y-136704819D02*
X130380952Y-136704819D01*
X130380952Y-136704819D02*
X130476190Y-136657200D01*
X130476190Y-136657200D02*
X130523809Y-136609580D01*
X130523809Y-136609580D02*
X130571428Y-136514342D01*
X130571428Y-136514342D02*
X130571428Y-136323866D01*
X130571428Y-136323866D02*
X130523809Y-136228628D01*
X130523809Y-136228628D02*
X130476190Y-136181009D01*
X130476190Y-136181009D02*
X130380952Y-136133390D01*
X142309580Y-89666666D02*
X142357200Y-89714285D01*
X142357200Y-89714285D02*
X142404819Y-89857142D01*
X142404819Y-89857142D02*
X142404819Y-89952380D01*
X142404819Y-89952380D02*
X142357200Y-90095237D01*
X142357200Y-90095237D02*
X142261961Y-90190475D01*
X142261961Y-90190475D02*
X142166723Y-90238094D01*
X142166723Y-90238094D02*
X141976247Y-90285713D01*
X141976247Y-90285713D02*
X141833390Y-90285713D01*
X141833390Y-90285713D02*
X141642914Y-90238094D01*
X141642914Y-90238094D02*
X141547676Y-90190475D01*
X141547676Y-90190475D02*
X141452438Y-90095237D01*
X141452438Y-90095237D02*
X141404819Y-89952380D01*
X141404819Y-89952380D02*
X141404819Y-89857142D01*
X141404819Y-89857142D02*
X141452438Y-89714285D01*
X141452438Y-89714285D02*
X141500057Y-89666666D01*
X142404819Y-88714285D02*
X142404819Y-89285713D01*
X142404819Y-88999999D02*
X141404819Y-88999999D01*
X141404819Y-88999999D02*
X141547676Y-89095237D01*
X141547676Y-89095237D02*
X141642914Y-89190475D01*
X141642914Y-89190475D02*
X141690533Y-89285713D01*
X160499999Y-64752438D02*
X160404761Y-64704819D01*
X160404761Y-64704819D02*
X160261904Y-64704819D01*
X160261904Y-64704819D02*
X160119047Y-64752438D01*
X160119047Y-64752438D02*
X160023809Y-64847676D01*
X160023809Y-64847676D02*
X159976190Y-64942914D01*
X159976190Y-64942914D02*
X159928571Y-65133390D01*
X159928571Y-65133390D02*
X159928571Y-65276247D01*
X159928571Y-65276247D02*
X159976190Y-65466723D01*
X159976190Y-65466723D02*
X160023809Y-65561961D01*
X160023809Y-65561961D02*
X160119047Y-65657200D01*
X160119047Y-65657200D02*
X160261904Y-65704819D01*
X160261904Y-65704819D02*
X160357142Y-65704819D01*
X160357142Y-65704819D02*
X160499999Y-65657200D01*
X160499999Y-65657200D02*
X160547618Y-65609580D01*
X160547618Y-65609580D02*
X160547618Y-65276247D01*
X160547618Y-65276247D02*
X160357142Y-65276247D01*
X160976190Y-65704819D02*
X160976190Y-64704819D01*
X160976190Y-64704819D02*
X161547618Y-65704819D01*
X161547618Y-65704819D02*
X161547618Y-64704819D01*
X162023809Y-65704819D02*
X162023809Y-64704819D01*
X162023809Y-64704819D02*
X162261904Y-64704819D01*
X162261904Y-64704819D02*
X162404761Y-64752438D01*
X162404761Y-64752438D02*
X162499999Y-64847676D01*
X162499999Y-64847676D02*
X162547618Y-64942914D01*
X162547618Y-64942914D02*
X162595237Y-65133390D01*
X162595237Y-65133390D02*
X162595237Y-65276247D01*
X162595237Y-65276247D02*
X162547618Y-65466723D01*
X162547618Y-65466723D02*
X162499999Y-65561961D01*
X162499999Y-65561961D02*
X162404761Y-65657200D01*
X162404761Y-65657200D02*
X162261904Y-65704819D01*
X162261904Y-65704819D02*
X162023809Y-65704819D01*
X162785714Y-65800057D02*
X163547618Y-65800057D01*
X163642857Y-64704819D02*
X164214285Y-64704819D01*
X163928571Y-65704819D02*
X163928571Y-64704819D01*
X164452381Y-64704819D02*
X165071428Y-64704819D01*
X165071428Y-64704819D02*
X164738095Y-65085771D01*
X164738095Y-65085771D02*
X164880952Y-65085771D01*
X164880952Y-65085771D02*
X164976190Y-65133390D01*
X164976190Y-65133390D02*
X165023809Y-65181009D01*
X165023809Y-65181009D02*
X165071428Y-65276247D01*
X165071428Y-65276247D02*
X165071428Y-65514342D01*
X165071428Y-65514342D02*
X165023809Y-65609580D01*
X165023809Y-65609580D02*
X164976190Y-65657200D01*
X164976190Y-65657200D02*
X164880952Y-65704819D01*
X164880952Y-65704819D02*
X164595238Y-65704819D01*
X164595238Y-65704819D02*
X164500000Y-65657200D01*
X164500000Y-65657200D02*
X164452381Y-65609580D01*
X210309523Y-107704819D02*
X210642856Y-108704819D01*
X210642856Y-108704819D02*
X210976189Y-107704819D01*
X211071428Y-108800057D02*
X211833332Y-108800057D01*
X212595237Y-108704819D02*
X212023809Y-108704819D01*
X212309523Y-108704819D02*
X212309523Y-107704819D01*
X212309523Y-107704819D02*
X212214285Y-107847676D01*
X212214285Y-107847676D02*
X212119047Y-107942914D01*
X212119047Y-107942914D02*
X212023809Y-107990533D01*
X213166666Y-108704819D02*
X213071428Y-108657200D01*
X213071428Y-108657200D02*
X213023809Y-108561961D01*
X213023809Y-108561961D02*
X213023809Y-107704819D01*
X213309524Y-108800057D02*
X214071428Y-108800057D01*
X214166667Y-107704819D02*
X214738095Y-107704819D01*
X214452381Y-108704819D02*
X214452381Y-107704819D01*
X214976191Y-107704819D02*
X215642857Y-107704819D01*
X215642857Y-107704819D02*
X215214286Y-108704819D01*
D12*
X168288333Y-100574318D02*
X167683571Y-100574318D01*
X167683571Y-100574318D02*
X167683571Y-99304318D01*
X169376905Y-100574318D02*
X168651190Y-100574318D01*
X169014047Y-100574318D02*
X169014047Y-99304318D01*
X169014047Y-99304318D02*
X168893095Y-99485746D01*
X168893095Y-99485746D02*
X168772143Y-99606699D01*
X168772143Y-99606699D02*
X168651190Y-99667175D01*
D11*
X139999999Y-64752438D02*
X139904761Y-64704819D01*
X139904761Y-64704819D02*
X139761904Y-64704819D01*
X139761904Y-64704819D02*
X139619047Y-64752438D01*
X139619047Y-64752438D02*
X139523809Y-64847676D01*
X139523809Y-64847676D02*
X139476190Y-64942914D01*
X139476190Y-64942914D02*
X139428571Y-65133390D01*
X139428571Y-65133390D02*
X139428571Y-65276247D01*
X139428571Y-65276247D02*
X139476190Y-65466723D01*
X139476190Y-65466723D02*
X139523809Y-65561961D01*
X139523809Y-65561961D02*
X139619047Y-65657200D01*
X139619047Y-65657200D02*
X139761904Y-65704819D01*
X139761904Y-65704819D02*
X139857142Y-65704819D01*
X139857142Y-65704819D02*
X139999999Y-65657200D01*
X139999999Y-65657200D02*
X140047618Y-65609580D01*
X140047618Y-65609580D02*
X140047618Y-65276247D01*
X140047618Y-65276247D02*
X139857142Y-65276247D01*
X140476190Y-65704819D02*
X140476190Y-64704819D01*
X140476190Y-64704819D02*
X141047618Y-65704819D01*
X141047618Y-65704819D02*
X141047618Y-64704819D01*
X141523809Y-65704819D02*
X141523809Y-64704819D01*
X141523809Y-64704819D02*
X141761904Y-64704819D01*
X141761904Y-64704819D02*
X141904761Y-64752438D01*
X141904761Y-64752438D02*
X141999999Y-64847676D01*
X141999999Y-64847676D02*
X142047618Y-64942914D01*
X142047618Y-64942914D02*
X142095237Y-65133390D01*
X142095237Y-65133390D02*
X142095237Y-65276247D01*
X142095237Y-65276247D02*
X142047618Y-65466723D01*
X142047618Y-65466723D02*
X141999999Y-65561961D01*
X141999999Y-65561961D02*
X141904761Y-65657200D01*
X141904761Y-65657200D02*
X141761904Y-65704819D01*
X141761904Y-65704819D02*
X141523809Y-65704819D01*
X142285714Y-65800057D02*
X143047618Y-65800057D01*
X143142857Y-64704819D02*
X143714285Y-64704819D01*
X143428571Y-65704819D02*
X143428571Y-64704819D01*
X144000000Y-64800057D02*
X144047619Y-64752438D01*
X144047619Y-64752438D02*
X144142857Y-64704819D01*
X144142857Y-64704819D02*
X144380952Y-64704819D01*
X144380952Y-64704819D02*
X144476190Y-64752438D01*
X144476190Y-64752438D02*
X144523809Y-64800057D01*
X144523809Y-64800057D02*
X144571428Y-64895295D01*
X144571428Y-64895295D02*
X144571428Y-64990533D01*
X144571428Y-64990533D02*
X144523809Y-65133390D01*
X144523809Y-65133390D02*
X143952381Y-65704819D01*
X143952381Y-65704819D02*
X144571428Y-65704819D01*
X96039048Y-79034819D02*
X96039048Y-78034819D01*
X96039048Y-78034819D02*
X96420000Y-78034819D01*
X96420000Y-78034819D02*
X96515238Y-78082438D01*
X96515238Y-78082438D02*
X96562857Y-78130057D01*
X96562857Y-78130057D02*
X96610476Y-78225295D01*
X96610476Y-78225295D02*
X96610476Y-78368152D01*
X96610476Y-78368152D02*
X96562857Y-78463390D01*
X96562857Y-78463390D02*
X96515238Y-78511009D01*
X96515238Y-78511009D02*
X96420000Y-78558628D01*
X96420000Y-78558628D02*
X96039048Y-78558628D01*
X96943810Y-78034819D02*
X97181905Y-79034819D01*
X97181905Y-79034819D02*
X97372381Y-78320533D01*
X97372381Y-78320533D02*
X97562857Y-79034819D01*
X97562857Y-79034819D02*
X97800953Y-78034819D01*
X98181905Y-79034819D02*
X98181905Y-78034819D01*
X98181905Y-78034819D02*
X98515238Y-78749104D01*
X98515238Y-78749104D02*
X98848571Y-78034819D01*
X98848571Y-78034819D02*
X98848571Y-79034819D01*
X99848571Y-79034819D02*
X99277143Y-79034819D01*
X99562857Y-79034819D02*
X99562857Y-78034819D01*
X99562857Y-78034819D02*
X99467619Y-78177676D01*
X99467619Y-78177676D02*
X99372381Y-78272914D01*
X99372381Y-78272914D02*
X99277143Y-78320533D01*
X158093333Y-111834819D02*
X157760000Y-111358628D01*
X157521905Y-111834819D02*
X157521905Y-110834819D01*
X157521905Y-110834819D02*
X157902857Y-110834819D01*
X157902857Y-110834819D02*
X157998095Y-110882438D01*
X157998095Y-110882438D02*
X158045714Y-110930057D01*
X158045714Y-110930057D02*
X158093333Y-111025295D01*
X158093333Y-111025295D02*
X158093333Y-111168152D01*
X158093333Y-111168152D02*
X158045714Y-111263390D01*
X158045714Y-111263390D02*
X157998095Y-111311009D01*
X157998095Y-111311009D02*
X157902857Y-111358628D01*
X157902857Y-111358628D02*
X157521905Y-111358628D01*
X159045714Y-111834819D02*
X158474286Y-111834819D01*
X158760000Y-111834819D02*
X158760000Y-110834819D01*
X158760000Y-110834819D02*
X158664762Y-110977676D01*
X158664762Y-110977676D02*
X158569524Y-111072914D01*
X158569524Y-111072914D02*
X158474286Y-111120533D01*
X120999999Y-64752438D02*
X120904761Y-64704819D01*
X120904761Y-64704819D02*
X120761904Y-64704819D01*
X120761904Y-64704819D02*
X120619047Y-64752438D01*
X120619047Y-64752438D02*
X120523809Y-64847676D01*
X120523809Y-64847676D02*
X120476190Y-64942914D01*
X120476190Y-64942914D02*
X120428571Y-65133390D01*
X120428571Y-65133390D02*
X120428571Y-65276247D01*
X120428571Y-65276247D02*
X120476190Y-65466723D01*
X120476190Y-65466723D02*
X120523809Y-65561961D01*
X120523809Y-65561961D02*
X120619047Y-65657200D01*
X120619047Y-65657200D02*
X120761904Y-65704819D01*
X120761904Y-65704819D02*
X120857142Y-65704819D01*
X120857142Y-65704819D02*
X120999999Y-65657200D01*
X120999999Y-65657200D02*
X121047618Y-65609580D01*
X121047618Y-65609580D02*
X121047618Y-65276247D01*
X121047618Y-65276247D02*
X120857142Y-65276247D01*
X121476190Y-65704819D02*
X121476190Y-64704819D01*
X121476190Y-64704819D02*
X122047618Y-65704819D01*
X122047618Y-65704819D02*
X122047618Y-64704819D01*
X122523809Y-65704819D02*
X122523809Y-64704819D01*
X122523809Y-64704819D02*
X122761904Y-64704819D01*
X122761904Y-64704819D02*
X122904761Y-64752438D01*
X122904761Y-64752438D02*
X122999999Y-64847676D01*
X122999999Y-64847676D02*
X123047618Y-64942914D01*
X123047618Y-64942914D02*
X123095237Y-65133390D01*
X123095237Y-65133390D02*
X123095237Y-65276247D01*
X123095237Y-65276247D02*
X123047618Y-65466723D01*
X123047618Y-65466723D02*
X122999999Y-65561961D01*
X122999999Y-65561961D02*
X122904761Y-65657200D01*
X122904761Y-65657200D02*
X122761904Y-65704819D01*
X122761904Y-65704819D02*
X122523809Y-65704819D01*
X123285714Y-65800057D02*
X124047618Y-65800057D01*
X124142857Y-64704819D02*
X124714285Y-64704819D01*
X124428571Y-65704819D02*
X124428571Y-64704819D01*
X125571428Y-65704819D02*
X125000000Y-65704819D01*
X125285714Y-65704819D02*
X125285714Y-64704819D01*
X125285714Y-64704819D02*
X125190476Y-64847676D01*
X125190476Y-64847676D02*
X125095238Y-64942914D01*
X125095238Y-64942914D02*
X125000000Y-64990533D01*
X143518333Y-126584819D02*
X143185000Y-126108628D01*
X142946905Y-126584819D02*
X142946905Y-125584819D01*
X142946905Y-125584819D02*
X143327857Y-125584819D01*
X143327857Y-125584819D02*
X143423095Y-125632438D01*
X143423095Y-125632438D02*
X143470714Y-125680057D01*
X143470714Y-125680057D02*
X143518333Y-125775295D01*
X143518333Y-125775295D02*
X143518333Y-125918152D01*
X143518333Y-125918152D02*
X143470714Y-126013390D01*
X143470714Y-126013390D02*
X143423095Y-126061009D01*
X143423095Y-126061009D02*
X143327857Y-126108628D01*
X143327857Y-126108628D02*
X142946905Y-126108628D01*
X143851667Y-125584819D02*
X144470714Y-125584819D01*
X144470714Y-125584819D02*
X144137381Y-125965771D01*
X144137381Y-125965771D02*
X144280238Y-125965771D01*
X144280238Y-125965771D02*
X144375476Y-126013390D01*
X144375476Y-126013390D02*
X144423095Y-126061009D01*
X144423095Y-126061009D02*
X144470714Y-126156247D01*
X144470714Y-126156247D02*
X144470714Y-126394342D01*
X144470714Y-126394342D02*
X144423095Y-126489580D01*
X144423095Y-126489580D02*
X144375476Y-126537200D01*
X144375476Y-126537200D02*
X144280238Y-126584819D01*
X144280238Y-126584819D02*
X143994524Y-126584819D01*
X143994524Y-126584819D02*
X143899286Y-126537200D01*
X143899286Y-126537200D02*
X143851667Y-126489580D01*
X180499999Y-64752438D02*
X180404761Y-64704819D01*
X180404761Y-64704819D02*
X180261904Y-64704819D01*
X180261904Y-64704819D02*
X180119047Y-64752438D01*
X180119047Y-64752438D02*
X180023809Y-64847676D01*
X180023809Y-64847676D02*
X179976190Y-64942914D01*
X179976190Y-64942914D02*
X179928571Y-65133390D01*
X179928571Y-65133390D02*
X179928571Y-65276247D01*
X179928571Y-65276247D02*
X179976190Y-65466723D01*
X179976190Y-65466723D02*
X180023809Y-65561961D01*
X180023809Y-65561961D02*
X180119047Y-65657200D01*
X180119047Y-65657200D02*
X180261904Y-65704819D01*
X180261904Y-65704819D02*
X180357142Y-65704819D01*
X180357142Y-65704819D02*
X180499999Y-65657200D01*
X180499999Y-65657200D02*
X180547618Y-65609580D01*
X180547618Y-65609580D02*
X180547618Y-65276247D01*
X180547618Y-65276247D02*
X180357142Y-65276247D01*
X180976190Y-65704819D02*
X180976190Y-64704819D01*
X180976190Y-64704819D02*
X181547618Y-65704819D01*
X181547618Y-65704819D02*
X181547618Y-64704819D01*
X182023809Y-65704819D02*
X182023809Y-64704819D01*
X182023809Y-64704819D02*
X182261904Y-64704819D01*
X182261904Y-64704819D02*
X182404761Y-64752438D01*
X182404761Y-64752438D02*
X182499999Y-64847676D01*
X182499999Y-64847676D02*
X182547618Y-64942914D01*
X182547618Y-64942914D02*
X182595237Y-65133390D01*
X182595237Y-65133390D02*
X182595237Y-65276247D01*
X182595237Y-65276247D02*
X182547618Y-65466723D01*
X182547618Y-65466723D02*
X182499999Y-65561961D01*
X182499999Y-65561961D02*
X182404761Y-65657200D01*
X182404761Y-65657200D02*
X182261904Y-65704819D01*
X182261904Y-65704819D02*
X182023809Y-65704819D01*
X182785714Y-65800057D02*
X183547618Y-65800057D01*
X183642857Y-64704819D02*
X184214285Y-64704819D01*
X183928571Y-65704819D02*
X183928571Y-64704819D01*
X184976190Y-65038152D02*
X184976190Y-65704819D01*
X184738095Y-64657200D02*
X184500000Y-65371485D01*
X184500000Y-65371485D02*
X185119047Y-65371485D01*
X172476190Y-65704819D02*
X172000000Y-65704819D01*
X172000000Y-65704819D02*
X172000000Y-64704819D01*
X173000000Y-64704819D02*
X173190476Y-64704819D01*
X173190476Y-64704819D02*
X173285714Y-64752438D01*
X173285714Y-64752438D02*
X173380952Y-64847676D01*
X173380952Y-64847676D02*
X173428571Y-65038152D01*
X173428571Y-65038152D02*
X173428571Y-65371485D01*
X173428571Y-65371485D02*
X173380952Y-65561961D01*
X173380952Y-65561961D02*
X173285714Y-65657200D01*
X173285714Y-65657200D02*
X173190476Y-65704819D01*
X173190476Y-65704819D02*
X173000000Y-65704819D01*
X173000000Y-65704819D02*
X172904762Y-65657200D01*
X172904762Y-65657200D02*
X172809524Y-65561961D01*
X172809524Y-65561961D02*
X172761905Y-65371485D01*
X172761905Y-65371485D02*
X172761905Y-65038152D01*
X172761905Y-65038152D02*
X172809524Y-64847676D01*
X172809524Y-64847676D02*
X172904762Y-64752438D01*
X172904762Y-64752438D02*
X173000000Y-64704819D01*
X173761905Y-64704819D02*
X174000000Y-65704819D01*
X174000000Y-65704819D02*
X174190476Y-64990533D01*
X174190476Y-64990533D02*
X174380952Y-65704819D01*
X174380952Y-65704819D02*
X174619048Y-64704819D01*
X175000000Y-65704819D02*
X175000000Y-64704819D01*
X175000000Y-64704819D02*
X175238095Y-64704819D01*
X175238095Y-64704819D02*
X175380952Y-64752438D01*
X175380952Y-64752438D02*
X175476190Y-64847676D01*
X175476190Y-64847676D02*
X175523809Y-64942914D01*
X175523809Y-64942914D02*
X175571428Y-65133390D01*
X175571428Y-65133390D02*
X175571428Y-65276247D01*
X175571428Y-65276247D02*
X175523809Y-65466723D01*
X175523809Y-65466723D02*
X175476190Y-65561961D01*
X175476190Y-65561961D02*
X175380952Y-65657200D01*
X175380952Y-65657200D02*
X175238095Y-65704819D01*
X175238095Y-65704819D02*
X175000000Y-65704819D01*
X176571428Y-65704819D02*
X176238095Y-65228628D01*
X176000000Y-65704819D02*
X176000000Y-64704819D01*
X176000000Y-64704819D02*
X176380952Y-64704819D01*
X176380952Y-64704819D02*
X176476190Y-64752438D01*
X176476190Y-64752438D02*
X176523809Y-64800057D01*
X176523809Y-64800057D02*
X176571428Y-64895295D01*
X176571428Y-64895295D02*
X176571428Y-65038152D01*
X176571428Y-65038152D02*
X176523809Y-65133390D01*
X176523809Y-65133390D02*
X176476190Y-65181009D01*
X176476190Y-65181009D02*
X176380952Y-65228628D01*
X176380952Y-65228628D02*
X176000000Y-65228628D01*
X176761905Y-65800057D02*
X177523809Y-65800057D01*
X177619048Y-64704819D02*
X178190476Y-64704819D01*
X177904762Y-65704819D02*
X177904762Y-64704819D01*
X178952381Y-65038152D02*
X178952381Y-65704819D01*
X178714286Y-64657200D02*
X178476191Y-65371485D01*
X178476191Y-65371485D02*
X179095238Y-65371485D01*
X149864761Y-95450057D02*
X149769523Y-95402438D01*
X149769523Y-95402438D02*
X149674285Y-95307200D01*
X149674285Y-95307200D02*
X149531428Y-95164342D01*
X149531428Y-95164342D02*
X149436190Y-95116723D01*
X149436190Y-95116723D02*
X149340952Y-95116723D01*
X149388571Y-95354819D02*
X149293333Y-95307200D01*
X149293333Y-95307200D02*
X149198095Y-95211961D01*
X149198095Y-95211961D02*
X149150476Y-95021485D01*
X149150476Y-95021485D02*
X149150476Y-94688152D01*
X149150476Y-94688152D02*
X149198095Y-94497676D01*
X149198095Y-94497676D02*
X149293333Y-94402438D01*
X149293333Y-94402438D02*
X149388571Y-94354819D01*
X149388571Y-94354819D02*
X149579047Y-94354819D01*
X149579047Y-94354819D02*
X149674285Y-94402438D01*
X149674285Y-94402438D02*
X149769523Y-94497676D01*
X149769523Y-94497676D02*
X149817142Y-94688152D01*
X149817142Y-94688152D02*
X149817142Y-95021485D01*
X149817142Y-95021485D02*
X149769523Y-95211961D01*
X149769523Y-95211961D02*
X149674285Y-95307200D01*
X149674285Y-95307200D02*
X149579047Y-95354819D01*
X149579047Y-95354819D02*
X149388571Y-95354819D01*
X150198095Y-94450057D02*
X150245714Y-94402438D01*
X150245714Y-94402438D02*
X150340952Y-94354819D01*
X150340952Y-94354819D02*
X150579047Y-94354819D01*
X150579047Y-94354819D02*
X150674285Y-94402438D01*
X150674285Y-94402438D02*
X150721904Y-94450057D01*
X150721904Y-94450057D02*
X150769523Y-94545295D01*
X150769523Y-94545295D02*
X150769523Y-94640533D01*
X150769523Y-94640533D02*
X150721904Y-94783390D01*
X150721904Y-94783390D02*
X150150476Y-95354819D01*
X150150476Y-95354819D02*
X150769523Y-95354819D01*
X132849819Y-106666666D02*
X132373628Y-106999999D01*
X132849819Y-107238094D02*
X131849819Y-107238094D01*
X131849819Y-107238094D02*
X131849819Y-106857142D01*
X131849819Y-106857142D02*
X131897438Y-106761904D01*
X131897438Y-106761904D02*
X131945057Y-106714285D01*
X131945057Y-106714285D02*
X132040295Y-106666666D01*
X132040295Y-106666666D02*
X132183152Y-106666666D01*
X132183152Y-106666666D02*
X132278390Y-106714285D01*
X132278390Y-106714285D02*
X132326009Y-106761904D01*
X132326009Y-106761904D02*
X132373628Y-106857142D01*
X132373628Y-106857142D02*
X132373628Y-107238094D01*
X131849819Y-105761904D02*
X131849819Y-106238094D01*
X131849819Y-106238094D02*
X132326009Y-106285713D01*
X132326009Y-106285713D02*
X132278390Y-106238094D01*
X132278390Y-106238094D02*
X132230771Y-106142856D01*
X132230771Y-106142856D02*
X132230771Y-105904761D01*
X132230771Y-105904761D02*
X132278390Y-105809523D01*
X132278390Y-105809523D02*
X132326009Y-105761904D01*
X132326009Y-105761904D02*
X132421247Y-105714285D01*
X132421247Y-105714285D02*
X132659342Y-105714285D01*
X132659342Y-105714285D02*
X132754580Y-105761904D01*
X132754580Y-105761904D02*
X132802200Y-105809523D01*
X132802200Y-105809523D02*
X132849819Y-105904761D01*
X132849819Y-105904761D02*
X132849819Y-106142856D01*
X132849819Y-106142856D02*
X132802200Y-106238094D01*
X132802200Y-106238094D02*
X132754580Y-106285713D01*
X126348333Y-99809580D02*
X126300714Y-99857200D01*
X126300714Y-99857200D02*
X126157857Y-99904819D01*
X126157857Y-99904819D02*
X126062619Y-99904819D01*
X126062619Y-99904819D02*
X125919762Y-99857200D01*
X125919762Y-99857200D02*
X125824524Y-99761961D01*
X125824524Y-99761961D02*
X125776905Y-99666723D01*
X125776905Y-99666723D02*
X125729286Y-99476247D01*
X125729286Y-99476247D02*
X125729286Y-99333390D01*
X125729286Y-99333390D02*
X125776905Y-99142914D01*
X125776905Y-99142914D02*
X125824524Y-99047676D01*
X125824524Y-99047676D02*
X125919762Y-98952438D01*
X125919762Y-98952438D02*
X126062619Y-98904819D01*
X126062619Y-98904819D02*
X126157857Y-98904819D01*
X126157857Y-98904819D02*
X126300714Y-98952438D01*
X126300714Y-98952438D02*
X126348333Y-99000057D01*
X126681667Y-98904819D02*
X127300714Y-98904819D01*
X127300714Y-98904819D02*
X126967381Y-99285771D01*
X126967381Y-99285771D02*
X127110238Y-99285771D01*
X127110238Y-99285771D02*
X127205476Y-99333390D01*
X127205476Y-99333390D02*
X127253095Y-99381009D01*
X127253095Y-99381009D02*
X127300714Y-99476247D01*
X127300714Y-99476247D02*
X127300714Y-99714342D01*
X127300714Y-99714342D02*
X127253095Y-99809580D01*
X127253095Y-99809580D02*
X127205476Y-99857200D01*
X127205476Y-99857200D02*
X127110238Y-99904819D01*
X127110238Y-99904819D02*
X126824524Y-99904819D01*
X126824524Y-99904819D02*
X126729286Y-99857200D01*
X126729286Y-99857200D02*
X126681667Y-99809580D01*
X209738095Y-84204819D02*
X210071428Y-85204819D01*
X210071428Y-85204819D02*
X210404761Y-84204819D01*
X210880952Y-85204819D02*
X210785714Y-85157200D01*
X210785714Y-85157200D02*
X210738095Y-85109580D01*
X210738095Y-85109580D02*
X210690476Y-85014342D01*
X210690476Y-85014342D02*
X210690476Y-84728628D01*
X210690476Y-84728628D02*
X210738095Y-84633390D01*
X210738095Y-84633390D02*
X210785714Y-84585771D01*
X210785714Y-84585771D02*
X210880952Y-84538152D01*
X210880952Y-84538152D02*
X211023809Y-84538152D01*
X211023809Y-84538152D02*
X211119047Y-84585771D01*
X211119047Y-84585771D02*
X211166666Y-84633390D01*
X211166666Y-84633390D02*
X211214285Y-84728628D01*
X211214285Y-84728628D02*
X211214285Y-85014342D01*
X211214285Y-85014342D02*
X211166666Y-85109580D01*
X211166666Y-85109580D02*
X211119047Y-85157200D01*
X211119047Y-85157200D02*
X211023809Y-85204819D01*
X211023809Y-85204819D02*
X210880952Y-85204819D01*
X212071428Y-84538152D02*
X212071428Y-85204819D01*
X211642857Y-84538152D02*
X211642857Y-85061961D01*
X211642857Y-85061961D02*
X211690476Y-85157200D01*
X211690476Y-85157200D02*
X211785714Y-85204819D01*
X211785714Y-85204819D02*
X211928571Y-85204819D01*
X211928571Y-85204819D02*
X212023809Y-85157200D01*
X212023809Y-85157200D02*
X212071428Y-85109580D01*
X212404762Y-84538152D02*
X212785714Y-84538152D01*
X212547619Y-84204819D02*
X212547619Y-85061961D01*
X212547619Y-85061961D02*
X212595238Y-85157200D01*
X212595238Y-85157200D02*
X212690476Y-85204819D01*
X212690476Y-85204819D02*
X212785714Y-85204819D01*
X212880953Y-85300057D02*
X213642857Y-85300057D01*
X213738096Y-84204819D02*
X214309524Y-84204819D01*
X214023810Y-85204819D02*
X214023810Y-84204819D01*
X215071429Y-84204819D02*
X214880953Y-84204819D01*
X214880953Y-84204819D02*
X214785715Y-84252438D01*
X214785715Y-84252438D02*
X214738096Y-84300057D01*
X214738096Y-84300057D02*
X214642858Y-84442914D01*
X214642858Y-84442914D02*
X214595239Y-84633390D01*
X214595239Y-84633390D02*
X214595239Y-85014342D01*
X214595239Y-85014342D02*
X214642858Y-85109580D01*
X214642858Y-85109580D02*
X214690477Y-85157200D01*
X214690477Y-85157200D02*
X214785715Y-85204819D01*
X214785715Y-85204819D02*
X214976191Y-85204819D01*
X214976191Y-85204819D02*
X215071429Y-85157200D01*
X215071429Y-85157200D02*
X215119048Y-85109580D01*
X215119048Y-85109580D02*
X215166667Y-85014342D01*
X215166667Y-85014342D02*
X215166667Y-84776247D01*
X215166667Y-84776247D02*
X215119048Y-84681009D01*
X215119048Y-84681009D02*
X215071429Y-84633390D01*
X215071429Y-84633390D02*
X214976191Y-84585771D01*
X214976191Y-84585771D02*
X214785715Y-84585771D01*
X214785715Y-84585771D02*
X214690477Y-84633390D01*
X214690477Y-84633390D02*
X214642858Y-84681009D01*
X214642858Y-84681009D02*
X214595239Y-84776247D01*
X152857143Y-65704819D02*
X152857143Y-64704819D01*
X152857143Y-64704819D02*
X153238095Y-64704819D01*
X153238095Y-64704819D02*
X153333333Y-64752438D01*
X153333333Y-64752438D02*
X153380952Y-64800057D01*
X153380952Y-64800057D02*
X153428571Y-64895295D01*
X153428571Y-64895295D02*
X153428571Y-65038152D01*
X153428571Y-65038152D02*
X153380952Y-65133390D01*
X153380952Y-65133390D02*
X153333333Y-65181009D01*
X153333333Y-65181009D02*
X153238095Y-65228628D01*
X153238095Y-65228628D02*
X152857143Y-65228628D01*
X153761905Y-64704819D02*
X154000000Y-65704819D01*
X154000000Y-65704819D02*
X154190476Y-64990533D01*
X154190476Y-64990533D02*
X154380952Y-65704819D01*
X154380952Y-65704819D02*
X154619048Y-64704819D01*
X155000000Y-65704819D02*
X155000000Y-64704819D01*
X155000000Y-64704819D02*
X155333333Y-65419104D01*
X155333333Y-65419104D02*
X155666666Y-64704819D01*
X155666666Y-64704819D02*
X155666666Y-65704819D01*
X155904762Y-65800057D02*
X156666666Y-65800057D01*
X156761905Y-64704819D02*
X157333333Y-64704819D01*
X157047619Y-65704819D02*
X157047619Y-64704819D01*
X157571429Y-64704819D02*
X158190476Y-64704819D01*
X158190476Y-64704819D02*
X157857143Y-65085771D01*
X157857143Y-65085771D02*
X158000000Y-65085771D01*
X158000000Y-65085771D02*
X158095238Y-65133390D01*
X158095238Y-65133390D02*
X158142857Y-65181009D01*
X158142857Y-65181009D02*
X158190476Y-65276247D01*
X158190476Y-65276247D02*
X158190476Y-65514342D01*
X158190476Y-65514342D02*
X158142857Y-65609580D01*
X158142857Y-65609580D02*
X158095238Y-65657200D01*
X158095238Y-65657200D02*
X158000000Y-65704819D01*
X158000000Y-65704819D02*
X157714286Y-65704819D01*
X157714286Y-65704819D02*
X157619048Y-65657200D01*
X157619048Y-65657200D02*
X157571429Y-65609580D01*
X133713810Y-91419819D02*
X133713810Y-90419819D01*
X134761428Y-91324580D02*
X134713809Y-91372200D01*
X134713809Y-91372200D02*
X134570952Y-91419819D01*
X134570952Y-91419819D02*
X134475714Y-91419819D01*
X134475714Y-91419819D02*
X134332857Y-91372200D01*
X134332857Y-91372200D02*
X134237619Y-91276961D01*
X134237619Y-91276961D02*
X134190000Y-91181723D01*
X134190000Y-91181723D02*
X134142381Y-90991247D01*
X134142381Y-90991247D02*
X134142381Y-90848390D01*
X134142381Y-90848390D02*
X134190000Y-90657914D01*
X134190000Y-90657914D02*
X134237619Y-90562676D01*
X134237619Y-90562676D02*
X134332857Y-90467438D01*
X134332857Y-90467438D02*
X134475714Y-90419819D01*
X134475714Y-90419819D02*
X134570952Y-90419819D01*
X134570952Y-90419819D02*
X134713809Y-90467438D01*
X134713809Y-90467438D02*
X134761428Y-90515057D01*
X135142381Y-90515057D02*
X135190000Y-90467438D01*
X135190000Y-90467438D02*
X135285238Y-90419819D01*
X135285238Y-90419819D02*
X135523333Y-90419819D01*
X135523333Y-90419819D02*
X135618571Y-90467438D01*
X135618571Y-90467438D02*
X135666190Y-90515057D01*
X135666190Y-90515057D02*
X135713809Y-90610295D01*
X135713809Y-90610295D02*
X135713809Y-90705533D01*
X135713809Y-90705533D02*
X135666190Y-90848390D01*
X135666190Y-90848390D02*
X135094762Y-91419819D01*
X135094762Y-91419819D02*
X135713809Y-91419819D01*
X143598333Y-133584819D02*
X143265000Y-133108628D01*
X143026905Y-133584819D02*
X143026905Y-132584819D01*
X143026905Y-132584819D02*
X143407857Y-132584819D01*
X143407857Y-132584819D02*
X143503095Y-132632438D01*
X143503095Y-132632438D02*
X143550714Y-132680057D01*
X143550714Y-132680057D02*
X143598333Y-132775295D01*
X143598333Y-132775295D02*
X143598333Y-132918152D01*
X143598333Y-132918152D02*
X143550714Y-133013390D01*
X143550714Y-133013390D02*
X143503095Y-133061009D01*
X143503095Y-133061009D02*
X143407857Y-133108628D01*
X143407857Y-133108628D02*
X143026905Y-133108628D01*
X143979286Y-132680057D02*
X144026905Y-132632438D01*
X144026905Y-132632438D02*
X144122143Y-132584819D01*
X144122143Y-132584819D02*
X144360238Y-132584819D01*
X144360238Y-132584819D02*
X144455476Y-132632438D01*
X144455476Y-132632438D02*
X144503095Y-132680057D01*
X144503095Y-132680057D02*
X144550714Y-132775295D01*
X144550714Y-132775295D02*
X144550714Y-132870533D01*
X144550714Y-132870533D02*
X144503095Y-133013390D01*
X144503095Y-133013390D02*
X143931667Y-133584819D01*
X143931667Y-133584819D02*
X144550714Y-133584819D01*
X161309580Y-83916666D02*
X161357200Y-83964285D01*
X161357200Y-83964285D02*
X161404819Y-84107142D01*
X161404819Y-84107142D02*
X161404819Y-84202380D01*
X161404819Y-84202380D02*
X161357200Y-84345237D01*
X161357200Y-84345237D02*
X161261961Y-84440475D01*
X161261961Y-84440475D02*
X161166723Y-84488094D01*
X161166723Y-84488094D02*
X160976247Y-84535713D01*
X160976247Y-84535713D02*
X160833390Y-84535713D01*
X160833390Y-84535713D02*
X160642914Y-84488094D01*
X160642914Y-84488094D02*
X160547676Y-84440475D01*
X160547676Y-84440475D02*
X160452438Y-84345237D01*
X160452438Y-84345237D02*
X160404819Y-84202380D01*
X160404819Y-84202380D02*
X160404819Y-84107142D01*
X160404819Y-84107142D02*
X160452438Y-83964285D01*
X160452438Y-83964285D02*
X160500057Y-83916666D01*
X160404819Y-83059523D02*
X160404819Y-83249999D01*
X160404819Y-83249999D02*
X160452438Y-83345237D01*
X160452438Y-83345237D02*
X160500057Y-83392856D01*
X160500057Y-83392856D02*
X160642914Y-83488094D01*
X160642914Y-83488094D02*
X160833390Y-83535713D01*
X160833390Y-83535713D02*
X161214342Y-83535713D01*
X161214342Y-83535713D02*
X161309580Y-83488094D01*
X161309580Y-83488094D02*
X161357200Y-83440475D01*
X161357200Y-83440475D02*
X161404819Y-83345237D01*
X161404819Y-83345237D02*
X161404819Y-83154761D01*
X161404819Y-83154761D02*
X161357200Y-83059523D01*
X161357200Y-83059523D02*
X161309580Y-83011904D01*
X161309580Y-83011904D02*
X161214342Y-82964285D01*
X161214342Y-82964285D02*
X160976247Y-82964285D01*
X160976247Y-82964285D02*
X160881009Y-83011904D01*
X160881009Y-83011904D02*
X160833390Y-83059523D01*
X160833390Y-83059523D02*
X160785771Y-83154761D01*
X160785771Y-83154761D02*
X160785771Y-83345237D01*
X160785771Y-83345237D02*
X160833390Y-83440475D01*
X160833390Y-83440475D02*
X160881009Y-83488094D01*
X160881009Y-83488094D02*
X160976247Y-83535713D01*
D13*
%TO.C,G\u002A\u002A\u002A*%
G36*
X178913584Y-129288338D02*
G01*
X178954675Y-129441958D01*
X178938617Y-129523186D01*
X178842896Y-129613499D01*
X178709865Y-129599567D01*
X178626977Y-129506992D01*
X178623428Y-129336875D01*
X178730632Y-129232731D01*
X178793001Y-129222713D01*
X178913584Y-129288338D01*
G37*
G36*
X205198476Y-128060916D02*
G01*
X205241746Y-128145840D01*
X205192502Y-128228269D01*
X205055735Y-128326624D01*
X204932012Y-128322998D01*
X204877918Y-128219127D01*
X204877917Y-128218621D01*
X204943003Y-128087445D01*
X205087478Y-128032235D01*
X205198476Y-128060916D01*
G37*
G36*
X208053797Y-129090191D02*
G01*
X208067585Y-129180680D01*
X207986813Y-129286814D01*
X207842945Y-129374455D01*
X207728964Y-129359209D01*
X207696227Y-129248893D01*
X207697309Y-129242744D01*
X207788752Y-129121633D01*
X207903499Y-129076919D01*
X208053797Y-129090191D01*
G37*
G36*
X182295788Y-128904539D02*
G01*
X182348001Y-129043248D01*
X182332540Y-129183932D01*
X182208517Y-129222712D01*
X182207780Y-129222713D01*
X182079865Y-129179913D01*
X182042018Y-129026823D01*
X182041955Y-129016522D01*
X182087858Y-128868373D01*
X182190167Y-128832591D01*
X182295788Y-128904539D01*
G37*
G36*
X205938210Y-129770198D02*
G01*
X206089287Y-129845623D01*
X206216024Y-129863722D01*
X206358760Y-129893308D01*
X206400315Y-129943849D01*
X206344849Y-130021701D01*
X206327690Y-130023975D01*
X206286474Y-130087785D01*
X206296972Y-130184227D01*
X206294163Y-130316608D01*
X206210093Y-130331927D01*
X206079810Y-130224290D01*
X205923659Y-130127550D01*
X205794286Y-130104101D01*
X205628531Y-130073062D01*
X205558990Y-130023975D01*
X205575497Y-129954043D01*
X205625815Y-129943849D01*
X205750697Y-129878616D01*
X205793422Y-129810261D01*
X205858865Y-129724285D01*
X205938210Y-129770198D01*
G37*
G36*
X180879716Y-130128765D02*
G01*
X180842903Y-130229126D01*
X180822709Y-130262366D01*
X180769140Y-130399447D01*
X180838048Y-130510957D01*
X180882124Y-130548556D01*
X180978574Y-130633958D01*
X180954128Y-130657213D01*
X180790587Y-130634678D01*
X180786956Y-130634071D01*
X180541202Y-130640297D01*
X180436609Y-130708448D01*
X180312075Y-130809971D01*
X180219524Y-130808590D01*
X180199053Y-130749839D01*
X180257560Y-130642124D01*
X180284399Y-130621695D01*
X180306726Y-130528298D01*
X180224304Y-130404995D01*
X180130305Y-130289344D01*
X180159968Y-130260186D01*
X180298702Y-130281552D01*
X180508398Y-130274359D01*
X180608986Y-130213082D01*
X180745694Y-130117682D01*
X180810489Y-130104101D01*
X180879716Y-130128765D01*
G37*
G36*
X188126018Y-124556000D02*
G01*
X188316212Y-124781431D01*
X188499955Y-125000142D01*
X188511507Y-125013940D01*
X188648252Y-125147516D01*
X188802686Y-125204766D01*
X189041537Y-125208658D01*
X189072390Y-125207011D01*
X189288149Y-125201821D01*
X189404856Y-125235622D01*
X189432647Y-125336856D01*
X189381654Y-125533968D01*
X189283447Y-125799418D01*
X189201649Y-126031256D01*
X189177365Y-126198793D01*
X189210451Y-126377522D01*
X189281945Y-126590042D01*
X189365576Y-126887058D01*
X189356453Y-127056549D01*
X189250963Y-127104161D01*
X189045497Y-127035537D01*
X189008770Y-127017090D01*
X188745816Y-126881111D01*
X188391679Y-127250650D01*
X188197355Y-127442177D01*
X188041252Y-127575735D01*
X187963593Y-127620189D01*
X187877615Y-127560032D01*
X187743393Y-127407366D01*
X187670058Y-127308784D01*
X187527262Y-127127294D01*
X187385784Y-127025370D01*
X187184990Y-126970521D01*
X186989747Y-126944237D01*
X186716383Y-126900597D01*
X186569718Y-126828005D01*
X186536221Y-126695885D01*
X186546656Y-126660819D01*
X186769400Y-126660819D01*
X186840649Y-126708961D01*
X187019327Y-126736382D01*
X187101226Y-126738801D01*
X187339377Y-126761973D01*
X187519836Y-126855695D01*
X187682141Y-127014843D01*
X187846956Y-127180658D01*
X187976416Y-127281553D01*
X188011356Y-127295283D01*
X188105235Y-127240317D01*
X188250055Y-127096271D01*
X188321352Y-127011586D01*
X188484573Y-126831044D01*
X188627083Y-126755718D01*
X188811512Y-126753946D01*
X188827441Y-126755739D01*
X189009320Y-126766644D01*
X189071715Y-126725368D01*
X189056367Y-126623173D01*
X188976664Y-126301082D01*
X188959071Y-126072622D01*
X189002865Y-125884004D01*
X189045200Y-125792363D01*
X189147615Y-125563376D01*
X189145763Y-125437307D01*
X189026144Y-125385007D01*
X188852681Y-125376656D01*
X188628045Y-125354860D01*
X188445874Y-125270871D01*
X188264360Y-125096788D01*
X188084192Y-124863810D01*
X187916649Y-124632803D01*
X187694082Y-124924603D01*
X187526966Y-125113201D01*
X187365781Y-125197867D01*
X187160521Y-125216404D01*
X186963259Y-125224933D01*
X186856017Y-125246163D01*
X186849526Y-125253748D01*
X186880829Y-125343191D01*
X186958644Y-125519196D01*
X186985113Y-125575423D01*
X187061380Y-125754108D01*
X187075458Y-125891250D01*
X187023119Y-126055024D01*
X186945050Y-126221294D01*
X186843261Y-126445333D01*
X186779862Y-126612836D01*
X186769400Y-126660819D01*
X186546656Y-126660819D01*
X186602355Y-126473656D01*
X186691033Y-126269326D01*
X186801745Y-126005126D01*
X186836588Y-125821718D01*
X186792401Y-125657085D01*
X186666025Y-125449211D01*
X186647887Y-125422391D01*
X186536741Y-125225924D01*
X186491645Y-125077026D01*
X186498045Y-125041448D01*
X186605923Y-124997103D01*
X186823658Y-124987358D01*
X186940050Y-124995131D01*
X187164899Y-125009767D01*
X187313680Y-124981473D01*
X187443783Y-124883238D01*
X187612601Y-124688053D01*
X187625216Y-124672666D01*
X187920175Y-124312707D01*
X188126018Y-124556000D01*
G37*
G36*
X183992546Y-123725890D02*
G01*
X184214339Y-123873237D01*
X184288753Y-123937300D01*
X184574559Y-124149321D01*
X184836491Y-124232381D01*
X185125003Y-124199493D01*
X185208053Y-124174396D01*
X185404509Y-124122452D01*
X185527215Y-124113910D01*
X185539126Y-124119674D01*
X185539005Y-124211870D01*
X185496575Y-124408577D01*
X185439404Y-124607131D01*
X185360036Y-124936449D01*
X185375529Y-125188169D01*
X185499149Y-125422617D01*
X185660449Y-125612332D01*
X185785300Y-125780798D01*
X185772725Y-125883209D01*
X185615592Y-125930729D01*
X185452717Y-125937539D01*
X185221736Y-125951053D01*
X185100365Y-126006023D01*
X185041123Y-126117823D01*
X184939370Y-126319425D01*
X184770364Y-126554387D01*
X184585459Y-126756850D01*
X184475590Y-126843089D01*
X184367593Y-126836588D01*
X184238719Y-126689946D01*
X184198611Y-126625164D01*
X184088403Y-126455397D01*
X183983436Y-126380860D01*
X183822048Y-126375493D01*
X183658025Y-126396703D01*
X183303107Y-126444085D01*
X183077525Y-126456553D01*
X182952357Y-126424383D01*
X182898678Y-126337851D01*
X182887564Y-126187234D01*
X182888056Y-126137855D01*
X182906371Y-125873003D01*
X182945064Y-125641919D01*
X182952068Y-125616003D01*
X182966275Y-125467420D01*
X182901547Y-125309641D01*
X182737889Y-125095272D01*
X182726945Y-125082445D01*
X182528314Y-124833638D01*
X182519611Y-124815773D01*
X182838432Y-124815773D01*
X183019297Y-125130033D01*
X183129763Y-125349388D01*
X183158687Y-125527057D01*
X183118001Y-125751519D01*
X183108164Y-125788965D01*
X183060915Y-126012535D01*
X183050134Y-126170138D01*
X183058013Y-126201347D01*
X183153512Y-126228989D01*
X183360119Y-126233092D01*
X183592516Y-126216535D01*
X183870772Y-126192764D01*
X184043561Y-126203746D01*
X184164035Y-126261392D01*
X184278484Y-126370280D01*
X184432200Y-126494108D01*
X184564942Y-126494990D01*
X184695214Y-126362401D01*
X184841522Y-126085812D01*
X184863143Y-126037697D01*
X184981995Y-125815984D01*
X185102109Y-125715043D01*
X185210689Y-125697161D01*
X185359823Y-125683284D01*
X185393137Y-125622411D01*
X185313531Y-125485677D01*
X185241439Y-125391448D01*
X185125896Y-125131090D01*
X185139405Y-124798772D01*
X185224562Y-124518299D01*
X185232306Y-124440253D01*
X185147688Y-124422530D01*
X184977457Y-124447874D01*
X184730587Y-124463200D01*
X184518022Y-124383450D01*
X184423680Y-124321890D01*
X184251741Y-124190818D01*
X184147977Y-124092264D01*
X184138590Y-124077500D01*
X184057496Y-124010111D01*
X183943800Y-124084336D01*
X183811069Y-124288330D01*
X183749743Y-124417030D01*
X183642767Y-124646247D01*
X183549403Y-124764772D01*
X183419915Y-124809112D01*
X183206499Y-124815773D01*
X182838432Y-124815773D01*
X182519611Y-124815773D01*
X182452741Y-124678501D01*
X182507173Y-124600258D01*
X182698557Y-124582132D01*
X182927876Y-124597142D01*
X183413167Y-124641146D01*
X183563454Y-124307797D01*
X183665310Y-124072264D01*
X183741281Y-123879649D01*
X183756722Y-123834227D01*
X183842877Y-123713443D01*
X183992546Y-123725890D01*
G37*
G36*
X186002615Y-127652895D02*
G01*
X186140682Y-127799906D01*
X186239069Y-127940694D01*
X186451169Y-128261199D01*
X187010915Y-128261199D01*
X187287077Y-128266216D01*
X187487051Y-128279418D01*
X187570259Y-128298029D01*
X187570662Y-128299487D01*
X187538087Y-128386125D01*
X187453442Y-128572589D01*
X187356157Y-128775141D01*
X187141653Y-129212507D01*
X187356387Y-129718399D01*
X187494852Y-130066259D01*
X187558505Y-130287131D01*
X187549351Y-130394669D01*
X187469396Y-130402526D01*
X187456162Y-130397813D01*
X187301898Y-130353543D01*
X187080648Y-130304964D01*
X187060702Y-130301167D01*
X186904906Y-130279705D01*
X186796924Y-130306299D01*
X186698712Y-130409151D01*
X186572226Y-130616460D01*
X186526544Y-130697097D01*
X186385498Y-130935775D01*
X186268574Y-131113638D01*
X186206592Y-131186994D01*
X186136957Y-131144816D01*
X186023341Y-130993567D01*
X185912855Y-130806397D01*
X185685873Y-130384543D01*
X185173098Y-130384543D01*
X184852381Y-130371415D01*
X184676478Y-130317862D01*
X184631101Y-130202625D01*
X184701962Y-130004448D01*
X184799292Y-129828404D01*
X184919191Y-129602594D01*
X184994062Y-129420756D01*
X185006624Y-129360188D01*
X184960632Y-129237356D01*
X184841963Y-129040377D01*
X184726182Y-128878474D01*
X184574282Y-128670676D01*
X184555152Y-128641319D01*
X184846189Y-128641319D01*
X185060138Y-129024115D01*
X185274087Y-129406911D01*
X185100070Y-129735475D01*
X184996157Y-129944289D01*
X184934059Y-130093443D01*
X184926275Y-130126892D01*
X184997478Y-130153568D01*
X185179001Y-130152228D01*
X185315610Y-130138129D01*
X185550649Y-130113899D01*
X185694967Y-130140383D01*
X185812973Y-130246204D01*
X185936588Y-130414100D01*
X186100090Y-130631556D01*
X186205334Y-130726390D01*
X186276736Y-130713264D01*
X186321016Y-130644953D01*
X186483178Y-130346175D01*
X186624984Y-130171347D01*
X186778131Y-130092859D01*
X186966624Y-130082601D01*
X187158782Y-130084265D01*
X187226546Y-130045106D01*
X187209873Y-129962412D01*
X187069784Y-129613229D01*
X186985265Y-129375642D01*
X186951932Y-129212634D01*
X186965400Y-129087189D01*
X187021284Y-128962287D01*
X187079492Y-128861799D01*
X187178322Y-128670630D01*
X187219077Y-128541957D01*
X187214237Y-128519074D01*
X187116116Y-128490952D01*
X186912421Y-128465982D01*
X186767235Y-128455973D01*
X186493669Y-128424129D01*
X186317912Y-128347267D01*
X186199649Y-128228062D01*
X186073070Y-128086063D01*
X185986025Y-128021379D01*
X185982354Y-128020995D01*
X185911057Y-128082043D01*
X185785843Y-128238758D01*
X185687696Y-128378065D01*
X185540102Y-128584215D01*
X185425949Y-128683633D01*
X185294040Y-128705665D01*
X185146753Y-128688140D01*
X184846189Y-128641319D01*
X184555152Y-128641319D01*
X184472442Y-128514388D01*
X184445741Y-128455971D01*
X184517790Y-128434226D01*
X184704516Y-128434435D01*
X184906466Y-128450711D01*
X185367192Y-128500669D01*
X185574318Y-128200650D01*
X185713022Y-127985437D01*
X185813188Y-127804473D01*
X185832214Y-127760410D01*
X185904953Y-127642017D01*
X186002615Y-127652895D01*
G37*
G36*
X195838129Y-120969076D02*
G01*
X195935992Y-121163758D01*
X195982925Y-121266590D01*
X196134452Y-121609142D01*
X196578985Y-121560669D01*
X196880644Y-121548635D01*
X197048503Y-121608369D01*
X197100107Y-121761144D01*
X197053000Y-122028233D01*
X197030153Y-122107720D01*
X196978955Y-122305113D01*
X196987705Y-122439533D01*
X197075510Y-122573354D01*
X197219588Y-122726062D01*
X197383803Y-122909470D01*
X197487546Y-123054633D01*
X197506308Y-123103645D01*
X197436750Y-123175031D01*
X197261310Y-123257092D01*
X197165772Y-123288895D01*
X196839382Y-123391839D01*
X196627529Y-123485542D01*
X196489815Y-123601693D01*
X196385838Y-123771984D01*
X196299993Y-123968027D01*
X196192358Y-124204324D01*
X196099998Y-124366377D01*
X196050921Y-124415142D01*
X195978606Y-124350389D01*
X195873275Y-124187919D01*
X195832635Y-124112232D01*
X195678102Y-123809322D01*
X195140727Y-123854415D01*
X194812219Y-123868891D01*
X194618263Y-123847264D01*
X194570719Y-123814465D01*
X194577730Y-123698034D01*
X194629249Y-123483021D01*
X194695189Y-123272794D01*
X194852293Y-122816165D01*
X194561208Y-122576228D01*
X194397864Y-122429833D01*
X194329606Y-122350299D01*
X194603224Y-122350299D01*
X194821466Y-122552664D01*
X194947064Y-122696994D01*
X195000829Y-122856790D01*
X194986387Y-123074910D01*
X194907364Y-123394216D01*
X194895981Y-123433596D01*
X194876797Y-123532471D01*
X194914596Y-123586436D01*
X195042408Y-123609046D01*
X195293260Y-123613855D01*
X195335274Y-123613880D01*
X195611781Y-123620183D01*
X195773011Y-123649337D01*
X195863768Y-123716713D01*
X195918217Y-123813872D01*
X195990235Y-123948463D01*
X196049243Y-123947457D01*
X196111898Y-123867441D01*
X196212929Y-123672024D01*
X196265968Y-123515781D01*
X196336686Y-123373256D01*
X196490030Y-123275065D01*
X196691547Y-123210021D01*
X196984952Y-123119536D01*
X197131475Y-123033173D01*
X197142481Y-122929773D01*
X197029332Y-122788174D01*
X196955185Y-122719086D01*
X196791013Y-122560123D01*
X196727773Y-122437611D01*
X196743495Y-122285162D01*
X196774901Y-122174296D01*
X196832769Y-121969300D01*
X196863692Y-121836674D01*
X196865299Y-121821776D01*
X196792837Y-121793895D01*
X196606002Y-121775444D01*
X196426663Y-121770978D01*
X196168413Y-121763393D01*
X196018205Y-121725828D01*
X195924018Y-121636071D01*
X195863722Y-121530599D01*
X195741564Y-121342129D01*
X195642145Y-121310631D01*
X195552308Y-121436898D01*
X195509334Y-121551937D01*
X195359295Y-121798443D01*
X195065410Y-122046915D01*
X195013092Y-122081976D01*
X194603224Y-122350299D01*
X194329606Y-122350299D01*
X194310204Y-122327692D01*
X194305723Y-122303706D01*
X194386658Y-122247286D01*
X194564681Y-122130645D01*
X194801301Y-121979000D01*
X194802050Y-121978525D01*
X195033636Y-121820822D01*
X195199070Y-121687887D01*
X195262772Y-121608332D01*
X195262775Y-121608027D01*
X195302029Y-121486029D01*
X195399848Y-121307272D01*
X195526320Y-121115366D01*
X195651529Y-120953920D01*
X195745563Y-120866542D01*
X195772417Y-120865057D01*
X195838129Y-120969076D01*
G37*
G36*
X202427173Y-121750728D02*
G01*
X202459622Y-121856054D01*
X202474083Y-122047107D01*
X202474132Y-122059051D01*
X202521523Y-122321240D01*
X202677343Y-122491596D01*
X202962065Y-122590273D01*
X203025040Y-122601414D01*
X203240857Y-122653513D01*
X203381690Y-122719818D01*
X203399161Y-122738281D01*
X203395054Y-122852959D01*
X203326159Y-123051148D01*
X203263538Y-123182012D01*
X203075078Y-123540252D01*
X203297657Y-123941674D01*
X203410089Y-124173823D01*
X203468746Y-124355505D01*
X203467176Y-124428948D01*
X203351514Y-124475611D01*
X203105934Y-124476338D01*
X202993514Y-124465368D01*
X202572913Y-124415935D01*
X202277779Y-124776106D01*
X202100432Y-124971471D01*
X201948637Y-125102272D01*
X201875424Y-125136278D01*
X201787942Y-125066912D01*
X201693683Y-124892239D01*
X201660442Y-124801481D01*
X201586623Y-124609043D01*
X201489538Y-124487204D01*
X201323134Y-124396476D01*
X201091955Y-124314046D01*
X200848527Y-124218721D01*
X200681546Y-124125260D01*
X200631230Y-124064839D01*
X200665466Y-123936102D01*
X200750559Y-123736051D01*
X200779303Y-123677831D01*
X200854796Y-123515387D01*
X200886235Y-123376158D01*
X200874444Y-123206840D01*
X200820248Y-122954131D01*
X200792272Y-122839596D01*
X200749083Y-122631387D01*
X200952228Y-122631387D01*
X200990802Y-122864874D01*
X201075260Y-123087667D01*
X201147799Y-123257871D01*
X201149517Y-123407746D01*
X201080130Y-123616662D01*
X201073302Y-123633800D01*
X201005528Y-123843814D01*
X200986720Y-123992433D01*
X200993716Y-124017615D01*
X201093487Y-124082406D01*
X201288135Y-124155920D01*
X201361809Y-124177306D01*
X201597870Y-124269890D01*
X201741304Y-124422042D01*
X201808473Y-124559863D01*
X201931955Y-124855396D01*
X202191503Y-124555143D01*
X202371048Y-124369463D01*
X202533193Y-124281204D01*
X202751108Y-124255583D01*
X202823160Y-124254890D01*
X203042244Y-124247572D01*
X203175966Y-124228998D01*
X203195267Y-124216970D01*
X203163210Y-124128894D01*
X203081643Y-123947336D01*
X203025224Y-123829050D01*
X202926382Y-123611424D01*
X202897120Y-123465041D01*
X202934423Y-123318281D01*
X202997835Y-123178427D01*
X203076987Y-122940174D01*
X203032997Y-122798268D01*
X202858368Y-122738124D01*
X202769337Y-122733719D01*
X202520642Y-122675648D01*
X202356684Y-122527633D01*
X202313879Y-122373834D01*
X202287861Y-122198530D01*
X202197505Y-122145454D01*
X202024362Y-122211661D01*
X201877812Y-122304182D01*
X201642764Y-122437440D01*
X201433282Y-122476261D01*
X201263480Y-122459944D01*
X201063072Y-122435746D01*
X200974612Y-122466683D01*
X200952645Y-122577791D01*
X200952228Y-122631387D01*
X200749083Y-122631387D01*
X200728800Y-122533607D01*
X200710020Y-122323459D01*
X200732376Y-122242030D01*
X200851991Y-122227039D01*
X201058812Y-122250338D01*
X201131826Y-122265114D01*
X201314469Y-122296531D01*
X201463495Y-122282929D01*
X201629975Y-122208446D01*
X201864980Y-122057217D01*
X201918140Y-122020867D01*
X202152633Y-121870358D01*
X202334026Y-121773262D01*
X202425227Y-121749265D01*
X202427173Y-121750728D01*
G37*
G36*
X191701312Y-120636227D02*
G01*
X191813799Y-120804115D01*
X191882911Y-120934682D01*
X192017745Y-121166991D01*
X192182313Y-121326431D01*
X192433489Y-121464616D01*
X192499824Y-121494555D01*
X192732511Y-121606912D01*
X192891235Y-121701648D01*
X192937732Y-121749936D01*
X192883988Y-121841381D01*
X192754678Y-121983136D01*
X192737416Y-121999735D01*
X192610310Y-122127748D01*
X192555400Y-122233815D01*
X192569888Y-122368050D01*
X192650976Y-122580565D01*
X192698737Y-122692429D01*
X192816571Y-122987181D01*
X192853902Y-123163371D01*
X192802279Y-123245575D01*
X192653251Y-123258374D01*
X192509631Y-123242425D01*
X192160273Y-123194540D01*
X191817402Y-123724715D01*
X191653022Y-123973280D01*
X191523032Y-124159392D01*
X191450254Y-124250678D01*
X191443641Y-124254890D01*
X191395807Y-124189886D01*
X191345823Y-124074606D01*
X191285371Y-123870992D01*
X191228737Y-123619301D01*
X191225076Y-123599657D01*
X191192971Y-123455320D01*
X191139509Y-123357336D01*
X191034587Y-123291488D01*
X190848102Y-123243561D01*
X190549953Y-123199340D01*
X190315073Y-123169920D01*
X190072735Y-123131252D01*
X189905042Y-123087985D01*
X189860645Y-123063332D01*
X189882489Y-122972452D01*
X189931808Y-122872866D01*
X190243049Y-122872866D01*
X190360294Y-122945329D01*
X190619478Y-122991781D01*
X190702399Y-123001003D01*
X190971211Y-123034323D01*
X191174409Y-123069122D01*
X191256310Y-123092964D01*
X191310523Y-123191480D01*
X191364011Y-123386504D01*
X191376726Y-123454048D01*
X191424816Y-123654092D01*
X191479401Y-123765734D01*
X191495535Y-123774132D01*
X191569989Y-123711925D01*
X191696994Y-123550602D01*
X191817349Y-123373502D01*
X191979257Y-123136021D01*
X192104677Y-123009122D01*
X192235507Y-122963608D01*
X192398264Y-122968680D01*
X192495936Y-122965667D01*
X192529302Y-122909184D01*
X192498963Y-122767748D01*
X192406955Y-122513633D01*
X192330999Y-122295757D01*
X192318334Y-122166681D01*
X192368961Y-122067977D01*
X192406955Y-122023888D01*
X192521642Y-121853465D01*
X192494605Y-121730473D01*
X192317493Y-121631461D01*
X192260050Y-121611388D01*
X191989280Y-121450025D01*
X191804602Y-121204543D01*
X191665666Y-120983943D01*
X191564296Y-120900503D01*
X191479346Y-120942274D01*
X191440732Y-120998924D01*
X191284944Y-121145577D01*
X191031898Y-121273224D01*
X190744384Y-121354789D01*
X190579373Y-121370347D01*
X190392309Y-121377865D01*
X190297760Y-121396378D01*
X190294952Y-121400625D01*
X190322868Y-121486784D01*
X190392211Y-121663119D01*
X190415141Y-121718556D01*
X190518875Y-122063249D01*
X190501552Y-122340376D01*
X190375078Y-122572240D01*
X190252918Y-122754976D01*
X190243049Y-122872866D01*
X189931808Y-122872866D01*
X189972985Y-122789719D01*
X190096862Y-122580222D01*
X190366933Y-122151890D01*
X190210793Y-121741087D01*
X190124152Y-121503655D01*
X190067438Y-121330063D01*
X190054614Y-121274168D01*
X190127110Y-121236236D01*
X190315420Y-121194585D01*
X190528910Y-121164387D01*
X190833016Y-121114264D01*
X191045556Y-121028382D01*
X191235108Y-120876951D01*
X191270077Y-120842448D01*
X191445023Y-120682694D01*
X191582564Y-120585288D01*
X191621099Y-120571629D01*
X191701312Y-120636227D01*
G37*
G36*
X198702990Y-124139768D02*
G01*
X198771598Y-124264522D01*
X198839589Y-124465811D01*
X198843733Y-124481724D01*
X198894210Y-124638085D01*
X198974028Y-124721441D01*
X199130326Y-124760261D01*
X199333994Y-124777824D01*
X199689588Y-124806680D01*
X199900348Y-124848560D01*
X199981395Y-124926262D01*
X199947850Y-125062586D01*
X199814832Y-125280329D01*
X199740385Y-125390581D01*
X199575320Y-125641081D01*
X199489153Y-125823709D01*
X199485194Y-125983765D01*
X199566753Y-126166547D01*
X199737141Y-126417352D01*
X199824216Y-126537638D01*
X199950519Y-126735017D01*
X200014469Y-126882471D01*
X200014207Y-126925066D01*
X199918350Y-126953044D01*
X199713378Y-126955623D01*
X199509410Y-126939111D01*
X199275842Y-126916206D01*
X199110958Y-126927596D01*
X198981462Y-126996286D01*
X198854060Y-127145284D01*
X198695455Y-127397594D01*
X198592141Y-127572928D01*
X198408209Y-127886236D01*
X198285629Y-127693118D01*
X198179971Y-127471497D01*
X198107698Y-127234785D01*
X198046336Y-127058693D01*
X197928248Y-126938116D01*
X197720855Y-126854133D01*
X197391578Y-126787823D01*
X197318703Y-126776582D01*
X197099608Y-126725857D01*
X196965337Y-126660335D01*
X196945425Y-126627371D01*
X196995768Y-126516031D01*
X197048750Y-126444176D01*
X197373813Y-126444176D01*
X197378902Y-126538124D01*
X197530866Y-126601648D01*
X197646529Y-126625528D01*
X197960890Y-126704021D01*
X198162616Y-126800950D01*
X198227444Y-126896657D01*
X198254440Y-127017372D01*
X198315754Y-127194311D01*
X198382860Y-127342320D01*
X198435661Y-127354330D01*
X198496038Y-127270973D01*
X198614758Y-127094023D01*
X198734048Y-126930436D01*
X198859943Y-126808523D01*
X199031087Y-126751684D01*
X199274900Y-126738801D01*
X199532108Y-126723262D01*
X199646948Y-126664044D01*
X199625863Y-126542245D01*
X199475299Y-126338965D01*
X199429337Y-126285865D01*
X199283665Y-126098719D01*
X199198273Y-125947953D01*
X199188958Y-125908962D01*
X199234404Y-125788485D01*
X199349889Y-125598740D01*
X199427108Y-125491087D01*
X199600257Y-125242529D01*
X199655473Y-125088780D01*
X199584730Y-125008026D01*
X199380000Y-124978451D01*
X199237591Y-124976025D01*
X198985736Y-124970158D01*
X198843179Y-124934632D01*
X198758992Y-124842559D01*
X198690205Y-124687043D01*
X198574944Y-124398060D01*
X198332661Y-124707074D01*
X198166561Y-124931189D01*
X198031496Y-125134373D01*
X197995840Y-125196372D01*
X197842637Y-125345329D01*
X197668470Y-125376656D01*
X197457421Y-125406059D01*
X197391903Y-125500077D01*
X197467835Y-125667420D01*
X197507400Y-125720413D01*
X197642463Y-125946456D01*
X197638705Y-126129635D01*
X197506308Y-126298107D01*
X197373813Y-126444176D01*
X197048750Y-126444176D01*
X197122791Y-126343761D01*
X197192672Y-126263436D01*
X197341082Y-126086909D01*
X197390917Y-125965709D01*
X197359314Y-125844293D01*
X197336064Y-125798681D01*
X197205090Y-125622540D01*
X197088817Y-125527885D01*
X196960367Y-125423402D01*
X196989496Y-125335118D01*
X197174010Y-125266875D01*
X197245898Y-125253101D01*
X197543432Y-125195836D01*
X197732201Y-125128325D01*
X197862448Y-125020412D01*
X197984419Y-124841942D01*
X198014038Y-124792077D01*
X198202226Y-124511113D01*
X198393293Y-124290411D01*
X198561821Y-124154039D01*
X198682389Y-124126064D01*
X198702990Y-124139768D01*
G37*
G36*
X181630943Y-121495422D02*
G01*
X181871432Y-121688560D01*
X182077909Y-122033773D01*
X182177527Y-122303539D01*
X182253648Y-122616373D01*
X182296688Y-122975957D01*
X182311136Y-123428404D01*
X182309692Y-123661785D01*
X182297176Y-124099797D01*
X182267559Y-124438381D01*
X182210972Y-124738201D01*
X182117543Y-125059916D01*
X182049535Y-125260555D01*
X181948169Y-125573098D01*
X181880318Y-125826407D01*
X181854826Y-125984763D01*
X181861924Y-126018333D01*
X181959261Y-126092220D01*
X182132480Y-126220362D01*
X182207090Y-126275020D01*
X182476126Y-126543271D01*
X182733448Y-126926381D01*
X182958305Y-127379212D01*
X183129950Y-127856625D01*
X183227631Y-128313482D01*
X183242302Y-128527008D01*
X183252232Y-128722603D01*
X183297273Y-128794712D01*
X183404390Y-128779895D01*
X183424132Y-128773540D01*
X183754279Y-128727285D01*
X184030094Y-128812485D01*
X184153536Y-128920690D01*
X184253445Y-129120762D01*
X184265032Y-129385111D01*
X184184977Y-129729679D01*
X184009959Y-130170413D01*
X183805797Y-130590399D01*
X183626029Y-130946200D01*
X183514629Y-131187036D01*
X183463346Y-131338693D01*
X183463927Y-131426953D01*
X183508121Y-131477601D01*
X183519652Y-131484479D01*
X183743997Y-131640066D01*
X183969962Y-131843407D01*
X184153168Y-132049819D01*
X184249239Y-132214621D01*
X184250895Y-132220712D01*
X184346943Y-132368713D01*
X184530963Y-132518542D01*
X184589186Y-132552321D01*
X184817070Y-132702925D01*
X185073692Y-132915109D01*
X185205408Y-133042187D01*
X185601914Y-133548685D01*
X185877444Y-134106415D01*
X186026079Y-134688445D01*
X186041901Y-135267842D01*
X185918990Y-135817675D01*
X185850983Y-135979623D01*
X185572474Y-136422801D01*
X185223540Y-136792629D01*
X184926154Y-137030252D01*
X184649514Y-137186720D01*
X184322067Y-137297685D01*
X184105204Y-137349851D01*
X183945692Y-137410032D01*
X183884857Y-137478366D01*
X183812557Y-137630249D01*
X183611758Y-137816241D01*
X183306616Y-138021690D01*
X182921285Y-138231939D01*
X182479919Y-138432334D01*
X182041955Y-138596467D01*
X181716950Y-138680625D01*
X181313159Y-138749204D01*
X180881665Y-138797314D01*
X180473555Y-138820067D01*
X180139913Y-138812575D01*
X179998737Y-138792001D01*
X179834885Y-138757130D01*
X179577374Y-138705711D01*
X179357728Y-138663340D01*
X178996719Y-138573962D01*
X178613797Y-138448199D01*
X178436277Y-138376734D01*
X177852240Y-138202000D01*
X177514826Y-138169100D01*
X176938069Y-138081933D01*
X176434178Y-137859886D01*
X176012605Y-137515251D01*
X175682801Y-137060321D01*
X175454218Y-136507388D01*
X175336305Y-135868743D01*
X175328281Y-135398586D01*
X175475383Y-135398586D01*
X175535656Y-135995392D01*
X175633525Y-136359119D01*
X175860504Y-136923193D01*
X176136380Y-137344639D01*
X176470555Y-137636138D01*
X176651553Y-137732356D01*
X176989716Y-137860273D01*
X177284181Y-137931877D01*
X177505269Y-137943571D01*
X177623301Y-137891756D01*
X177635015Y-137851556D01*
X177590062Y-137710633D01*
X177554889Y-137676025D01*
X177479716Y-137566432D01*
X177499993Y-137446777D01*
X177594952Y-137395584D01*
X177701263Y-137456067D01*
X177715141Y-137508650D01*
X177772178Y-137627274D01*
X177914876Y-137787423D01*
X177975551Y-137841828D01*
X178444867Y-138146452D01*
X179024106Y-138375915D01*
X179679290Y-138525579D01*
X180376444Y-138590810D01*
X181081591Y-138566970D01*
X181760753Y-138449425D01*
X181977724Y-138387917D01*
X182562001Y-138185802D01*
X183001021Y-137991864D01*
X183309085Y-137799352D01*
X183407425Y-137712764D01*
X183537076Y-137566284D01*
X183541064Y-137495389D01*
X183419048Y-137475789D01*
X183404100Y-137475710D01*
X183274131Y-137429923D01*
X183243848Y-137365843D01*
X183322561Y-137282044D01*
X183555003Y-137218078D01*
X183664510Y-137201689D01*
X184121094Y-137128135D01*
X184470010Y-137030586D01*
X184763784Y-136889313D01*
X185054943Y-136684590D01*
X185067134Y-136674917D01*
X185371861Y-136386471D01*
X185581157Y-136061598D01*
X185652790Y-135900545D01*
X185816938Y-135301625D01*
X185826321Y-134713061D01*
X185686391Y-134148425D01*
X185402603Y-133621289D01*
X184980410Y-133145224D01*
X184425267Y-132733802D01*
X184366084Y-132698730D01*
X184085043Y-132523828D01*
X183866580Y-132365781D01*
X183741958Y-132248316D01*
X183724605Y-132211901D01*
X183766383Y-132137626D01*
X183804731Y-132147319D01*
X183878711Y-132144279D01*
X183884857Y-132117800D01*
X183827603Y-132015903D01*
X183693563Y-131890263D01*
X183539321Y-131784476D01*
X183421462Y-131742135D01*
X183403583Y-131747007D01*
X183375257Y-131837267D01*
X183343341Y-132055291D01*
X183311673Y-132368762D01*
X183284093Y-132745365D01*
X183283158Y-132760788D01*
X183255257Y-133179555D01*
X183226314Y-133470248D01*
X183189518Y-133664939D01*
X183138058Y-133795703D01*
X183065123Y-133894613D01*
X183035928Y-133924983D01*
X182824106Y-134076470D01*
X182604887Y-134162082D01*
X182435996Y-134204856D01*
X182362560Y-134241277D01*
X182362460Y-134242207D01*
X182401416Y-134322539D01*
X182500296Y-134490547D01*
X182564475Y-134593859D01*
X182701800Y-134788884D01*
X182813919Y-134870317D01*
X182946860Y-134868115D01*
X182975552Y-134861401D01*
X183124545Y-134842898D01*
X183153074Y-134901521D01*
X183148687Y-134916714D01*
X183052998Y-135006492D01*
X182866226Y-135084043D01*
X182837767Y-135091500D01*
X182655007Y-135137851D01*
X182426315Y-135199714D01*
X182125027Y-135284609D01*
X181724476Y-135400052D01*
X181197999Y-135553561D01*
X181176342Y-135559897D01*
X180828873Y-135650039D01*
X180610299Y-135680905D01*
X180526713Y-135652980D01*
X180584205Y-135566745D01*
X180645596Y-135517843D01*
X180726382Y-135445825D01*
X180714269Y-135387652D01*
X180587936Y-135315679D01*
X180439431Y-135250519D01*
X179541999Y-134929973D01*
X178816876Y-134750916D01*
X178536092Y-134679970D01*
X178388438Y-134610096D01*
X178380395Y-134551237D01*
X178438616Y-134535254D01*
X179161032Y-134535254D01*
X179245608Y-134599115D01*
X179420924Y-134689456D01*
X179656700Y-134793110D01*
X179922658Y-134896910D01*
X180188516Y-134987688D01*
X180423997Y-135052276D01*
X180459463Y-135059832D01*
X180499046Y-134997925D01*
X180518215Y-134836448D01*
X180759936Y-134836448D01*
X180808036Y-135082962D01*
X180930361Y-135270136D01*
X181093948Y-135358536D01*
X181189797Y-135350692D01*
X181307034Y-135315166D01*
X181532492Y-135248771D01*
X181820397Y-135164974D01*
X181861671Y-135153028D01*
X182139455Y-135064078D01*
X182344893Y-134981893D01*
X182440084Y-134922017D01*
X182442586Y-134914772D01*
X182397131Y-134763326D01*
X182288417Y-134580150D01*
X182157919Y-134423503D01*
X182047115Y-134351644D01*
X182041426Y-134351295D01*
X181886021Y-134372852D01*
X181666845Y-134426172D01*
X181640795Y-134433741D01*
X181355606Y-134494153D01*
X181061610Y-134523286D01*
X181060409Y-134523313D01*
X180865058Y-134537390D01*
X180780486Y-134600096D01*
X180760345Y-134759735D01*
X180759936Y-134836448D01*
X180518215Y-134836448D01*
X180518987Y-134829941D01*
X180519558Y-134791483D01*
X180519558Y-134511041D01*
X179878548Y-134511041D01*
X179574289Y-134511041D01*
X179337138Y-134511041D01*
X179208247Y-134511041D01*
X179197476Y-134511041D01*
X179161032Y-134535254D01*
X178438616Y-134535254D01*
X178518446Y-134513339D01*
X178656624Y-134505077D01*
X178798680Y-134498479D01*
X178837461Y-134478893D01*
X178758960Y-134435375D01*
X178549175Y-134356983D01*
X178400007Y-134304549D01*
X178119341Y-134201079D01*
X177898820Y-134109708D01*
X177782154Y-134048680D01*
X177777756Y-134044823D01*
X177745411Y-133940174D01*
X177714238Y-133715675D01*
X177689212Y-133411686D01*
X177681459Y-133263806D01*
X177639876Y-132757844D01*
X177566494Y-132394472D01*
X177463207Y-132177623D01*
X177331913Y-132111230D01*
X177174506Y-132199226D01*
X177170283Y-132203407D01*
X177080718Y-132337055D01*
X177117275Y-132410043D01*
X177206040Y-132411241D01*
X177339804Y-132422982D01*
X177360084Y-132500250D01*
X177273839Y-132602863D01*
X177162113Y-132664885D01*
X176915092Y-132819687D01*
X176626446Y-133081656D01*
X176327479Y-133415264D01*
X176049497Y-133784980D01*
X175823805Y-134155279D01*
X175789412Y-134222780D01*
X175559040Y-134820444D01*
X175475383Y-135398586D01*
X175328281Y-135398586D01*
X175327004Y-135323747D01*
X175356230Y-134935441D01*
X175409851Y-134637973D01*
X175504911Y-134362099D01*
X175629006Y-134096893D01*
X175856891Y-133716522D01*
X176152784Y-133324327D01*
X176359918Y-133095316D01*
X176664018Y-132753747D01*
X176837294Y-132476048D01*
X176872198Y-132367666D01*
X176924461Y-132190818D01*
X176986385Y-132108089D01*
X176992237Y-132107255D01*
X177069751Y-132040956D01*
X177116703Y-131939100D01*
X177111547Y-131766139D01*
X176993814Y-131530625D01*
X176921787Y-131425213D01*
X176781399Y-131213692D01*
X176691388Y-131047275D01*
X176673501Y-130988578D01*
X176647771Y-130938218D01*
X176913879Y-130938218D01*
X176958338Y-131050450D01*
X177080188Y-131264412D01*
X177262140Y-131552543D01*
X177486905Y-131887281D01*
X177691540Y-132177919D01*
X177769352Y-132346070D01*
X177822615Y-132613564D01*
X177856195Y-133007378D01*
X177861781Y-133121752D01*
X177881629Y-133481997D01*
X177908273Y-133715219D01*
X177949419Y-133854647D01*
X178012772Y-133933509D01*
X178056475Y-133961305D01*
X178422990Y-134103671D01*
X178907590Y-134214092D01*
X179470845Y-134290106D01*
X180073323Y-134329257D01*
X180675594Y-134329083D01*
X181238227Y-134287126D01*
X181721791Y-134200927D01*
X181755936Y-134192031D01*
X182239075Y-134057764D01*
X182588148Y-133939347D01*
X182824913Y-133815222D01*
X182971128Y-133663829D01*
X183048552Y-133463611D01*
X183078941Y-133193006D01*
X183084060Y-132876067D01*
X183104610Y-132216315D01*
X183170737Y-131669428D01*
X183290547Y-131192464D01*
X183472147Y-130742477D01*
X183496213Y-130692844D01*
X183756168Y-130164799D01*
X183408515Y-129840511D01*
X183060862Y-129516223D01*
X182903489Y-129830194D01*
X182691296Y-130160066D01*
X182395936Y-130500358D01*
X182064572Y-130804109D01*
X181744371Y-131024361D01*
X181663960Y-131064308D01*
X181396685Y-131208461D01*
X181152465Y-131379967D01*
X181103077Y-131423029D01*
X180854167Y-131611438D01*
X180615658Y-131673224D01*
X180333349Y-131616742D01*
X180195992Y-131562895D01*
X179902964Y-131454469D01*
X179877232Y-131447089D01*
X180554310Y-131447089D01*
X180633070Y-131459920D01*
X180736995Y-131445189D01*
X180738235Y-131417836D01*
X180630995Y-131398709D01*
X180584660Y-131411511D01*
X180554310Y-131447089D01*
X179877232Y-131447089D01*
X179606110Y-131369329D01*
X179527722Y-131352592D01*
X178915594Y-131166963D01*
X178398460Y-130857747D01*
X178033722Y-130492746D01*
X177854070Y-130277328D01*
X177707814Y-130123404D01*
X177626398Y-130064042D01*
X177626082Y-130064038D01*
X177537443Y-130123113D01*
X177391746Y-130272660D01*
X177222815Y-130471162D01*
X177064473Y-130677103D01*
X176950546Y-130848964D01*
X176913879Y-130938218D01*
X176647771Y-130938218D01*
X176617636Y-130879237D01*
X176481136Y-130732613D01*
X176461164Y-130715032D01*
X176320825Y-130557922D01*
X176255974Y-130362675D01*
X176240817Y-130151096D01*
X176241543Y-130133862D01*
X176433122Y-130133862D01*
X176477475Y-130410830D01*
X176597024Y-130555825D01*
X176771509Y-130565593D01*
X176980668Y-130436880D01*
X177147326Y-130248568D01*
X177287328Y-130049091D01*
X177376972Y-129903875D01*
X177394636Y-129860799D01*
X177326990Y-129788771D01*
X177165867Y-129707576D01*
X176973988Y-129643862D01*
X176835706Y-129623344D01*
X176625123Y-129695064D01*
X176481329Y-129885541D01*
X176433122Y-130133862D01*
X176241543Y-130133862D01*
X176251617Y-129894606D01*
X176315212Y-129726243D01*
X176457622Y-129576385D01*
X176722783Y-129416292D01*
X176997317Y-129402960D01*
X177263575Y-129503648D01*
X177429994Y-129586125D01*
X177521131Y-129623187D01*
X177522963Y-129623344D01*
X177531066Y-129550086D01*
X177525256Y-129356327D01*
X177506881Y-129081093D01*
X177502358Y-129026085D01*
X177493294Y-128648336D01*
X177685421Y-128648336D01*
X177711342Y-129074456D01*
X177842683Y-129692576D01*
X178072608Y-130190968D01*
X178412188Y-130584148D01*
X178872495Y-130886636D01*
X179199925Y-131026526D01*
X179548561Y-131140579D01*
X179838791Y-131194317D01*
X180155125Y-131199920D01*
X180332197Y-131189721D01*
X180700482Y-131142558D01*
X181077432Y-131061192D01*
X181333691Y-130980416D01*
X181868775Y-130707359D01*
X182292278Y-130343681D01*
X182632087Y-129862921D01*
X182747398Y-129639139D01*
X182915440Y-129202672D01*
X183163722Y-129202672D01*
X183216785Y-129313634D01*
X183350008Y-129474718D01*
X183524441Y-129649004D01*
X183701134Y-129799573D01*
X183841138Y-129889508D01*
X183896084Y-129896847D01*
X183956647Y-129803893D01*
X184032444Y-129620216D01*
X184046483Y-129579118D01*
X184097963Y-129360361D01*
X184066604Y-129197721D01*
X184010419Y-129099477D01*
X183884036Y-128956970D01*
X183774778Y-128902208D01*
X183566717Y-128936307D01*
X183358160Y-129019884D01*
X183206213Y-129124858D01*
X183163722Y-129202672D01*
X182915440Y-129202672D01*
X182955363Y-129098978D01*
X183034041Y-128598511D01*
X182983641Y-128095204D01*
X182804373Y-127546525D01*
X182758248Y-127439240D01*
X182583398Y-127109363D01*
X182364091Y-126788442D01*
X182127226Y-126507208D01*
X181899701Y-126296390D01*
X181708416Y-126186721D01*
X181654209Y-126177918D01*
X181597808Y-126162637D01*
X181577464Y-126101204D01*
X181597858Y-125970233D01*
X181663670Y-125746338D01*
X181779582Y-125406134D01*
X181846653Y-125216404D01*
X181990085Y-124712433D01*
X182078498Y-124182823D01*
X182114733Y-123650593D01*
X182101631Y-123138762D01*
X182042033Y-122670347D01*
X181938780Y-122268367D01*
X181794713Y-121955841D01*
X181612674Y-121755787D01*
X181411517Y-121690852D01*
X181162623Y-121768166D01*
X180940377Y-121992148D01*
X180748543Y-122350853D01*
X180590885Y-122832338D01*
X180471167Y-123424661D01*
X180393154Y-124115878D01*
X180360609Y-124894045D01*
X180359872Y-125027547D01*
X180356648Y-125439765D01*
X180339139Y-125718038D01*
X180294654Y-125888665D01*
X180210508Y-125977945D01*
X180074010Y-126012178D01*
X179882189Y-126017666D01*
X179745356Y-126003780D01*
X179671406Y-125934213D01*
X179630868Y-125767098D01*
X179614291Y-125637066D01*
X179560418Y-125256383D01*
X179480305Y-124793089D01*
X179382556Y-124288120D01*
X179275773Y-123782413D01*
X179168561Y-123316903D01*
X179069522Y-122932525D01*
X178995436Y-122692429D01*
X178818803Y-122282013D01*
X178636313Y-122028504D01*
X178441756Y-121928556D01*
X178228924Y-121978825D01*
X178006902Y-122159794D01*
X177881301Y-122318068D01*
X177804798Y-122502678D01*
X177759180Y-122767486D01*
X177742731Y-122941024D01*
X177740372Y-123347352D01*
X177784010Y-123862686D01*
X177866862Y-124444720D01*
X177982149Y-125051148D01*
X178123088Y-125639664D01*
X178238579Y-126034604D01*
X178436645Y-126652489D01*
X178148860Y-127176050D01*
X177888600Y-127710374D01*
X177737719Y-128185522D01*
X177685421Y-128648336D01*
X177493294Y-128648336D01*
X177490216Y-128520084D01*
X177555526Y-128065286D01*
X177711292Y-127605042D01*
X177932491Y-127152441D01*
X178206413Y-126644630D01*
X178038408Y-126110801D01*
X177920470Y-125681349D01*
X177804558Y-125163513D01*
X177699249Y-124606450D01*
X177613117Y-124059317D01*
X177554741Y-123571273D01*
X177532874Y-123213249D01*
X177571738Y-122658461D01*
X177702767Y-122226772D01*
X177923938Y-121921997D01*
X178233228Y-121747952D01*
X178321204Y-121725885D01*
X178548547Y-121732243D01*
X178755644Y-121851916D01*
X178946117Y-122092600D01*
X179123589Y-122461991D01*
X179291683Y-122967785D01*
X179454021Y-123617678D01*
X179614226Y-124419365D01*
X179629892Y-124506078D01*
X179718671Y-124985579D01*
X179789967Y-125327271D01*
X179849731Y-125551875D01*
X179903915Y-125680113D01*
X179958470Y-125732706D01*
X179983492Y-125737224D01*
X180041150Y-125717492D01*
X180082347Y-125641387D01*
X180111582Y-125483542D01*
X180133349Y-125218592D01*
X180152145Y-124821171D01*
X180153935Y-124775710D01*
X180204873Y-123930407D01*
X180286397Y-123236875D01*
X180399426Y-122689400D01*
X180544878Y-122282270D01*
X180560197Y-122251118D01*
X180821070Y-121832207D01*
X181094196Y-121566871D01*
X181368009Y-121454734D01*
X181630943Y-121495422D01*
G37*
G36*
X206963820Y-121329493D02*
G01*
X207163238Y-121416599D01*
X207307775Y-121493186D01*
X207410317Y-121582258D01*
X207483449Y-121714400D01*
X207539750Y-121920199D01*
X207591805Y-122230243D01*
X207638629Y-122572240D01*
X207690013Y-123257852D01*
X207681024Y-124036437D01*
X207613377Y-124853229D01*
X207553652Y-125287169D01*
X207530072Y-125525433D01*
X207551103Y-125625388D01*
X207606624Y-125599343D01*
X207686517Y-125459606D01*
X207780662Y-125218487D01*
X207877704Y-124893012D01*
X208092084Y-124183827D01*
X208337044Y-123560902D01*
X208603711Y-123040008D01*
X208883210Y-122636913D01*
X209166668Y-122367387D01*
X209354033Y-122269499D01*
X209640648Y-122236940D01*
X209918432Y-122310063D01*
X210126177Y-122469504D01*
X210162561Y-122525292D01*
X210246529Y-122824406D01*
X210250492Y-123238223D01*
X210179352Y-123745537D01*
X210038010Y-124325139D01*
X209831367Y-124955823D01*
X209564324Y-125616380D01*
X209336211Y-126100964D01*
X209176502Y-126425657D01*
X209081020Y-126644998D01*
X209040738Y-126796164D01*
X209046634Y-126916335D01*
X209089683Y-127042689D01*
X209101043Y-127069815D01*
X209274638Y-127648322D01*
X209321686Y-128236954D01*
X209286906Y-128567243D01*
X209157642Y-129036987D01*
X208958829Y-129486992D01*
X208719669Y-129853857D01*
X208665782Y-129915775D01*
X208542053Y-130058457D01*
X208484178Y-130143270D01*
X208483595Y-130146642D01*
X208537710Y-130214630D01*
X208678328Y-130356672D01*
X208839950Y-130509403D01*
X209129899Y-130841246D01*
X209331563Y-131204904D01*
X209426138Y-131559103D01*
X209418536Y-131779399D01*
X209404100Y-131918124D01*
X209447944Y-132021714D01*
X209579510Y-132127698D01*
X209788821Y-132251384D01*
X210354548Y-132653805D01*
X210790103Y-133139430D01*
X211092182Y-133693558D01*
X211257484Y-134301492D01*
X211282704Y-134948532D01*
X211164542Y-135619980D01*
X210899693Y-136301135D01*
X210757639Y-136563331D01*
X210561643Y-136835935D01*
X210296156Y-137125911D01*
X210005684Y-137391016D01*
X209734733Y-137589007D01*
X209607303Y-137655151D01*
X209437993Y-137691723D01*
X209157772Y-137719971D01*
X208815930Y-137735600D01*
X208663879Y-137737370D01*
X208341519Y-137743981D01*
X208090027Y-137761201D01*
X207944666Y-137785989D01*
X207922712Y-137801276D01*
X207851006Y-137887208D01*
X207660769Y-137995728D01*
X207389318Y-138112127D01*
X207073976Y-138221695D01*
X206752060Y-138309722D01*
X206520504Y-138353954D01*
X206209918Y-138396938D01*
X205989388Y-138418248D01*
X205797076Y-138417600D01*
X205571146Y-138394709D01*
X205249763Y-138349290D01*
X205241348Y-138348064D01*
X204462875Y-138176364D01*
X203729360Y-137885534D01*
X203462690Y-137747085D01*
X203177410Y-137608551D01*
X202912610Y-137510758D01*
X202733456Y-137475710D01*
X202460418Y-137421186D01*
X202133200Y-137276871D01*
X201805310Y-137071653D01*
X201530256Y-136834415D01*
X201514788Y-136817819D01*
X201177148Y-136346457D01*
X200945404Y-135804618D01*
X200821668Y-135224594D01*
X200812404Y-134825979D01*
X200988757Y-134825979D01*
X201033910Y-135354396D01*
X201165834Y-135837902D01*
X201216239Y-135953312D01*
X201479818Y-136405146D01*
X201785581Y-136770297D01*
X202106098Y-137018101D01*
X202216291Y-137071276D01*
X202404922Y-137123738D01*
X202527855Y-137119238D01*
X202554082Y-137069062D01*
X202453433Y-136984961D01*
X202353140Y-136883361D01*
X202311549Y-136760423D01*
X202345132Y-136680500D01*
X202373974Y-136674519D01*
X202458207Y-136727715D01*
X202613262Y-136865077D01*
X202752923Y-137003273D01*
X203081154Y-137274997D01*
X203521151Y-137545902D01*
X204025915Y-137793373D01*
X204548448Y-137994794D01*
X205041752Y-138127549D01*
X205118296Y-138141490D01*
X205558137Y-138181419D01*
X206070176Y-138177262D01*
X206573521Y-138132314D01*
X206920036Y-138068086D01*
X207253081Y-137961913D01*
X207499028Y-137839160D01*
X207638216Y-137714626D01*
X207650984Y-137603107D01*
X207601342Y-137555301D01*
X207515278Y-137475693D01*
X207567761Y-137439000D01*
X207741724Y-137449862D01*
X207884899Y-137478226D01*
X208127466Y-137515523D01*
X208458964Y-137542690D01*
X208808130Y-137553910D01*
X208812110Y-137553924D01*
X209140180Y-137548344D01*
X209363226Y-137520088D01*
X209536214Y-137455639D01*
X209714111Y-137341484D01*
X209733561Y-137327345D01*
X210090237Y-137040777D01*
X210363127Y-136749466D01*
X210596245Y-136399543D01*
X210782710Y-136043190D01*
X210935240Y-135712502D01*
X211025163Y-135452702D01*
X211068957Y-135195299D01*
X211083099Y-134871800D01*
X211083830Y-134791483D01*
X211076798Y-134430242D01*
X211040330Y-134156318D01*
X210959126Y-133897400D01*
X210835674Y-133618550D01*
X210638014Y-133256947D01*
X210414835Y-132983907D01*
X210154602Y-132762769D01*
X209815548Y-132519971D01*
X209564808Y-132378873D01*
X209374063Y-132331277D01*
X209214995Y-132368984D01*
X209091582Y-132455002D01*
X208924415Y-132673918D01*
X208883927Y-132911068D01*
X208815742Y-133257300D01*
X208633872Y-133560562D01*
X208371208Y-133768635D01*
X208332820Y-133785980D01*
X208144913Y-133913494D01*
X208070953Y-134066370D01*
X208113900Y-134203179D01*
X208276714Y-134282495D01*
X208297132Y-134285372D01*
X208493389Y-134330617D01*
X208543050Y-134393257D01*
X208456931Y-134460661D01*
X208245851Y-134520198D01*
X208074141Y-134545732D01*
X207794531Y-134595282D01*
X207417600Y-134686481D01*
X206996381Y-134805537D01*
X206648791Y-134916418D01*
X206286504Y-135037500D01*
X205979970Y-135137074D01*
X205760710Y-135205101D01*
X205660246Y-135231543D01*
X205659148Y-135231594D01*
X205594599Y-135193351D01*
X205631980Y-135111006D01*
X205745119Y-135036743D01*
X205759305Y-135031861D01*
X205888853Y-134958010D01*
X205919558Y-134901767D01*
X205847849Y-134819099D01*
X205688822Y-134729253D01*
X206291102Y-134729253D01*
X206300360Y-134785009D01*
X206391833Y-134783338D01*
X206572104Y-134732065D01*
X206629736Y-134710912D01*
X206875699Y-134624686D01*
X207189460Y-134525462D01*
X207381860Y-134469128D01*
X207644146Y-134386051D01*
X207784313Y-134309427D01*
X207837560Y-134215154D01*
X207842586Y-134153654D01*
X207836299Y-134065167D01*
X207796655Y-134012782D01*
X207692477Y-133990099D01*
X207492589Y-133990713D01*
X207165815Y-134008222D01*
X207141482Y-134009671D01*
X206824355Y-134031179D01*
X206574475Y-134053043D01*
X206430141Y-134071699D01*
X206410168Y-134077754D01*
X206372495Y-134173162D01*
X206333302Y-134357283D01*
X206302776Y-134564514D01*
X206291102Y-134729253D01*
X205688822Y-134729253D01*
X205655663Y-134710519D01*
X205377411Y-134591229D01*
X205047502Y-134476436D01*
X204793032Y-134404010D01*
X204561909Y-134327678D01*
X204394508Y-134242504D01*
X204309914Y-134167202D01*
X204327209Y-134120481D01*
X204465479Y-134121055D01*
X204512679Y-134129128D01*
X204686189Y-134130851D01*
X204695202Y-134120893D01*
X204988315Y-134120893D01*
X205019769Y-134212443D01*
X205130551Y-134294417D01*
X205350169Y-134396362D01*
X205458045Y-134442160D01*
X205753659Y-134566315D01*
X205933354Y-134632954D01*
X206029820Y-134644528D01*
X206075748Y-134603489D01*
X206103826Y-134512289D01*
X206109434Y-134491009D01*
X206161395Y-134246170D01*
X206140947Y-134086400D01*
X206023442Y-133978838D01*
X205784230Y-133890623D01*
X205626789Y-133847559D01*
X205358895Y-133780754D01*
X205161482Y-133738061D01*
X205075785Y-133728362D01*
X205075266Y-133728783D01*
X205047753Y-133813450D01*
X205007157Y-133987938D01*
X205006680Y-133990221D01*
X204988315Y-134120893D01*
X204695202Y-134120893D01*
X204783314Y-134023539D01*
X204803578Y-133975000D01*
X204859118Y-133790092D01*
X204842047Y-133656630D01*
X204729840Y-133541032D01*
X204499972Y-133409717D01*
X204386617Y-133353371D01*
X204102712Y-133194335D01*
X203853078Y-133019958D01*
X203715028Y-132892645D01*
X203565578Y-132744047D01*
X203443269Y-132670003D01*
X203429232Y-132668139D01*
X203377693Y-132618769D01*
X203361918Y-132456240D01*
X203379906Y-132158924D01*
X203380981Y-132147319D01*
X203397311Y-131831032D01*
X203364441Y-131661273D01*
X203269600Y-131628512D01*
X203100020Y-131723220D01*
X202961037Y-131833937D01*
X202797657Y-132004338D01*
X202718003Y-132154629D01*
X202735265Y-132250442D01*
X202794636Y-132267508D01*
X202879434Y-132295012D01*
X202832745Y-132366437D01*
X202671453Y-132465150D01*
X202528232Y-132529925D01*
X202212509Y-132711656D01*
X201868906Y-132991433D01*
X201542722Y-133324736D01*
X201279261Y-133667045D01*
X201164603Y-133870031D01*
X201031835Y-134311556D01*
X200988757Y-134825979D01*
X200812404Y-134825979D01*
X200808051Y-134638677D01*
X200906666Y-134079158D01*
X201119622Y-133578329D01*
X201287263Y-133338368D01*
X201483840Y-133125579D01*
X201748001Y-132871092D01*
X202008831Y-132641722D01*
X202232847Y-132443215D01*
X202397790Y-132273812D01*
X202472601Y-132165890D01*
X202474132Y-132156652D01*
X202536624Y-132022187D01*
X202695777Y-131845807D01*
X202909101Y-131665086D01*
X203134107Y-131517596D01*
X203263880Y-131458253D01*
X203529965Y-131365495D01*
X203476854Y-130794893D01*
X203375987Y-130093373D01*
X203213718Y-129379086D01*
X203450578Y-129379086D01*
X203471822Y-129580026D01*
X203539464Y-129892876D01*
X203564383Y-129998971D01*
X203624988Y-130313582D01*
X203656057Y-130643743D01*
X203660091Y-131038265D01*
X203641688Y-131507325D01*
X203590257Y-132469855D01*
X203893551Y-132763908D01*
X204258471Y-133050355D01*
X204720511Y-133313424D01*
X205216964Y-133518074D01*
X205278548Y-133537874D01*
X205547097Y-133621706D01*
X205799195Y-133701050D01*
X205799368Y-133701105D01*
X205998748Y-133743123D01*
X206258413Y-133770406D01*
X206537459Y-133782678D01*
X206794984Y-133779663D01*
X206990085Y-133761082D01*
X207081856Y-133726660D01*
X207081387Y-133709779D01*
X206974839Y-133655592D01*
X206780670Y-133629964D01*
X206756154Y-133629653D01*
X206572677Y-133609208D01*
X206482388Y-133559042D01*
X206480441Y-133549527D01*
X206439804Y-133507089D01*
X207235222Y-133507089D01*
X207241640Y-133549527D01*
X207310176Y-133625882D01*
X207321766Y-133629653D01*
X207642271Y-133629653D01*
X207666150Y-133693313D01*
X207753002Y-133709779D01*
X207908356Y-133674024D01*
X207962775Y-133629653D01*
X207938896Y-133565992D01*
X207852044Y-133549527D01*
X207696690Y-133585282D01*
X207642271Y-133629653D01*
X207321766Y-133629653D01*
X207385470Y-133573768D01*
X207401892Y-133549527D01*
X207382865Y-133481644D01*
X207321766Y-133469401D01*
X207235222Y-133507089D01*
X206439804Y-133507089D01*
X206414181Y-133480331D01*
X206340220Y-133466852D01*
X206164497Y-133417908D01*
X206051995Y-133352170D01*
X205959470Y-133269081D01*
X205950490Y-133183041D01*
X205957256Y-133169484D01*
X206208499Y-133169484D01*
X206214049Y-133176300D01*
X206349700Y-133230817D01*
X206457708Y-133160216D01*
X206480441Y-133068770D01*
X206450957Y-132938506D01*
X206410126Y-132908517D01*
X206302847Y-132961077D01*
X206218384Y-133071629D01*
X206208499Y-133169484D01*
X205957256Y-133169484D01*
X206025055Y-133033643D01*
X206051995Y-132987427D01*
X206199999Y-132734817D01*
X205961266Y-132543586D01*
X205811184Y-132401516D01*
X205796049Y-132342365D01*
X206109269Y-132342365D01*
X206142231Y-132410211D01*
X206158412Y-132421867D01*
X206467108Y-132651440D01*
X206646136Y-132855924D01*
X206717265Y-133062651D01*
X206720819Y-133127985D01*
X206734957Y-133315760D01*
X206800175Y-133374852D01*
X206931567Y-133328137D01*
X208163091Y-133328137D01*
X208168362Y-133529461D01*
X208200987Y-133599365D01*
X208286184Y-133566668D01*
X208340792Y-133531210D01*
X208500972Y-133370035D01*
X208615286Y-133176007D01*
X208675309Y-132942434D01*
X208633603Y-132813746D01*
X208501676Y-132804539D01*
X208373486Y-132869218D01*
X208228131Y-133001575D01*
X208169645Y-133183299D01*
X208163091Y-133328137D01*
X206931567Y-133328137D01*
X206950679Y-133321342D01*
X207035428Y-133275893D01*
X207289781Y-133208863D01*
X207475593Y-133238669D01*
X207680003Y-133288704D01*
X207822025Y-133309148D01*
X207918309Y-133272497D01*
X207896830Y-133187872D01*
X207775068Y-133093263D01*
X207709099Y-133063714D01*
X207436067Y-132896814D01*
X207255934Y-132659735D01*
X207204145Y-132441195D01*
X207437518Y-132441195D01*
X207493065Y-132640764D01*
X207620036Y-132783785D01*
X207754495Y-132876280D01*
X207840202Y-132897092D01*
X207959208Y-132852437D01*
X208039131Y-132815530D01*
X208191540Y-132726213D01*
X208227225Y-132626581D01*
X208144386Y-132481835D01*
X208014207Y-132334281D01*
X207830826Y-132172401D01*
X207678953Y-132130511D01*
X207613576Y-132143710D01*
X207477499Y-132256724D01*
X207437518Y-132441195D01*
X207204145Y-132441195D01*
X207202803Y-132435532D01*
X207242196Y-132190452D01*
X207383291Y-132026778D01*
X207492245Y-131961427D01*
X207626505Y-131827836D01*
X207708624Y-131635269D01*
X207712291Y-131456809D01*
X207690264Y-131411331D01*
X207591293Y-131377707D01*
X207378686Y-131352923D01*
X207106720Y-131342517D01*
X206571170Y-131338978D01*
X206617940Y-131572825D01*
X206627899Y-131730901D01*
X206565314Y-131866552D01*
X206403252Y-132030694D01*
X206352228Y-132075124D01*
X206173767Y-132240511D01*
X206109269Y-132342365D01*
X205796049Y-132342365D01*
X205785959Y-132302932D01*
X205816939Y-132257950D01*
X205867469Y-132148534D01*
X205817270Y-131982974D01*
X205797373Y-131943144D01*
X205763371Y-131836159D01*
X205999684Y-131836159D01*
X206054548Y-131931301D01*
X206178593Y-131932091D01*
X206309682Y-131839473D01*
X206364680Y-131726788D01*
X206354917Y-131687935D01*
X206237839Y-131664078D01*
X206092253Y-131717774D01*
X206003231Y-131813526D01*
X205999684Y-131836159D01*
X205763371Y-131836159D01*
X205737056Y-131753360D01*
X205799460Y-131622545D01*
X205999571Y-131531596D01*
X206147541Y-131496769D01*
X206329192Y-131433727D01*
X206395810Y-131316528D01*
X206400315Y-131245899D01*
X206416883Y-131111522D01*
X206498701Y-131073852D01*
X206653745Y-131096270D01*
X206902716Y-131098846D01*
X207056269Y-131012027D01*
X207192000Y-130926105D01*
X207296346Y-130968127D01*
X207299621Y-130971357D01*
X207446794Y-131042887D01*
X207609660Y-131065615D01*
X207780558Y-131100387D01*
X207878368Y-131223287D01*
X207918923Y-131462190D01*
X207922712Y-131616790D01*
X207948621Y-131828484D01*
X208046964Y-132013893D01*
X208234822Y-132219247D01*
X208483230Y-132419560D01*
X208685996Y-132473697D01*
X208867379Y-132379685D01*
X209040500Y-132153756D01*
X209175880Y-131794058D01*
X209166448Y-131413764D01*
X209020834Y-131038485D01*
X208747674Y-130693835D01*
X208475826Y-130478350D01*
X208355006Y-130408798D01*
X208244827Y-130390156D01*
X208097268Y-130428248D01*
X207864307Y-130528902D01*
X207794753Y-130560979D01*
X207527097Y-130672948D01*
X207281721Y-130739767D01*
X206998685Y-130772556D01*
X206618047Y-130782434D01*
X206600630Y-130782507D01*
X206213800Y-130776058D01*
X205933396Y-130747385D01*
X205706146Y-130687578D01*
X205500446Y-130598493D01*
X205103024Y-130357574D01*
X204726535Y-130049264D01*
X204413223Y-129713382D01*
X204205331Y-129389747D01*
X204195935Y-129368847D01*
X204104876Y-129160866D01*
X204044808Y-129026032D01*
X204033149Y-129001314D01*
X203959823Y-129015514D01*
X203791631Y-129076735D01*
X203728390Y-129102547D01*
X203572546Y-129174865D01*
X203482047Y-129255539D01*
X203450578Y-129379086D01*
X203213718Y-129379086D01*
X203206835Y-129348788D01*
X203111183Y-129016709D01*
X203054381Y-128749865D01*
X203044646Y-128635461D01*
X203233430Y-128635461D01*
X203264249Y-128789557D01*
X203377218Y-128941434D01*
X203542663Y-128972488D01*
X203792444Y-128889347D01*
X203929081Y-128819425D01*
X203984718Y-128740054D01*
X203977841Y-128596271D01*
X203946450Y-128431467D01*
X203885083Y-128252728D01*
X203769051Y-128187907D01*
X203686040Y-128183590D01*
X203461304Y-128252361D01*
X203298870Y-128419598D01*
X203233430Y-128635461D01*
X203044646Y-128635461D01*
X203035015Y-128522286D01*
X202976960Y-128314830D01*
X202809058Y-128216479D01*
X202540700Y-128229275D01*
X202209190Y-128342724D01*
X201982106Y-128430369D01*
X201814324Y-128471828D01*
X201763747Y-128468158D01*
X201720856Y-128372337D01*
X201676283Y-128164183D01*
X201643695Y-127923149D01*
X201607816Y-127659272D01*
X201566274Y-127469632D01*
X201531863Y-127399524D01*
X201367299Y-127319402D01*
X201180926Y-127197902D01*
X201025161Y-127073142D01*
X200952424Y-126983240D01*
X200951734Y-126977655D01*
X200962273Y-126962597D01*
X201248129Y-126962597D01*
X201490378Y-127087869D01*
X201680631Y-127231473D01*
X201788239Y-127442435D01*
X201829913Y-127758879D01*
X201832028Y-127867245D01*
X201846021Y-128071715D01*
X201878917Y-128198185D01*
X201885017Y-128206258D01*
X201979572Y-128202270D01*
X202108727Y-128150642D01*
X204177913Y-128150642D01*
X204196639Y-128656483D01*
X204264050Y-128989809D01*
X204474038Y-129445732D01*
X204815393Y-129868980D01*
X205259348Y-130232985D01*
X205777134Y-130511175D01*
X205999684Y-130592857D01*
X206282302Y-130631463D01*
X206655567Y-130612735D01*
X207063634Y-130544306D01*
X207450656Y-130433806D01*
X207598827Y-130374304D01*
X208035452Y-130151181D01*
X208356956Y-129913285D01*
X208606733Y-129622313D01*
X208781550Y-129330347D01*
X209018145Y-128734008D01*
X209094962Y-128136279D01*
X209012425Y-127531720D01*
X208939590Y-127299684D01*
X208751300Y-126778864D01*
X209091557Y-126137855D01*
X209369336Y-125562557D01*
X209610878Y-124961167D01*
X209807640Y-124364206D01*
X209951083Y-123802196D01*
X210032665Y-123305656D01*
X210043846Y-122905109D01*
X210028721Y-122788859D01*
X209927502Y-122583208D01*
X209744829Y-122487119D01*
X209511994Y-122496273D01*
X209260290Y-122606351D01*
X209021010Y-122813036D01*
X208922248Y-122941565D01*
X208644400Y-123421133D01*
X208379970Y-123995391D01*
X208156062Y-124599364D01*
X208006725Y-125136278D01*
X207929639Y-125474691D01*
X207871906Y-125686175D01*
X207819085Y-125800448D01*
X207756734Y-125847230D01*
X207670413Y-125856238D01*
X207656903Y-125856186D01*
X207453715Y-125834269D01*
X207341445Y-125752786D01*
X207306442Y-125582809D01*
X207335057Y-125295413D01*
X207349901Y-125205598D01*
X207443542Y-124490929D01*
X207487339Y-123756027D01*
X207479661Y-123059334D01*
X207425390Y-122500139D01*
X207364883Y-122152308D01*
X207303322Y-121925078D01*
X207226121Y-121779367D01*
X207118693Y-121676095D01*
X207117484Y-121675195D01*
X206939151Y-121581798D01*
X206794667Y-121568798D01*
X206793382Y-121569279D01*
X206661039Y-121677830D01*
X206498628Y-121890734D01*
X206334394Y-122163078D01*
X206196579Y-122449948D01*
X206137955Y-122611555D01*
X206099124Y-122827135D01*
X206069643Y-123163338D01*
X206050088Y-123580772D01*
X206041032Y-124040050D01*
X206043049Y-124501781D01*
X206056714Y-124926575D01*
X206082602Y-125275043D01*
X206097446Y-125390391D01*
X206155144Y-125764694D01*
X205710312Y-126015742D01*
X205261890Y-126309237D01*
X204860250Y-126647972D01*
X204543701Y-126996523D01*
X204387081Y-127239315D01*
X204242917Y-127656575D01*
X204177913Y-128150642D01*
X202108727Y-128150642D01*
X202156951Y-128131365D01*
X202242862Y-128086199D01*
X202441819Y-127983822D01*
X202588213Y-127956451D01*
X202761503Y-127999292D01*
X202887558Y-128047309D01*
X203118918Y-128120619D01*
X203258819Y-128103171D01*
X203329470Y-127974153D01*
X203353077Y-127712754D01*
X203354293Y-127609931D01*
X203374256Y-127351783D01*
X203445004Y-127196475D01*
X203529064Y-127123876D01*
X203702608Y-127008647D01*
X203536553Y-126773566D01*
X203408164Y-126527864D01*
X203321427Y-126249775D01*
X203318059Y-126231315D01*
X203269939Y-126033882D01*
X203203168Y-125965601D01*
X203130286Y-125979101D01*
X202839313Y-126090995D01*
X202645151Y-126141224D01*
X202498929Y-126134891D01*
X202351777Y-126077099D01*
X202324536Y-126063239D01*
X202124594Y-125976395D01*
X201972159Y-125937671D01*
X201966636Y-125937539D01*
X201857746Y-126010914D01*
X201781916Y-126206087D01*
X201754090Y-126470523D01*
X201680909Y-126644770D01*
X201500563Y-126802767D01*
X201248129Y-126962597D01*
X200962273Y-126962597D01*
X201014758Y-126887605D01*
X201171985Y-126765687D01*
X201232716Y-126727866D01*
X201383628Y-126628168D01*
X201481495Y-126518393D01*
X201547206Y-126356125D01*
X201601651Y-126098950D01*
X201631821Y-125917508D01*
X201676158Y-125728814D01*
X201753396Y-125641790D01*
X201896660Y-125648671D01*
X202139075Y-125741692D01*
X202222472Y-125779047D01*
X202478848Y-125887793D01*
X202656265Y-125925810D01*
X202819629Y-125892959D01*
X203033847Y-125789105D01*
X203055943Y-125777287D01*
X203247074Y-125678456D01*
X203369169Y-125622071D01*
X203386375Y-125617035D01*
X203418588Y-125687205D01*
X203459319Y-125861389D01*
X203469532Y-125917508D01*
X203531992Y-126260347D01*
X203585524Y-126479382D01*
X203644346Y-126609380D01*
X203722674Y-126685109D01*
X203800149Y-126726015D01*
X203962373Y-126843736D01*
X203970600Y-126983888D01*
X203824174Y-127153648D01*
X203756151Y-127206889D01*
X203580213Y-127380793D01*
X203518236Y-127589416D01*
X203515772Y-127662651D01*
X203530145Y-127850473D01*
X203598725Y-127927018D01*
X203736119Y-127940583D01*
X203862294Y-127925730D01*
X203948649Y-127857521D01*
X204022178Y-127700246D01*
X204096542Y-127463786D01*
X204306984Y-127007322D01*
X204661896Y-126555496D01*
X205146007Y-126125680D01*
X205474174Y-125897019D01*
X205883474Y-125635193D01*
X205809504Y-124764757D01*
X205779009Y-123848452D01*
X205852806Y-123048677D01*
X206030512Y-122367225D01*
X206311742Y-121805884D01*
X206493812Y-121567675D01*
X206669810Y-121381719D01*
X206806200Y-121306902D01*
X206963820Y-121329493D01*
G37*
D14*
%TO.C,10VD1*%
X92667500Y-111390000D02*
X92667500Y-123610000D01*
X92667500Y-114000000D02*
X92667500Y-116000000D01*
X92667500Y-116000000D02*
X94167500Y-115750000D01*
X92667500Y-119000000D02*
X92667500Y-121000000D01*
X92667500Y-121000000D02*
X94167500Y-120750000D01*
X92667500Y-123610000D02*
X104887500Y-123610000D01*
X94167500Y-111390000D02*
X95967500Y-111390000D01*
X94167500Y-114250000D02*
X92667500Y-114000000D01*
X94167500Y-115750000D02*
X94167500Y-114250000D01*
X94167500Y-119250000D02*
X92667500Y-119000000D01*
X94167500Y-120750000D02*
X94167500Y-119250000D01*
X94167500Y-123610000D02*
X94167500Y-111390000D01*
X95967500Y-111390000D02*
X95967500Y-123610000D01*
X95967500Y-123610000D02*
X94167500Y-123610000D01*
X104887500Y-111390000D02*
X92667500Y-111390000D01*
X104887500Y-123610000D02*
X104887500Y-111390000D01*
X105087500Y-115000000D02*
X105687500Y-114700000D01*
X105687500Y-114700000D02*
X105687500Y-115300000D01*
X105687500Y-115300000D02*
X105087500Y-115000000D01*
%TO.C,IC1*%
X158425000Y-129440000D02*
X156475000Y-129440000D01*
X158425000Y-129440000D02*
X160375000Y-129440000D01*
X158425000Y-134560000D02*
X156475000Y-134560000D01*
X158425000Y-134560000D02*
X160375000Y-134560000D01*
X155725000Y-129535000D02*
X155485000Y-129205000D01*
X155965000Y-129205000D01*
X155725000Y-129535000D01*
G36*
X155725000Y-129535000D02*
G01*
X155485000Y-129205000D01*
X155965000Y-129205000D01*
X155725000Y-129535000D01*
G37*
%TO.C,C4*%
X167580000Y-130480000D02*
X168301000Y-130480000D01*
X167580000Y-134520000D02*
X167580000Y-130480000D01*
X168301000Y-134520000D02*
X167580000Y-134520000D01*
X169699000Y-130480000D02*
X170420000Y-130480000D01*
X170420000Y-130480000D02*
X170420000Y-134520000D01*
X170420000Y-134520000D02*
X169699000Y-134520000D01*
%TO.C,C5*%
X126480000Y-82580000D02*
X130520000Y-82580000D01*
X126480000Y-83301000D02*
X126480000Y-82580000D01*
X126480000Y-85420000D02*
X126480000Y-84699000D01*
X130520000Y-82580000D02*
X130520000Y-83301000D01*
X130520000Y-84699000D02*
X130520000Y-85420000D01*
X130520000Y-85420000D02*
X126480000Y-85420000D01*
%TO.C,Vin1*%
X92167500Y-89390000D02*
X92167500Y-101610000D01*
X92167500Y-92000000D02*
X92167500Y-94000000D01*
X92167500Y-94000000D02*
X93667500Y-93750000D01*
X92167500Y-97000000D02*
X92167500Y-99000000D01*
X92167500Y-99000000D02*
X93667500Y-98750000D01*
X92167500Y-101610000D02*
X104387500Y-101610000D01*
X93667500Y-89390000D02*
X95467500Y-89390000D01*
X93667500Y-92250000D02*
X92167500Y-92000000D01*
X93667500Y-93750000D02*
X93667500Y-92250000D01*
X93667500Y-97250000D02*
X92167500Y-97000000D01*
X93667500Y-98750000D02*
X93667500Y-97250000D01*
X93667500Y-101610000D02*
X93667500Y-89390000D01*
X95467500Y-89390000D02*
X95467500Y-101610000D01*
X95467500Y-101610000D02*
X93667500Y-101610000D01*
X104387500Y-89390000D02*
X92167500Y-89390000D01*
X104387500Y-101610000D02*
X104387500Y-89390000D01*
X104587500Y-93000000D02*
X105187500Y-92700000D01*
X105187500Y-92700000D02*
X105187500Y-93300000D01*
X105187500Y-93300000D02*
X104587500Y-93000000D01*
%TO.C,Q1*%
X150690000Y-79890000D02*
X155310000Y-79890000D01*
X150690000Y-90110000D02*
X150690000Y-79890000D01*
X153930000Y-79890000D02*
X153930000Y-90110000D01*
X155310000Y-79890000D02*
X155310000Y-90110000D01*
X155310000Y-83150000D02*
X153930000Y-83150000D01*
X155310000Y-86850000D02*
X153930000Y-86850000D01*
X155310000Y-90110000D02*
X150690000Y-90110000D01*
%TO.C,GND_T7*%
X214750000Y-118000000D02*
G75*
G02*
X211250000Y-118000000I-1750000J0D01*
G01*
X211250000Y-118000000D02*
G75*
G02*
X214750000Y-118000000I1750000J0D01*
G01*
%TO.C,Vin_T1*%
X117750000Y-68000000D02*
G75*
G02*
X114250000Y-68000000I-1750000J0D01*
G01*
X114250000Y-68000000D02*
G75*
G02*
X117750000Y-68000000I1750000J0D01*
G01*
%TO.C,GND_T6*%
X214250000Y-94500000D02*
G75*
G02*
X210750000Y-94500000I-1750000J0D01*
G01*
X210750000Y-94500000D02*
G75*
G02*
X214250000Y-94500000I1750000J0D01*
G01*
%TO.C,C2*%
X179857500Y-95980000D02*
X180578500Y-95980000D01*
X179857500Y-100020000D02*
X179857500Y-95980000D01*
X180578500Y-100020000D02*
X179857500Y-100020000D01*
X181976500Y-95980000D02*
X182697500Y-95980000D01*
X182697500Y-95980000D02*
X182697500Y-100020000D01*
X182697500Y-100020000D02*
X181976500Y-100020000D01*
%TO.C,C7*%
X171580000Y-81730000D02*
X172301000Y-81730000D01*
X171580000Y-85770000D02*
X171580000Y-81730000D01*
X172301000Y-85770000D02*
X171580000Y-85770000D01*
X173699000Y-81730000D02*
X174420000Y-81730000D01*
X174420000Y-81730000D02*
X174420000Y-85770000D01*
X174420000Y-85770000D02*
X173699000Y-85770000D01*
%TO.C,10V_T2*%
X136250000Y-68000000D02*
G75*
G02*
X132750000Y-68000000I-1750000J0D01*
G01*
X132750000Y-68000000D02*
G75*
G02*
X136250000Y-68000000I1750000J0D01*
G01*
%TO.C,GND_T5*%
X203750000Y-68000000D02*
G75*
G02*
X200250000Y-68000000I-1750000J0D01*
G01*
X200250000Y-68000000D02*
G75*
G02*
X203750000Y-68000000I1750000J0D01*
G01*
%TO.C,R4*%
X137500000Y-78540000D02*
X137500000Y-79310000D01*
X137500000Y-86620000D02*
X137500000Y-85850000D01*
X136130000Y-85850000D02*
X138870000Y-85850000D01*
X138870000Y-79310000D01*
X136130000Y-79310000D01*
X136130000Y-85850000D01*
%TO.C,LOW_Vds_T5*%
X196250000Y-68000000D02*
G75*
G02*
X192750000Y-68000000I-1750000J0D01*
G01*
X192750000Y-68000000D02*
G75*
G02*
X196250000Y-68000000I1750000J0D01*
G01*
%TO.C,Vout1*%
X187812500Y-102200000D02*
X188412500Y-102500000D01*
X187812500Y-102800000D02*
X187812500Y-102200000D01*
X188412500Y-102500000D02*
X187812500Y-102800000D01*
X188612500Y-93890000D02*
X188612500Y-106110000D01*
X188612500Y-106110000D02*
X200832500Y-106110000D01*
X197532500Y-93890000D02*
X199332500Y-93890000D01*
X197532500Y-106110000D02*
X197532500Y-93890000D01*
X199332500Y-93890000D02*
X199332500Y-106110000D01*
X199332500Y-96750000D02*
X199332500Y-98250000D01*
X199332500Y-98250000D02*
X200832500Y-98500000D01*
X199332500Y-101750000D02*
X199332500Y-103250000D01*
X199332500Y-103250000D02*
X200832500Y-103500000D01*
X199332500Y-106110000D02*
X197532500Y-106110000D01*
X200832500Y-93890000D02*
X188612500Y-93890000D01*
X200832500Y-96500000D02*
X199332500Y-96750000D01*
X200832500Y-98500000D02*
X200832500Y-96500000D01*
X200832500Y-101500000D02*
X199332500Y-101750000D01*
X200832500Y-103500000D02*
X200832500Y-101500000D01*
X200832500Y-106110000D02*
X200832500Y-93890000D01*
%TO.C,OPAMP_OUT_T8*%
X121250000Y-139000000D02*
G75*
G02*
X117750000Y-139000000I-1750000J0D01*
G01*
X117750000Y-139000000D02*
G75*
G02*
X121250000Y-139000000I1750000J0D01*
G01*
%TO.C,GND_T8*%
X129750000Y-139000000D02*
G75*
G02*
X126250000Y-139000000I-1750000J0D01*
G01*
X126250000Y-139000000D02*
G75*
G02*
X129750000Y-139000000I1750000J0D01*
G01*
%TO.C,C1*%
X143080000Y-87480000D02*
X143801000Y-87480000D01*
X143080000Y-91520000D02*
X143080000Y-87480000D01*
X143801000Y-91520000D02*
X143080000Y-91520000D01*
X145199000Y-87480000D02*
X145920000Y-87480000D01*
X145920000Y-87480000D02*
X145920000Y-91520000D01*
X145920000Y-91520000D02*
X145199000Y-91520000D01*
%TO.C,GND_T3*%
X164250000Y-68000000D02*
G75*
G02*
X160750000Y-68000000I-1750000J0D01*
G01*
X160750000Y-68000000D02*
G75*
G02*
X164250000Y-68000000I1750000J0D01*
G01*
%TO.C,V_1l_T7*%
X214750000Y-111000000D02*
G75*
G02*
X211250000Y-111000000I-1750000J0D01*
G01*
X211250000Y-111000000D02*
G75*
G02*
X214750000Y-111000000I1750000J0D01*
G01*
D10*
%TO.C,L1*%
X162700000Y-102000000D02*
X162700000Y-102000000D01*
X162800000Y-102000000D02*
X162800000Y-102000000D01*
D15*
X163000000Y-100000000D02*
X163000000Y-100000000D01*
X174000000Y-100000000D02*
X174000000Y-100000000D01*
D10*
X162700000Y-102000000D02*
G75*
G02*
X162800000Y-102000000I50000J0D01*
G01*
X162800000Y-102000000D02*
G75*
G02*
X162700000Y-102000000I-50000J0D01*
G01*
D15*
X163000000Y-100000000D02*
G75*
G02*
X174000000Y-100000000I5500000J0D01*
G01*
X174000000Y-100000000D02*
G75*
G02*
X163000000Y-100000000I-5500000J0D01*
G01*
D14*
%TO.C,GND_T2*%
X143750000Y-68000000D02*
G75*
G02*
X140250000Y-68000000I-1750000J0D01*
G01*
X140250000Y-68000000D02*
G75*
G02*
X143750000Y-68000000I1750000J0D01*
G01*
%TO.C,PWM1*%
X90420000Y-61880000D02*
X105420000Y-61880000D01*
X90420000Y-76880000D02*
X90420000Y-61880000D01*
X97920000Y-62080000D02*
X96920000Y-63080000D01*
X97920000Y-62080000D02*
X98920000Y-63080000D01*
X105420000Y-61880000D02*
X105420000Y-76880000D01*
X105420000Y-76880000D02*
X90420000Y-76880000D01*
%TO.C,R1*%
X144460000Y-117000000D02*
X148140000Y-117000000D01*
X172060000Y-117000000D02*
X168380000Y-117000000D01*
X148140000Y-112380000D02*
X168380000Y-112380000D01*
X168380000Y-121620000D01*
X148140000Y-121620000D01*
X148140000Y-112380000D01*
%TO.C,GND_T1*%
X124750000Y-68000000D02*
G75*
G02*
X121250000Y-68000000I-1750000J0D01*
G01*
X121250000Y-68000000D02*
G75*
G02*
X124750000Y-68000000I1750000J0D01*
G01*
%TO.C,R3*%
X139645000Y-128500000D02*
X140415000Y-128500000D01*
X147725000Y-128500000D02*
X146955000Y-128500000D01*
X140415000Y-127130000D02*
X146955000Y-127130000D01*
X146955000Y-129870000D01*
X140415000Y-129870000D01*
X140415000Y-127130000D01*
D13*
%TO.C,G\u002A\u002A\u002A*%
G36*
X124142825Y-120174114D02*
G01*
X124208366Y-120242274D01*
X124243335Y-120348208D01*
X124237715Y-120484840D01*
X124228246Y-120524966D01*
X124173069Y-120646845D01*
X124094787Y-120720290D01*
X124004785Y-120740324D01*
X123914449Y-120701968D01*
X123885674Y-120674732D01*
X123825638Y-120565819D01*
X123808158Y-120436368D01*
X123834779Y-120314111D01*
X123862965Y-120267022D01*
X123960106Y-120179413D01*
X124056732Y-120150802D01*
X124142825Y-120174114D01*
G37*
G36*
X127062130Y-120856640D02*
G01*
X127107096Y-120960897D01*
X127116666Y-121063998D01*
X127107383Y-121171261D01*
X127070931Y-121244845D01*
X127023141Y-121292508D01*
X126921182Y-121358429D01*
X126830692Y-121364000D01*
X126754443Y-121323751D01*
X126706247Y-121253327D01*
X126676980Y-121140368D01*
X126675788Y-121130595D01*
X126670615Y-121033363D01*
X126691164Y-120969964D01*
X126749444Y-120908903D01*
X126765569Y-120895139D01*
X126885061Y-120820728D01*
X126986016Y-120808906D01*
X127062130Y-120856640D01*
G37*
G36*
X117061796Y-117733488D02*
G01*
X117100880Y-117752098D01*
X117200080Y-117836593D01*
X117276634Y-117964103D01*
X117320323Y-118112058D01*
X117323222Y-118243115D01*
X117281214Y-118388216D01*
X117201394Y-118478346D01*
X117083708Y-118513549D01*
X117000000Y-118509105D01*
X116881525Y-118460421D01*
X116778827Y-118361581D01*
X116703729Y-118229066D01*
X116668053Y-118079355D01*
X116666666Y-118044432D01*
X116691685Y-117898790D01*
X116768094Y-117795100D01*
X116881395Y-117735594D01*
X116977945Y-117715110D01*
X117061796Y-117733488D01*
G37*
G36*
X122834957Y-116877247D02*
G01*
X122911520Y-116929062D01*
X122987787Y-117035247D01*
X123034358Y-117169972D01*
X123049343Y-117312849D01*
X123030854Y-117443488D01*
X122977002Y-117541497D01*
X122968986Y-117549277D01*
X122861378Y-117605971D01*
X122729150Y-117617855D01*
X122614031Y-117588762D01*
X122510628Y-117508753D01*
X122439228Y-117387706D01*
X122403911Y-117245203D01*
X122408761Y-117100824D01*
X122457860Y-116974150D01*
X122479795Y-116944866D01*
X122583468Y-116870736D01*
X122709067Y-116847932D01*
X122834957Y-116877247D01*
G37*
G36*
X125405909Y-121591579D02*
G01*
X125469150Y-121638288D01*
X125498470Y-121666789D01*
X125576139Y-121781274D01*
X125604396Y-121907932D01*
X125582012Y-122027866D01*
X125527047Y-122106058D01*
X125434752Y-122154043D01*
X125308266Y-122172872D01*
X125174416Y-122160284D01*
X125111899Y-122141017D01*
X125012990Y-122067398D01*
X124950222Y-121950442D01*
X124933333Y-121838088D01*
X124956324Y-121719422D01*
X125028374Y-121638775D01*
X125154095Y-121592171D01*
X125231465Y-121581046D01*
X125336611Y-121575687D01*
X125405909Y-121591579D01*
G37*
G36*
X120893084Y-119152484D02*
G01*
X120940275Y-119210126D01*
X120942442Y-119303574D01*
X120892050Y-119427248D01*
X120861242Y-119475717D01*
X120818875Y-119542305D01*
X120800056Y-119582359D01*
X120800000Y-119583260D01*
X120829183Y-119601996D01*
X120904669Y-119630850D01*
X120982717Y-119655396D01*
X121086546Y-119690567D01*
X121162516Y-119725444D01*
X121188058Y-119745238D01*
X121183472Y-119792629D01*
X121133616Y-119848278D01*
X121056403Y-119899147D01*
X120969746Y-119932198D01*
X120923141Y-119938065D01*
X120837047Y-119933123D01*
X120711623Y-119919924D01*
X120573285Y-119901269D01*
X120566666Y-119900269D01*
X120439093Y-119882463D01*
X120347945Y-119878332D01*
X120267321Y-119891355D01*
X120171320Y-119925012D01*
X120071509Y-119966802D01*
X119885672Y-120036914D01*
X119747392Y-120067402D01*
X119651151Y-120059032D01*
X119606666Y-120031301D01*
X119568758Y-119955360D01*
X119595409Y-119871357D01*
X119670406Y-119794633D01*
X119774146Y-119713338D01*
X119628739Y-119633171D01*
X119529974Y-119560818D01*
X119474704Y-119482815D01*
X119468673Y-119411591D01*
X119505416Y-119366375D01*
X119590456Y-119341890D01*
X119714056Y-119341326D01*
X119852981Y-119363557D01*
X119933333Y-119387122D01*
X120075693Y-119428825D01*
X120193780Y-119437755D01*
X120305967Y-119409876D01*
X120430625Y-119341154D01*
X120556728Y-119250201D01*
X120693776Y-119166941D01*
X120808406Y-119136229D01*
X120893084Y-119152484D01*
G37*
G36*
X120197315Y-103157790D02*
G01*
X120409568Y-103199275D01*
X120611075Y-103287430D01*
X120811978Y-103428000D01*
X121019262Y-103623416D01*
X121347915Y-104015315D01*
X121636493Y-104459671D01*
X121884263Y-104955047D01*
X122090488Y-105500005D01*
X122229588Y-105988992D01*
X122288436Y-106236269D01*
X122335983Y-106458797D01*
X122373385Y-106668329D01*
X122401802Y-106876621D01*
X122422391Y-107095428D01*
X122436311Y-107336505D01*
X122444721Y-107611608D01*
X122448778Y-107932491D01*
X122449666Y-108222470D01*
X122449591Y-108516686D01*
X122448748Y-108753934D01*
X122446517Y-108944001D01*
X122442281Y-109096674D01*
X122435422Y-109221740D01*
X122425320Y-109328984D01*
X122411358Y-109428194D01*
X122392917Y-109529156D01*
X122369379Y-109641657D01*
X122356163Y-109702286D01*
X122310542Y-109899402D01*
X122252617Y-110133297D01*
X122189308Y-110376832D01*
X122127533Y-110602869D01*
X122117897Y-110636846D01*
X122069954Y-110810728D01*
X122031515Y-110961653D01*
X122005229Y-111078228D01*
X121993749Y-111149057D01*
X121995067Y-111164853D01*
X122031149Y-111189384D01*
X122112622Y-111239300D01*
X122226907Y-111307025D01*
X122344224Y-111375106D01*
X122493836Y-111462096D01*
X122619152Y-111538270D01*
X122731179Y-111611834D01*
X122840926Y-111690995D01*
X122959400Y-111783960D01*
X123097607Y-111898935D01*
X123266557Y-112044127D01*
X123415445Y-112173755D01*
X123615537Y-112351887D01*
X123774411Y-112502343D01*
X123904056Y-112637669D01*
X124016464Y-112770409D01*
X124123623Y-112913106D01*
X124128036Y-112919292D01*
X124506934Y-113496805D01*
X124820189Y-114073805D01*
X125068762Y-114652568D01*
X125253619Y-115235366D01*
X125375723Y-115824473D01*
X125384334Y-115882523D01*
X125421425Y-116225095D01*
X125428517Y-116546004D01*
X125404924Y-116871945D01*
X125349959Y-117229613D01*
X125349683Y-117231106D01*
X125310137Y-117441083D01*
X125283345Y-117594568D01*
X125272687Y-117701159D01*
X125281540Y-117770457D01*
X125313283Y-117812059D01*
X125371297Y-117835564D01*
X125458958Y-117850571D01*
X125573077Y-117865742D01*
X126044328Y-117949330D01*
X126479980Y-118060487D01*
X126873846Y-118196846D01*
X127219738Y-118356045D01*
X127511468Y-118535718D01*
X127677351Y-118669847D01*
X127775582Y-118751608D01*
X127863913Y-118811021D01*
X127924483Y-118836216D01*
X127927909Y-118836399D01*
X127995901Y-118821164D01*
X128093752Y-118782269D01*
X128153200Y-118752956D01*
X128260255Y-118704635D01*
X128368976Y-118678908D01*
X128507742Y-118669863D01*
X128553714Y-118669513D01*
X128827178Y-118695995D01*
X129067930Y-118777749D01*
X129285300Y-118918243D01*
X129332577Y-118958877D01*
X129507402Y-119146571D01*
X129634135Y-119355569D01*
X129715691Y-119594481D01*
X129754985Y-119871918D01*
X129754935Y-120196492D01*
X129754478Y-120204862D01*
X129708545Y-120603691D01*
X129618002Y-120955166D01*
X129483218Y-121258195D01*
X129316027Y-121498461D01*
X129184670Y-121628806D01*
X129033918Y-121729037D01*
X128848747Y-121806887D01*
X128614129Y-121870093D01*
X128579599Y-121877556D01*
X128435175Y-121910783D01*
X128312738Y-121943946D01*
X128228837Y-121972299D01*
X128203257Y-121985520D01*
X128159901Y-122031243D01*
X128088140Y-122117496D01*
X127998730Y-122230785D01*
X127902427Y-122357616D01*
X127850908Y-122427584D01*
X127844024Y-122478789D01*
X127873089Y-122570678D01*
X127925505Y-122681943D01*
X128055544Y-122991996D01*
X128137284Y-123322845D01*
X128173774Y-123688200D01*
X128176370Y-123809592D01*
X128168752Y-124077494D01*
X128139643Y-124302462D01*
X128084194Y-124506207D01*
X127997555Y-124710436D01*
X127957695Y-124788447D01*
X127854638Y-124982939D01*
X128015173Y-125120341D01*
X128173152Y-125291521D01*
X128268333Y-125479821D01*
X128299267Y-125673668D01*
X128270797Y-125860593D01*
X128182407Y-126027756D01*
X128032621Y-126176806D01*
X127819958Y-126309394D01*
X127666639Y-126379643D01*
X127522328Y-126441076D01*
X127425477Y-126490774D01*
X127361361Y-126541069D01*
X127315257Y-126604294D01*
X127272441Y-126692783D01*
X127260850Y-126719544D01*
X127151226Y-126899048D01*
X126983746Y-127071208D01*
X126767218Y-127229492D01*
X126510449Y-127367368D01*
X126250000Y-127469344D01*
X126092541Y-127515638D01*
X125948417Y-127542929D01*
X125788175Y-127555570D01*
X125650000Y-127558035D01*
X125441098Y-127552123D01*
X125278477Y-127529125D01*
X125142692Y-127483137D01*
X125014298Y-127408255D01*
X124919236Y-127336157D01*
X124833926Y-127268639D01*
X124766046Y-127217750D01*
X124743089Y-127202267D01*
X124697378Y-127205991D01*
X124608409Y-127235790D01*
X124491597Y-127286047D01*
X124426866Y-127317447D01*
X124216583Y-127416588D01*
X123968552Y-127522826D01*
X123709200Y-127625178D01*
X123527267Y-127691353D01*
X123501951Y-127707962D01*
X123499061Y-127741738D01*
X123521648Y-127805712D01*
X123572760Y-127912915D01*
X123584684Y-127936733D01*
X123698153Y-128212665D01*
X123754728Y-128483824D01*
X123759312Y-128765196D01*
X123716967Y-129026692D01*
X123622967Y-129253110D01*
X123471897Y-129457467D01*
X123470490Y-129458996D01*
X123387676Y-129539804D01*
X123301302Y-129599358D01*
X123196835Y-129643233D01*
X123059744Y-129676999D01*
X122875494Y-129706228D01*
X122800000Y-129716063D01*
X122554821Y-129741876D01*
X122254099Y-129765349D01*
X121908921Y-129786199D01*
X121530380Y-129804144D01*
X121129565Y-129818902D01*
X120717567Y-129830188D01*
X120305476Y-129837723D01*
X119904382Y-129841222D01*
X119525375Y-129840403D01*
X119179546Y-129834984D01*
X118877986Y-129824682D01*
X118766666Y-129818800D01*
X118367395Y-129790500D01*
X118000948Y-129755718D01*
X117673333Y-129715365D01*
X117390558Y-129670353D01*
X117158631Y-129621593D01*
X116983560Y-129569996D01*
X116905081Y-129536402D01*
X116756991Y-129423707D01*
X116640924Y-129261800D01*
X116558928Y-129061098D01*
X116513048Y-128832013D01*
X116506059Y-128608274D01*
X116908276Y-128608274D01*
X116917460Y-128816882D01*
X116964336Y-128971500D01*
X117043399Y-129092745D01*
X117162943Y-129188562D01*
X117330641Y-129263148D01*
X117554164Y-129320698D01*
X117627648Y-129334305D01*
X117858253Y-129368182D01*
X118114989Y-129395728D01*
X118387137Y-129416738D01*
X118663978Y-129431003D01*
X118934793Y-129438318D01*
X119188863Y-129438475D01*
X119415468Y-129431267D01*
X119603890Y-129416488D01*
X119743408Y-129393931D01*
X119800000Y-129376229D01*
X119931264Y-129298768D01*
X120016358Y-129191209D01*
X120063167Y-129066491D01*
X120082350Y-128953854D01*
X120094154Y-128797866D01*
X120096644Y-128696475D01*
X120504288Y-128696475D01*
X120508607Y-128839030D01*
X120511484Y-128875799D01*
X120536566Y-129042369D01*
X120581214Y-129157869D01*
X120654663Y-129237179D01*
X120766150Y-129295178D01*
X120773615Y-129298062D01*
X120897355Y-129337328D01*
X121041910Y-129366849D01*
X121216363Y-129387387D01*
X121429797Y-129399709D01*
X121691295Y-129404577D01*
X122009941Y-129402757D01*
X122016666Y-129402662D01*
X122255562Y-129398397D01*
X122439831Y-129392588D01*
X122581512Y-129384132D01*
X122692642Y-129371925D01*
X122785260Y-129354866D01*
X122871404Y-129331849D01*
X122905208Y-129321226D01*
X123110634Y-129233489D01*
X123256297Y-129121593D01*
X123345643Y-128982603D01*
X123363144Y-128931057D01*
X123398111Y-128687123D01*
X123368785Y-128450705D01*
X123277406Y-128230643D01*
X123139752Y-128049500D01*
X123019435Y-127943697D01*
X122889788Y-127871368D01*
X122740842Y-127831210D01*
X122562627Y-127821920D01*
X122345175Y-127842195D01*
X122078514Y-127890732D01*
X122020645Y-127903222D01*
X121906502Y-127922064D01*
X121742721Y-127940738D01*
X121546315Y-127957708D01*
X121334298Y-127971441D01*
X121189703Y-127978155D01*
X120963121Y-127988062D01*
X120795616Y-127998575D01*
X120679598Y-128010542D01*
X120607475Y-128024809D01*
X120571658Y-128042226D01*
X120567170Y-128047673D01*
X120547148Y-128112109D01*
X120529704Y-128226245D01*
X120515982Y-128373044D01*
X120507128Y-128535466D01*
X120504288Y-128696475D01*
X120096644Y-128696475D01*
X120098511Y-128620423D01*
X120095349Y-128443417D01*
X120084600Y-128288743D01*
X120066193Y-128178293D01*
X120066004Y-128177607D01*
X120032380Y-128056397D01*
X119691190Y-128036380D01*
X119526229Y-128027399D01*
X119319430Y-128017171D01*
X119095577Y-128006871D01*
X118879454Y-127997675D01*
X118850000Y-127996494D01*
X118626717Y-127985275D01*
X118382158Y-127969155D01*
X118145031Y-127950237D01*
X117944048Y-127930620D01*
X117933333Y-127929417D01*
X117715819Y-127905239D01*
X117553608Y-127889880D01*
X117435775Y-127884531D01*
X117351391Y-127890384D01*
X117289530Y-127908632D01*
X117239267Y-127940466D01*
X117189673Y-127987078D01*
X117164587Y-128013273D01*
X117035322Y-128189804D01*
X116948724Y-128393693D01*
X116908276Y-128608274D01*
X116506059Y-128608274D01*
X116505331Y-128584960D01*
X116537823Y-128330354D01*
X116612571Y-128078608D01*
X116616620Y-128068366D01*
X116659175Y-127948498D01*
X116680864Y-127858236D01*
X116678028Y-127812887D01*
X116677757Y-127812603D01*
X116637699Y-127795165D01*
X116543602Y-127764075D01*
X116405946Y-127722490D01*
X116235209Y-127673570D01*
X116041870Y-127620473D01*
X116028114Y-127616776D01*
X115743245Y-127539454D01*
X115511569Y-127474035D01*
X115321539Y-127416491D01*
X115161611Y-127362794D01*
X115020235Y-127308917D01*
X114885867Y-127250830D01*
X114746959Y-127184505D01*
X114651890Y-127136663D01*
X114369254Y-126977735D01*
X114098919Y-126797775D01*
X113850588Y-126605062D01*
X113633965Y-126407875D01*
X113458755Y-126214490D01*
X113334660Y-126033188D01*
X113315675Y-125996754D01*
X113240842Y-125797049D01*
X113192861Y-125553966D01*
X113187354Y-125509721D01*
X113153229Y-125215471D01*
X112951614Y-125142970D01*
X112648029Y-125009767D01*
X112398938Y-124845672D01*
X112196848Y-124644362D01*
X112034266Y-124399517D01*
X112006009Y-124345125D01*
X111892009Y-124047899D01*
X111843430Y-123748520D01*
X111845443Y-123711058D01*
X112277782Y-123711058D01*
X112308969Y-123954596D01*
X112380386Y-124183687D01*
X112489692Y-124386689D01*
X112634550Y-124551966D01*
X112778799Y-124651477D01*
X112886085Y-124697341D01*
X113003595Y-124732774D01*
X113110740Y-124753205D01*
X113186934Y-124754067D01*
X113206276Y-124746347D01*
X113225117Y-124707805D01*
X113256314Y-124620441D01*
X113294512Y-124499787D01*
X113313764Y-124434600D01*
X113355951Y-124272201D01*
X113392053Y-124104015D01*
X113415589Y-123960982D01*
X113418637Y-123933943D01*
X113425577Y-123857548D01*
X113426878Y-123793574D01*
X113418435Y-123732522D01*
X113396142Y-123664895D01*
X113355896Y-123581195D01*
X113293590Y-123471922D01*
X113205120Y-123327580D01*
X113086380Y-123138669D01*
X113050000Y-123081012D01*
X112960243Y-122943128D01*
X112880270Y-122828347D01*
X112817900Y-122747326D01*
X112780949Y-122710720D01*
X112777557Y-122709668D01*
X112718474Y-122732691D01*
X112636648Y-122795233D01*
X112548186Y-122882566D01*
X112469194Y-122979961D01*
X112448984Y-123010151D01*
X112345451Y-123227196D01*
X112289163Y-123464712D01*
X112277782Y-123711058D01*
X111845443Y-123711058D01*
X111859381Y-123451717D01*
X111938972Y-123162217D01*
X112081311Y-122884747D01*
X112285507Y-122624036D01*
X112341043Y-122567024D01*
X112430929Y-122477666D01*
X112496081Y-122406136D01*
X112542233Y-122338666D01*
X112575118Y-122261486D01*
X112600468Y-122160828D01*
X112624017Y-122022925D01*
X112629033Y-121988443D01*
X113033266Y-121988443D01*
X113042964Y-122132918D01*
X113097921Y-122311976D01*
X113181384Y-122496840D01*
X113253971Y-122633418D01*
X113326038Y-122754467D01*
X113386654Y-122842211D01*
X113410400Y-122869138D01*
X113491363Y-122945299D01*
X113593117Y-122843412D01*
X113699881Y-122766214D01*
X113804844Y-122742829D01*
X113894535Y-122775639D01*
X113908000Y-122787680D01*
X113928883Y-122830974D01*
X113937555Y-122910280D01*
X113933505Y-123030304D01*
X113916224Y-123195747D01*
X113885202Y-123411314D01*
X113839930Y-123681709D01*
X113779897Y-124011635D01*
X113769278Y-124068196D01*
X113704610Y-124414558D01*
X113652486Y-124702405D01*
X113612106Y-124938627D01*
X113582672Y-125130111D01*
X113563385Y-125283748D01*
X113553447Y-125406427D01*
X113552059Y-125505035D01*
X113558422Y-125586464D01*
X113571739Y-125657600D01*
X113581018Y-125692367D01*
X113667068Y-125879798D01*
X113816173Y-126071953D01*
X114025145Y-126266038D01*
X114290796Y-126459257D01*
X114609940Y-126648816D01*
X114763162Y-126728676D01*
X115017711Y-126846727D01*
X115294900Y-126955794D01*
X115600566Y-127057323D01*
X115940545Y-127152760D01*
X116320671Y-127243550D01*
X116746781Y-127331138D01*
X117224712Y-127416969D01*
X117760297Y-127502490D01*
X118075179Y-127548999D01*
X118218287Y-127568267D01*
X118353629Y-127582878D01*
X118492563Y-127593218D01*
X118646446Y-127599674D01*
X118826636Y-127602634D01*
X119044492Y-127602485D01*
X119311370Y-127599614D01*
X119483333Y-127597012D01*
X119789681Y-127591290D01*
X120127564Y-127583654D01*
X120475754Y-127574674D01*
X120813023Y-127564917D01*
X121118145Y-127554951D01*
X121283333Y-127548859D01*
X121734687Y-127527405D01*
X122130446Y-127499692D01*
X122481519Y-127464118D01*
X122798816Y-127419084D01*
X123093246Y-127362990D01*
X123375717Y-127294236D01*
X123657138Y-127211222D01*
X123716666Y-127191978D01*
X123988165Y-127092867D01*
X124200574Y-126993253D01*
X124351345Y-126894512D01*
X124434336Y-126804140D01*
X124477018Y-126728004D01*
X124499057Y-126676892D01*
X124499875Y-126671682D01*
X124475834Y-126645342D01*
X124412305Y-126655052D01*
X124322863Y-126696450D01*
X124229793Y-126758443D01*
X124060711Y-126876009D01*
X123902810Y-126955900D01*
X123725357Y-127012356D01*
X123638792Y-127032252D01*
X123366543Y-127072661D01*
X123108443Y-127070463D01*
X122855506Y-127031057D01*
X122548171Y-126943290D01*
X122292198Y-126819297D01*
X122080271Y-126654530D01*
X121905072Y-126444443D01*
X121900490Y-126437665D01*
X121783043Y-126208379D01*
X121713607Y-125940110D01*
X121691929Y-125630538D01*
X121698119Y-125545905D01*
X121983333Y-125545905D01*
X121984371Y-125714893D01*
X121989737Y-125835813D01*
X122002810Y-125927346D01*
X122026966Y-126008170D01*
X122065585Y-126096966D01*
X122093326Y-126154165D01*
X122223263Y-126364284D01*
X122387833Y-126529316D01*
X122595314Y-126655317D01*
X122853986Y-126748342D01*
X122933333Y-126768509D01*
X123117619Y-126796528D01*
X123323316Y-126803167D01*
X123527080Y-126789604D01*
X123705566Y-126757020D01*
X123800374Y-126724694D01*
X123989474Y-126608674D01*
X124143720Y-126442688D01*
X124237565Y-126282029D01*
X124833210Y-126282029D01*
X124833396Y-126461170D01*
X124846120Y-126618634D01*
X124863686Y-126706243D01*
X124958108Y-126918141D01*
X125101086Y-127087002D01*
X125287786Y-127209764D01*
X125513375Y-127283369D01*
X125773018Y-127304756D01*
X125807317Y-127303620D01*
X125957850Y-127291719D01*
X126080692Y-127266322D01*
X126206801Y-127219158D01*
X126315259Y-127167944D01*
X126609875Y-126985863D01*
X126864569Y-126754243D01*
X127073166Y-126481038D01*
X127229492Y-126174207D01*
X127245164Y-126122555D01*
X127588418Y-126122555D01*
X127589187Y-126124040D01*
X127636956Y-126131487D01*
X127716389Y-126112116D01*
X127802460Y-126074236D01*
X127862629Y-126033260D01*
X127959931Y-125912878D01*
X128017422Y-125771328D01*
X128035330Y-125623655D01*
X128013888Y-125484906D01*
X127953326Y-125370126D01*
X127853874Y-125294361D01*
X127851282Y-125293260D01*
X127753466Y-125256744D01*
X127698002Y-125256420D01*
X127672700Y-125301672D01*
X127665367Y-125401886D01*
X127664913Y-125436728D01*
X127657550Y-125573328D01*
X127640144Y-125736617D01*
X127619984Y-125870145D01*
X127600633Y-125988666D01*
X127589412Y-126078565D01*
X127588418Y-126122555D01*
X127245164Y-126122555D01*
X127321286Y-125871673D01*
X127358333Y-125578987D01*
X127340172Y-125320166D01*
X127268941Y-125098092D01*
X127146782Y-124915649D01*
X126975835Y-124775719D01*
X126758240Y-124681186D01*
X126496138Y-124634932D01*
X126400000Y-124630751D01*
X126245345Y-124634121D01*
X126122312Y-124653767D01*
X125996524Y-124696526D01*
X125933333Y-124723587D01*
X125730178Y-124827446D01*
X125531576Y-124953234D01*
X125356014Y-125087842D01*
X125221977Y-125218163D01*
X125202234Y-125241984D01*
X125106393Y-125387048D01*
X125011062Y-125572157D01*
X124928166Y-125771585D01*
X124869647Y-125959529D01*
X124845361Y-126106414D01*
X124833210Y-126282029D01*
X124237565Y-126282029D01*
X124253824Y-126254195D01*
X124294382Y-126162222D01*
X124322077Y-126075186D01*
X124340082Y-125975299D01*
X124351572Y-125844771D01*
X124359720Y-125665817D01*
X124359948Y-125659457D01*
X124364387Y-125461777D01*
X124360253Y-125307648D01*
X124345680Y-125174206D01*
X124318800Y-125038587D01*
X124304401Y-124979473D01*
X124220447Y-124697568D01*
X124122804Y-124469688D01*
X124005658Y-124283570D01*
X123933689Y-124197683D01*
X123765221Y-124053933D01*
X123571759Y-123966028D01*
X123557407Y-123963763D01*
X124183119Y-123963763D01*
X124214739Y-124032370D01*
X124238558Y-124073637D01*
X124366065Y-124292576D01*
X124464042Y-124468479D01*
X124538148Y-124615009D01*
X124594038Y-124745832D01*
X124637370Y-124874610D01*
X124673800Y-125015008D01*
X124708985Y-125180688D01*
X124719967Y-125236465D01*
X124741374Y-125296374D01*
X124775887Y-125301930D01*
X124829456Y-125251047D01*
X124882237Y-125179638D01*
X124953614Y-125088850D01*
X125025291Y-125016332D01*
X125048323Y-124998649D01*
X125129798Y-124925154D01*
X125170653Y-124831251D01*
X125172908Y-124705147D01*
X125138583Y-124535053D01*
X125131924Y-124510484D01*
X125088692Y-124345963D01*
X125044890Y-124165989D01*
X125013678Y-124026544D01*
X124973707Y-123839365D01*
X124942454Y-123707871D01*
X124915665Y-123622266D01*
X124889090Y-123572755D01*
X124858479Y-123549544D01*
X124819580Y-123542836D01*
X124803636Y-123542575D01*
X124635123Y-123570171D01*
X124462316Y-123644138D01*
X124309773Y-123751248D01*
X124212872Y-123860772D01*
X124183516Y-123915011D01*
X124183119Y-123963763D01*
X123557407Y-123963763D01*
X123343470Y-123930000D01*
X123266666Y-123928716D01*
X122985385Y-123962499D01*
X122731386Y-124056114D01*
X122507382Y-124207336D01*
X122316087Y-124413939D01*
X122160215Y-124673701D01*
X122064039Y-124914629D01*
X122025665Y-125045239D01*
X122001369Y-125168493D01*
X121988287Y-125306802D01*
X121983553Y-125482576D01*
X121983333Y-125545905D01*
X121698119Y-125545905D01*
X121717761Y-125277342D01*
X121752219Y-125063171D01*
X121811845Y-124746174D01*
X121592035Y-124544493D01*
X121414698Y-124361416D01*
X121294584Y-124185667D01*
X121225271Y-124004692D01*
X121200342Y-123805941D01*
X121200026Y-123778006D01*
X121200126Y-123776280D01*
X121554778Y-123776280D01*
X121565962Y-123957854D01*
X121625082Y-124122756D01*
X121732482Y-124258527D01*
X121776817Y-124293586D01*
X121859130Y-124335451D01*
X121927857Y-124326593D01*
X121996253Y-124262115D01*
X122042097Y-124195563D01*
X122145919Y-124072577D01*
X122313700Y-123930818D01*
X122436512Y-123842603D01*
X122567623Y-123747211D01*
X122683022Y-123653286D01*
X122767839Y-123573484D01*
X122778274Y-123560625D01*
X123133333Y-123560625D01*
X123152701Y-123591306D01*
X123218265Y-123607385D01*
X123308333Y-123611895D01*
X123441352Y-123622445D01*
X123572387Y-123646057D01*
X123616666Y-123658461D01*
X123702426Y-123686477D01*
X123757120Y-123703813D01*
X123764592Y-123705961D01*
X123795886Y-123688567D01*
X123865130Y-123639408D01*
X123958291Y-123568516D01*
X123973486Y-123556608D01*
X124032182Y-123514039D01*
X125295102Y-123514039D01*
X125306411Y-123617617D01*
X125331373Y-123763763D01*
X125370134Y-123961506D01*
X125395426Y-124085933D01*
X125435910Y-124274603D01*
X125468860Y-124404649D01*
X125496633Y-124483460D01*
X125521589Y-124518428D01*
X125534454Y-124521714D01*
X125590080Y-124507880D01*
X125685748Y-124477394D01*
X125783333Y-124443124D01*
X126016146Y-124380752D01*
X126269155Y-124351881D01*
X126528531Y-124354719D01*
X126780449Y-124387475D01*
X127011078Y-124448357D01*
X127206593Y-124535573D01*
X127352317Y-124646443D01*
X127418578Y-124708230D01*
X127468692Y-124742008D01*
X127477300Y-124744152D01*
X127516807Y-124721706D01*
X127581937Y-124664607D01*
X127620715Y-124625326D01*
X127723720Y-124478842D01*
X127793028Y-124290759D01*
X127830395Y-124054523D01*
X127838365Y-123812235D01*
X127824221Y-123577283D01*
X127788665Y-123354251D01*
X127735303Y-123153781D01*
X127667743Y-122986514D01*
X127589593Y-122863093D01*
X127504460Y-122794159D01*
X127491572Y-122789260D01*
X127433751Y-122797201D01*
X127330576Y-122839013D01*
X127191541Y-122910620D01*
X127136428Y-122941813D01*
X126970565Y-123034042D01*
X126825743Y-123103678D01*
X126686118Y-123155093D01*
X126535848Y-123192660D01*
X126359088Y-123220752D01*
X126139996Y-123243742D01*
X126000000Y-123255456D01*
X125796860Y-123274256D01*
X125620154Y-123295779D01*
X125482256Y-123318234D01*
X125395538Y-123339826D01*
X125383483Y-123344793D01*
X125341636Y-123368406D01*
X125312860Y-123398464D01*
X125297300Y-123443998D01*
X125295102Y-123514039D01*
X124032182Y-123514039D01*
X124099571Y-123465166D01*
X124239146Y-123376199D01*
X124376616Y-123298366D01*
X124496383Y-123240329D01*
X124582853Y-123210747D01*
X124600000Y-123208716D01*
X124673013Y-123190514D01*
X124696090Y-123178553D01*
X124697557Y-123155433D01*
X124650600Y-123114969D01*
X124551026Y-123054303D01*
X124394643Y-122970578D01*
X124379423Y-122962732D01*
X124217159Y-122875487D01*
X124057616Y-122783181D01*
X123921137Y-122697932D01*
X123840990Y-122642012D01*
X123744913Y-122573253D01*
X123665823Y-122524876D01*
X123623033Y-122507884D01*
X123577018Y-122537658D01*
X123515009Y-122619916D01*
X123442830Y-122744066D01*
X123366303Y-122899513D01*
X123291253Y-123075664D01*
X123248536Y-123189172D01*
X123200095Y-123329425D01*
X123161696Y-123449248D01*
X123138243Y-123532827D01*
X123133333Y-123560625D01*
X122778274Y-123560625D01*
X122801686Y-123531774D01*
X122833457Y-123464548D01*
X122879313Y-123348699D01*
X122933992Y-123199486D01*
X122992232Y-123032167D01*
X123048771Y-122862002D01*
X123098348Y-122704248D01*
X123135701Y-122574166D01*
X123146131Y-122532917D01*
X123153850Y-122466052D01*
X123127264Y-122442455D01*
X123108339Y-122441130D01*
X123027732Y-122460552D01*
X122905141Y-122514406D01*
X122751149Y-122596070D01*
X122576342Y-122698924D01*
X122391304Y-122816346D01*
X122206621Y-122941716D01*
X122032876Y-123068413D01*
X121880656Y-123189816D01*
X121805412Y-123256111D01*
X121674847Y-123412949D01*
X121591187Y-123590492D01*
X121554778Y-123776280D01*
X121200126Y-123776280D01*
X121209179Y-123619958D01*
X121242823Y-123484303D01*
X121296325Y-123359001D01*
X121425508Y-123153334D01*
X121612509Y-122945962D01*
X121848935Y-122743014D01*
X122126397Y-122550616D01*
X122436505Y-122374895D01*
X122770869Y-122221978D01*
X122942862Y-122156576D01*
X123060572Y-122111626D01*
X123147941Y-122072158D01*
X123190886Y-122044774D01*
X123192862Y-122039382D01*
X123177536Y-122001628D01*
X123141093Y-121912872D01*
X123087925Y-121783783D01*
X123022426Y-121625034D01*
X122966986Y-121490825D01*
X122750639Y-120967363D01*
X122605399Y-120989172D01*
X122516625Y-121011321D01*
X122385748Y-121054914D01*
X122231192Y-121113406D01*
X122088412Y-121172797D01*
X121863115Y-121266745D01*
X121665531Y-121338018D01*
X121473394Y-121392757D01*
X121264439Y-121437099D01*
X121016401Y-121477182D01*
X120950000Y-121486651D01*
X120163093Y-121573131D01*
X119412901Y-121606306D01*
X118695284Y-121585622D01*
X118006100Y-121510525D01*
X117341208Y-121380461D01*
X116696467Y-121194874D01*
X116067736Y-120953211D01*
X115702370Y-120783980D01*
X115188073Y-120530584D01*
X115002370Y-120621338D01*
X114875638Y-120687751D01*
X114715323Y-120778671D01*
X114529623Y-120888798D01*
X114326737Y-121012833D01*
X114114865Y-121145476D01*
X113902206Y-121281426D01*
X113696959Y-121415384D01*
X113507324Y-121542051D01*
X113341499Y-121656126D01*
X113207683Y-121752310D01*
X113114076Y-121825302D01*
X113068878Y-121869804D01*
X113067622Y-121871930D01*
X113033266Y-121988443D01*
X112629033Y-121988443D01*
X112651498Y-121834006D01*
X112654247Y-121814816D01*
X112692920Y-121711519D01*
X112770042Y-121606997D01*
X112779018Y-121597865D01*
X112832511Y-121553703D01*
X112934225Y-121477944D01*
X113076759Y-121375791D01*
X113252711Y-121252448D01*
X113454681Y-121113116D01*
X113675267Y-120963001D01*
X113834662Y-120855716D01*
X114059105Y-120705311D01*
X114266370Y-120566368D01*
X114449824Y-120443337D01*
X114602839Y-120340667D01*
X114718781Y-120262807D01*
X114791021Y-120214205D01*
X114812662Y-120199541D01*
X114807979Y-120165383D01*
X114768286Y-120093293D01*
X114701335Y-119996546D01*
X114670897Y-119956763D01*
X114383563Y-119559048D01*
X114148693Y-119160684D01*
X113955136Y-118741054D01*
X113832553Y-118406544D01*
X113662530Y-117793426D01*
X113558634Y-117178464D01*
X113520489Y-116564480D01*
X113547721Y-115954296D01*
X113639953Y-115350732D01*
X113796809Y-114756612D01*
X114017913Y-114174755D01*
X114302889Y-113607985D01*
X114519039Y-113253831D01*
X114738499Y-112918444D01*
X114681611Y-112765004D01*
X114649091Y-112689932D01*
X114590526Y-112567297D01*
X114511503Y-112408294D01*
X114417613Y-112224116D01*
X114314446Y-112025960D01*
X114280006Y-111960709D01*
X114087706Y-111591103D01*
X113926845Y-111264836D01*
X113792953Y-110969002D01*
X113681559Y-110690701D01*
X113588190Y-110417027D01*
X113508376Y-110135077D01*
X113437645Y-109831949D01*
X113371525Y-109494738D01*
X113317532Y-109183263D01*
X113254011Y-108784183D01*
X113205453Y-108437986D01*
X113170818Y-108132757D01*
X113149063Y-107856576D01*
X113144059Y-107725844D01*
X113613155Y-107725844D01*
X113627275Y-108139609D01*
X113657585Y-108531771D01*
X113703732Y-108882461D01*
X113713772Y-108940078D01*
X113738425Y-109076051D01*
X113770847Y-109255574D01*
X113807043Y-109456494D01*
X113843018Y-109656656D01*
X113847294Y-109680487D01*
X113884828Y-109872283D01*
X113927181Y-110060722D01*
X113969580Y-110226118D01*
X114007253Y-110348781D01*
X114013132Y-110364719D01*
X114082044Y-110534199D01*
X114174521Y-110746897D01*
X114284717Y-110990608D01*
X114406787Y-111253126D01*
X114534883Y-111522246D01*
X114663160Y-111785761D01*
X114785772Y-112031466D01*
X114896873Y-112247156D01*
X114990616Y-112420624D01*
X115033358Y-112494785D01*
X115119315Y-112643274D01*
X115191001Y-112775762D01*
X115241957Y-112879655D01*
X115265724Y-112942359D01*
X115266666Y-112949709D01*
X115256826Y-113005592D01*
X115223131Y-113073143D01*
X115159318Y-113161069D01*
X115059126Y-113278074D01*
X114928272Y-113420124D01*
X114728933Y-113670851D01*
X114545175Y-113977271D01*
X114379549Y-114329612D01*
X114234607Y-114718101D01*
X114112901Y-115132963D01*
X114016983Y-115564427D01*
X113949404Y-116002718D01*
X113912718Y-116438063D01*
X113909475Y-116860689D01*
X113936710Y-117217608D01*
X114035002Y-117769295D01*
X114190702Y-118289720D01*
X114401643Y-118776161D01*
X114665661Y-119225899D01*
X114980591Y-119636214D01*
X115344268Y-120004384D01*
X115754526Y-120327691D01*
X116209201Y-120603413D01*
X116706127Y-120828831D01*
X116854229Y-120883151D01*
X117116640Y-120968532D01*
X117373085Y-121038141D01*
X117633631Y-121093178D01*
X117908343Y-121134846D01*
X118207288Y-121164347D01*
X118540531Y-121182882D01*
X118918138Y-121191654D01*
X119350176Y-121191865D01*
X119433333Y-121191098D01*
X119735451Y-121187169D01*
X119981806Y-121181927D01*
X120183296Y-121174722D01*
X120350821Y-121164909D01*
X120495281Y-121151839D01*
X120627574Y-121134865D01*
X120758600Y-121113340D01*
X120766666Y-121111888D01*
X120987084Y-121067552D01*
X121210000Y-121014684D01*
X121425883Y-120956387D01*
X121625204Y-120895765D01*
X121798432Y-120835922D01*
X121936037Y-120779961D01*
X122028490Y-120730987D01*
X122066259Y-120692103D01*
X122066666Y-120688513D01*
X122047716Y-120642493D01*
X121997650Y-120560511D01*
X121926648Y-120459008D01*
X121914409Y-120442566D01*
X121772214Y-120220036D01*
X121677656Y-119987774D01*
X121624142Y-119726576D01*
X121609299Y-119554008D01*
X121612332Y-119437188D01*
X121917924Y-119437188D01*
X121920451Y-119604160D01*
X121929029Y-119725416D01*
X121947276Y-119821946D01*
X121978808Y-119914744D01*
X122014319Y-119996648D01*
X122148179Y-120217557D01*
X122325512Y-120394715D01*
X122512099Y-120507843D01*
X122623222Y-120554793D01*
X122689107Y-120564968D01*
X122721549Y-120530148D01*
X122729203Y-120467715D01*
X123051045Y-120467715D01*
X123061294Y-120698964D01*
X123101336Y-120921692D01*
X123174797Y-121162105D01*
X123214814Y-121270298D01*
X123324128Y-121537924D01*
X123427670Y-121752158D01*
X123532387Y-121925135D01*
X123645229Y-122068991D01*
X123712396Y-122139237D01*
X123814104Y-122237179D01*
X123897016Y-122309809D01*
X123978827Y-122369438D01*
X124077234Y-122428377D01*
X124209935Y-122498936D01*
X124284523Y-122537232D01*
X124622951Y-122692555D01*
X124964363Y-122811028D01*
X125330051Y-122899018D01*
X125683333Y-122955573D01*
X125798940Y-122961268D01*
X125957005Y-122956838D01*
X126134354Y-122943888D01*
X126307815Y-122924022D01*
X126429804Y-122903912D01*
X126734953Y-122816149D01*
X127037112Y-122678678D01*
X127323526Y-122500560D01*
X127581443Y-122290860D01*
X127798110Y-122058639D01*
X127958212Y-121817794D01*
X128063323Y-121593853D01*
X128138045Y-121367386D01*
X128185913Y-121121746D01*
X128210462Y-120840287D01*
X128215684Y-120605387D01*
X128214514Y-120398647D01*
X128208912Y-120241925D01*
X128197188Y-120118539D01*
X128177650Y-120011810D01*
X128148608Y-119905058D01*
X128142774Y-119886248D01*
X128018234Y-119596312D01*
X127835802Y-119321022D01*
X127703780Y-119175486D01*
X128099402Y-119175486D01*
X128246735Y-119448190D01*
X128380582Y-119728642D01*
X128472044Y-120002987D01*
X128523081Y-120285239D01*
X128535654Y-120589410D01*
X128511722Y-120929514D01*
X128483333Y-121139421D01*
X128462135Y-121280899D01*
X128445451Y-121399382D01*
X128435598Y-121478037D01*
X128433931Y-121498226D01*
X128460319Y-121532562D01*
X128532130Y-121536636D01*
X128636184Y-121512007D01*
X128759302Y-121460239D01*
X128760779Y-121459491D01*
X128966190Y-121320115D01*
X129139178Y-121133324D01*
X129277547Y-120909886D01*
X129379103Y-120660565D01*
X129441652Y-120396127D01*
X129463000Y-120127337D01*
X129440951Y-119864960D01*
X129373312Y-119619763D01*
X129257888Y-119402511D01*
X129196110Y-119323864D01*
X129098123Y-119226048D01*
X128992123Y-119140593D01*
X128929380Y-119101397D01*
X128744369Y-119032890D01*
X128552941Y-119006998D01*
X128372786Y-119023589D01*
X128221592Y-119082530D01*
X128186416Y-119106951D01*
X128099402Y-119175486D01*
X127703780Y-119175486D01*
X127603485Y-119064924D01*
X127329292Y-118832569D01*
X127021230Y-118628505D01*
X126687306Y-118457280D01*
X126335529Y-118323443D01*
X125973906Y-118231544D01*
X125610444Y-118186129D01*
X125253151Y-118191749D01*
X125174999Y-118200437D01*
X124790663Y-118267655D01*
X124455723Y-118366437D01*
X124157772Y-118503325D01*
X123884399Y-118684863D01*
X123623195Y-118917594D01*
X123440565Y-119114910D01*
X123308730Y-119298414D01*
X123206869Y-119514182D01*
X123131729Y-119771681D01*
X123080057Y-120080377D01*
X123066963Y-120201738D01*
X123051045Y-120467715D01*
X122729203Y-120467715D01*
X122732341Y-120442113D01*
X122733333Y-120353652D01*
X122764465Y-120001887D01*
X122855157Y-119641181D01*
X123001356Y-119282562D01*
X123199009Y-118937054D01*
X123313387Y-118775919D01*
X123400101Y-118660025D01*
X123451314Y-118583291D01*
X123472620Y-118532315D01*
X123469615Y-118493696D01*
X123447896Y-118454032D01*
X123447832Y-118453934D01*
X123364586Y-118363005D01*
X123243124Y-118271677D01*
X123109379Y-118197717D01*
X123030652Y-118168086D01*
X122804653Y-118133631D01*
X122594727Y-118162293D01*
X122404660Y-118251579D01*
X122238238Y-118398998D01*
X122099248Y-118602055D01*
X121993958Y-118850623D01*
X121954336Y-118989308D01*
X121930670Y-119124623D01*
X121919718Y-119281579D01*
X121917924Y-119437188D01*
X121612332Y-119437188D01*
X121618497Y-119199789D01*
X121681906Y-118866119D01*
X121796792Y-118561151D01*
X121960421Y-118293034D01*
X122078202Y-118155962D01*
X122237225Y-118006924D01*
X122382580Y-117907431D01*
X122533441Y-117848932D01*
X122708981Y-117822879D01*
X122833333Y-117819265D01*
X123014570Y-117828418D01*
X123170546Y-117860562D01*
X123318801Y-117922863D01*
X123476876Y-118022493D01*
X123641490Y-118149553D01*
X123737290Y-118224450D01*
X123814563Y-118278936D01*
X123857846Y-118302176D01*
X123859612Y-118302365D01*
X123906634Y-118288433D01*
X123999094Y-118251032D01*
X124122905Y-118196761D01*
X124263983Y-118132214D01*
X124408241Y-118063987D01*
X124541594Y-117998676D01*
X124649956Y-117942877D01*
X124719241Y-117903187D01*
X124732488Y-117893619D01*
X124791413Y-117809079D01*
X124844631Y-117666057D01*
X124890829Y-117472680D01*
X124928694Y-117237077D01*
X124956913Y-116967373D01*
X124974174Y-116671697D01*
X124979199Y-116366491D01*
X124977086Y-116137376D01*
X124971616Y-115957083D01*
X124961091Y-115807705D01*
X124943811Y-115671329D01*
X124918079Y-115530046D01*
X124885829Y-115381866D01*
X124746226Y-114888098D01*
X124552849Y-114402353D01*
X124302888Y-113919246D01*
X123993535Y-113433394D01*
X123621981Y-112939410D01*
X123593470Y-112904264D01*
X123444254Y-112740273D01*
X123253284Y-112559341D01*
X123032937Y-112370812D01*
X122795587Y-112184026D01*
X122553611Y-112008328D01*
X122319384Y-111853060D01*
X122105282Y-111727563D01*
X121923681Y-111641181D01*
X121916666Y-111638439D01*
X121734974Y-111556911D01*
X121606718Y-111468529D01*
X121529216Y-111364786D01*
X121499783Y-111237174D01*
X121515734Y-111077185D01*
X121574385Y-110876313D01*
X121630021Y-110729974D01*
X121705928Y-110536712D01*
X121761492Y-110379675D01*
X121803695Y-110234321D01*
X121839518Y-110076104D01*
X121875939Y-109880482D01*
X121882776Y-109841261D01*
X121949398Y-109381026D01*
X121996600Y-108890620D01*
X122024435Y-108383310D01*
X122032957Y-107872366D01*
X122022218Y-107371054D01*
X121992273Y-106892644D01*
X121943173Y-106450403D01*
X121874973Y-106057600D01*
X121867461Y-106023152D01*
X121739500Y-105547806D01*
X121576716Y-105110544D01*
X121382055Y-104716911D01*
X121158466Y-104372448D01*
X120908895Y-104082700D01*
X120767012Y-103953144D01*
X120573299Y-103803763D01*
X120407713Y-103706283D01*
X120259540Y-103658353D01*
X120118065Y-103657619D01*
X119972576Y-103701730D01*
X119866985Y-103755506D01*
X119641909Y-103913277D01*
X119445481Y-104113493D01*
X119275753Y-104359972D01*
X119130782Y-104656534D01*
X119008619Y-105006998D01*
X118907320Y-105415184D01*
X118843401Y-105764410D01*
X118827045Y-105877102D01*
X118813861Y-105995324D01*
X118803531Y-106127575D01*
X118795740Y-106282354D01*
X118790171Y-106468160D01*
X118786508Y-106693492D01*
X118784435Y-106966849D01*
X118783635Y-107296730D01*
X118783600Y-107371353D01*
X118788279Y-107955118D01*
X118802281Y-108512935D01*
X118825170Y-109038944D01*
X118856507Y-109527288D01*
X118895853Y-109972109D01*
X118942773Y-110367546D01*
X118996828Y-110707743D01*
X119052118Y-110965444D01*
X119087174Y-111114424D01*
X119114509Y-111248704D01*
X119130362Y-111348835D01*
X119132822Y-111382658D01*
X119130048Y-111450318D01*
X119116540Y-111500000D01*
X119083259Y-111534732D01*
X119021163Y-111557543D01*
X118921212Y-111571460D01*
X118774366Y-111579511D01*
X118571584Y-111584724D01*
X118526849Y-111585627D01*
X118332372Y-111589650D01*
X118151622Y-111593674D01*
X117999440Y-111597349D01*
X117890667Y-111600322D01*
X117853949Y-111601562D01*
X117746297Y-111589644D01*
X117670321Y-111538553D01*
X117620077Y-111440205D01*
X117589622Y-111286513D01*
X117584002Y-111234276D01*
X117561823Y-111034484D01*
X117528622Y-110782192D01*
X117486523Y-110490343D01*
X117437651Y-110171879D01*
X117384130Y-109839744D01*
X117328085Y-109506881D01*
X117271642Y-109186233D01*
X117216923Y-108890743D01*
X117166056Y-108633353D01*
X117128141Y-108457311D01*
X116986276Y-107891054D01*
X116826171Y-107356699D01*
X116650314Y-106860362D01*
X116461197Y-106408157D01*
X116261307Y-106006198D01*
X116053134Y-105660599D01*
X115908300Y-105461138D01*
X115778573Y-105322748D01*
X115607323Y-105176332D01*
X115415205Y-105037956D01*
X115222868Y-104923685D01*
X115206744Y-104915381D01*
X115005370Y-104841725D01*
X114795745Y-104815098D01*
X114597339Y-104836375D01*
X114471398Y-104882339D01*
X114324127Y-104985313D01*
X114182033Y-105133762D01*
X114062810Y-105307596D01*
X114017229Y-105397929D01*
X113945221Y-105577607D01*
X113870691Y-105791397D01*
X113799656Y-106019184D01*
X113738136Y-106240855D01*
X113692148Y-106436294D01*
X113671462Y-106553613D01*
X113634897Y-106912978D01*
X113615579Y-107310344D01*
X113613155Y-107725844D01*
X113144059Y-107725844D01*
X113139147Y-107597527D01*
X113140029Y-107343692D01*
X113144635Y-107204467D01*
X113184425Y-106682547D01*
X113256888Y-106211537D01*
X113361289Y-105792623D01*
X113496893Y-105426992D01*
X113662963Y-105115831D01*
X113858766Y-104860327D01*
X114083564Y-104661667D01*
X114336622Y-104521037D01*
X114617206Y-104439625D01*
X114871488Y-104417873D01*
X115158412Y-104450325D01*
X115437495Y-104548448D01*
X115708162Y-104711554D01*
X115969835Y-104938959D01*
X116221937Y-105229974D01*
X116463892Y-105583915D01*
X116695123Y-106000095D01*
X116915052Y-106477826D01*
X117123104Y-107016423D01*
X117171115Y-107154402D01*
X117320975Y-107627920D01*
X117465800Y-108150722D01*
X117601825Y-108705350D01*
X117725281Y-109274347D01*
X117832402Y-109840253D01*
X117919421Y-110385611D01*
X117982569Y-110892963D01*
X117986774Y-110934362D01*
X118009206Y-111159658D01*
X118179603Y-111159472D01*
X118310779Y-111151821D01*
X118439244Y-111132801D01*
X118479363Y-111123319D01*
X118608726Y-111087353D01*
X118585849Y-110764701D01*
X118575694Y-110630226D01*
X118560869Y-110445529D01*
X118542726Y-110226870D01*
X118522617Y-109990508D01*
X118501892Y-109752703D01*
X118499392Y-109724441D01*
X118447261Y-109067596D01*
X118409218Y-108436434D01*
X118385342Y-107837124D01*
X118375706Y-107275831D01*
X118380388Y-106758726D01*
X118399463Y-106291974D01*
X118433006Y-105881745D01*
X118450358Y-105735873D01*
X118536386Y-105232581D01*
X118655361Y-104776630D01*
X118806051Y-104370307D01*
X118987226Y-104015901D01*
X119197653Y-103715700D01*
X119436101Y-103471990D01*
X119701339Y-103287061D01*
X119794329Y-103239420D01*
X119921474Y-103184576D01*
X120021011Y-103157690D01*
X120122711Y-103152732D01*
X120197315Y-103157790D01*
G37*
D14*
%TO.C,GND_T4*%
X184250000Y-68000000D02*
G75*
G02*
X180750000Y-68000000I-1750000J0D01*
G01*
X180750000Y-68000000D02*
G75*
G02*
X184250000Y-68000000I1750000J0D01*
G01*
%TO.C,LOWDR_T4*%
X177250000Y-68000000D02*
G75*
G02*
X173750000Y-68000000I-1750000J0D01*
G01*
X173750000Y-68000000D02*
G75*
G02*
X177250000Y-68000000I1750000J0D01*
G01*
%TO.C,Q2*%
X144850000Y-95740000D02*
X155070000Y-95740000D01*
X144850000Y-97120000D02*
X155070000Y-97120000D01*
X144850000Y-100360000D02*
X144850000Y-95740000D01*
X148110000Y-95740000D02*
X148110000Y-97120000D01*
X151810000Y-95740000D02*
X151810000Y-97120000D01*
X155070000Y-95740000D02*
X155070000Y-100360000D01*
X155070000Y-100360000D02*
X144850000Y-100360000D01*
%TO.C,R5*%
X134765000Y-102460000D02*
X134765000Y-103230000D01*
X134765000Y-110540000D02*
X134765000Y-109770000D01*
X133395000Y-109770000D02*
X136135000Y-109770000D01*
X136135000Y-103230000D01*
X133395000Y-103230000D01*
X133395000Y-109770000D01*
%TO.C,C3*%
X124495000Y-100580000D02*
X128535000Y-100580000D01*
X124495000Y-101301000D02*
X124495000Y-100580000D01*
X124495000Y-103420000D02*
X124495000Y-102699000D01*
X128535000Y-100580000D02*
X128535000Y-101301000D01*
X128535000Y-102699000D02*
X128535000Y-103420000D01*
X128535000Y-103420000D02*
X124495000Y-103420000D01*
%TO.C,Vout_T6*%
X214250000Y-87500000D02*
G75*
G02*
X210750000Y-87500000I-1750000J0D01*
G01*
X210750000Y-87500000D02*
G75*
G02*
X214250000Y-87500000I1750000J0D01*
G01*
%TO.C,PWM_T3*%
X157250000Y-68000000D02*
G75*
G02*
X153750000Y-68000000I-1750000J0D01*
G01*
X153750000Y-68000000D02*
G75*
G02*
X157250000Y-68000000I1750000J0D01*
G01*
%TO.C,IC2*%
X134690000Y-91805000D02*
X132740000Y-91805000D01*
X134690000Y-91805000D02*
X136640000Y-91805000D01*
X134690000Y-96925000D02*
X132740000Y-96925000D01*
X134690000Y-96925000D02*
X136640000Y-96925000D01*
X131990000Y-91900000D02*
X131750000Y-91570000D01*
X132230000Y-91570000D01*
X131990000Y-91900000D01*
G36*
X131990000Y-91900000D02*
G01*
X131750000Y-91570000D01*
X132230000Y-91570000D01*
X131990000Y-91900000D01*
G37*
%TO.C,R2*%
X139725000Y-135500000D02*
X140495000Y-135500000D01*
X147805000Y-135500000D02*
X147035000Y-135500000D01*
X140495000Y-134130000D02*
X147035000Y-134130000D01*
X147035000Y-136870000D01*
X140495000Y-136870000D01*
X140495000Y-134130000D01*
%TO.C,C6*%
X162080000Y-81730000D02*
X162801000Y-81730000D01*
X162080000Y-85770000D02*
X162080000Y-81730000D01*
X162801000Y-85770000D02*
X162080000Y-85770000D01*
X164199000Y-81730000D02*
X164920000Y-81730000D01*
X164920000Y-81730000D02*
X164920000Y-85770000D01*
X164920000Y-85770000D02*
X164199000Y-85770000D01*
%TD*%
M02*
