M48
; DRILL file {KiCad 9.0.4} date 2025-10-20T13:28:36-0500
; FORMAT={-:-/ absolute / metric / decimal}
; #@! TF.CreationDate,2025-10-20T13:28:36-05:00
; #@! TF.GenerationSoftware,Kicad,Pcbnew,9.0.4
; #@! TF.FileFunction,Plated,1,2,PTH
FMAT,2
METRIC
; #@! TA.AperFunction,Plated,PTH,ViaDrill
T1C0.300
; #@! TA.AperFunction,Plated,PTH,ComponentDrill
T2C0.800
; #@! TA.AperFunction,Plated,PTH,ComponentDrill
T3C0.890
; #@! TA.AperFunction,Plated,PTH,ComponentDrill
T4C1.100
; #@! TA.AperFunction,Plated,PTH,ComponentDrill
T5C1.200
; #@! TA.AperFunction,Plated,PTH,ComponentDrill
T6C1.400
; #@! TA.AperFunction,Plated,PTH,ComponentDrill
T7C1.600
; #@! TA.AperFunction,Plated,PTH,ComponentDrill
T8C2.010
; #@! TA.AperFunction,Plated,PTH,ViaDrill
T9C3.400
%
G90
G05
T1
X122.5Y-101.55
X127.5Y-89.0
X129.5Y-96.0
X129.5Y-100.0
X130.313Y-86.5
X132.0Y-93.5
X132.0Y-95.0
X137.0Y-95.0
X137.265Y-92.46
X153.0Y-135.5
X161.0Y-130.0
X169.5Y-129.0
X173.0Y-120.0
X183.0Y-102.5
T2
X125.265Y-102.0
X127.25Y-84.0
X127.765Y-102.0
X129.75Y-84.0
X134.765Y-101.42
X134.765Y-111.58
X137.5Y-77.5
X137.5Y-87.66
X138.605Y-128.5
X138.685Y-135.5
X144.5Y-88.25
X144.5Y-90.75
X148.765Y-128.5
X148.845Y-135.5
X163.5Y-82.5
X163.5Y-85.0
X169.0Y-131.25
X169.0Y-133.75
X173.0Y-82.5
X173.0Y-85.0
X181.278Y-96.75
X181.278Y-99.25
T3
X95.38Y-74.58
X97.92Y-74.58
T4
X147.42Y-99.0
X149.96Y-99.0
X152.05Y-82.46
X152.05Y-85.0
X152.05Y-87.54
X152.5Y-99.0
T5
X143.02Y-117.0
X166.0Y-98.0
X166.0Y-102.0
X171.0Y-98.0
X171.0Y-102.0
X173.5Y-117.0
T6
X102.277Y-93.0
X102.277Y-98.0
X102.777Y-115.0
X102.777Y-120.0
X190.722Y-97.5
X190.722Y-102.5
T7
X116.0Y-68.0
X119.5Y-139.0
X123.0Y-68.0
X128.0Y-139.0
X134.5Y-68.0
X142.0Y-68.0
X155.5Y-68.0
X162.5Y-68.0
X175.5Y-68.0
X182.5Y-68.0
X194.5Y-68.0
X202.0Y-68.0
X212.5Y-87.5
X212.5Y-94.5
X213.0Y-111.0
X213.0Y-118.0
T8
X92.84Y-69.5
X103.0Y-69.5
T9
X83.5Y-65.5
X84.0Y-140.5
X217.5Y-140.0
X218.0Y-65.5
M30
