%TF.GenerationSoftware,KiCad,Pcbnew,9.0.4*%
%TF.CreationDate,2025-10-20T13:27:51-05:00*%
%TF.ProjectId,Lab 7 Custom PCB Buck Converter,4c616220-3720-4437-9573-746f6d205043,rev?*%
%TF.SameCoordinates,Original*%
%TF.FileFunction,Soldermask,Bot*%
%TF.FilePolarity,Negative*%
%FSLAX46Y46*%
G04 Gerber Fmt 4.6, Leading zero omitted, Abs format (unit mm)*
G04 Created by KiCad (PCBNEW 9.0.4) date 2025-10-20 13:27:51*
%MOMM*%
%LPD*%
G01*
G04 APERTURE LIST*
G04 Aperture macros list*
%AMRoundRect*
0 Rectangle with rounded corners*
0 $1 Rounding radius*
0 $2 $3 $4 $5 $6 $7 $8 $9 X,Y pos of 4 corners*
0 Add a 4 corners polygon primitive as box body*
4,1,4,$2,$3,$4,$5,$6,$7,$8,$9,$2,$3,0*
0 Add four circle primitives for the rounded corners*
1,1,$1+$1,$2,$3*
1,1,$1+$1,$4,$5*
1,1,$1+$1,$6,$7*
1,1,$1+$1,$8,$9*
0 Add four rect primitives between the rounded corners*
20,1,$1+$1,$2,$3,$4,$5,0*
20,1,$1+$1,$4,$5,$6,$7,0*
20,1,$1+$1,$6,$7,$8,$9,0*
20,1,$1+$1,$8,$9,$2,$3,0*%
G04 Aperture macros list end*
%ADD10RoundRect,0.250000X-1.550000X0.750000X-1.550000X-0.750000X1.550000X-0.750000X1.550000X0.750000X0*%
%ADD11O,3.600000X2.000000*%
%ADD12C,1.600000*%
%ADD13R,2.000000X1.905000*%
%ADD14O,2.000000X1.905000*%
%ADD15C,2.800000*%
%ADD16RoundRect,0.250000X1.550000X-0.750000X1.550000X0.750000X-1.550000X0.750000X-1.550000X-0.750000X0*%
%ADD17R,1.800000X1.800000*%
%ADD18C,1.800000*%
%ADD19O,1.600000X2.500000*%
%ADD20O,3.500000X7.000000*%
%ADD21C,2.400000*%
%ADD22R,1.905000X2.000000*%
%ADD23O,1.905000X2.000000*%
%ADD24C,0.600000*%
%ADD25C,4.000000*%
G04 APERTURE END LIST*
D10*
%TO.C,10VD1*%
X102777500Y-115000000D03*
D11*
X102777500Y-120000000D03*
%TD*%
D12*
%TO.C,C4*%
X169000000Y-131250000D03*
X169000000Y-133750000D03*
%TD*%
%TO.C,C5*%
X129750000Y-84000000D03*
X127250000Y-84000000D03*
%TD*%
D10*
%TO.C,Vin1*%
X102277500Y-93000000D03*
D11*
X102277500Y-98000000D03*
%TD*%
D13*
%TO.C,Q1*%
X152050000Y-82460000D03*
D14*
X152050000Y-85000000D03*
X152050000Y-87540000D03*
%TD*%
D15*
%TO.C,GND_T7*%
X213000000Y-118000000D03*
%TD*%
%TO.C,Vin_T1*%
X116000000Y-68000000D03*
%TD*%
%TO.C,GND_T6*%
X212500000Y-94500000D03*
%TD*%
D12*
%TO.C,C2*%
X181277500Y-99250000D03*
X181277500Y-96750000D03*
%TD*%
%TO.C,C7*%
X173000000Y-85000000D03*
X173000000Y-82500000D03*
%TD*%
D15*
%TO.C,10V_T2*%
X134500000Y-68000000D03*
%TD*%
%TO.C,GND_T5*%
X202000000Y-68000000D03*
%TD*%
D12*
%TO.C,R4*%
X137500000Y-87660000D03*
X137500000Y-77500000D03*
%TD*%
D15*
%TO.C,LOW_Vds_T5*%
X194500000Y-68000000D03*
%TD*%
D16*
%TO.C,Vout1*%
X190722500Y-102500000D03*
D11*
X190722500Y-97500000D03*
%TD*%
D15*
%TO.C,OPAMP_OUT_T8*%
X119500000Y-139000000D03*
%TD*%
%TO.C,GND_T8*%
X128000000Y-139000000D03*
%TD*%
D12*
%TO.C,C1*%
X144500000Y-90750000D03*
X144500000Y-88250000D03*
%TD*%
D15*
%TO.C,GND_T3*%
X162500000Y-68000000D03*
%TD*%
%TO.C,V_1l_T7*%
X213000000Y-111000000D03*
%TD*%
D17*
%TO.C,L1*%
X166000000Y-102000000D03*
D18*
X171000000Y-102000000D03*
X166000000Y-98000000D03*
X171000000Y-98000000D03*
%TD*%
D15*
%TO.C,GND_T2*%
X142000000Y-68000000D03*
%TD*%
D19*
%TO.C,PWM1*%
X97920000Y-74580000D03*
D20*
X92840000Y-69500000D03*
D19*
X95380000Y-74580000D03*
D20*
X103000000Y-69500000D03*
%TD*%
D21*
%TO.C,R1*%
X143020000Y-117000000D03*
X173500000Y-117000000D03*
%TD*%
D15*
%TO.C,GND_T1*%
X123000000Y-68000000D03*
%TD*%
D12*
%TO.C,R3*%
X138605000Y-128500000D03*
X148765000Y-128500000D03*
%TD*%
D15*
%TO.C,GND_T4*%
X182500000Y-68000000D03*
%TD*%
%TO.C,LOWDR_T4*%
X175500000Y-68000000D03*
%TD*%
D22*
%TO.C,Q2*%
X147420000Y-99000000D03*
D23*
X149960000Y-99000000D03*
X152500000Y-99000000D03*
%TD*%
D12*
%TO.C,R5*%
X134765000Y-111580000D03*
X134765000Y-101420000D03*
%TD*%
%TO.C,C3*%
X125265000Y-102000000D03*
X127765000Y-102000000D03*
%TD*%
D15*
%TO.C,Vout_T6*%
X212500000Y-87500000D03*
%TD*%
%TO.C,PWM_T3*%
X155500000Y-68000000D03*
%TD*%
D12*
%TO.C,R2*%
X138685000Y-135500000D03*
X148845000Y-135500000D03*
%TD*%
%TO.C,C6*%
X163500000Y-85000000D03*
X163500000Y-82500000D03*
%TD*%
D24*
X161000000Y-130000000D03*
X132000000Y-93500000D03*
X129500000Y-96000000D03*
X137000000Y-95000000D03*
X132000000Y-95000000D03*
X183000000Y-102500000D03*
D25*
X84000000Y-140500000D03*
X218000000Y-65500000D03*
X217500000Y-140000000D03*
X83500000Y-65500000D03*
D24*
X129500000Y-100000000D03*
X169500000Y-129000000D03*
X122500000Y-101550000D03*
X153000000Y-135500000D03*
X173000000Y-120000000D03*
X127500000Y-89000000D03*
X130313000Y-86500000D03*
X137265000Y-92460000D03*
M02*
